<svg width="858" height="671" viewBox="0 0 858 671" fill="none" xmlns="http://www.w3.org/2000/svg">
<path d="M439.757 154.441H254.046C251.199 154.441 248.984 152.228 248.984 149.383V41.2689C248.984 38.4238 251.199 36.2109 254.046 36.2109H439.757C442.604 36.2109 444.818 38.4238 444.818 41.2689V149.225C444.818 152.07 442.446 154.441 439.757 154.441Z" stroke="#C0CCD8" stroke-miterlimit="10"/>
<path d="M248.984 57.7073H444.818" stroke="#C0CCD8" stroke-miterlimit="10"/>
<path d="M261.639 50.2785C263.387 50.2785 264.803 48.8632 264.803 47.1173C264.803 45.3714 263.387 43.9561 261.639 43.9561C259.892 43.9561 258.476 45.3714 258.476 47.1173C258.476 48.8632 259.892 50.2785 261.639 50.2785Z" stroke="#C0CCD8" stroke-miterlimit="10"/>
<path d="M277.616 47.1173C277.616 48.856 276.193 50.2785 274.453 50.2785C272.713 50.2785 271.289 48.856 271.289 47.1173C271.289 45.3786 272.713 43.9561 274.453 43.9561C276.193 43.9561 277.616 45.3786 277.616 47.1173Z" stroke="#C0CCD8" stroke-miterlimit="10"/>
<path d="M290.587 47.1173C290.587 48.856 289.164 50.2785 287.423 50.2785C285.683 50.2785 284.26 48.856 284.26 47.1173C284.26 45.3786 285.683 43.9561 287.423 43.9561C289.164 43.9561 290.587 45.3786 290.587 47.1173Z" stroke="#C0CCD8" stroke-miterlimit="10"/>
<path d="M146.322 166.77H192.671C197.1 166.77 200.738 163.134 200.738 158.709V112.397C200.738 107.971 197.1 104.335 192.671 104.335H146.322C141.893 104.335 138.255 107.971 138.255 112.397V158.709C138.255 163.134 141.893 166.77 146.322 166.77Z" stroke="#C0CCD8" stroke-miterlimit="10" stroke-linejoin="round"/>
<path d="M169.418 153.334C179.29 153.334 187.293 145.338 187.293 135.473C187.293 125.609 179.29 117.613 169.418 117.613C159.546 117.613 151.543 125.609 151.543 135.473C151.543 145.338 159.546 153.334 169.418 153.334Z" stroke="#C0CCD8" stroke-width="3" stroke-miterlimit="10"/>
<path d="M181.598 122.987L156.288 148.118" stroke="#C0CCD8" stroke-width="3" stroke-miterlimit="10"/>
<path d="M615.027 152.544L602.055 139.109H402.583C393.25 139.109 385.657 131.522 385.657 122.196V18.6662C385.657 9.3406 393.25 1.75366 402.583 1.75366H603.005C612.338 1.75366 619.93 9.3406 619.93 18.6662V150.647C619.772 153.176 616.767 154.441 615.027 152.544Z" fill="white" stroke="#C0CCD8" stroke-miterlimit="10" stroke-linejoin="round"/>
<path d="M465.858 92.797H457.157V107.813H436.435V92.797H405.431V77.307L437.859 29.8887H457.157V76.9909H465.699V92.797H465.858ZM436.435 77.149V68.1395C436.435 66.4008 436.435 64.1879 436.593 61.1848C436.751 58.3397 436.751 56.7591 436.91 56.601H436.277C435.011 59.2881 433.746 61.817 432.164 64.346L423.464 77.149H436.435Z" fill="#12004C"/>
<path d="M530.714 69.0877C530.714 82.8391 528.341 92.955 523.753 99.4355C519.166 105.916 512.048 109.077 502.557 109.077C493.224 109.077 486.263 105.758 481.518 98.9613C476.772 92.3227 474.399 82.3649 474.399 69.0877C474.399 55.1783 476.772 45.0624 481.36 38.5819C485.947 32.1014 493.065 28.9402 502.557 28.9402C511.889 28.9402 518.85 32.2595 523.595 39.0561C528.341 45.6947 530.714 55.8106 530.714 69.0877ZM495.438 69.0877C495.438 77.9392 495.913 83.9455 497.02 87.2648C498.127 90.584 500.026 92.1647 502.557 92.1647C505.246 92.1647 506.986 90.426 508.093 87.1067C509.2 83.6294 509.675 77.623 509.675 69.0877C509.675 60.3944 509.2 54.388 508.093 50.9107C506.986 47.4333 505.087 45.6947 502.557 45.6947C500.026 45.6947 498.127 47.4333 497.02 50.7526C495.913 54.0719 495.438 60.2363 495.438 69.0877Z" fill="#12004C"/>
<path d="M599.999 92.797H591.457V107.813H570.735V92.797H539.73V77.307L572.159 29.8887H591.615V76.9909H600.157V92.797H599.999ZM570.735 77.149V68.1395C570.735 66.4008 570.735 64.1879 570.893 61.1848C571.051 58.3397 571.051 56.7591 571.209 56.601H570.577C569.311 59.2881 568.046 61.817 566.464 64.346L557.764 77.149H570.735Z" fill="#12004C"/>
<path d="M802.951 348.54H849.3C853.729 348.54 857.367 344.904 857.367 340.479V294.167C857.367 289.741 853.729 286.106 849.3 286.106H802.951C798.522 286.106 794.884 289.741 794.884 294.167V340.479C794.726 344.904 798.364 348.54 802.951 348.54Z" stroke="#C0CCD8" stroke-miterlimit="10" stroke-linejoin="round"/>
<path d="M846.137 334.947C845.978 335.105 845.662 335.105 845.346 335.105H806.59C805.799 335.105 805.008 334.63 804.692 333.998C804.217 333.366 804.217 332.418 804.692 331.785L824.149 298.276C824.623 297.644 825.256 297.17 826.047 297.17C826.838 297.17 827.629 297.644 827.945 298.276L847.402 331.785C847.877 332.418 847.877 333.366 847.402 333.998C847.086 334.314 846.611 334.63 846.137 334.947ZM807.697 332.101H844.396L826.047 300.331L807.697 332.101Z" fill="#C0CCD8"/>
<path d="M826.047 325.463C825.256 325.463 824.781 324.831 824.623 324.198L823.832 310.921C823.832 309.657 824.781 308.708 826.047 308.708C827.312 308.708 828.261 309.657 828.261 310.921L827.47 324.198C827.312 324.831 826.838 325.463 826.047 325.463Z" fill="#C0CCD8"/>
<path d="M827.47 328.624C827.47 329.415 826.838 330.047 826.047 330.047C825.256 330.047 824.623 329.415 824.623 328.624C824.623 327.834 825.256 327.202 826.047 327.202C826.838 327.202 827.47 327.834 827.47 328.624Z" fill="#C0CCD8"/>
<path d="M7.9094 236.949C7.9094 238.846 6.32754 240.426 4.42931 240.426C2.53108 240.426 0.949219 238.846 0.949219 236.949C0.949219 235.052 2.53108 233.471 4.42931 233.471C6.32754 233.471 7.9094 235.052 7.9094 236.949Z" stroke="#C0CCD8" stroke-miterlimit="10" stroke-linecap="round" stroke-linejoin="round"/>
<path d="M599.999 424.725C599.999 426.622 598.417 428.203 596.519 428.203C594.621 428.203 593.039 426.622 593.039 424.725C593.039 422.829 594.621 421.248 596.519 421.248C598.417 421.248 599.999 422.829 599.999 424.725Z" stroke="#C0CCD8" stroke-miterlimit="10" stroke-linecap="round" stroke-linejoin="round"/>
<path d="M842.34 135.473C842.34 137.37 840.758 138.951 838.86 138.951C836.962 138.951 835.38 137.37 835.38 135.473C835.38 133.577 836.962 131.996 838.86 131.996C840.758 131.996 842.34 133.577 842.34 135.473Z" stroke="#C0CCD8" stroke-miterlimit="10" stroke-linecap="round" stroke-linejoin="round"/>
<path d="M652.042 26.5694C652.042 28.4661 650.46 30.0467 648.562 30.0467C646.664 30.0467 645.082 28.4661 645.082 26.5694C645.082 24.6727 646.664 23.092 648.562 23.092C650.46 23.092 652.042 24.6727 652.042 26.5694Z" stroke="#C0CCD8" stroke-miterlimit="10" stroke-linecap="round" stroke-linejoin="round"/>
<path d="M835.221 250.7V261.606" stroke="#C0CCD8" stroke-miterlimit="10" stroke-linecap="round" stroke-linejoin="round"/>
<path d="M840.599 256.232H829.685" stroke="#C0CCD8" stroke-miterlimit="10" stroke-linecap="round" stroke-linejoin="round"/>
<path d="M549.854 460.921V471.828" stroke="#C0CCD8" stroke-miterlimit="10" stroke-linecap="round" stroke-linejoin="round"/>
<path d="M555.39 466.295H544.476" stroke="#C0CCD8" stroke-miterlimit="10" stroke-linecap="round" stroke-linejoin="round"/>
<path d="M319.061 6.49561V17.4018" stroke="#C0CCD8" stroke-miterlimit="10" stroke-linecap="round" stroke-linejoin="round"/>
<path d="M324.439 12.0278H313.524" stroke="#C0CCD8" stroke-miterlimit="10" stroke-linecap="round" stroke-linejoin="round"/>
<path d="M74.6631 111.922V122.829" stroke="#C0CCD8" stroke-miterlimit="10" stroke-linecap="round" stroke-linejoin="round"/>
<path d="M80.2 117.296H69.2852" stroke="#C0CCD8" stroke-miterlimit="10" stroke-linecap="round" stroke-linejoin="round"/>
<path d="M56.9463 363.082V373.988" stroke="#C0CCD8" stroke-miterlimit="10" stroke-linecap="round" stroke-linejoin="round"/>
<path d="M62.325 368.456H51.4102" stroke="#C0CCD8" stroke-miterlimit="10" stroke-linecap="round" stroke-linejoin="round"/>
<path d="M675.611 68.2974V79.2036" stroke="#C0CCD8" stroke-miterlimit="10" stroke-linecap="round" stroke-linejoin="round"/>
<path d="M681.148 73.6714H670.233" stroke="#C0CCD8" stroke-miterlimit="10" stroke-linecap="round" stroke-linejoin="round"/>
<path d="M138.096 300.963H28.9479C27.0496 300.963 25.4678 299.383 25.4678 297.486C25.4678 295.589 27.0496 294.009 28.9479 294.009H138.254C140.153 294.009 141.734 295.589 141.734 297.486C141.576 299.383 139.994 300.963 138.096 300.963Z" stroke="#C0CCD8" stroke-miterlimit="10"/>
<path d="M781.28 213.714H671.973C670.075 213.714 668.493 212.133 668.493 210.236C668.493 208.34 670.075 206.759 671.973 206.759H781.28C783.178 206.759 784.76 208.34 784.76 210.236C784.76 212.291 783.178 213.714 781.28 213.714Z" stroke="#C0CCD8" stroke-miterlimit="10"/>
<path d="M797.257 236.949H756.92C755.971 236.949 755.18 236.158 755.18 235.21C755.18 234.262 755.971 233.471 756.92 233.471H797.257C798.206 233.471 798.997 234.262 798.997 235.21C798.997 236.158 798.206 236.949 797.257 236.949Z" fill="#C0CCD8"/>
<path d="M690.324 154.757H649.986C649.037 154.757 648.246 153.967 648.246 153.018C648.246 152.07 649.037 151.28 649.986 151.28H690.324C691.273 151.28 692.064 152.07 692.064 153.018C692.064 153.967 691.273 154.757 690.324 154.757Z" fill="#C0CCD8"/>
<path d="M97.6009 270.458H66.5965C65.6474 270.458 64.8564 269.667 64.8564 268.719C64.8564 267.771 65.6474 266.98 66.5965 266.98H97.4427C98.3918 266.98 99.1828 267.771 99.1828 268.719C99.1828 269.667 98.55 270.458 97.6009 270.458Z" fill="#C0CCD8"/>
<path d="M721.011 118.087H754.388C757.552 118.087 760.241 115.4 760.241 112.238V78.8876C760.241 75.7263 757.552 73.0393 754.388 73.0393H721.011C717.847 73.0393 715.158 75.7263 715.158 78.8876V112.238C715.158 115.4 717.689 118.087 721.011 118.087Z" stroke="#C0CCD8" stroke-miterlimit="10" stroke-linejoin="round"/>
<path d="M744.106 93.5872L743.316 97.5387H747.587V101.016H742.683L741.417 107.813H737.779L739.045 101.016H734.299L733.033 107.813H729.395L730.661 101.016H726.706V97.5387H731.293L732.084 93.5872H727.813V90.1099H732.717L733.983 83.3132H737.621L736.355 90.1099H741.101L742.366 83.3132H746.005L744.739 90.1099H748.694V93.5872H744.106ZM734.932 97.5387H739.677L740.468 93.5872H735.723L734.932 97.5387Z" fill="#C0CCD8"/>
<path d="M357.499 430.099L325.862 222.249H183.021L217.189 442.428C219.561 457.286 231.9 467.876 247.402 467.876H487.528L489.268 447.644H378.38C367.782 447.802 359.081 440.532 357.499 430.099Z" fill="#475577"/>
<path d="M222.409 430.099L191.879 229.994C191.247 225.41 187.45 222.249 182.863 222.249H182.546C176.061 222.249 170.682 228.413 171.632 234.578L203.901 442.428C206.274 457.286 218.613 467.876 234.115 467.876H388.821L390.561 447.644H243.29C232.533 447.802 223.833 440.532 222.409 430.099Z" fill="#717A91"/>
<path d="M319.061 468.034V581.522" stroke="#544943" stroke-width="1.5" stroke-miterlimit="10"/>
<path d="M255.312 591.48C255.312 585.948 259.741 581.522 265.277 581.522H372.527C378.064 581.522 382.493 585.948 382.493 591.48" stroke="#544943" stroke-width="1.5" stroke-miterlimit="10"/>
<path d="M307.987 591.48C307.987 585.948 312.417 581.522 317.953 581.522" stroke="#544943" stroke-width="1.5" stroke-miterlimit="10"/>
<path d="M265.435 601.596C265.435 607.128 260.848 611.712 255.311 611.712C249.775 611.712 245.188 607.128 245.188 601.596C245.188 596.064 249.775 591.48 255.311 591.48C261.006 591.48 265.435 596.064 265.435 601.596Z" fill="#717A91"/>
<g opacity="0.45">
<path d="M259.108 601.596C259.108 603.651 257.368 605.389 255.311 605.389C253.255 605.389 251.515 603.651 251.515 601.596C251.515 599.541 253.255 597.802 255.311 597.802C257.368 597.802 259.108 599.541 259.108 601.596Z" fill="#8E9DB2"/>
</g>
<path d="M318.111 601.596C318.111 607.128 313.524 611.712 307.987 611.712C302.451 611.712 297.863 607.128 297.863 601.596C297.863 596.064 302.451 591.48 307.987 591.48C313.682 591.48 318.111 596.064 318.111 601.596Z" fill="#717A91"/>
<g opacity="0.45">
<path d="M311.783 601.596C311.783 603.651 310.043 605.389 307.987 605.389C305.93 605.389 304.19 603.651 304.19 601.596C304.19 599.541 305.93 597.802 307.987 597.802C310.043 597.802 311.783 599.541 311.783 601.596Z" fill="#8E9DB2"/>
</g>
<path d="M392.775 601.596C392.775 607.128 388.188 611.712 382.651 611.712C377.115 611.712 372.527 607.128 372.527 601.596C372.527 596.064 377.115 591.48 382.651 591.48C388.188 591.48 392.775 596.064 392.775 601.596Z" fill="#717A91"/>
<g opacity="0.45">
<path d="M386.447 601.596C386.447 603.651 384.707 605.389 382.651 605.389C380.595 605.389 378.854 603.651 378.854 601.596C378.854 599.541 380.595 597.802 382.651 597.802C384.707 597.802 386.447 599.541 386.447 601.596Z" fill="#8E9DB2"/>
</g>
<path d="M430.74 244.694L466.965 190.637L478.196 193.008C469.654 221.933 463.959 233.313 463.959 233.313" fill="#FFCBBB"/>
<path d="M472.343 201.859L478.037 192.85C478.037 192.85 488.794 190.321 492.749 188.424C496.703 186.369 499.234 182.892 500.342 179.889C501.133 177.676 500.816 170.879 499.867 170.721C497.494 170.405 492.907 179.098 490.85 179.572C488.636 180.047 481.676 179.572 477.879 180.047C471.394 180.837 468.704 187.001 468.704 187.001L462.852 197.75" fill="#FFCBBB"/>
<path d="M454.31 206.443L460.637 197.275L477.088 204.546L471.868 218.614" fill="#E6E8EF"/>
<path d="M322.225 187.159C322.225 187.159 348.958 174.831 372.686 195.853C396.256 216.875 412.232 236.316 420.933 242.639L456.524 201.701L476.456 211.027C471.236 240.584 456.524 287.844 420.458 292.744C381.544 297.96 324.439 250.068 324.439 250.068" fill="#8E8E8E"/>
<path d="M409.385 256.232L420.932 242.639" stroke="#846A6A" stroke-miterlimit="10"/>
<path d="M466.173 594.641L463.168 606.18C462.377 609.025 464.592 611.712 467.439 611.712H502.398C504.454 611.712 506.194 609.973 506.194 607.918C506.194 606.338 505.087 604.757 503.505 604.283L479.619 594.641" fill="#173789"/>
<path d="M446.084 414.135C440.547 472.934 466.332 594.483 466.332 594.483C466.332 594.483 472.501 601.912 479.936 594.483C479.936 594.483 486.105 478.466 492.749 426.306" fill="#FFCBBB"/>
<path d="M362.562 345.379L402.741 366.401V366.875C402.741 366.875 484.84 361.343 497.178 390.584C516.635 436.422 519.957 585.474 519.957 585.474H459.846C459.846 585.474 437.542 460.289 429.791 452.702C422.198 445.115 390.719 445.589 332.665 445.589C267.65 445.589 299.288 361.817 323.648 354.546" fill="#E29547"/>
<path d="M463.959 585.474C463.959 585.474 446.084 456.338 432.955 446.854C416.978 435.316 341.365 442.902 341.365 442.902" stroke="#CE680D" stroke-miterlimit="10"/>
<path d="M340.416 594.641L337.41 606.18C336.619 609.025 338.834 611.712 341.681 611.712H376.64C378.697 611.712 380.437 609.973 380.437 607.918C380.437 606.338 379.329 604.757 377.747 604.283L353.861 594.641" fill="#173789"/>
<path d="M346.111 414.135C340.574 472.934 340.258 594.483 340.258 594.483C340.258 594.483 346.427 601.912 353.862 594.483C353.862 594.483 374.9 478.466 381.544 426.306" fill="#FFCBBB"/>
<path d="M291.536 363.872C291.536 363.872 397.046 365.611 410.809 397.539C427.734 436.738 399.736 585.632 399.736 585.632H336.145V452.544C336.145 450.015 334.088 447.644 331.557 447.644C322.699 447.803 303.084 447.803 278.249 447.803C213.234 447.803 244.872 346.643 269.232 339.373" fill="#E8A35E"/>
<path d="M291.536 363.872C291.536 363.872 397.046 365.611 410.808 397.539C415.396 408.129 417.768 426.306 416.503 447.803" stroke="#CE680D" stroke-miterlimit="10"/>
<path d="M345.161 585.474C345.161 585.474 345.794 451.912 342.789 444.799C338.518 434.841 323.965 439.741 290.113 439.741C225.098 439.741 251.515 346.643 275.718 339.531" stroke="#ED841B" stroke-miterlimit="10"/>
<path d="M251.041 380.152C251.041 380.152 284.418 380.943 289.48 375.885C294.542 370.827 289.48 347.908 289.48 347.908" stroke="#ED841B" stroke-miterlimit="10"/>
<path d="M250.25 384.578C250.25 384.578 288.373 385.368 294.226 380.31C300.079 375.252 294.226 352.333 294.226 352.333" stroke="#ED841B" stroke-miterlimit="10" stroke-dasharray="3 3"/>
<path d="M243.922 224.778C243.922 224.778 235.855 366.875 248.035 366.875C260.215 366.875 394.832 366.401 402.741 366.401C410.65 366.401 392.142 244.852 365.567 219.246C365.567 219.246 326.179 176.411 308.779 180.521C291.22 184.631 243.922 224.778 243.922 224.778Z" fill="#8E8E8E"/>
<path d="M394.198 289.425L377.431 220.985" stroke="#846A6A" stroke-miterlimit="10"/>
<path d="M175.745 250.542L139.52 196.485L128.289 198.856C136.831 227.781 142.526 239.162 142.526 239.162" fill="#FFCBBB"/>
<path d="M133.983 207.708L128.289 198.698C128.289 198.698 117.532 196.169 113.577 194.272C109.623 192.218 107.092 188.74 105.984 185.737C105.193 183.524 105.51 176.728 106.459 176.569C108.832 176.253 113.419 184.947 115.476 185.421C117.69 185.895 124.65 185.421 128.447 185.895C134.932 186.685 137.622 192.85 137.622 192.85L143.474 203.598" fill="#FFCBBB"/>
<path d="M152.016 212.291L145.689 203.124L129.237 210.553L134.457 224.462" fill="#E6E8EF"/>
<path d="M293.593 187.95C293.593 187.95 267.176 169.141 239.809 192.217C214.341 213.714 197.257 257.181 191.563 257.181C187.608 257.181 163.089 225.884 148.378 206.759L130.978 216.085C141.892 249.594 165.937 306.496 201.687 306.496C229.844 306.496 287.423 240.742 287.423 240.742" fill="#8E8E8E"/>
<path d="M241.55 285.632L284.26 250.068" stroke="#846A6A" stroke-miterlimit="10"/>
<path d="M296.124 191.269L321.592 218.614L324.914 187.001" fill="#E6E8EF"/>
<path d="M296.124 191.269L321.592 218.614L324.914 187.001" stroke="#846A6A" stroke-miterlimit="10" stroke-linejoin="round"/>
<path d="M316.688 163.766L323.806 179.414C323.806 179.414 326.653 188.424 314.789 192.534C301.66 196.959 293.751 187.95 293.751 187.95L291.853 163.292" fill="#FFCBBB"/>
<path d="M292.96 178.94C292.96 178.94 302.451 190.795 314.789 192.534L305.773 205.811C298.496 201.701 289.638 185.737 289.638 185.737L292.96 178.94Z" fill="white"/>
<path d="M323.016 177.36C323.016 177.36 321.434 185.737 314.79 192.533L325.072 200.278C327.445 194.43 327.129 185.421 327.129 185.421L323.016 177.36Z" fill="white"/>
<path d="M327.286 138.477C327.286 138.477 334.088 164.399 323.964 170.879C313.84 177.36 296.123 167.402 295.174 164.241C294.225 160.921 289.479 133.419 296.123 131.364C307.829 127.57 323.806 127.412 327.286 138.477Z" fill="#FFCBBB"/>
<path d="M326.97 146.854C327.128 147.486 326.653 148.277 326.021 148.435C325.388 148.593 324.597 148.118 324.439 147.486C324.281 146.854 324.755 146.064 325.388 145.906C326.179 145.748 326.812 146.222 326.97 146.854Z" fill="#173789"/>
<path d="M324.755 139.109C325.23 139.109 327.128 139.425 326.812 140.373C326.654 140.848 325.863 140.848 325.546 140.848C325.072 140.848 324.755 140.689 324.281 140.848C324.439 141.006 324.439 141.164 324.597 141.322C324.755 141.638 323.806 141.638 323.648 141.638C322.699 141.638 321.433 141.48 320.326 142.27C320.959 139.425 323.964 139.109 324.755 139.109Z" fill="#173789"/>
<path d="M310.677 150.489C310.677 151.28 311.31 151.754 312.1 151.754C312.891 151.754 313.366 151.121 313.366 150.331C313.366 149.541 312.733 149.067 311.942 149.067C311.31 149.067 310.677 149.699 310.677 150.489Z" fill="#173789"/>
<path d="M306.88 145.273C305.931 145.748 305.14 146.538 305.299 147.328C305.457 147.96 306.09 147.802 306.406 147.486C307.039 147.012 307.83 146.538 308.62 146.38C308.304 146.696 308.146 147.17 308.146 147.644C310.677 147.328 312.733 145.273 313.05 142.744C313.05 142.902 311.468 143.851 311.151 144.009C309.728 144.483 308.304 144.483 306.88 145.273Z" fill="#173789"/>
<path d="M320.484 148.435C320.484 148.435 324.122 157.444 322.857 158.234C321.591 159.025 317.004 158.867 317.004 158.867" stroke="#EF977F" stroke-miterlimit="10"/>
<path d="M320.642 172.46C320.642 172.46 310.36 176.411 301.344 169.141" stroke="#EF977F" stroke-miterlimit="10"/>
<path d="M314.79 166.296C314.79 166.296 315.739 162.344 322.225 162.344" stroke="#EF977F" stroke-miterlimit="10"/>
<path d="M332.981 124.567C332.823 123.303 332.665 122.038 331.874 121.09C330.925 119.983 329.343 119.825 327.919 119.825C323.015 119.825 317.953 121.406 313.999 124.251C315.106 123.303 316.213 122.354 317.321 121.406C318.27 120.616 320.168 119.509 319.219 118.087C318.428 116.822 316.055 117.613 314.79 117.613C309.095 117.613 303.717 119.509 298.496 121.564C295.966 122.512 293.276 123.619 291.062 125.041C288.689 126.464 286.633 128.519 285.525 131.048C284.576 133.261 284.418 135.79 284.418 138.161C284.418 142.428 285.051 146.854 285.842 151.122C286.633 155.863 287.74 165.031 293.909 165.505C295.175 165.663 296.44 165.663 297.389 165.031C298.338 164.399 298.655 162.976 298.813 161.87C299.129 159.973 298.971 157.918 298.496 156.021C299.604 156.654 300.711 157.76 302.135 157.602C302.609 157.602 303.084 157.286 303.242 156.812C303.4 156.496 303.242 156.338 303.242 156.021C302.768 151.596 302.451 147.17 302.135 142.586C308.62 141.164 314.948 140.057 321.433 139.109C324.281 138.635 327.286 138.161 329.659 136.264C332.823 133.419 333.297 128.677 332.981 124.567Z" fill="#12004C"/>
<path d="M299.762 157.602C298.654 154.915 296.756 151.754 293.909 153.651C292.802 154.283 292.327 155.705 291.852 156.97C290.587 161.237 293.592 168.034 297.863 167.402C299.92 167.086 301.027 164.557 301.976 162.66" fill="#FFCBBB"/>
<path d="M687.635 439.899C687.635 425.832 693.646 411.764 703.928 402.123C708.99 397.381 715.001 393.745 721.487 391.216C725.125 389.794 742.683 388.529 742.683 388.529C742.683 388.529 740.627 401.965 737.147 408.761C729.079 424.567 712.786 437.844 687.635 439.899Z" fill="#8EBCA2"/>
<path d="M739.361 480.047C745.689 472.302 754.864 466.77 764.829 465.031C774.795 463.292 785.235 465.031 793.935 470.089C794.252 470.247 794.568 470.405 794.568 470.721C794.726 471.037 794.41 471.511 794.094 471.828C785.868 480.995 773.213 485.895 761.033 484.631C755.813 483.998 744.423 481.627 739.361 480.047Z" fill="#A2CCB6"/>
<path d="M753.439 458.55C753.439 446.222 757.552 435.315 764.671 428.045C771.947 420.774 782.229 417.454 793.144 418.719C793.46 418.719 793.935 418.877 794.251 419.193C794.568 419.509 794.568 420.141 794.568 420.616C793.935 435.315 786.5 447.644 775.269 452.544C770.365 454.757 758.976 457.918 753.439 458.55Z" fill="#8EBCA2"/>
<path d="M772.58 436.58C777.484 428.677 783.337 421.564 790.139 415.242C792.828 412.713 795.675 410.342 798.997 408.603C809.596 402.913 822.567 404.652 833.956 408.603C829.369 417.138 823.516 425.674 814.816 429.941C811.019 431.838 806.748 432.945 802.635 433.893C794.252 435.632 780.964 435.473 772.58 436.58Z" fill="#A2CCB6"/>
<path d="M766.569 416.19C745.372 405.126 742.208 382.049 741.734 373.513C741.418 368.139 741.734 362.133 746.163 358.34C772.422 367.507 779.066 385.21 766.569 416.19Z" fill="#8EBCA2"/>
<path d="M675.295 412.713C676.877 401.49 678.459 389.32 673.397 379.204C671.499 375.568 668.968 372.407 666.121 369.404C659.161 362.291 650.302 356.443 640.336 356.443C638.596 367.033 640.653 378.097 646.189 387.265C651.726 396.432 660.742 403.387 670.866 406.706" fill="#8EBCA2"/>
<path d="M736.831 486.369C724.967 482.418 715.001 473.408 709.781 462.186C704.561 450.963 704.244 437.37 708.99 425.99C709.148 425.515 709.464 424.883 709.939 424.725C710.414 424.567 710.888 424.883 711.363 425.041C729.712 435.473 742.209 465.979 736.831 486.369Z" fill="#A2CCB6"/>
<path d="M687.318 424.251C683.838 414.451 684.155 403.387 687.793 393.587C691.589 383.788 698.708 375.568 707.882 370.51C711.521 368.456 715.634 366.875 718.955 364.188C720.063 369.088 720.854 374.146 721.17 379.204C721.486 384.262 721.486 389.32 720.221 394.22C716.741 406.706 705.193 415.242 693.646 421.09" fill="#A2CCB6"/>
<path d="M671.974 422.354C652.991 424.725 629.58 416.98 619.456 399.119C651.884 382.523 671.974 407.813 671.974 422.354Z" fill="#A2CCB6"/>
<path d="M683.047 464.715C678.776 450.173 667.545 438.16 654.099 433.735C640.653 429.309 625.151 432.786 614.236 442.428C613.762 442.902 613.287 443.377 613.287 444.009C613.287 444.325 613.603 444.641 613.762 444.957C621.038 455.389 632.586 461.712 644.45 464.241C656.314 466.928 668.494 466.295 680.674 465.347" fill="#A2CCB6"/>
<path d="M658.528 386.949C665.963 394.22 671.341 403.229 675.454 412.713C679.884 422.829 683.047 433.577 685.736 444.167C691.589 466.928 694.911 490.163 697.284 513.398C698.549 526.517 699.499 539.636 700.922 552.755C700.922 553.229 701.555 553.229 701.555 552.755C701.08 540.9 699.973 529.046 698.866 517.191C697.758 505.495 696.335 493.64 694.595 481.944C692.855 470.247 690.64 458.551 687.793 447.012C685.104 436.264 681.94 425.516 677.669 415.242C673.24 404.652 667.387 394.378 659.003 386.475C658.687 386.475 658.37 386.791 658.528 386.949Z" fill="#597F6E"/>
<path d="M693.488 476.885C687.951 467.56 679.093 461.237 669.443 456.496C658.845 451.28 647.456 447.644 635.75 445.747C629.422 444.799 622.62 444.167 616.135 444.641C615.818 444.641 615.818 445.273 616.135 445.273C621.988 445.589 627.841 445.747 633.693 446.538C639.388 447.328 644.925 448.593 650.303 450.173C655.839 451.754 661.218 453.809 666.596 456.338C671.5 458.55 676.245 461.079 680.516 464.399C685.262 468.034 689.375 472.46 692.697 477.36C693.171 477.834 693.804 477.36 693.488 476.885Z" fill="#597F6E"/>
<path d="M687.793 449.225C687.793 440.532 686.844 431.838 687.635 422.987C688.425 414.926 690.482 406.706 693.962 399.278C695.86 395.168 698.391 391.533 700.922 387.897C701.08 387.581 700.764 387.423 700.448 387.581C697.758 390.426 695.544 394.062 693.804 397.539C692.064 401.174 690.482 404.968 689.375 408.761C687.002 416.98 686.211 425.358 686.369 433.735C686.527 438.951 686.685 444.009 687.318 449.225C687.476 449.383 687.793 449.541 687.793 449.225Z" fill="#597F6E"/>
<path d="M643.659 405.126C649.512 405.758 654.732 408.919 659.478 412.238C665.014 416.19 670.076 420.774 675.138 425.358C677.669 427.728 680.2 430.257 682.889 432.47C683.206 432.628 683.522 432.312 683.206 432.154C678.46 427.412 673.398 422.987 668.336 418.719C663.274 414.451 658.054 410.342 652.043 407.497C649.354 406.232 646.507 405.284 643.659 405.126C643.659 405.126 643.659 404.968 643.659 405.126Z" fill="#597F6E"/>
<path d="M729.395 514.188C731.135 505.179 733.35 496.485 736.672 487.95C739.994 479.573 744.265 471.512 749.327 464.083C759.451 449.067 772.738 436.106 788.082 426.622C792.353 423.935 796.783 421.564 801.37 419.351C806.116 417.139 810.861 415.558 815.607 413.661C816.081 413.503 815.923 412.871 815.449 412.871C811.019 413.977 806.748 415.716 802.635 417.613C798.523 419.509 794.41 421.564 790.455 423.935C782.546 428.519 775.269 434.051 768.467 440.215C755.022 452.702 744.107 467.876 736.988 484.789C733.034 494.114 729.87 504.072 728.763 514.188C728.763 514.504 729.395 514.504 729.395 514.188Z" fill="#597F6E"/>
<path d="M755.18 376.042C763.722 393.745 768.626 414.451 764.829 433.893C763.722 439.583 761.665 444.799 759.135 450.015C758.976 450.489 759.609 450.963 759.925 450.489C765.304 441.796 767.202 431.048 767.36 420.932C767.36 410.658 765.462 400.384 762.14 390.742C760.4 385.684 758.344 380.626 755.813 375.884C755.496 375.41 755.022 375.726 755.18 376.042Z" fill="#597F6E"/>
<path d="M769.575 498.856V517.349C769.575 590.848 750.276 611.712 750.276 611.712H690.324C690.324 611.712 671.025 590.848 671.025 517.349V498.856H769.575Z" fill="#F2F5F9"/>
<path d="M126.391 611.712L177.168 368.298" stroke="#544943" stroke-width="1.5" stroke-miterlimit="10"/>
<path d="M227.946 611.712L177.168 368.298" stroke="#544943" stroke-width="1.5" stroke-miterlimit="10"/>
<path d="M639.388 611.712L690.324 368.298" stroke="#544943" stroke-width="1.5" stroke-miterlimit="10"/>
<path d="M741.101 611.712L690.323 368.298" stroke="#544943" stroke-width="1.5" stroke-miterlimit="10"/>
<path d="M734.774 353.756H127.973V368.298H734.774V353.756Z" fill="#E7EAF2"/>
<path d="M705.509 325.937H491.167C487.37 325.937 484.523 322.46 485.156 318.666L509.833 180.205C510.624 175.779 514.42 172.618 518.849 172.618H733.349C737.146 172.618 739.993 176.095 739.36 179.889L714.683 318.35C713.892 322.776 710.096 325.937 705.509 325.937Z" fill="#475577"/>
<path d="M710.57 325.937H496.07C492.274 325.937 489.426 322.46 490.059 318.666L514.736 180.205C515.527 175.779 519.323 172.618 523.753 172.618H738.253C742.049 172.618 744.896 176.095 744.264 179.889L719.587 318.35C718.796 322.776 714.999 325.937 710.57 325.937Z" fill="#C0CCD8"/>
<path opacity="0.45" d="M671.024 325.937H547.164C544.949 325.937 543.209 323.883 543.684 321.828L557.921 241.849C558.395 239.32 560.61 237.423 563.141 237.423H687C689.215 237.423 690.955 239.478 690.48 241.533L676.244 321.512C675.927 324.199 673.713 325.937 671.024 325.937Z" fill="#8E9DB2"/>
<path d="M674.029 325.937H550.17C547.955 325.937 546.215 323.883 546.69 321.828L560.927 241.849C561.401 239.32 563.616 237.423 566.147 237.423H690.006C692.221 237.423 693.961 239.478 693.486 241.533L679.25 321.512C678.775 324.199 676.719 325.937 674.029 325.937Z" fill="#C6D2E0"/>
<path d="M646.663 278.993H596.36V326.095H646.663V278.993Z" fill="#8E9DB2"/>
<path d="M643.658 278.993H596.202V292.428L609.173 346.011H659.635L643.658 278.993ZM631.636 331.786C625.941 331.786 620.088 325.147 618.348 317.086C616.608 309.025 619.772 302.386 625.467 302.386C631.161 302.386 637.014 309.025 638.754 317.086C640.494 325.147 637.172 331.786 631.636 331.786Z" fill="#475577"/>
<path d="M568.678 346.169H681.307V353.756H561.085C560.927 349.488 564.407 346.169 568.678 346.169Z" fill="#475577"/>
<path d="M681.148 346.169H591.141V353.756H681.148V346.169Z" fill="#C0CCD8"/>
<path d="M646.663 278.993H596.36L612.179 346.169H662.482L646.663 278.993ZM634.325 331.786C628.63 331.786 622.777 325.147 621.037 317.086C619.297 309.025 622.461 302.386 628.156 302.386C633.85 302.386 639.703 309.025 641.443 317.086C643.183 325.305 639.861 331.786 634.325 331.786Z" fill="#C0CCD8"/>
<g opacity="0.65">
<path d="M529.132 186.369L526.284 203.124H529.132L532.137 186.369H529.132Z" fill="#8E9DB2"/>
<path d="M537.832 186.369L534.826 203.124H537.832L540.837 186.369H537.832Z" fill="#8E9DB2"/>
<path d="M546.374 186.369L543.526 203.124H546.374L549.379 186.369H546.374Z" fill="#8E9DB2"/>
<path d="M555.074 186.369L552.068 203.124H555.074L558.079 186.369H555.074Z" fill="#8E9DB2"/>
<path d="M563.616 186.369L560.769 203.124H563.616L566.621 186.369H563.616Z" fill="#8E9DB2"/>
</g>
<g opacity="0.65">
<path d="M642.392 186.369L639.387 203.124H642.392L645.24 186.369H642.392Z" fill="#8E9DB2"/>
<path d="M651.409 186.369L648.403 203.124H651.409L654.414 186.369H651.409Z" fill="#8E9DB2"/>
<path d="M660.425 186.369L657.42 203.124H660.425L663.431 186.369H660.425Z" fill="#8E9DB2"/>
<path d="M669.442 186.369L666.595 203.124H669.442L672.448 186.369H669.442Z" fill="#8E9DB2"/>
<path d="M678.617 186.369L675.611 203.124H678.617L681.622 186.369H678.617Z" fill="#8E9DB2"/>
<path d="M687.633 186.369L684.628 203.124H687.633L690.639 186.369H687.633Z" fill="#8E9DB2"/>
<path d="M696.65 186.369L693.645 203.124H696.65L699.656 186.369H696.65Z" fill="#8E9DB2"/>
<path d="M705.825 186.369L702.819 203.124H705.825L708.672 186.369H705.825Z" fill="#8E9DB2"/>
<path d="M714.841 186.369L711.836 203.124H714.841L717.847 186.369H714.841Z" fill="#8E9DB2"/>
<path d="M723.858 186.369L720.853 203.124H723.858L726.864 186.369H723.858Z" fill="#8E9DB2"/>
</g>
<g opacity="0.55">
<path d="M298.972 315.821C298.972 315.821 300.395 315.505 300.87 314.715C301.977 313.134 300.079 311.396 298.813 310.605C297.232 309.499 295.017 309.183 294.226 307.286C293.277 305.073 294.859 302.544 296.757 301.28C298.339 300.173 300.079 299.699 301.977 299.067C303.875 298.277 305.932 297.17 307.039 295.273C308.463 293.061 308.146 290.057 308.305 287.528C309.096 277.413 319.378 272.513 328.078 272.197C332.349 272.038 338.993 273.619 341.998 277.096C342.947 278.203 343.738 279.625 344.055 281.048C344.529 283.261 343.58 285.474 342.156 287.054C340.733 288.793 338.676 289.741 336.936 291.322C335.196 292.903 336.462 294.641 335.987 296.538C335.513 298.593 334.089 299.541 332.349 300.489C328.552 302.702 323.965 303.177 319.694 304.283C318.429 304.599 317.005 305.073 316.056 305.864C314.632 306.97 313.841 308.551 312.892 309.973C310.994 312.502 308.146 314.399 304.983 315.031" fill="url(#paint0_linear_3713_8979)"/>
</g>
<path d="M323.174 341.269H314.79V337.318H323.016C325.705 337.318 327.761 335.105 327.761 332.576V325.779C327.761 323.092 325.547 321.037 323.016 321.037H314.79V317.086H323.016C327.919 317.086 331.716 321.037 331.716 325.779V332.576C331.874 337.318 327.919 341.269 323.174 341.269Z" fill="#E8EAEF"/>
<path d="M311.31 351.543H297.39C292.011 351.543 287.74 347.276 287.74 341.902V311.396H320.959V341.902C320.959 347.276 316.688 351.543 311.31 351.543Z" fill="#E8EAEF"/>
<path d="M282.362 345.853C282.362 345.853 282.679 353.598 294.859 353.598H313.999C326.18 353.598 326.496 345.853 326.496 345.853H282.362Z" fill="#C6D2E0"/>
<path d="M549.854 350.595H373.793V353.756H549.854V350.595Z" fill="#475577"/>
<path d="M392.459 348.066H379.804V350.595H392.459V348.066Z" fill="#475577"/>
<path d="M411.441 348.066H398.786V350.595H411.441V348.066Z" fill="#475577"/>
<path d="M430.582 348.066H417.927V350.595H430.582V348.066Z" fill="#475577"/>
<path d="M449.722 348.066H437.067V350.595H449.722V348.066Z" fill="#475577"/>
<path d="M468.863 348.066H456.208V350.595H468.863V348.066Z" fill="#475577"/>
<path d="M487.845 348.066H475.19V350.595H487.845V348.066Z" fill="#475577"/>
<path d="M506.986 348.066H494.331V350.595H506.986V348.066Z" fill="#475577"/>
<path d="M526.126 348.066H513.471V350.595H526.126V348.066Z" fill="#475577"/>
<path d="M545.108 348.066H532.453V350.595H545.108V348.066Z" fill="#475577"/>
<path d="M552.069 350.595H376.008V353.756H552.069V350.595Z" fill="#C0CCD8"/>
<path d="M394.673 348.066H382.019V350.595H394.673V348.066Z" fill="#C0CCD8"/>
<path d="M413.814 348.066H401.159V350.595H413.814V348.066Z" fill="#C0CCD8"/>
<path d="M432.955 348.066H420.3V350.595H432.955V348.066Z" fill="#C0CCD8"/>
<path d="M451.937 348.066H439.282V350.595H451.937V348.066Z" fill="#C0CCD8"/>
<path d="M471.078 348.066H458.423V350.595H471.078V348.066Z" fill="#C0CCD8"/>
<path d="M490.218 348.066H477.563V350.595H490.218V348.066Z" fill="#C0CCD8"/>
<path d="M509.358 348.066H496.703V350.595H509.358V348.066Z" fill="#C0CCD8"/>
<path d="M528.34 348.066H515.686V350.595H528.34V348.066Z" fill="#C0CCD8"/>
<path d="M547.481 348.066H534.826V350.595H547.481V348.066Z" fill="#C0CCD8"/>
<path d="M125.6 471.669C127.815 462.976 126.865 453.492 122.911 445.431C118.956 437.37 112.154 430.732 103.929 427.096C100.607 425.674 96.9683 424.567 93.9628 422.512C93.3301 426.78 93.1719 431.206 93.1719 435.473C93.1719 439.741 93.6464 444.167 95.0701 448.118C98.8666 458.55 109.465 465.031 119.747 469.14" fill="#8EBCA2"/>
<path d="M126.866 499.804C127.024 491.901 127.024 483.84 126.391 475.937C126.075 472.46 125.758 468.982 124.809 465.505C123.702 461.396 122.12 457.286 120.222 453.492C118.007 449.067 115.16 444.641 111.522 441.48C111.205 441.322 110.889 441.638 111.205 441.796C114.053 445.115 116.584 448.593 118.798 452.544C120.855 456.496 122.595 460.605 123.702 464.873C125.758 472.144 125.758 479.889 126.075 487.318C126.233 491.427 126.233 495.695 126.549 499.804C126.549 499.962 126.866 499.962 126.866 499.804Z" fill="#597F6E"/>
<path d="M100.923 526.201C99.3411 514.188 92.6973 502.966 82.8898 495.853C77.986 492.375 72.4495 489.846 66.7548 488.582C63.4329 487.792 48.4053 488.582 48.4053 488.582C48.4053 488.582 51.569 499.804 55.3654 505.178C64.0657 517.665 79.2515 527.307 100.923 526.201Z" fill="#8EBCA2"/>
<path d="M87.7932 487.634C87.4768 480.363 86.0531 473.092 83.8385 466.295C82.8894 463.45 81.9403 460.763 80.3584 458.392C75.2965 450.489 65.9635 446.696 56.9469 445.115C56.7887 452.702 57.7379 460.763 61.8507 467.086C63.7489 469.931 66.1217 472.144 68.6527 474.357C73.5564 478.782 82.4148 483.682 87.7932 487.634Z" fill="#A2CCB6"/>
<path d="M138.888 461.237C137.464 451.596 136.199 441.164 140.628 432.47C142.21 429.309 144.425 426.622 146.956 424.093C152.808 418.087 160.559 413.029 169.102 413.029C170.683 422.038 168.785 431.68 164.04 439.583C159.136 447.17 147.588 458.392 138.888 461.237Z" fill="#A2CCB6"/>
<path d="M123.228 517.349C132.244 519.246 141.893 517.191 149.486 511.975C157.079 506.759 162.141 498.224 163.565 489.214C163.565 488.74 163.723 488.424 163.407 488.108C163.09 487.792 162.774 487.792 162.299 487.792C146.797 487.476 127.499 502.333 123.228 517.349Z" fill="#A2CCB6"/>
<path d="M91.2734 482.418C104.086 475.147 112.312 460.763 112.628 445.115C103.454 444.641 96.3353 450.331 92.3807 455.231C86.686 462.028 86.2114 473.882 91.2734 482.418Z" fill="#A2CCB6"/>
<path d="M100.606 507.707C97.1263 499.172 98.2336 489.056 103.454 481.469C108.674 473.882 117.69 468.982 126.865 468.982C127.182 468.982 127.656 468.982 127.973 469.299C128.131 469.457 128.131 469.773 128.131 469.931C128.447 477.834 124.967 485.421 120.063 491.585C115.159 497.75 108.674 502.491 102.346 507.075" fill="#A2CCB6"/>
<path d="M152.808 438.635C146.322 444.799 141.576 452.386 137.938 460.605C134.142 469.14 131.294 478.15 128.921 487.318C123.701 506.917 120.854 526.991 118.798 547.223C117.69 558.603 116.583 570.142 116.108 581.522C116.108 581.996 116.741 581.996 116.741 581.522C118.007 571.406 118.639 561.29 119.588 551.332C120.538 541.374 121.645 531.259 123.227 521.301C124.65 511.501 126.549 501.701 128.921 491.901C131.136 482.576 133.825 473.408 137.305 464.399C140.944 455.073 146.006 446.064 153.124 438.951C153.44 438.793 153.124 438.477 152.808 438.635Z" fill="#597F6E"/>
<path d="M100.606 521.301C100.606 519.562 100.448 517.823 100.448 515.926C100.448 513.872 100.606 511.817 100.923 509.92C101.239 508.023 101.555 506.127 102.03 504.23C102.504 502.491 103.137 500.911 103.295 499.172C103.295 498.856 102.821 498.856 102.821 499.014C101.872 500.437 101.397 502.491 101.081 504.072C100.606 505.969 100.29 507.865 99.9735 509.92C99.6571 511.975 99.4989 513.872 99.4989 515.926C99.4989 517.665 99.3408 519.562 99.8153 521.301C99.9735 521.775 100.606 521.775 100.606 521.301Z" fill="#597F6E"/>
<path d="M101.714 455.863C97.9176 459.183 95.5449 464.082 93.963 468.824C92.0648 474.673 91.1157 480.837 91.432 487.001C91.5902 490.479 91.9066 493.956 93.0139 497.117C93.1721 497.433 93.6466 497.275 93.4884 496.959C92.0648 491.111 91.5902 485.105 92.223 479.098C92.8557 473.408 94.2794 467.56 96.9685 462.502C98.234 460.131 99.8159 457.918 101.714 455.863C101.872 456.021 101.714 455.863 101.714 455.863Z" fill="#597F6E"/>
<path d="M105.352 565.874C105.51 559.077 105.035 552.281 104.403 545.484C103.612 538.371 102.663 531.417 101.239 524.462C98.2333 510.394 93.6459 496.485 86.6858 483.84C84.7875 480.363 82.5729 477.044 80.3583 473.724C77.9855 470.563 75.6128 467.244 72.7654 464.557C72.449 464.241 71.9745 464.715 72.2909 465.031C74.5055 467.876 76.8782 470.405 78.9347 473.408C80.9911 476.253 82.8893 479.256 84.7875 482.26C88.4258 488.424 91.4313 494.904 93.9623 501.701C98.8661 514.978 101.872 529.046 103.453 543.113C104.244 550.7 104.561 558.129 105.035 565.716C104.877 566.19 105.352 566.19 105.352 565.874Z" fill="#597F6E"/>
<path d="M157.711 534.736V547.381C157.711 597.486 141.102 611.712 141.102 611.712H89.6915C89.6915 611.712 73.082 597.486 73.082 547.381V534.736H157.711Z" fill="#F2F5F9"/>
<path d="M44.7666 611.712H852.147" stroke="#475577" stroke-width="2" stroke-miterlimit="10"/>
<defs>
<linearGradient id="paint0_linear_3713_8979" x1="318.967" y1="315.802" x2="318.967" y2="272.17" gradientUnits="userSpaceOnUse">
<stop stop-color="white" stop-opacity="0.1"/>
<stop offset="1" stop-color="white" stop-opacity="0.4"/>
</linearGradient>
</defs>
</svg>
