<svg width="16" height="16" viewBox="0 0 16 16" fill="none" xmlns="http://www.w3.org/2000/svg">
<path d="M14.7673 9.99041C14.5472 9.99041 14.3688 10.1688 14.3688 10.3889V13.927C14.3681 14.587 13.8334 15.1218 13.1734 15.1224H1.99241C1.33242 15.1218 0.797742 14.587 0.796964 13.927V3.54295C0.797742 2.88312 1.33242 2.34828 1.99241 2.3475H5.53049C5.75059 2.3475 5.92897 2.16912 5.92897 1.94902C5.92897 1.72908 5.75059 1.55054 5.53049 1.55054H1.99241C0.892537 1.55178 0.00124526 2.44307 0 3.54295V13.9271C0.00124526 15.027 0.892537 15.9183 1.99241 15.9195H13.1734C14.2733 15.9183 15.1646 15.027 15.1658 13.9271V10.3889C15.1658 10.1688 14.9874 9.99041 14.7673 9.99041V9.99041Z" fill="#12004C"/>
<path d="M15.0083 0.525226C14.308 -0.175075 13.1727 -0.175075 12.4724 0.525226L5.36321 7.63439C5.31449 7.68311 5.27931 7.74351 5.26094 7.80982L4.32606 11.1849C4.28762 11.3233 4.32669 11.4715 4.42818 11.5731C4.52982 11.6746 4.678 11.7137 4.81638 11.6754L8.19149 10.7404C8.2578 10.722 8.3182 10.6868 8.36692 10.6381L15.4759 3.52878C16.1751 2.82801 16.1751 1.69359 15.4759 0.992819L15.0083 0.525226ZM6.23146 7.8934L12.0498 2.07495L13.9262 3.95139L8.10775 9.76985L6.23146 7.8934ZM5.85664 8.64554L7.35577 10.1448L5.28211 10.7194L5.85664 8.64554ZM14.9125 2.9653L14.4898 3.38791L12.6132 1.51131L13.036 1.0887C13.425 0.699717 14.0557 0.699717 14.4447 1.0887L14.9125 1.5563C15.3008 1.94575 15.3008 2.57601 14.9125 2.9653V2.9653Z" fill="#12004C"/>
</svg>
