<svg width="30" height="28" viewBox="0 0 30 28" fill="none" xmlns="http://www.w3.org/2000/svg">
<path d="M15.0515 12.6667H11.0652M15.0515 8.66666V12.6667V8.66666ZM15.0515 12.6667V16.6667V12.6667ZM15.0515 12.6667H19.0377H15.0515Z" stroke="#12004C" stroke-width="2.58333" stroke-linecap="round"/>
<path d="M17.7088 23.3333C22.7195 23.3333 25.2255 23.3333 26.7815 21.7707C28.3388 20.2093 28.3388 17.6947 28.3388 12.6667C28.3388 7.63867 28.3388 5.124 26.7815 3.56267C25.2255 2 22.7195 2 17.7088 2H12.3937C7.38299 2 4.87695 2 3.32098 3.56267C1.76367 5.124 1.76367 7.63867 1.76367 12.6667C1.76367 17.6947 1.76367 20.2093 3.32098 21.7707C4.18865 22.6427 5.35132 23.028 7.0787 23.1973" stroke="#12004C" stroke-width="2.58333" stroke-linecap="round" stroke-linejoin="round"/>
<path d="M17.7092 23.3333C16.0668 23.3333 14.2571 24 12.6054 24.86C9.95056 26.2426 8.62314 26.9346 7.96939 26.4933C7.31564 26.0533 7.43921 24.6866 7.68769 21.9546L7.7435 21.3333" stroke="#12004C" stroke-width="2.58333" stroke-linecap="round"/>
</svg>
