<svg width="19" height="20" viewBox="0 0 19 20" fill="none" xmlns="http://www.w3.org/2000/svg">
<path d="M12.8283 5.75714L7.17229 11.4141C7.07678 11.5064 7.0006 11.6167 6.94819 11.7387C6.89578 11.8607 6.86819 11.992 6.86704 12.1247C6.86588 12.2575 6.89118 12.3892 6.94147 12.5121C6.99175 12.635 7.066 12.7466 7.15989 12.8405C7.25378 12.9344 7.36544 13.0087 7.48833 13.059C7.61123 13.1092 7.74291 13.1345 7.87569 13.1334C8.00847 13.1322 8.13969 13.1047 8.26169 13.0522C8.3837 12.9998 8.49404 12.9237 8.58629 12.8281L14.2433 7.17214C14.8059 6.60948 15.122 5.84636 15.122 5.05064C15.122 4.25492 14.8059 3.4918 14.2433 2.92914C13.6806 2.36648 12.9175 2.05039 12.1218 2.05039C11.3261 2.05039 10.5629 2.36648 10.0003 2.92914L4.34329 8.58614C3.86936 9.04827 3.49192 9.5999 3.23284 10.209C2.97377 10.8182 2.83823 11.4727 2.83408 12.1346C2.82994 12.7965 2.95727 13.4527 3.20868 14.065C3.4601 14.6774 3.83061 15.2337 4.2987 15.7017C4.7668 16.1698 5.32317 16.5402 5.93554 16.7915C6.54791 17.0428 7.20409 17.1701 7.86602 17.1658C8.52795 17.1616 9.18245 17.026 9.79155 16.7668C10.4006 16.5077 10.9522 16.1301 11.4143 15.6561L17.0713 10.0001L18.4853 11.4141L12.8283 17.0711C11.5155 18.384 9.7349 19.1215 7.87829 19.1215C6.02168 19.1215 4.24111 18.384 2.92829 17.0711C1.61547 15.7583 0.87793 13.9778 0.87793 12.1211C0.87793 10.2645 1.61547 8.48396 2.92829 7.17114L8.58629 1.51514C9.04984 1.04751 9.60119 0.676044 10.2087 0.422068C10.8162 0.168093 11.4679 0.0366101 12.1263 0.0351682C12.7848 0.0337264 13.437 0.162354 14.0456 0.413666C14.6542 0.664979 15.2072 1.03403 15.6728 1.49962C16.1384 1.96522 16.5074 2.51819 16.7588 3.1268C17.0101 3.7354 17.1387 4.38765 17.1373 5.0461C17.1358 5.70456 17.0043 6.35624 16.7504 6.96374C16.4964 7.57124 16.1249 8.12259 15.6573 8.58614L10.0003 14.2441C9.4375 14.8068 8.67424 15.1228 7.87843 15.1227C7.08262 15.1227 6.31944 14.8064 5.75679 14.2436C5.19413 13.6809 4.87809 12.9176 4.87818 12.1218C4.87827 11.326 5.1945 10.5628 5.75729 10.0001L11.4143 4.34314L12.8283 5.75714Z" fill="#FA9C44"/>
</svg>
