<svg width="72" height="72" viewBox="0 0 72 72" fill="none" xmlns="http://www.w3.org/2000/svg">
<path d="M66.029 28.4924H43.5097V5.96288C43.507 4.63713 42.9784 3.3666 42.04 2.4301C41.1016 1.4936 39.83 0.967649 38.5043 0.967651H33.5009C32.1751 0.967649 30.9035 1.4936 29.9651 2.4301C29.0267 3.3666 28.4981 4.63713 28.4954 5.96288V28.4924H5.97613C4.65037 28.4924 3.37876 29.0183 2.44036 29.9548C1.50195 30.8913 0.973403 32.1619 0.970703 33.4876L0.970703 38.493C0.970703 39.8206 1.49806 41.0937 2.43676 42.0324C3.37546 42.9711 4.64861 43.4985 5.97613 43.4985H28.4954V66.0259C28.4954 67.3535 29.0228 68.6266 29.9615 69.5653C30.9002 70.504 32.1733 71.0314 33.5009 71.0314H38.5063C39.1636 71.0314 39.8145 70.9019 40.4218 70.6504C41.0291 70.3988 41.5809 70.0301 42.0457 69.5653C42.5105 69.1005 42.8792 68.5487 43.1307 67.9414C43.3822 67.3342 43.5117 66.6833 43.5117 66.0259V43.5066H66.029C67.3565 43.5066 68.6297 42.9793 69.5684 42.0406C70.5071 41.1019 71.0344 39.8287 71.0344 38.5012V33.4876C71.0317 32.1619 70.5032 30.8913 69.5648 29.9548C68.6264 29.0183 67.3548 28.4924 66.029 28.4924Z" fill="#707070"/>
</svg>
