<svg xmlns="http://www.w3.org/2000/svg" width="18.663" height="18.663" viewBox="0 0 18.663 18.663">
  <path id="Icon_awesome-plus-circle" data-name="Icon awesome-plus-circle" d="M9.894.563a9.332,9.332,0,1,0,9.332,9.332A9.33,9.33,0,0,0,9.894.563Zm5.418,10.385a.453.453,0,0,1-.452.452H11.4v3.462a.453.453,0,0,1-.452.452H8.841a.453.453,0,0,1-.452-.452V11.4H4.927a.453.453,0,0,1-.452-.452V8.841a.453.453,0,0,1,.452-.452H8.389V4.927a.453.453,0,0,1,.452-.452h2.107a.453.453,0,0,1,.452.452V8.389h3.462a.453.453,0,0,1,.452.452Z" transform="translate(-0.563 -0.563)" fill="#11014d"/>
</svg>
