<svg width="16" height="24" viewBox="0 0 16 24" fill="none" xmlns="http://www.w3.org/2000/svg">
<path d="M7.99974 11.4965C10.1691 11.4965 11.9341 9.73175 11.9341 7.56266C11.9341 5.39356 10.1691 3.62891 7.99974 3.62891C5.83037 3.62891 4.06543 5.39356 4.06543 7.56266C4.06543 9.73175 5.83037 11.4965 7.99974 11.4965ZM7.99974 5.03497C9.39371 5.03497 10.5278 6.16892 10.5278 7.56266C10.5278 8.95644 9.39376 10.0904 7.99974 10.0904C6.60573 10.0904 5.47168 8.95644 5.47168 7.56266C5.47168 6.16892 6.60577 5.03497 7.99974 5.03497Z" fill="#12004C"/>
<path d="M3.71606 14.6311C4.78177 16.0738 4.35361 15.5128 7.42322 19.8953C7.70222 20.2952 8.29552 20.2971 8.57611 19.896C11.6596 15.4926 11.2353 16.0503 12.2837 14.6311C13.3456 13.1933 14.4438 11.7067 15.0456 9.9645C15.9166 7.44258 15.5401 4.94728 13.9856 2.93822C13.9856 2.93822 13.9855 2.93822 13.9856 2.93822C12.5616 1.09842 10.3239 0 7.99988 0C5.67586 0 3.43824 1.09838 2.01422 2.93827C0.459706 4.94733 0.0832056 7.44267 0.954237 9.9646C1.55592 11.7067 2.65411 13.1934 3.71606 14.6311ZM3.12638 3.7987C4.28597 2.30053 6.10786 1.40606 7.99988 1.40606C9.89189 1.40606 11.7138 2.30053 12.8734 3.7987C14.1281 5.4202 14.4273 7.44694 13.7163 9.5056C13.1848 11.0444 12.1516 12.4431 11.1525 13.7958C10.3746 14.8489 10.6074 14.5268 7.99988 18.2645C5.39508 14.5306 5.62496 14.8486 4.84725 13.7958C3.84811 12.4431 2.81494 11.0444 2.28342 9.5056C1.57242 7.44689 1.87177 5.42016 3.12638 3.7987Z" fill="#12004C"/>
<path d="M4.29348 17.6797C4.0861 17.3515 3.65185 17.2534 3.32354 17.4608L1.32432 18.7235C0.888197 18.9989 0.887775 19.6365 1.32432 19.9122L7.62432 23.8914C7.85368 24.0363 8.14599 24.0362 8.37531 23.8914L14.6753 19.9122C15.1115 19.6368 15.1119 18.9992 14.6753 18.7235L12.6761 17.4608C12.3477 17.2534 11.9135 17.3515 11.7061 17.6797C11.4987 18.008 11.5968 18.4422 11.9251 18.6496L12.9833 19.3179L7.99979 22.4654L3.01637 19.3179L4.07453 18.6496C4.40284 18.4422 4.50085 18.008 4.29348 17.6797Z" fill="#12004C"/>
</svg>
