<svg width="26" height="32" viewBox="0 0 26 32" fill="none" xmlns="http://www.w3.org/2000/svg">
<path d="M5.62061 6.77368C5.50439 6.88989 5.4375 7.05127 5.4375 7.21558C5.4375 7.38062 5.50439 7.54126 5.62061 7.65747C5.73682 7.77368 5.89819 7.84058 6.0625 7.84058C6.22754 7.84058 6.38818 7.77368 6.50439 7.65747C6.62061 7.54126 6.6875 7.38062 6.6875 7.21558C6.6875 7.05127 6.62061 6.88989 6.50439 6.77368C6.38818 6.65747 6.22754 6.59058 6.0625 6.59058C5.89819 6.59058 5.73682 6.65747 5.62061 6.77368Z" fill="#F7F9FD"/>
<path d="M23.0427 6.59113H8.5625C8.21729 6.59113 7.9375 6.87091 7.9375 7.21613C7.9375 7.56134 8.21729 7.84113 8.5625 7.84113H23.0427C23.5706 7.84113 24 8.27032 24 8.79816V21.6253H19.8462C19.501 21.6253 19.2212 21.9051 19.2212 22.2503C19.2212 22.5955 19.501 22.8753 19.8462 22.8753H24V23.168C24 23.6959 23.5706 24.1253 23.0427 24.1253H4.78931C4.64209 24.1253 4.49951 24.1773 4.38672 24.2723L1.25 26.9136V8.79816C1.25 8.27032 1.67944 7.84113 2.20728 7.84113H3.56274C3.90771 7.84113 4.18774 7.56134 4.18774 7.21613C4.18774 6.87091 3.90771 6.59113 3.56274 6.59113H2.20728C0.990234 6.59113 0 7.58112 0 8.79816V28.2571C0 28.5003 0.140869 28.7213 0.361328 28.8238C0.445557 28.8629 0.5354 28.8821 0.624756 28.8821C0.769531 28.8821 0.912598 28.8318 1.02759 28.7352L5.01733 25.3753H23.0427C24.2598 25.3753 25.25 24.3851 25.25 23.168V8.79816C25.25 7.58112 24.2598 6.59113 23.0427 6.59113Z" fill="#F7F9FD"/>
<path d="M12.625 4.37305C12.9702 4.37305 13.25 4.09326 13.25 3.74805V0.625C13.25 0.279785 12.9702 0 12.625 0C12.2798 0 12 0.279785 12 0.625V3.74805C12 4.09326 12.2798 4.37305 12.625 4.37305Z" fill="#F7F9FD"/>
<path d="M17.3359 4.62646C17.4961 4.62646 17.6558 4.56543 17.7778 4.44336L19.9629 2.25854C20.207 2.0144 20.207 1.61865 19.9629 1.37451C19.7188 1.13037 19.323 1.13037 19.0789 1.37451L16.894 3.55933C16.6499 3.80347 16.6499 4.19922 16.894 4.44336C17.0161 4.56543 17.176 4.62646 17.3359 4.62646Z" fill="#F7F9FD"/>
<path d="M7.47168 4.43945C7.59375 4.56152 7.75366 4.62256 7.91357 4.62256C8.07349 4.62256 8.2334 4.56152 8.35547 4.43945C8.59961 4.19531 8.59961 3.79956 8.35547 3.55542L6.17041 1.37061C5.92651 1.12646 5.53076 1.12646 5.28662 1.37061C5.04248 1.61475 5.04248 2.01025 5.28662 2.25439L7.47168 4.43945Z" fill="#F7F9FD"/>
<path d="M12.625 27.627C12.2798 27.627 12 27.9067 12 28.252V31.375C12 31.7202 12.2798 32 12.625 32C12.9702 32 13.25 31.7202 13.25 31.375V28.252C13.25 27.9067 12.9702 27.627 12.625 27.627Z" fill="#F7F9FD"/>
<path d="M17.7778 27.5562C17.5337 27.312 17.1382 27.312 16.894 27.5562C16.6499 27.8003 16.6499 28.196 16.894 28.4402L19.0789 30.625C19.2009 30.7471 19.3608 30.8081 19.5208 30.8081C19.6809 30.8081 19.8408 30.7471 19.9629 30.625C20.2068 30.3809 20.2068 29.9851 19.9629 29.741L17.7778 27.5562Z" fill="#F7F9FD"/>
<path d="M7.47168 27.5607L5.28662 29.7458C5.04248 29.9899 5.04248 30.3854 5.28662 30.6296C5.40869 30.7516 5.5686 30.8127 5.72852 30.8127C5.88843 30.8127 6.04834 30.7516 6.17041 30.6296L8.35547 28.4448C8.59961 28.2006 8.59961 27.8049 8.35547 27.5607C8.11133 27.3166 7.71582 27.3166 7.47168 27.5607Z" fill="#F7F9FD"/>
<path d="M18.3691 15.603C18.3691 13.9651 17.0369 12.6328 15.3989 12.6328H14.043C13.698 12.6328 13.418 12.9126 13.418 13.2578V18.7578C13.418 19.1028 13.698 19.3828 14.043 19.3828H15.3989C17.0366 19.3828 18.3691 18.0503 18.3691 16.4124V15.603ZM17.1191 16.4124C17.1191 17.3611 16.3474 18.1328 15.3989 18.1328H14.668V13.8828H15.3989C16.3474 13.8828 17.1191 14.6543 17.1191 15.603V16.4124Z" fill="#F7F9FD"/>
<path d="M7.44226 16.9871L6.9137 18.5583C6.80359 18.8855 6.97937 19.24 7.30652 19.3501C7.63416 19.4602 7.98816 19.2842 8.09827 18.957L8.4884 17.7976H10.2247L10.6149 18.957C10.7025 19.218 10.9459 19.3828 11.2072 19.3828C11.2733 19.3828 11.3405 19.3723 11.4064 19.3501C11.7335 19.24 11.9095 18.8855 11.7994 18.5583L9.94885 13.0583C9.8634 12.804 9.62488 12.6328 9.35657 12.6328C9.08826 12.6328 8.84973 12.804 8.76428 13.0583L7.44275 16.9858C7.44251 16.9863 7.44226 16.9866 7.44226 16.9871ZM9.35657 15.2175L9.80408 16.5476H8.90906L9.35657 15.2175Z" fill="#F7F9FD"/>
<path d="M16.9351 21.8081C16.8188 21.9243 16.752 22.0857 16.752 22.25C16.752 22.415 16.8188 22.5757 16.9351 22.6919C17.0515 22.8081 17.2126 22.875 17.377 22.875C17.5415 22.875 17.7026 22.8081 17.8188 22.6919C17.9351 22.5757 18.002 22.4143 18.002 22.25C18.002 22.0857 17.9351 21.9243 17.8188 21.8081C17.7026 21.6919 17.5415 21.625 17.377 21.625C17.2126 21.625 17.0513 21.6919 16.9351 21.8081Z" fill="#F7F9FD"/>
</svg>
