<svg width="24" height="24" viewBox="0 0 24 24" fill="none" xmlns="http://www.w3.org/2000/svg">
<path d="M11.5698 3.38904L11.9946 4.07382L12.4195 3.38904C12.9681 2.50477 13.7188 1.77883 14.6019 1.27519C15.4845 0.771846 16.4725 0.505886 17.4766 0.5H17.5308C19.1115 0.514662 20.6269 1.17747 21.7464 2.3511C22.8642 3.52301 23.4961 5.1095 23.5 6.76777C23.3592 9.54512 22.4333 12.2157 20.8404 14.4448C18.2751 17.8043 15.3035 20.8037 12 23.3689C8.69654 20.8037 5.72493 17.8043 3.15959 14.4448C1.56674 12.2157 0.640764 9.5451 0.500017 6.76775C0.503871 5.11038 1.13514 3.52466 2.25186 2.3529C3.37019 1.17946 4.88428 0.516063 6.46403 0.5H6.51269C7.5168 0.505886 8.50472 0.771846 9.38733 1.27519C10.2705 1.77883 11.0211 2.50477 11.5698 3.38904Z" stroke="black"/>
</svg>
