<svg width="48" height="48" viewBox="0 0 48 48" fill="none" xmlns="http://www.w3.org/2000/svg">
<path d="M23.5698 15.389L23.9946 16.0738L24.4195 15.389C24.9681 14.5048 25.7188 13.7788 26.6019 13.2752C27.4845 12.7718 28.4725 12.5059 29.4766 12.5H29.5308C31.1115 12.5147 32.6269 13.1775 33.7464 14.3511C34.8642 15.523 35.4961 17.1095 35.5 18.7677C35.3592 21.5451 34.4333 24.2157 32.8404 26.4448C30.2751 29.8043 27.3035 32.8037 24 35.3689C20.6965 32.8037 17.7249 29.8043 15.1596 26.4448C13.5667 24.2157 12.6408 21.5451 12.5 18.7678C12.5039 17.1104 13.1351 15.5247 14.2519 14.3529C15.3702 13.1795 16.8843 12.5161 18.464 12.5H18.5127C19.5168 12.5059 20.5047 12.7718 21.3873 13.2752C22.2705 13.7788 23.0211 14.5048 23.5698 15.389Z" stroke="black"/>
</svg>
