<svg width="48" height="48" viewBox="0 0 48 48" fill="none" xmlns="http://www.w3.org/2000/svg">
<path d="M42 34.0031L31.0031 32.0063C30 30 30 29.1281 30 28.0031C31.0031 27 33 26.0063 33 25.0031C34.0031 22.0031 34.0031 20.0062 34.0031 20.0062C34.5188 19.2562 36 18.0094 36 16.0031C36 13.9969 34.0031 12 34.0031 11.0063C34.0031 3 29.925 0 24 0C18.3281 0 13.9969 3 13.9969 10.9969C13.9969 12 12 13.9969 12 15.9938C12 17.9906 13.425 19.3125 13.9969 19.9969C13.9969 19.9969 13.9969 21.9938 15 24.9938C15 25.9969 16.9969 26.9906 18 27.9937C18 28.9969 18 29.9906 16.9969 31.9969L6 34.0031C1.99688 34.9969 0 42 0 48H48C48 42 46.0031 34.9969 42 34.0031Z" fill="#11014D"/>
</svg>
