<svg width="24" height="23" viewBox="0 0 24 23" fill="none" xmlns="http://www.w3.org/2000/svg">
<path d="M10 22.75H1C0.586 22.75 0.25 22.414 0.25 22V13C0.25 12.586 0.586 12.25 1 12.25H10C10.414 12.25 10.75 12.586 10.75 13V22C10.75 22.414 10.414 22.75 10 22.75ZM9.25 13.75H1.75V21.25H9.25V13.75Z" fill="#A6A6A6" stroke="#A6A6A6" stroke-width="0.5"/>
<path d="M22 22.75H13C12.586 22.75 12.25 22.414 12.25 22V13C12.25 12.586 12.586 12.25 13 12.25H22C22.414 12.25 22.75 12.586 22.75 13V22C22.75 22.414 22.414 22.75 22 22.75ZM21.25 13.75H13.75V21.25H21.25V13.75Z" fill="#A6A6A6" stroke="#A6A6A6" stroke-width="0.5"/>
<path d="M10 10.75H1C0.586 10.75 0.25 10.414 0.25 10V1C0.25 0.586 0.586 0.25 1 0.25H10C10.414 0.25 10.75 0.586 10.75 1V10C10.75 10.414 10.414 10.75 10 10.75ZM9.25 1.75H1.75V9.25H9.25V1.75Z" fill="#A6A6A6" stroke="#A6A6A6" stroke-width="0.5"/>
<path d="M22.1875 10.75H13.1875C12.7735 10.75 12.4375 10.414 12.4375 10V1C12.4375 0.586 12.7735 0.25 13.1875 0.25H22.1875C22.6015 0.25 22.9375 0.586 22.9375 1V10C22.9375 10.414 22.6015 10.75 22.1875 10.75ZM21.4375 1.75H13.9375V9.25H21.4375V1.75Z" fill="#A6A6A6" stroke="#A6A6A6" stroke-width="0.5"/>
</svg>
