<svg width="24" height="24" viewBox="0 0 24 24" fill="none" xmlns="http://www.w3.org/2000/svg">
<path d="M17.5331 0H17.4751C16.3838 0.0061396 15.3112 0.295138 14.3542 0.840851C13.3973 1.38656 12.5863 2.17177 11.9946 3.12544C11.4029 2.17177 10.5919 1.38656 9.63503 0.840851C8.67811 0.295138 7.60547 0.0061396 6.51413 0H6.46154C4.74279 0.0167659 3.09987 0.73837 1.88991 2.00795C0.679956 3.27753 0.000772915 4.99247 0 6.77996C0.1434 9.65882 1.10283 12.4292 2.75742 14.742C5.42885 18.2416 8.53711 21.355 12 24C15.4629 21.355 18.5711 18.2416 21.2426 14.742C22.8972 12.4292 23.8566 9.65882 24 6.77996C23.9992 4.99151 23.3193 3.27574 22.1082 2.006C20.8971 0.736263 19.2528 0.0153034 17.5331 0Z" fill="#D90E0E"/>
</svg>
