<svg width="24" height="24" viewBox="0 0 24 24" fill="none" xmlns="http://www.w3.org/2000/svg">
<path d="M16.6109 2H16.5626C15.6532 2.00512 14.7593 2.24595 13.9619 2.70071C13.1644 3.15547 12.4886 3.80981 11.9955 4.60453C11.5024 3.80981 10.8266 3.15547 10.0292 2.70071C9.23176 2.24595 8.33789 2.00512 7.42844 2H7.38461C5.95232 2.01397 4.58322 2.61531 3.57493 3.67329C2.56663 4.73128 2.00064 6.16039 2 7.64997C2.1195 10.049 2.91902 12.3576 4.29785 14.285C6.52404 17.2013 9.11426 19.7958 12 22C14.8857 19.7958 17.476 17.2013 19.7021 14.285C21.081 12.3576 21.8805 10.049 22 7.64997C21.9993 6.15959 21.4327 4.72979 20.4235 3.67167C19.4142 2.61355 18.044 2.01275 16.6109 2Z" fill="#C02929"/>
</svg>
