<svg width="144" height="48" viewBox="0 0 144 48" fill="none" xmlns="http://www.w3.org/2000/svg">
<path d="M132.161 0.000155999H11.4416C11.0015 0.000155999 10.5668 0.000156 10.1279 0.00255599C9.76053 0.00495598 9.39608 0.011928 9.02517 0.0177959C8.21939 0.0272781 7.4155 0.0981672 6.6205 0.229847C5.82661 0.364394 5.05759 0.618053 4.33945 0.982245C3.62219 1.34952 2.9668 1.82675 2.39708 2.39663C1.82436 2.96491 1.34695 3.62176 0.983217 4.34193C0.618478 5.06067 0.365567 5.83086 0.233219 6.62591C0.0996128 7.41995 0.027718 8.22315 0.0181799 9.0283C0.00704398 9.39622 0.00586798 9.76536 0 10.1333V37.8704C0.00586798 38.243 0.00704398 38.6039 0.0181799 38.9766C0.0277209 39.7817 0.0996157 40.5849 0.233219 41.3789C0.365202 42.1744 0.618128 42.945 0.983217 43.6641C1.34679 44.3819 1.82426 45.0361 2.39708 45.6012C2.96464 46.1736 3.62045 46.6512 4.33945 47.0156C5.05759 47.3808 5.82652 47.636 6.6205 47.7726C7.41564 47.9032 8.21944 47.9741 9.02517 47.9848C9.39608 47.9929 9.76053 47.9976 10.1279 47.9976C10.5668 48 11.0016 48 11.4416 48H132.161C132.593 48 133.031 48 133.462 47.9976C133.828 47.9976 134.203 47.9929 134.568 47.9848C135.373 47.9747 136.175 47.9038 136.968 47.7726C137.765 47.635 138.537 47.3799 139.258 47.0156C139.977 46.651 140.632 46.1734 141.199 45.6012C141.77 45.0339 142.249 44.3802 142.617 43.6641C142.979 42.9445 143.23 42.174 143.36 41.3789C143.493 40.5848 143.568 39.7818 143.582 38.9766C143.587 38.6039 143.587 38.243 143.587 37.8704C143.596 37.4344 143.596 37.0008 143.596 36.5578V11.4435C143.596 11.004 143.596 10.5681 143.587 10.1333C143.587 9.76536 143.587 9.39622 143.582 9.02825C143.568 8.22304 143.493 7.42001 143.36 6.62586C143.229 5.83128 142.979 5.06114 142.617 4.34189C141.876 2.89838 140.701 1.72338 139.258 0.982137C138.537 0.618835 137.765 0.365243 136.968 0.229739C136.175 0.097479 135.373 0.0265652 134.568 0.0176279C134.203 0.011772 133.828 0.00473998 133.462 0.00239999C133.031 0 132.593 0 132.161 0V0.000155999Z" fill="#A6A6A6"/>
<path d="M10.133 46.95C9.76741 46.95 9.41063 46.9453 9.04788 46.9372C8.29642 46.9274 7.54672 46.862 6.80492 46.7415C6.11323 46.6223 5.44317 46.4007 4.81684 46.084C4.19625 45.7698 3.63023 45.3579 3.14045 44.8641C2.64358 44.376 2.22991 43.8099 1.91584 43.1883C1.59831 42.5626 1.37856 41.8919 1.26424 41.1996C1.14079 40.4558 1.074 39.7036 1.06444 38.9496C1.05684 38.6966 1.04688 37.8539 1.04688 37.8539V10.1333C1.04688 10.1333 1.05748 9.30366 1.0645 9.0599C1.07365 8.30712 1.14006 7.55613 1.26314 6.81343C1.37766 6.11925 1.59759 5.44665 1.91529 4.81891C2.2282 4.19769 2.63958 3.63119 3.13345 3.14138C3.62677 2.64691 4.19461 2.23289 4.81625 1.91442C5.44115 1.59868 6.10994 1.37865 6.80023 1.26169C7.54447 1.13997 8.29677 1.07417 9.05084 1.06482L10.1336 1.05017H133.455L134.551 1.06541C135.298 1.07429 136.044 1.13951 136.781 1.26052C137.479 1.37894 138.154 1.60051 138.786 1.91794C140.032 2.55975 141.045 3.57516 141.684 4.82184C141.997 5.44525 142.213 6.11236 142.327 6.80054C142.451 7.54934 142.521 8.30623 142.535 9.06518C142.539 9.40502 142.539 9.77006 142.539 10.1333C142.548 10.5833 142.548 11.0117 142.548 11.4435V36.5578C142.548 36.9938 142.548 37.4192 142.539 37.848C142.539 38.2383 142.539 38.5958 142.534 38.9637C142.52 39.7091 142.451 40.4525 142.329 41.1879C142.217 41.8851 141.998 42.561 141.681 43.1919C141.365 43.8068 140.953 44.3679 140.462 44.8547C139.972 45.3512 139.405 45.7655 138.783 46.0817C138.153 46.4009 137.478 46.6233 136.781 46.7415C136.039 46.8626 135.29 46.928 134.538 46.9372C134.187 46.9453 133.819 46.95 133.461 46.95L132.161 46.9524L10.133 46.95Z" fill="black"/>
<path d="M29.7235 24.3609C29.7364 23.3593 30.0025 22.3772 30.4969 21.5061C30.9913 20.635 31.6981 19.903 32.5514 19.3784C32.0093 18.6042 31.2942 17.9671 30.4628 17.5176C29.6314 17.0682 28.7066 16.8188 27.762 16.7892C25.7469 16.5777 23.7934 17.995 22.7665 17.995C21.7198 17.995 20.1388 16.8102 18.4363 16.8452C17.3351 16.8808 16.2619 17.201 15.3213 17.7747C14.3806 18.3484 13.6046 19.1559 13.0689 20.1187C10.7481 24.1368 12.4792 30.042 14.7023 33.2899C15.8146 34.8803 17.1145 36.6569 18.8154 36.5939C20.4799 36.5248 21.1016 35.5325 23.1107 35.5325C25.1012 35.5325 25.6844 36.5939 27.4199 36.5538C29.2059 36.5248 30.3312 34.9563 31.4045 33.3509C32.2037 32.2176 32.8186 30.9652 33.2266 29.6399C32.1889 29.201 31.3034 28.4664 30.6805 27.5276C30.0576 26.5889 29.7247 25.4875 29.7235 24.3609Z" fill="white"/>
<path d="M26.4466 14.6532C27.4205 13.4842 27.9002 11.9816 27.7841 10.4645C26.2963 10.6207 24.922 11.3318 23.935 12.456C23.4524 13.0052 23.0828 13.6441 22.8473 14.3362C22.6118 15.0284 22.515 15.7601 22.5625 16.4897C23.3067 16.4973 24.0429 16.336 24.7157 16.0179C25.3885 15.6998 25.9803 15.2332 26.4466 14.6532Z" fill="white"/>
<path d="M50.7625 32.5683H45.0824L43.7184 36.596H41.3125L46.6926 21.6945H49.1922L54.5722 36.596H52.1253L50.7625 32.5683ZM45.6707 30.7097H50.1731L47.9535 24.173H47.8914L45.6707 30.7097Z" fill="white"/>
<path d="M66.191 31.1636C66.191 34.5398 64.384 36.7089 61.657 36.7089C60.9663 36.745 60.2793 36.5859 59.6747 36.2497C59.0702 35.9136 58.5725 35.4139 58.2387 34.8081H58.1871V40.1893H55.957V25.7308H58.1157V27.5378H58.1567C58.5058 26.9349 59.0119 26.4378 59.621 26.0996C60.2302 25.7614 60.9196 25.5947 61.616 25.6171C64.3734 25.6171 66.191 27.7968 66.191 31.1636ZM63.8988 31.1636C63.8988 28.964 62.7621 27.5179 61.0277 27.5179C59.3238 27.5179 58.1778 28.9945 58.1778 31.1636C58.1778 33.3526 59.3238 34.8187 61.0277 34.8187C62.7621 34.8187 63.8988 33.3831 63.8988 31.1636Z" fill="white"/>
<path d="M78.148 31.1636C78.148 34.5397 76.341 36.7089 73.6141 36.7089C72.9233 36.745 72.2363 36.5859 71.6318 36.2497C71.0272 35.9136 70.5295 35.4139 70.1957 34.8081H70.1441V40.1893H67.9141V25.7308H70.0726V27.5378H70.1137C70.4628 26.9348 70.9689 26.4378 71.578 26.0996C72.1872 25.7614 72.8766 25.5947 73.573 25.6171C76.3305 25.6171 78.148 27.7968 78.148 31.1636ZM75.8559 31.1636C75.8559 28.964 74.7191 27.5179 72.9848 27.5179C71.2809 27.5179 70.1348 28.9944 70.1348 31.1636C70.1348 33.3526 71.2809 34.8186 72.9848 34.8186C74.7192 34.8186 75.8559 33.3831 75.8559 31.1636H75.8559Z" fill="white"/>
<path d="M86.0524 34.9981C86.2176 36.4758 87.6532 37.4461 89.6149 37.4461C91.4945 37.4461 92.8469 36.4758 92.8469 35.1433C92.8469 33.9867 92.0313 33.2941 90.1 32.8195L88.1688 32.3543C85.4325 31.6933 84.1621 30.4137 84.1621 28.3371C84.1621 25.766 86.4028 24 89.5844 24C92.7332 24 94.8918 25.766 94.9645 28.3371H92.7133C92.5785 26.85 91.3492 25.9523 89.5527 25.9523C87.7562 25.9523 86.527 26.8605 86.527 28.1824C86.527 29.2359 87.3121 29.8558 89.2328 30.3304L90.8746 30.7335C93.932 31.4566 95.2023 32.6847 95.2023 34.8644C95.2023 37.6523 92.9816 39.3983 89.4496 39.3983C86.1449 39.3983 83.9137 37.6933 83.7695 34.998L86.0524 34.9981Z" fill="white"/>
<path d="M100.016 25.7146V28.2857H102.082V30.0517H100.016V36.0411C100.016 36.9716 100.429 37.4052 101.337 37.4052C101.583 37.4009 101.828 37.3837 102.071 37.3536V39.109C101.663 39.1853 101.248 39.2199 100.832 39.2122C98.6328 39.2122 97.775 38.386 97.775 36.279V30.0517H96.1953V28.2857H97.775V25.7146H100.016Z" fill="white"/>
<path d="M103.277 33.7185C103.277 30.3001 105.291 28.1521 108.43 28.1521C111.58 28.1521 113.584 30.3001 113.584 33.7185C113.584 37.1462 111.591 39.2849 108.43 39.2849C105.271 39.2849 103.277 37.1462 103.277 33.7185ZM111.312 33.7185C111.312 31.3736 110.237 29.9896 108.43 29.9896C106.623 29.9896 105.55 31.3841 105.55 33.7185C105.55 36.0728 106.623 37.4462 108.43 37.4462C110.237 37.4462 111.312 36.0728 111.312 33.7185Z" fill="white"/>
<path d="M115.422 28.2856H117.549V30.1348H117.6C117.744 29.5573 118.083 29.0469 118.559 28.6894C119.034 28.332 119.619 28.1492 120.214 28.1719C120.471 28.171 120.727 28.1989 120.978 28.2551V30.3411C120.653 30.2419 120.315 30.1964 119.976 30.2063C119.652 30.1932 119.329 30.2503 119.029 30.3738C118.729 30.4972 118.46 30.6841 118.239 30.9216C118.018 31.159 117.851 31.4415 117.75 31.7495C117.649 32.0575 117.615 32.3837 117.652 32.7059V39.15H115.422L115.422 28.2856Z" fill="white"/>
<path d="M131.261 35.9591C130.961 37.9314 129.041 39.2849 126.583 39.2849C123.423 39.2849 121.461 37.1673 121.461 33.77C121.461 30.3623 123.433 28.1521 126.489 28.1521C129.495 28.1521 131.386 30.2169 131.386 33.5111V34.2751H123.712V34.4099C123.677 34.8097 123.727 35.2125 123.859 35.5915C123.991 35.9705 124.203 36.3171 124.479 36.6081C124.755 36.8992 125.091 37.1281 125.462 37.2797C125.834 37.4312 126.234 37.502 126.635 37.4872C127.162 37.5366 127.691 37.4145 128.143 37.1392C128.595 36.8639 128.946 36.45 129.144 35.9591L131.261 35.9591ZM123.723 32.7165H129.154C129.174 32.357 129.12 31.9973 128.994 31.6598C128.869 31.3224 128.675 31.0145 128.424 30.7556C128.174 30.4967 127.873 30.2923 127.54 30.1552C127.207 30.0181 126.849 29.9514 126.489 29.9591C126.126 29.957 125.766 30.0267 125.43 30.1644C125.094 30.3021 124.789 30.505 124.532 30.7614C124.274 31.0177 124.07 31.3225 123.932 31.6581C123.793 31.9936 123.722 32.3534 123.723 32.7165V32.7165Z" fill="white"/>
<path d="M45.391 10.4779C45.8585 10.4443 46.3277 10.5149 46.7646 10.6847C47.2016 10.8544 47.5954 11.1189 47.9177 11.4593C48.24 11.7996 48.4827 12.2073 48.6284 12.6528C48.7741 13.0983 48.8191 13.5706 48.7601 14.0356C48.7601 16.3231 47.5238 17.638 45.391 17.638H42.8047V10.4779H45.391ZM43.9168 16.6254H45.2668C45.6009 16.6454 45.9352 16.5906 46.2454 16.4651C46.5557 16.3396 46.834 16.1464 47.0602 15.8997C47.2864 15.6531 47.4548 15.359 47.553 15.0391C47.6512 14.7192 47.6769 14.3813 47.6281 14.0502C47.6733 13.7204 47.6451 13.3847 47.5453 13.0671C47.4456 12.7495 47.2768 12.4579 47.0512 12.2132C46.8255 11.9685 46.5485 11.7767 46.24 11.6516C45.9315 11.5266 45.5992 11.4713 45.2668 11.4897H43.9168V16.6254Z" fill="white"/>
<path d="M50.016 14.9333C49.982 14.5782 50.0226 14.2199 50.1352 13.8814C50.2478 13.5429 50.4299 13.2317 50.6699 12.9678C50.9098 12.7038 51.2023 12.4929 51.5285 12.3485C51.8547 12.2042 52.2075 12.1296 52.5642 12.1296C52.9209 12.1296 53.2737 12.2042 53.5999 12.3485C53.9261 12.4929 54.2186 12.7038 54.4585 12.9678C54.6985 13.2317 54.8806 13.5429 54.9932 13.8814C55.1058 14.2199 55.1464 14.5782 55.1124 14.9333C55.147 15.2887 55.1069 15.6475 54.9946 15.9866C54.8823 16.3256 54.7003 16.6374 54.4603 16.9019C54.2203 17.1664 53.9276 17.3777 53.6011 17.5224C53.2745 17.667 52.9213 17.7417 52.5642 17.7417C52.207 17.7417 51.8539 17.667 51.5273 17.5224C51.2008 17.3777 50.9081 17.1664 50.6681 16.9019C50.4281 16.6374 50.2461 16.3256 50.1338 15.9866C50.0215 15.6475 49.9813 15.2887 50.016 14.9333ZM54.0155 14.9333C54.0155 13.762 53.4894 13.077 52.566 13.077C51.639 13.077 51.1176 13.762 51.1176 14.9333C51.1176 16.114 51.639 16.7936 52.566 16.7936C53.4894 16.7936 54.0156 16.1093 54.0156 14.9333H54.0155Z" fill="white"/>
<path d="M61.8875 17.6374H60.7812L59.6644 13.6577H59.5801L58.468 17.6374H57.3723L55.8828 12.2339H56.9645L57.9324 16.3571H58.0121L59.123 12.2339H60.1461L61.257 16.3571H61.3414L62.3047 12.2339H63.3711L61.8875 17.6374Z" fill="white"/>
<path d="M64.6231 12.2341H65.6496V13.0925H65.7293C65.8645 12.7842 66.0925 12.5258 66.3815 12.3532C66.6706 12.1806 67.0063 12.1026 67.3418 12.1298C67.6047 12.1101 67.8687 12.1497 68.1142 12.2458C68.3597 12.3419 68.5805 12.4921 68.7601 12.6851C68.9397 12.8781 69.0736 13.109 69.1519 13.3608C69.2301 13.6126 69.2507 13.8788 69.2121 14.1396V17.6376H68.1457V14.4074C68.1457 13.539 67.7684 13.1072 66.9797 13.1072C66.8012 13.0989 66.623 13.1292 66.4573 13.1962C66.2916 13.2632 66.1424 13.3653 66.0199 13.4953C65.8973 13.6254 65.8043 13.7804 65.7473 13.9498C65.6903 14.1191 65.6705 14.2988 65.6894 14.4765V17.6376H64.623L64.6231 12.2341Z" fill="white"/>
<path d="M70.9121 10.1245H71.9785V17.6374H70.9121V10.1245Z" fill="white"/>
<path d="M73.4612 14.9334C73.4273 14.5783 73.4679 14.22 73.5806 13.8815C73.6932 13.543 73.8754 13.2317 74.1153 12.9678C74.3553 12.7038 74.6477 12.4929 74.974 12.3485C75.3002 12.2042 75.653 12.1296 76.0098 12.1296C76.3665 12.1296 76.7193 12.2042 77.0456 12.3485C77.3718 12.4929 77.6643 12.7038 77.9042 12.9678C78.1442 13.2317 78.3263 13.543 78.439 13.8815C78.5516 14.22 78.5922 14.5783 78.5583 14.9334C78.5929 15.2889 78.5527 15.6476 78.4403 15.9867C78.328 16.3257 78.146 16.6375 77.906 16.902C77.6659 17.1664 77.3733 17.3778 77.0467 17.5224C76.7201 17.6671 76.3669 17.7418 76.0098 17.7418C75.6526 17.7418 75.2994 17.6671 74.9728 17.5224C74.6463 17.3778 74.3536 17.1664 74.1136 16.902C73.8736 16.6375 73.6915 16.3257 73.5792 15.9867C73.4668 15.6476 73.4267 15.2889 73.4612 14.9334ZM77.4608 14.9334C77.4608 13.7621 76.9347 13.0771 76.0112 13.0771C75.0843 13.0771 74.5628 13.7621 74.5628 14.9334C74.5628 16.1141 75.0843 16.7937 76.0112 16.7937C76.9347 16.7937 77.4608 16.1094 77.4608 14.9334H77.4608Z" fill="white"/>
<path d="M79.6797 15.9847C79.6797 15.012 80.4039 14.4513 81.6894 14.3716L83.1531 14.2872V13.8208C83.1531 13.2501 82.7758 12.9278 82.0469 12.9278C81.4516 12.9278 81.0391 13.1464 80.9207 13.5284H79.8883C79.9973 12.6003 80.8703 12.005 82.0961 12.005C83.4508 12.005 84.2148 12.6794 84.2148 13.8208V17.5128H83.1883V16.7534H83.1039C82.9326 17.0258 82.6922 17.2479 82.407 17.3969C82.1219 17.546 81.8023 17.6167 81.4809 17.6018C81.254 17.6254 81.0247 17.6012 80.8078 17.5308C80.5909 17.4603 80.3912 17.3452 80.2215 17.1929C80.0518 17.0405 79.9159 16.8543 79.8226 16.6462C79.7293 16.4381 79.6806 16.2127 79.6797 15.9847ZM83.1531 15.5229V15.0712L81.8336 15.1556C81.0894 15.2054 80.7519 15.4585 80.7519 15.9349C80.7519 16.4212 81.1738 16.7042 81.7539 16.7042C81.9239 16.7214 82.0956 16.7042 82.2588 16.6537C82.422 16.6032 82.5734 16.5204 82.7039 16.4102C82.8345 16.3 82.9415 16.1646 83.0187 16.0122C83.0959 15.8598 83.1416 15.6934 83.1531 15.5229Z" fill="white"/>
<path d="M85.6172 14.8088C85.6172 13.1014 86.4949 12.0197 87.8601 12.0197C88.1978 12.0042 88.533 12.0851 88.8264 12.2529C89.1199 12.4208 89.3594 12.6687 89.5172 12.9677H89.5969V10H90.6633V17.5129H89.6414V16.6591H89.557C89.3871 16.9561 89.1392 17.201 88.8401 17.3672C88.541 17.5333 88.2021 17.6145 87.8602 17.6019C86.4856 17.602 85.6172 16.5203 85.6172 14.8088ZM86.7188 14.8088C86.7188 15.9549 87.259 16.6445 88.1625 16.6445C89.0613 16.6445 89.6168 15.9449 89.6168 14.8135C89.6168 13.6873 89.0555 12.9777 88.1625 12.9777C87.2648 12.9777 86.7187 13.6721 86.7187 14.8088H86.7188Z" fill="white"/>
<path d="M95.0746 14.8086C95.0406 14.4535 95.0812 14.0953 95.1938 13.7568C95.3064 13.4183 95.4885 13.1071 95.7285 12.8431C95.9684 12.5791 96.2608 12.3682 96.5871 12.2239C96.9133 12.0796 97.2661 12.005 97.6228 12.005C97.9795 12.005 98.3323 12.0796 98.6585 12.2239C98.9847 12.3682 99.2772 12.5791 99.5171 12.8431C99.757 13.1071 99.9391 13.4183 100.052 13.7568C100.164 14.0953 100.205 14.4535 100.171 14.8086C100.206 15.1641 100.165 15.5229 100.053 15.8619C99.9409 16.2009 99.7589 16.5127 99.5189 16.7772C99.2789 17.0417 98.9862 17.2531 98.6597 17.3977C98.3331 17.5424 97.9799 17.6171 97.6228 17.6171C97.2656 17.6171 96.9124 17.5424 96.5859 17.3977C96.2593 17.2531 95.9667 17.0417 95.7267 16.7772C95.4867 16.5127 95.3047 16.2009 95.1924 15.8619C95.0801 15.5229 95.0399 15.1641 95.0746 14.8086ZM99.0741 14.8086C99.0741 13.6374 98.548 12.9524 97.6245 12.9524C96.6976 12.9524 96.1762 13.6374 96.1762 14.8087C96.1762 15.9893 96.6976 16.669 97.6245 16.669C98.548 16.669 99.0741 15.9846 99.0741 14.8086Z" fill="white"/>
<path d="M101.602 12.1095H102.628V12.9679H102.708C102.843 12.6596 103.071 12.4011 103.36 12.2286C103.649 12.056 103.985 11.9779 104.32 12.0052C104.583 11.9854 104.847 12.0251 105.093 12.1212C105.338 12.2173 105.559 12.3674 105.739 12.5604C105.918 12.7535 106.052 12.9844 106.13 13.2362C106.209 13.488 106.229 13.7541 106.191 14.015V17.5129H105.124V14.2827C105.124 13.4144 104.747 12.9825 103.958 12.9825C103.78 12.9742 103.601 13.0046 103.436 13.0716C103.27 13.1386 103.121 13.2406 102.998 13.3707C102.876 13.5008 102.783 13.6558 102.726 13.8251C102.669 13.9945 102.649 14.1742 102.668 14.3519V17.513H101.602V12.1095Z" fill="white"/>
<path d="M112.218 10.7639V12.1338H113.389V13.0321H112.218V15.8106C112.218 16.3766 112.452 16.6244 112.982 16.6244C113.118 16.624 113.254 16.6158 113.389 16.5998V17.4881C113.198 17.5224 113.004 17.5406 112.809 17.5426C111.623 17.5426 111.151 17.1254 111.151 16.0836V13.032H110.293V12.1338H111.151V10.7639H112.218Z" fill="white"/>
<path d="M114.844 10H115.901V12.9777H115.985C116.127 12.6665 116.361 12.4066 116.656 12.2334C116.951 12.0602 117.292 11.9821 117.633 12.0098C117.894 11.9955 118.156 12.0392 118.398 12.1376C118.641 12.2361 118.859 12.3869 119.037 12.5793C119.215 12.7717 119.348 13.001 119.427 13.2507C119.506 13.5005 119.529 13.7646 119.494 14.0242V17.5129H118.426V14.2873C118.426 13.4242 118.024 12.9871 117.271 12.9871C117.087 12.9721 116.903 12.9973 116.731 13.0609C116.558 13.1246 116.401 13.2252 116.272 13.3557C116.142 13.4861 116.043 13.6434 115.98 13.8163C115.918 13.9893 115.894 14.1738 115.91 14.357V17.5128H114.844L114.844 10Z" fill="white"/>
<path d="M125.712 16.0537C125.567 16.5475 125.253 16.9747 124.825 17.2605C124.397 17.5462 123.882 17.6724 123.371 17.6169C123.015 17.6263 122.661 17.5581 122.334 17.4171C122.007 17.2761 121.715 17.0656 121.477 16.8002C121.24 16.5348 121.063 16.221 120.959 15.8804C120.855 15.5398 120.826 15.1807 120.875 14.8279C120.827 14.474 120.856 14.1141 120.96 13.7725C121.064 13.4309 121.24 13.1156 121.476 12.8479C121.712 12.5802 122.003 12.3664 122.329 12.221C122.655 12.0755 123.009 12.0018 123.366 12.0049C124.87 12.0049 125.777 13.032 125.777 14.7288V15.1009H121.961V15.1607C121.944 15.359 121.969 15.5586 122.034 15.7467C122.099 15.9348 122.203 16.1072 122.338 16.253C122.474 16.3987 122.638 16.5146 122.821 16.593C123.004 16.6715 123.201 16.7109 123.4 16.7087C123.655 16.7393 123.914 16.6934 124.142 16.5767C124.371 16.4601 124.56 16.278 124.686 16.0536L125.712 16.0537ZM121.961 14.3123H124.69C124.704 14.1309 124.679 13.9488 124.618 13.7775C124.557 13.6062 124.46 13.4497 124.335 13.3178C124.21 13.186 124.058 13.0818 123.89 13.012C123.723 12.9422 123.542 12.9083 123.36 12.9125C123.176 12.9102 122.993 12.9448 122.822 13.0143C122.651 13.0838 122.496 13.1869 122.365 13.3173C122.235 13.4478 122.132 13.603 122.063 13.7739C121.993 13.9448 121.959 14.1278 121.961 14.3123H121.961Z" fill="white"/>
</svg>
