<svg width="72" height="72" viewBox="0 0 72 72" fill="none" xmlns="http://www.w3.org/2000/svg">
<circle opacity="0.3" cx="36" cy="36" r="35.4197" stroke="#3A58BA" stroke-width="1.16067"/>
<path d="M43.5704 36.4998C43.5346 33.024 46.4043 31.3606 46.5315 31.2772C44.9198 28.9222 42.4118 28.5983 41.5156 28.5625C39.3832 28.3439 37.3502 29.8185 36.2651 29.8185C35.1841 29.8185 33.5108 28.5924 31.7401 28.6241C29.411 28.6599 27.2667 29.9795 26.0664 32.0622C23.6478 36.2593 25.4463 42.4756 27.8033 45.8838C28.9559 47.5491 30.3311 49.4191 32.1336 49.3536C33.8705 49.284 34.5263 48.2288 36.6268 48.2288C38.7274 48.2288 39.3176 49.3536 41.1539 49.3198C43.0239 49.284 44.2064 47.6207 45.349 45.9513C46.6726 44.0177 47.2171 42.1437 47.2509 42.0503C47.2072 42.0264 43.6082 40.6492 43.5704 36.4998Z" fill="#030104"/>
<path d="M40.1174 26.307C41.0733 25.1484 41.7211 23.5347 41.5443 21.927C40.1631 21.9826 38.4958 22.8431 37.5041 24.0037C36.6158 25.0311 35.8427 26.6706 36.0494 28.2466C37.5876 28.3678 39.1615 27.4636 40.1174 26.307Z" fill="#030104"/>
</svg>
