<svg width="126" height="50" viewBox="0 0 126 50" fill="none" xmlns="http://www.w3.org/2000/svg">
<path d="M104.633 49.9702C110.435 49.9702 113.165 47.8285 115.55 41.3365L125.999 12.9816H119.949L112.942 34.9187H112.82L105.813 13.0113H99.5917L109.672 39.9994L109.132 41.641C108.751 43.9907 106.57 45.6669 104.116 45.4936C103.648 45.4936 102.739 45.4466 102.371 45.3995V49.8563C103.121 49.9553 103.878 50.0024 104.633 49.9999V49.9702ZM84.4727 35.7705C81.2994 35.7705 79.2854 34.2849 79.2854 32.0367C79.2854 29.7068 81.2278 28.35 84.941 28.1345L91.5537 27.731V29.8256C91.4078 33.2771 88.3958 35.9636 84.8284 35.8225C84.7081 35.8175 84.5904 35.8076 84.4727 35.7977V35.7705ZM82.8758 40.1703C86.4764 40.2644 89.8442 38.4495 91.6535 35.4362H91.7763V39.893H97.2834V21.4345C97.2834 16.0815 92.8588 12.6324 86.0465 12.6324C79.7281 12.6324 75.0553 16.1285 74.8838 20.9344H80.2451C80.8849 18.4906 83.2853 16.8787 85.8751 17.1511C89.5141 17.1511 91.5537 18.7927 91.5537 21.8134V23.8585L84.1323 24.2869C77.2228 24.6905 73.4865 27.4264 73.4865 32.1852C73.4814 37.0109 77.3405 40.1975 82.8733 40.1975L82.8758 40.1703ZM50.9615 7.65325H57.8198C62.9841 7.65325 65.9347 10.3174 65.9347 15.0044C65.9347 19.6915 62.9841 22.3779 57.7968 22.3779H50.9615V7.65325ZM45.0116 2.80033V39.8855H50.9615V27.2432H59.1992C65.9091 27.5923 71.6389 22.6131 71.9997 16.1211C72.0202 15.7522 72.0228 15.3857 72.0074 15.0168C72.3247 8.5966 67.204 3.14449 60.5683 2.835C60.1768 2.81766 59.7878 2.82014 59.3962 2.83747L45.0116 2.80033ZM25.2632 9.72069C21.8443 9.53004 18.9192 11.6 17.2968 11.6C15.6743 11.6 13.1664 9.81725 10.4615 9.86677C6.87876 9.95591 3.61337 11.8748 1.88087 14.9103C-1.80677 21.0483 0.92122 30.1351 4.48602 35.1292C6.23131 37.6052 8.32465 40.3164 11.0757 40.2198C13.6808 40.1257 14.7147 38.5782 17.8623 38.5782C21.01 38.5782 21.9441 40.2198 24.6976 40.1703C27.5485 40.1232 29.3449 37.6943 31.0954 35.2183C32.3288 33.4653 33.2885 31.5464 33.9462 29.5236C30.5861 28.1024 28.4083 24.9009 28.3904 21.3528C28.4416 18.2232 30.1357 15.3362 32.8893 13.6946C31.1337 11.283 28.3162 9.8024 25.2683 9.69841L25.2632 9.72069ZM23.1289 6.44497C21.6319 8.26977 19.3415 9.31711 16.9334 9.27501C16.7798 7.00207 17.5783 4.76626 19.147 3.06774C20.708 1.31474 22.9089 0.21541 25.2888 0C25.4577 2.33732 24.6823 4.64494 23.1238 6.43754" fill="black"/>
</svg>
