<svg width="56" height="56" viewBox="0 0 56 56" fill="none" xmlns="http://www.w3.org/2000/svg">
<circle opacity="0.3" cx="28" cy="28" r="27.4197" stroke="#3A58BA" stroke-width="1.16067"/>
<path d="M33.8883 28.3887C33.8605 25.6853 36.0924 24.3916 36.1914 24.3267C34.9378 22.4951 32.9872 22.2431 32.2901 22.2153C30.6316 22.0453 29.0504 23.1922 28.2064 23.1922C27.3656 23.1922 26.0641 22.2385 24.687 22.2632C22.8754 22.2911 21.2076 23.3174 20.2741 24.9372C18.393 28.2017 19.7918 33.0366 21.625 35.6874C22.5215 36.9826 23.5911 38.4371 24.993 38.3861C26.3439 38.332 26.854 37.5113 28.4878 37.5113C30.1215 37.5113 30.5806 38.3861 32.0088 38.3598C33.4633 38.332 34.3829 37.0383 35.2717 35.7399C36.3011 34.236 36.7246 32.7784 36.7509 32.7058C36.7169 32.6872 33.9177 31.6161 33.8883 28.3887Z" fill="#030104"/>
<path d="M31.202 20.461C31.9455 19.5598 32.4493 18.3048 32.3118 17.0543C31.2375 17.0976 29.9407 17.7669 29.1694 18.6695C28.4785 19.4686 27.8773 20.7438 28.038 21.9695C29.2344 22.0638 30.4585 21.3605 31.202 20.461Z" fill="#030104"/>
</svg>
