<svg xmlns="http://www.w3.org/2000/svg" viewBox="0 0 1122 1122"><defs><style>.cls-1{fill:#fff;}.cls-2{fill:#3fa9f5;}</style></defs><title>arrow</title><g id="Bg"><rect class="cls-1" width="1122" height="1122"/></g><g id="Object"><polygon class="cls-2" points="353.32 576.9 343.42 577.16 343.42 577.17 353.32 576.9"/><path class="cls-2" d="M396.09,736.84c-43-43.07-67.24-94.29-72.1-152.36l-59.87,6.7-.81.09-.81,0c-4.68.15-10.82.4-16.9,1.14-1.31.16-2.6.34-3.9.54A333.18,333.18,0,0,0,797.9,805.85l-58.62-58.62a250.73,250.73,0,0,1-343.19-10.39Z"/><path class="cls-2" d="M570.67,229A331.11,331.11,0,0,0,335,326.61q-11.1,11.1-21,23.07l59,59a250.19,250.19,0,0,1,447.89,147q41.13-6.75,82.39-13.31A333.12,333.12,0,0,0,570.7,229Z"/><polygon class="cls-2" points="253.19 288.88 218.72 522.07 451.3 486.98 373 408.69 314 349.68 253.19 288.88"/><polygon class="cls-2" points="739.27 747.23 797.9 805.85 857.93 865.88 893.01 633.3 659.81 667.77 739.27 747.23"/></g></svg>