<svg width="49" height="25" viewBox="0 0 49 25" fill="none" xmlns="http://www.w3.org/2000/svg">
<path d="M5.22699 12.3334C5.22699 8.22936 8.56299 4.89336 12.667 4.89336H22.267V0.333359H12.667C6.04299 0.333359 0.666992 5.70936 0.666992 12.3334C0.666992 18.9574 6.04299 24.3334 12.667 24.3334H22.267V19.7734H12.667C8.56299 19.7734 5.22699 16.4374 5.22699 12.3334ZM15.067 14.7334H34.267V9.93336H15.067V14.7334ZM36.667 0.333359H27.067V4.89336H36.667C40.771 4.89336 44.107 8.22936 44.107 12.3334C44.107 16.4374 40.771 19.7734 36.667 19.7734H27.067V24.3334H36.667C43.291 24.3334 48.667 18.9574 48.667 12.3334C48.667 5.70936 43.291 0.333359 36.667 0.333359Z" fill="#12004C"/>
</svg>
