<svg width="23" height="24" viewBox="0 0 23 24" fill="none" xmlns="http://www.w3.org/2000/svg">
<path d="M18.9677 14.4789C18.4763 13.9673 17.8837 13.6938 17.2556 13.6938C16.6326 13.6938 16.0348 13.9623 15.5232 14.4739L13.9226 16.0695C13.7909 15.9985 13.6592 15.9327 13.5326 15.8668C13.3502 15.7757 13.178 15.6896 13.0311 15.5984C11.5317 14.6461 10.1691 13.4051 8.86229 11.7994C8.22912 10.999 7.80362 10.3253 7.49464 9.64151C7.91 9.26161 8.29497 8.86651 8.6698 8.48661C8.81163 8.34478 8.95346 8.19788 9.09529 8.05605C10.159 6.99232 10.159 5.61455 9.09529 4.55082L7.71245 3.16798C7.55542 3.01095 7.39333 2.84886 7.24137 2.68677C6.93745 2.37271 6.61833 2.04853 6.28908 1.74461C5.79774 1.25833 5.21016 1 4.59218 1C3.97421 1 3.3765 1.25833 2.86996 1.74461C2.86489 1.74967 2.86489 1.74967 2.85983 1.75474L1.13761 3.49216C0.489239 4.14053 0.119467 4.93072 0.0384214 5.84755C-0.0831474 7.32664 0.352474 8.70442 0.686788 9.60605C1.50738 11.8196 2.7332 13.8711 4.56179 16.0695C6.78042 18.7186 9.44987 20.8106 12.4992 22.2847C13.6643 22.8368 15.2193 23.4902 16.9567 23.6017C17.0631 23.6067 17.1745 23.6118 17.2759 23.6118C18.446 23.6118 19.4286 23.1914 20.1986 22.3556C20.2036 22.3454 20.2138 22.3404 20.2188 22.3302C20.4822 22.0111 20.7862 21.7224 21.1053 21.4134C21.3231 21.2057 21.546 20.9879 21.7638 20.76C22.2652 20.2383 22.5286 19.6304 22.5286 19.0074C22.5286 18.3793 22.2602 17.7765 21.7486 17.2699L18.9677 14.4789ZM20.7811 19.8128C20.776 19.8128 20.776 19.8178 20.7811 19.8128C20.5835 20.0255 20.3809 20.218 20.1631 20.4307C19.8339 20.7448 19.4996 21.074 19.1855 21.4438C18.6739 21.9909 18.0711 22.2492 17.2809 22.2492C17.2049 22.2492 17.1239 22.2492 17.0479 22.2441C15.5435 22.1479 14.1455 21.5603 13.0969 21.0588C10.2299 19.6709 7.71245 17.7005 5.62045 15.2033C3.89316 13.1214 2.73826 11.1966 1.97339 9.12991C1.50231 7.86863 1.33009 6.88595 1.40607 5.95899C1.45672 5.36634 1.68466 4.875 2.10509 4.45458L3.83238 2.72729C4.08058 2.49428 4.34398 2.36765 4.60231 2.36765C4.92143 2.36765 5.17977 2.56013 5.34186 2.72222C5.34692 2.72729 5.35199 2.73235 5.35705 2.73742C5.66604 3.02615 5.95983 3.325 6.26882 3.64412C6.42585 3.80621 6.58794 3.9683 6.75003 4.13546L8.13287 5.5183C8.6698 6.05523 8.6698 6.55164 8.13287 7.08857C7.98598 7.23546 7.84415 7.38236 7.69725 7.52419C7.27176 7.95981 6.86653 8.36504 6.42585 8.76014C6.41572 8.77027 6.40558 8.77533 6.40052 8.78546C5.9649 9.22109 6.04594 9.64658 6.13712 9.9353C6.14219 9.9505 6.14725 9.96569 6.15232 9.98089C6.51196 10.8521 7.01849 11.6727 7.78843 12.6503L7.79349 12.6554C9.19153 14.3776 10.6656 15.7199 12.2915 16.7482C12.4992 16.8799 12.712 16.9863 12.9146 17.0876C13.0969 17.1788 13.2692 17.2649 13.416 17.3561C13.4363 17.3662 13.4566 17.3814 13.4768 17.3915C13.6491 17.4776 13.8111 17.5182 13.9783 17.5182C14.3987 17.5182 14.6621 17.2548 14.7482 17.1686L16.4806 15.4363C16.6528 15.2641 16.9263 15.0564 17.2455 15.0564C17.5595 15.0564 17.8179 15.2539 17.9749 15.4262C17.9799 15.4312 17.9799 15.4312 17.985 15.4363L20.776 18.2273C21.2978 18.744 21.2978 19.2758 20.7811 19.8128Z" fill="#FAFAFA"/>
<path d="M12.9701 5.70896C14.2972 5.93184 15.5028 6.55994 16.4652 7.52236C17.4276 8.48478 18.0507 9.69034 18.2786 11.0175C18.3343 11.3518 18.6231 11.5848 18.9523 11.5848C18.9928 11.5848 19.0283 11.5797 19.0688 11.5747C19.4436 11.5139 19.6918 11.1593 19.6311 10.7845C19.3575 9.17873 18.5977 7.71484 17.4378 6.55488C16.2778 5.39491 14.8139 4.6351 13.2082 4.36157C12.8333 4.30079 12.4838 4.54899 12.418 4.91876C12.3521 5.28853 12.5953 5.64817 12.9701 5.70896Z" fill="#FAFAFA"/>
<path d="M23.9723 10.5869C23.5215 7.94278 22.2754 5.53674 20.3607 3.62203C18.446 1.70732 16.04 0.461243 13.3958 0.0104253C13.0261 -0.0554245 12.6766 0.197844 12.6107 0.567615C12.5499 0.942452 12.7981 1.29196 13.173 1.35781C15.5334 1.75798 17.6862 2.87742 19.3983 4.58445C21.1104 6.29654 22.2248 8.44932 22.6249 10.8098C22.6807 11.1441 22.9694 11.3771 23.2986 11.3771C23.3392 11.3771 23.3746 11.372 23.4151 11.367C23.7849 11.3113 24.0382 10.9567 23.9723 10.5869Z" fill="#FAFAFA"/>
</svg>
