<svg width="338" height="97" viewBox="0 0 338 97" fill="none" xmlns="http://www.w3.org/2000/svg">
<path d="M11 2C8.61386 2.00265 6.32622 2.95171 4.63896 4.63896C2.95171 6.32622 2.00265 8.61386 2 11V86C2.00265 88.3861 2.95171 90.6738 4.63896 92.361C6.32622 94.0483 8.61386 94.9974 11 95H327C329.386 94.9974 331.674 94.0483 333.361 92.361C335.048 90.6738 335.997 88.3861 336 86V11C335.997 8.61386 335.048 6.32622 333.361 4.63896C331.674 2.95171 329.386 2.00265 327 2H11ZM11 0H327C329.917 0 332.715 1.15893 334.778 3.22183C336.841 5.28473 338 8.08262 338 11V86C338 88.9174 336.841 91.7153 334.778 93.7782C332.715 95.8411 329.917 97 327 97H11C8.08262 97 5.28473 95.8411 3.22183 93.7782C1.15893 91.7153 0 88.9174 0 86L0 11C0 8.08262 1.15893 5.28473 3.22183 3.22183C5.28473 1.15893 8.08262 0 11 0Z" fill="black"/>
<path d="M313.971 95.501H311.971V0.0400391H313.971V95.501Z" fill="black"/>
<path d="M163.013 87.738C163.068 85.238 162.813 84.613 160.97 82.883C159.785 83.8 158.612 84.771 157.37 85.653C156.576 86.2508 155.654 86.6554 154.676 86.8347C153.698 87.014 152.692 86.9631 151.737 86.686C149.704 86.126 148.237 84.336 148.586 82.451C148.698 82.0024 148.903 81.5825 149.189 81.2188C149.474 80.8551 149.833 80.556 150.242 80.341C151.223 79.923 151.878 80.793 152.25 81.775C152.921 83.545 153.761 83.907 155.399 83.003C156.493 82.3456 157.552 81.6313 158.571 80.863C158.051 78.911 157.524 77.295 157.246 75.636C157.174 75.206 157.884 74.645 158.206 74.187L160.342 79.316C161.667 78.145 162.607 77.329 163.529 76.494C164.414 75.694 165.281 74.87 166.267 73.954C156.967 66.231 147.222 59.887 134.78 59.183C138.814 57.7839 143.161 57.5513 147.321 58.512C153.954 59.977 159.358 63.729 164.488 67.948C165.929 69.133 167.322 70.376 168.658 71.525C171.885 69.002 174.97 66.432 178.219 64.09C182.216 61.045 186.899 59.0261 191.857 58.21C195.669 57.6025 199.572 57.9625 203.208 59.257C190.369 59.881 180.618 66.21 171.302 73.979L176.78 78.957C177.52 78.4454 178.108 77.7443 178.483 76.9273C178.858 76.1102 179.007 75.2072 178.913 74.313C181.069 75.121 180.998 76.959 178.556 80.585C179.91 81.464 181.219 82.434 182.639 83.2C182.871 83.3595 183.14 83.4575 183.42 83.4848C183.7 83.5122 183.983 83.4679 184.241 83.3561C184.5 83.2444 184.726 83.0689 184.898 82.846C185.07 82.6232 185.183 82.3603 185.225 82.082C185.605 80.963 186.09 79.982 187.525 80.325C188.7 80.609 189.306 81.961 189.007 83.432C188.713 84.593 187.984 85.5967 186.971 86.2356C185.958 86.8746 184.739 87.0999 183.564 86.865C182.005 86.4046 180.519 85.7276 179.148 84.854C178.267 84.2612 177.438 83.5944 176.669 82.861C175.89 83.3886 175.279 84.1281 174.907 84.9921C174.535 85.8561 174.418 86.8086 174.569 87.737H174.244C171.633 85.379 173.67 83.337 174.789 81.246L168.789 76.083L162.805 81.249C165.067 85.071 165.131 85.949 163.339 87.737L163.013 87.738Z" fill="black"/>
<path d="M165.875 34.3249C162.733 39.2709 161.713 44.7599 161.853 50.5799C159.397 45.136 159.141 38.9531 161.139 33.3249C158.703 34.9649 155.704 40.6089 153.649 47.2109C152.735 43.0819 153.249 36.1459 158.089 29.3109C154.496 31.8104 151.521 35.0964 149.389 38.9189C148.775 35.3049 151.718 30.3849 157.744 24.8189L157.554 24.4449C155.747 25.3185 153.99 26.2923 152.291 27.3619C150.58 28.6857 148.938 30.0962 147.371 31.5879C149.352 25.4719 153.559 22.0879 159.362 20.3149C157.143 19.4449 153.962 19.9319 149.11 21.8319C151.273 18.3729 154.61 17.1169 162.926 16.6369L163.038 16.1789L156.986 14.7989C158.566 13.0699 162.161 12.9419 166.879 14.6879L168.795 10.0879L170.732 14.7409C174.19 13.1599 177.532 12.8409 180.9 14.7639L174.6 16.1329L174.692 16.4099C177.241 16.7499 179.833 16.9099 182.328 17.4789C184.906 18.0719 186.943 19.7169 188.975 22.1589C185.704 20.3488 181.933 19.6508 178.231 20.1699C183.952 22.0849 188.266 25.4229 189.994 31.4539C187.278 28.3116 183.749 25.9782 179.794 24.7099C184.539 28.3029 187.785 32.7719 188.337 38.8609C186.074 35.0924 183.054 31.8349 179.466 29.2949C181.402 31.9068 182.801 34.8767 183.583 38.0327C184.364 41.1887 184.512 44.4683 184.018 47.6819C182.81 42.3473 180.268 37.4066 176.629 33.3229C178.443 38.9886 178.179 45.1153 175.884 50.6039C175.561 47.7389 175.391 44.8899 174.884 42.1039C174.393 39.3077 173.301 36.6514 171.684 34.3179L171.064 34.3749C171.161 36.4369 171.257 38.4989 171.352 40.5609C171.362 40.7779 171.328 40.9969 171.321 41.2159C171.183 45.1569 171.021 49.0979 170.921 53.0399C170.846 55.8839 170.754 58.7339 170.882 61.5719C170.918 62.3659 171.71 63.1249 172.212 63.9979H164.918C167.511 62.3979 166.611 60.2799 166.49 58.2579C166.416 57.0079 166.728 55.7399 166.75 54.4789C166.767 53.4389 166.543 52.3959 166.55 51.3549C166.559 49.9769 166.779 48.5969 166.745 47.2219C166.704 45.5769 166.413 43.9379 166.371 42.2929C166.304 39.6689 166.353 37.0429 166.353 34.4169L165.875 34.3249Z" fill="black"/>
<path d="M323.407 28.8625C323.442 28.6605 323.418 28.4528 323.338 28.2639C323.259 28.0751 323.127 27.9129 322.958 27.7965C322.698 27.9965 322.44 28.2115 322.168 28.4045C321.994 28.5362 321.791 28.6253 321.576 28.6647C321.362 28.7041 321.141 28.6927 320.931 28.6315C320.721 28.5898 320.534 28.4716 320.406 28.2998C320.278 28.1279 320.219 27.9147 320.239 27.7015C320.263 27.6028 320.309 27.5105 320.371 27.4305C320.434 27.3505 320.513 27.2847 320.603 27.2375C320.818 27.1455 320.962 27.3375 321.044 27.5525C321.191 27.9415 321.376 28.0205 321.735 27.8225C321.976 27.6782 322.21 27.5213 322.435 27.3525C322.321 26.9235 322.205 26.5685 322.144 26.2045C322.128 26.1105 322.284 25.9865 322.355 25.8865L322.824 27.0135C323.115 26.7565 323.324 26.5775 323.524 26.3935C323.724 26.2095 323.909 26.0365 324.124 25.8355C322.081 24.1355 319.941 22.7465 317.209 22.5915C318.095 22.2844 319.049 22.2334 319.963 22.4445C321.367 22.8233 322.66 23.5339 323.733 24.5165C324.05 24.7765 324.355 25.0495 324.649 25.3025C325.358 24.7485 326.035 24.1835 326.749 23.6695C327.628 23.0002 328.658 22.5569 329.749 22.3785C330.586 22.2451 331.443 22.3242 332.242 22.6085C329.422 22.7455 327.281 24.1355 325.235 25.8415L326.435 26.9345C326.597 26.8221 326.726 26.6681 326.809 26.4887C326.891 26.3092 326.924 26.1109 326.903 25.9145C327.376 26.0915 327.361 26.4955 326.825 27.2915C327.125 27.4845 327.41 27.6975 327.725 27.8655C327.776 27.9006 327.835 27.9222 327.897 27.9282C327.958 27.9342 328.02 27.9245 328.077 27.8999C328.134 27.8753 328.184 27.8366 328.221 27.7876C328.259 27.7385 328.284 27.6807 328.293 27.6195C328.377 27.3735 328.483 27.1575 328.798 27.2335C328.93 27.2827 329.038 27.3814 329.099 27.5086C329.16 27.6358 329.169 27.7817 329.124 27.9155C329.059 28.1714 328.899 28.3925 328.675 28.533C328.452 28.6734 328.183 28.7223 327.924 28.6695C327.582 28.5682 327.255 28.4195 326.954 28.2275C326.76 28.0972 326.578 27.9507 326.409 27.7895C326.238 27.9054 326.104 28.0679 326.022 28.2576C325.94 28.4474 325.915 28.6566 325.948 28.8605H325.875C325.302 28.3425 325.749 27.8935 325.995 27.4345L324.678 26.3005L323.364 27.4355C323.864 28.2755 323.875 28.4675 323.481 28.8605L323.407 28.8625Z" fill="black"/>
<path d="M324.034 17.1315C323.384 18.2045 323.076 19.4495 323.151 20.7015C322.611 19.5058 322.555 18.1478 322.994 16.9115C322.184 17.7642 321.617 18.8169 321.349 19.9615C321.236 19.2746 321.264 18.5718 321.431 17.8961C321.599 17.2204 321.903 16.586 322.324 16.0315C321.535 16.5804 320.881 17.3021 320.413 18.1415C320.278 17.3475 320.925 16.2675 322.248 15.0415L322.206 14.9595C321.809 15.1515 321.423 15.3655 321.05 15.6005C320.674 15.8912 320.313 16.201 319.969 16.5285C320.157 15.9236 320.498 15.3776 320.959 14.9437C321.421 14.5098 321.986 14.2028 322.602 14.0525C321.835 13.8918 321.037 14.0098 320.35 14.3855C320.825 13.6255 321.559 13.3505 323.384 13.2445L323.409 13.1445L322.08 12.8445C322.427 12.4645 323.217 12.4365 324.253 12.8205L324.674 11.8105L325.1 12.8305C325.441 12.6409 325.826 12.5414 326.216 12.5414C326.607 12.5414 326.991 12.6409 327.333 12.8305L325.949 13.1305L325.969 13.1915C326.529 13.2665 327.098 13.3005 327.646 13.4265C328.234 13.5949 328.749 13.9571 329.106 14.4545C328.387 14.0569 327.559 13.9035 326.746 14.0175C327.355 14.1718 327.915 14.4818 328.368 14.9173C328.822 15.3528 329.155 15.8987 329.334 16.5015C328.737 15.8115 327.962 15.2991 327.094 15.0205C327.614 15.3705 328.052 15.83 328.376 16.3669C328.7 16.9038 328.903 17.505 328.97 18.1285C328.473 17.3013 327.809 16.5862 327.022 16.0285C327.447 16.6021 327.755 17.2543 327.926 17.9474C328.098 18.6405 328.13 19.3608 328.022 20.0665C327.756 18.8948 327.198 17.8096 326.399 16.9125C326.798 18.1584 326.74 19.5057 326.235 20.7125C326.164 20.0835 326.127 19.4575 326.015 18.8455C325.908 18.2317 325.669 17.6483 325.315 17.1355L325.179 17.1485C325.2 17.6012 325.221 18.0542 325.242 18.5075C325.242 18.5555 325.237 18.6075 325.235 18.6515C325.205 19.5175 325.169 20.3825 325.146 21.2515C325.13 21.8765 325.109 22.5025 325.138 23.1255C325.146 23.2995 325.32 23.4665 325.43 23.6585H323.83C324.399 23.3065 324.202 22.8425 324.175 22.3975C324.159 22.1225 324.227 21.8445 324.232 21.5675C324.232 21.3395 324.187 21.1095 324.188 20.8815C324.188 20.5815 324.238 20.2755 324.231 19.9735C324.222 19.6125 324.158 19.2525 324.149 18.8905C324.134 18.3145 324.149 17.7375 324.149 17.1605L324.034 17.1315Z" fill="black"/>
<path d="M317.864 40C317.694 40 317.554 39.973 317.444 39.919C317.334 39.865 317.252 39.783 317.198 39.673C317.146 39.563 317.12 39.424 317.12 39.256C317.12 39.088 317.146 38.948 317.198 38.836C317.252 38.722 317.334 38.637 317.444 38.581C317.554 38.523 317.694 38.494 317.864 38.494H318.542V39.811H318.14V38.755L318.239 38.842H317.864C317.782 38.842 317.716 38.852 317.666 38.872C317.616 38.89 317.579 38.929 317.555 38.989C317.533 39.047 317.522 39.136 317.522 39.256C317.522 39.37 317.532 39.456 317.552 39.514C317.574 39.57 317.61 39.607 317.66 39.625C317.71 39.643 317.778 39.652 317.864 39.652H318.857V40H317.864ZM318.857 40V39.652C318.881 39.652 318.897 39.668 318.905 39.7C318.913 39.73 318.917 39.772 318.917 39.826C318.917 39.878 318.913 39.92 318.905 39.952C318.897 39.984 318.881 40 318.857 40ZM317.498 38.314V37.972H317.9V38.314H317.498ZM317.909 38.314V37.972H318.311V38.314H317.909ZM318.857 40V39.652H319.568L319.334 39.847V38.494H319.733V40H318.857ZM318.857 40C318.833 40 318.817 39.984 318.809 39.952C318.801 39.92 318.797 39.878 318.797 39.826C318.797 39.772 318.801 39.73 318.809 39.7C318.817 39.668 318.833 39.652 318.857 39.652V40ZM318.977 40.624V40.282H319.379V40.624H318.977ZM319.388 40.624V40.282H319.79V40.624H319.388ZM320.073 40V39.652H321.162L320.889 39.889V39.385C320.889 39.243 320.874 39.133 320.844 39.055C320.816 38.977 320.768 38.922 320.7 38.89C320.634 38.858 320.543 38.842 320.427 38.842H320.184V38.494H320.427C320.611 38.494 320.767 38.524 320.895 38.584C321.025 38.644 321.123 38.74 321.189 38.872C321.257 39.002 321.291 39.173 321.291 39.385V40H320.073ZM322.983 40V39.652H323.298V40H322.983ZM322.173 40.744C322.099 40.744 322.021 40.738 321.939 40.726C321.859 40.716 321.773 40.702 321.681 40.684L321.741 40.363C321.841 40.375 321.926 40.384 321.996 40.39C322.066 40.396 322.125 40.399 322.173 40.399C322.317 40.399 322.421 40.373 322.485 40.321C322.549 40.269 322.581 40.191 322.581 40.087V38.77L322.68 38.842H322.305C322.223 38.842 322.157 38.852 322.107 38.872C322.057 38.89 322.02 38.929 321.996 38.989C321.974 39.047 321.963 39.136 321.963 39.256C321.963 39.37 321.973 39.456 321.993 39.514C322.015 39.57 322.051 39.607 322.101 39.625C322.151 39.643 322.219 39.652 322.305 39.652H322.581V40H322.305C322.135 40 321.995 39.973 321.885 39.919C321.775 39.865 321.693 39.783 321.639 39.673C321.587 39.563 321.561 39.424 321.561 39.256C321.561 39.088 321.587 38.948 321.639 38.836C321.693 38.722 321.775 38.637 321.885 38.581C321.995 38.523 322.135 38.494 322.305 38.494H322.983V40.087C322.983 40.223 322.949 40.34 322.881 40.438C322.815 40.538 322.721 40.614 322.599 40.666C322.479 40.718 322.337 40.744 322.173 40.744ZM323.298 40V39.652C323.322 39.652 323.338 39.668 323.346 39.7C323.354 39.73 323.358 39.772 323.358 39.826C323.358 39.878 323.354 39.92 323.346 39.952C323.338 39.984 323.322 40 323.298 40ZM323.299 40V39.652H323.935C324.021 39.652 324.104 39.636 324.184 39.604C324.264 39.57 324.337 39.526 324.403 39.472C324.471 39.416 324.53 39.355 324.58 39.289C324.632 39.221 324.672 39.152 324.7 39.082C324.73 39.012 324.745 38.946 324.745 38.884V38.692L324.937 39.01C324.833 38.954 324.727 38.912 324.619 38.884C324.511 38.856 324.408 38.842 324.31 38.842C324.214 38.842 324.111 38.856 324.001 38.884C323.893 38.912 323.788 38.954 323.686 39.01L323.878 38.692V38.884C323.878 38.946 323.892 39.012 323.92 39.082C323.95 39.152 323.99 39.221 324.04 39.289C324.09 39.355 324.149 39.416 324.217 39.472C324.285 39.526 324.359 39.57 324.439 39.604C324.519 39.636 324.601 39.652 324.685 39.652H325.303V40H324.811C324.655 40 324.509 39.975 324.373 39.925C324.237 39.875 324.114 39.809 324.004 39.727C323.894 39.643 323.799 39.552 323.719 39.454C323.641 39.354 323.581 39.255 323.539 39.157C323.497 39.057 323.476 38.966 323.476 38.884V38.713C323.562 38.665 323.653 38.625 323.749 38.593C323.847 38.561 323.944 38.537 324.04 38.521C324.138 38.503 324.228 38.494 324.31 38.494C324.394 38.494 324.484 38.503 324.58 38.521C324.676 38.537 324.772 38.561 324.868 38.593C324.966 38.625 325.058 38.665 325.144 38.713V38.884C325.144 38.966 325.123 39.057 325.081 39.157C325.039 39.255 324.978 39.354 324.898 39.454C324.82 39.552 324.726 39.643 324.616 39.727C324.506 39.809 324.383 39.875 324.247 39.925C324.111 39.975 323.965 40 323.809 40H323.299ZM323.299 40C323.275 40 323.259 39.984 323.251 39.952C323.243 39.92 323.239 39.878 323.239 39.826C323.239 39.772 323.243 39.73 323.251 39.7C323.259 39.668 323.275 39.652 323.299 39.652V40ZM325.303 40V39.652C325.327 39.652 325.343 39.668 325.351 39.7C325.359 39.73 325.363 39.772 325.363 39.826C325.363 39.878 325.359 39.92 325.351 39.952C325.343 39.984 325.327 40 325.303 40ZM327.82 40V39.652H328.138V40H327.82ZM327.067 40C326.985 40 326.903 39.985 326.821 39.955C326.741 39.923 326.667 39.876 326.599 39.814L326.845 39.559C326.885 39.591 326.922 39.615 326.956 39.631C326.992 39.645 327.029 39.652 327.067 39.652H327.628L327.421 39.841V39.175C327.421 39.143 327.417 39.095 327.409 39.031C327.403 38.965 327.393 38.891 327.379 38.809C327.367 38.725 327.352 38.64 327.334 38.554L327.73 38.494C327.744 38.566 327.757 38.647 327.769 38.737C327.783 38.825 327.795 38.909 327.805 38.989C327.815 39.067 327.82 39.129 327.82 39.175V40H327.067ZM325.303 40V39.652H325.741L325.651 39.745V38.8H326.053V40H325.303ZM326.053 40V39.652H326.296C326.36 39.652 326.409 39.643 326.443 39.625C326.477 39.605 326.5 39.566 326.512 39.508C326.526 39.448 326.533 39.359 326.533 39.241V38.65H326.935V39.241C326.935 39.419 326.912 39.564 326.866 39.676C326.822 39.788 326.753 39.87 326.659 39.922C326.565 39.974 326.444 40 326.296 40H326.053ZM325.303 40C325.279 40 325.263 39.984 325.255 39.952C325.247 39.92 325.243 39.878 325.243 39.826C325.243 39.772 325.247 39.73 325.255 39.7C325.263 39.668 325.279 39.652 325.303 39.652V40ZM328.138 40V39.652C328.162 39.652 328.178 39.668 328.186 39.7C328.194 39.73 328.198 39.772 328.198 39.826C328.198 39.878 328.194 39.92 328.186 39.952C328.178 39.984 328.162 40 328.138 40ZM328.478 40V37.879H328.88V40H328.478ZM328.139 40V39.652H328.478V40H328.139ZM328.139 40C328.115 40 328.099 39.984 328.091 39.952C328.083 39.92 328.079 39.878 328.079 39.826C328.079 39.772 328.083 39.73 328.091 39.7C328.099 39.668 328.115 39.652 328.139 39.652V40ZM329.361 40V37.879H329.76V40H329.361Z" fill="black"/>
<path d="M321.964 60V51.121H323.758V54.865L324.876 54.839L326.644 51.121H328.516L326.423 55.515L328.659 60H326.735L324.889 56.451L323.758 56.477V60H321.964Z" fill="black"/>
<path d="M325.156 72.143C324.827 72.143 324.467 72.1213 324.077 72.078C323.687 72.0433 323.306 72 322.933 71.948C322.569 71.8873 322.257 71.8353 321.997 71.792L322.114 70.375C322.383 70.4097 322.695 70.4487 323.05 70.492C323.405 70.5267 323.756 70.557 324.103 70.583C324.458 70.609 324.766 70.622 325.026 70.622C325.52 70.622 325.88 70.5267 326.105 70.336C326.33 70.1367 326.443 69.829 326.443 69.413C326.443 69.1877 326.395 69.01 326.3 68.88C326.213 68.7413 326.053 68.633 325.819 68.555C325.585 68.4683 325.26 68.386 324.844 68.308C324.151 68.178 323.587 68.0177 323.154 67.827C322.729 67.6363 322.417 67.3677 322.218 67.021C322.027 66.6743 321.932 66.2107 321.932 65.63C321.932 64.954 322.058 64.4253 322.309 64.044C322.56 63.654 322.92 63.3767 323.388 63.212C323.856 63.0473 324.406 62.965 325.039 62.965C325.325 62.965 325.65 62.9823 326.014 63.017C326.387 63.043 326.751 63.0777 327.106 63.121C327.47 63.1643 327.778 63.212 328.029 63.264L327.951 64.694C327.691 64.6593 327.388 64.629 327.041 64.603C326.703 64.5683 326.365 64.538 326.027 64.512C325.698 64.486 325.416 64.473 325.182 64.473C324.688 64.473 324.324 64.551 324.09 64.707C323.856 64.863 323.739 65.1143 323.739 65.461C323.739 65.721 323.791 65.9203 323.895 66.059C323.999 66.1977 324.172 66.3103 324.415 66.397C324.666 66.4837 325.009 66.5747 325.442 66.67C325.953 66.7827 326.387 66.904 326.742 67.034C327.106 67.164 327.396 67.32 327.613 67.502C327.838 67.684 328.003 67.918 328.107 68.204C328.211 68.49 328.263 68.8497 328.263 69.283C328.263 69.9763 328.137 70.5353 327.886 70.96C327.643 71.376 327.288 71.6793 326.82 71.87C326.361 72.052 325.806 72.143 325.156 72.143Z" fill="black"/>
<path d="M321.243 84L323.505 75.121H326.638L328.887 84H327.093L326.599 82.206H323.492L323.024 84H321.243ZM323.778 80.763H326.339L325.338 76.577H324.792L323.778 80.763Z" fill="black"/>
<path d="M298.341 35.7842H229.847V34.7842H298.341V35.7842Z" fill="#707070"/>
<path d="M312.971 51.7842H210.5V50.7842H312.971V51.7842Z" fill="black"/>
<path d="M127.467 51.7842H1.5V50.7842H127.467V51.7842Z" fill="black"/>
<path d="M98.1776 35.7842H29.6836V34.7842H98.1776V35.7842Z" fill="#707070"/>
<path d="M298.341 88.2383H229.847V87.2383H298.341V88.2383Z" fill="#707070"/>
<path d="M98.1776 88.2383H29.6836V87.2383H98.1776V88.2383Z" fill="#707070"/>
<path d="M211 95.5H210V1.5H211V95.5Z" fill="black"/>
<path d="M128 95.5H127V1.5H128V95.5Z" fill="black"/>
</svg>
