<svg xmlns="http://www.w3.org/2000/svg" width="162" height="47" viewBox="0 0 162 47">
  <g id="Group_4885" data-name="Group 4885" transform="translate(-1319.052 -1618.08)">
    <g id="Rectangle_2003" data-name="Rectangle 2003" transform="translate(1319.052 1618.08)" fill="none" stroke="#000" stroke-width="1">
      <rect width="162" height="47" rx="4" stroke="none"/>
      <rect x="0.5" y="0.5" width="161" height="46" rx="3.5" fill="none"/>
    </g>
    <line id="Line_165" data-name="Line 165" y2="45.834" transform="translate(1469.177 1618.312)" fill="none" stroke="#000" stroke-width="1"/>
    <line id="Line_174" data-name="Line 174" y2="45.834" transform="translate(1421.177 1618.312)" fill="none" stroke="#000" stroke-width="0.5"/>
    <line id="Line_175" data-name="Line 175" y2="45.834" transform="translate(1379.177 1618.312)" fill="none" stroke="#000" stroke-width="0.5"/>
    <g id="Group_4769" data-name="Group 4769" transform="translate(1383.624 1623.14)">
      <path id="Path_24455" data-name="Path 24455" d="M-341.906,254.08a2.351,2.351,0,0,0-.981-2.331c-.569.44-1.132.907-1.726,1.33a3.07,3.07,0,0,1-2.7.5,1.89,1.89,0,0,1-1.513-2.034,1.573,1.573,0,0,1,.795-1.013c.471-.2.786.217.964.689.322.85.725,1.023,1.512.59a17.529,17.529,0,0,0,1.523-1.028c-.249-.937-.5-1.713-.636-2.509-.035-.206.306-.476.461-.7l1.026,2.463c.636-.562,1.087-.954,1.53-1.355.425-.385.841-.78,1.315-1.22-4.465-3.708-9.144-6.754-15.118-7.092a10.9,10.9,0,0,1,6.022-.322,19.858,19.858,0,0,1,8.243,4.531c.692.569,1.361,1.166,2,1.717,1.55-1.212,3.03-2.446,4.591-3.57a14.762,14.762,0,0,1,6.548-2.823,11.059,11.059,0,0,1,5.45.5c-6.164.3-10.846,3.339-15.319,7.069l2.63,2.39a2.406,2.406,0,0,0,1.024-2.23c1.035.388,1,1.27-.171,3.011.65.422,1.279.888,1.96,1.256a.8.8,0,0,0,1.242-.537c.183-.537.415-1.01,1.1-.844a1.189,1.189,0,0,1,.712,1.492,2.242,2.242,0,0,1-2.613,1.648,8.34,8.34,0,0,1-2.12-.966,8.992,8.992,0,0,1-1.19-.957,2.367,2.367,0,0,0-1.009,2.341h-.159c-1.254-1.132-.275-2.114.262-3.116l-2.879-2.479-2.873,2.48c1.086,1.835,1.117,2.255.256,3.115Z" transform="translate(355.459 -216.8)"/>
      <path id="Path_24456" data-name="Path 24456" d="M-308.478,106.575a13.521,13.521,0,0,0-1.931,7.8,11.109,11.109,0,0,1-.343-8.285c-1.17.788-2.61,3.5-3.6,6.667a11.2,11.2,0,0,1,2.132-8.592,13.818,13.818,0,0,0-4.179,4.613c-.295-1.735,1.118-4.1,4.012-6.768l-.091-.18a25.875,25.875,0,0,0-2.527,1.4,30.427,30.427,0,0,0-2.362,2.029,8.018,8.018,0,0,1,5.757-5.413c-1.065-.418-2.594-.184-4.923.728,1.038-1.661,2.642-2.264,6.634-2.494l.054-.22-2.906-.662c.759-.83,2.485-.892,4.75-.053l.92-2.209.931,2.23a5.036,5.036,0,0,1,4.882.011l-3.026.658.044.133c1.224.163,2.468.238,3.666.513a5.938,5.938,0,0,1,3.191,2.247,8.28,8.28,0,0,0-5.159-.955c2.747.919,4.818,2.522,5.648,5.418a10.854,10.854,0,0,0-4.9-3.238,9.4,9.4,0,0,1,4.1,6.794,15.241,15.241,0,0,0-4.259-4.593,11.814,11.814,0,0,1,2.186,8.828,15.513,15.513,0,0,0-3.548-6.894,12.014,12.014,0,0,1-.358,8.3c-.155-1.376-.237-2.744-.481-4.081a9.427,9.427,0,0,0-1.536-3.738l-.3.027q.07,1.485.138,2.97c0,.1-.011.21-.015.314-.066,1.892-.144,3.784-.193,5.677-.036,1.365-.08,2.734-.019,4.1.017.381.4.746.638,1.165h-3.5c1.245-.769.813-1.785.755-2.756-.036-.6.115-1.209.125-1.815.008-.5-.1-1-.1-1.5,0-.662.11-1.324.093-1.984-.02-.79-.16-1.577-.18-2.367-.032-1.26-.009-2.521-.009-3.782Z" transform="translate(323.405 -94.941)"/>
    </g>
    <g id="Group_4770" data-name="Group 4770" transform="translate(1471.052 1623.963)">
      <path id="Path_24455-2" data-name="Path 24455" d="M-352.482,242.913a.516.516,0,0,0-.215-.512c-.125.1-.249.2-.379.292a.674.674,0,0,1-.594.109.415.415,0,0,1-.332-.447.346.346,0,0,1,.175-.223c.1-.044.173.048.212.151.071.187.159.225.332.13a3.84,3.84,0,0,0,.334-.226c-.055-.206-.11-.376-.14-.551-.008-.045.067-.1.1-.153l.225.541c.14-.123.239-.21.336-.3s.185-.171.289-.268a5.682,5.682,0,0,0-3.32-1.558,2.393,2.393,0,0,1,1.323-.071,4.362,4.362,0,0,1,1.81,1c.152.125.3.256.44.377.34-.266.666-.537,1.008-.784a3.242,3.242,0,0,1,1.438-.62,2.429,2.429,0,0,1,1.2.11,5.607,5.607,0,0,0-3.365,1.552l.578.525a.529.529,0,0,0,.225-.49c.227.085.22.279-.038.661.143.093.281.2.431.276a.175.175,0,0,0,.273-.118c.04-.118.091-.222.242-.185a.261.261,0,0,1,.156.328.493.493,0,0,1-.574.362,1.832,1.832,0,0,1-.466-.212,1.977,1.977,0,0,1-.261-.21.52.52,0,0,0-.221.514h-.035c-.275-.249-.06-.464.057-.684l-.632-.544-.631.545c.238.4.245.5.056.684Z" transform="translate(355.459 -234.725)"/>
      <path id="Path_24456-2" data-name="Path 24456" d="M-315.412,97.5a2.969,2.969,0,0,0-.424,1.714,2.44,2.44,0,0,1-.075-1.82,3.18,3.18,0,0,0-.79,1.464,2.46,2.46,0,0,1,.468-1.887,3.035,3.035,0,0,0-.918,1.013c-.065-.381.246-.9.881-1.486l-.02-.039a5.683,5.683,0,0,0-.555.308,6.683,6.683,0,0,0-.519.446,1.761,1.761,0,0,1,1.264-1.189,1.578,1.578,0,0,0-1.081.16c.228-.365.58-.5,1.457-.548l.012-.048-.638-.145c.167-.182.546-.2,1.043-.012l.2-.485.2.49a1.106,1.106,0,0,1,1.072,0l-.665.144.01.029c.269.036.542.052.805.113a1.3,1.3,0,0,1,.7.494,1.818,1.818,0,0,0-1.133-.21,1.742,1.742,0,0,1,1.24,1.19,2.384,2.384,0,0,0-1.075-.711,2.065,2.065,0,0,1,.9,1.492,3.347,3.347,0,0,0-.935-1.009,2.6,2.6,0,0,1,.48,1.939,3.407,3.407,0,0,0-.779-1.514,2.639,2.639,0,0,1-.079,1.822c-.034-.3-.052-.6-.106-.9a2.07,2.07,0,0,0-.337-.821l-.065.006q.015.326.03.652c0,.023,0,.046,0,.069-.015.416-.032.831-.043,1.247-.008.3-.018.6,0,.9,0,.084.087.164.14.256h-.769c.273-.169.178-.392.166-.605-.008-.132.025-.266.027-.4,0-.11-.022-.22-.021-.329,0-.145.024-.291.021-.436,0-.173-.035-.346-.039-.52-.007-.277,0-.554,0-.831Z" transform="translate(318.69 -94.941)"/>
    </g>
    <text id="السعودية" transform="translate(1470.052 1636.08)" font-size="2" font-family="Cairo-Bold, Cairo" font-weight="700"><tspan x="0" y="0">السعودية</tspan></text>
    <text id="K_S_A" data-name="K
S
A" transform="translate(1475.052 1645.08)" font-size="6" font-family="Cairo-Bold, Cairo" font-weight="700"><tspan x="-1.779" y="0">K</tspan><tspan x="-1.632" y="6">S</tspan><tspan x="-1.806" y="12">A</tspan></text>
    <line id="Line_176" data-name="Line 176" x1="48" transform="translate(1421.552 1642.08)" fill="none" stroke="#000" stroke-width="0.5"/>
    <line id="Line_177" data-name="Line 177" x1="59.626" transform="translate(1319.552 1642.08)" fill="none" stroke="#000" stroke-width="0.5"/>
  </g>
</svg>
