<svg width="487" height="185" viewBox="0 0 487 185" fill="none" xmlns="http://www.w3.org/2000/svg">
<g clip-path="url(#clip0_3080_21688)">
<path d="M161.361 0.417969H288.436V160.977H161.361V0.417969Z" fill="#5B86FA"/>
<path d="M477.175 2H10.8253C5.95123 2 2 6.25329 2 11.5V151.5C2 156.747 5.95123 161 10.8253 161H477.175C482.049 161 486 156.747 486 151.5V11.5C486 6.25329 482.049 2 477.175 2Z" stroke="black" stroke-width="3"/>
<path d="M448.01 0.476562V158.651" stroke="black" stroke-width="3"/>
<path d="M215.621 146.623C215.706 142.749 215.311 141.78 212.455 139.099C210.619 140.52 208.801 142.025 206.876 143.392C205.645 144.318 204.216 144.945 202.7 145.223C201.185 145.5 199.626 145.421 198.147 144.992C194.996 144.124 192.723 141.35 193.264 138.429C193.437 137.734 193.755 137.083 194.197 136.519C194.639 135.956 195.196 135.492 195.83 135.159C197.35 134.511 198.365 135.859 198.942 137.381C199.982 140.124 201.284 140.681 203.822 139.281C205.517 138.262 207.158 137.155 208.738 135.965C207.932 132.94 207.115 130.436 206.685 127.865C206.573 127.199 207.674 126.329 208.173 125.619L211.483 133.567C213.536 131.752 214.993 130.488 216.422 129.194C217.794 127.954 219.137 126.677 220.665 125.258C206.253 113.29 191.151 103.458 171.865 102.367C178.116 100.199 184.853 99.838 191.3 101.327C201.579 103.597 209.954 109.412 217.9 115.95C220.133 117.786 222.292 119.713 224.362 121.493C229.362 117.583 234.144 113.6 239.179 109.971C245.374 105.252 252.63 102.124 260.314 100.859C266.221 99.9176 272.27 100.476 277.905 102.482C258.005 103.449 242.897 113.257 228.46 125.297L236.949 133.011C238.095 132.218 239.007 131.131 239.589 129.864C240.17 128.597 240.4 127.197 240.254 125.811C243.595 127.063 243.485 129.911 239.701 135.531C241.801 136.893 243.828 138.396 246.028 139.583C246.388 139.83 246.804 139.982 247.238 140.024C247.673 140.067 248.11 139.998 248.511 139.825C248.912 139.652 249.262 139.38 249.528 139.034C249.795 138.689 249.97 138.281 250.036 137.85C250.625 136.116 251.376 134.596 253.6 135.127C255.421 135.567 256.36 137.662 255.9 139.942C255.444 141.741 254.315 143.297 252.745 144.287C251.175 145.277 249.285 145.626 247.465 145.262C245.049 144.549 242.746 143.5 240.622 142.146C239.256 141.227 237.971 140.194 236.78 139.057C235.573 139.875 234.626 141.021 234.049 142.36C233.472 143.698 233.291 145.174 233.526 146.613H233.026C228.98 142.959 232.136 139.794 233.871 136.554L224.571 128.554L215.298 136.56C218.803 142.483 218.898 143.844 216.126 146.614L215.621 146.623Z" fill="white"/>
<path d="M220.056 53.6099C215.187 61.2749 213.606 69.7809 213.823 78.7999C210.017 70.3636 209.62 60.782 212.716 52.0599C208.941 54.6009 204.293 63.3479 201.109 73.5789C199.693 67.1789 200.489 56.4319 207.99 45.8389C202.422 49.7125 197.811 54.805 194.508 60.7289C193.557 55.1289 198.117 47.5039 207.456 38.8779L207.162 38.2979C204.361 39.6515 201.638 41.1606 199.006 42.8179C196.354 44.8693 193.809 47.0552 191.381 49.3669C194.451 39.8889 200.97 34.6449 209.963 31.8969C206.524 30.5489 201.595 31.3029 194.075 34.2479C197.427 28.8879 202.598 26.9409 215.486 26.1969L215.66 25.4869L206.281 23.3479C208.729 20.6689 214.301 20.4699 221.612 23.1759L224.581 16.0469L227.581 23.2579C232.94 20.8079 238.119 20.3139 243.338 23.2939L233.575 25.4159L233.718 25.8449C237.668 26.3719 241.685 26.6199 245.551 27.5019C249.551 28.4209 252.703 30.9699 255.851 34.7549C250.782 31.95 244.938 30.8684 239.201 31.6729C248.067 34.6409 254.752 39.8139 257.43 49.1599C253.221 44.2903 247.752 40.6743 241.623 38.7089C248.976 44.2769 254.007 51.2029 254.862 60.6389C251.356 54.7997 246.676 49.7522 241.118 45.8159C244.118 49.8636 246.287 54.4659 247.497 59.3568C248.708 64.2476 248.938 69.3299 248.172 74.3099C246.3 66.0429 242.36 58.3865 236.721 52.0579C239.532 60.8381 239.122 70.3324 235.566 78.8379C235.066 74.3979 234.802 69.9829 234.016 65.6659C233.255 61.3327 231.563 57.2161 229.057 53.5999L228.096 53.6879C228.246 56.8833 228.395 60.0786 228.542 63.2739C228.558 63.6099 228.505 63.9499 228.494 64.2889C228.28 70.3959 228.029 76.5039 227.874 82.6129C227.758 87.0199 227.615 91.4369 227.814 95.8349C227.87 97.0649 229.097 98.2419 229.875 99.5949H218.575C222.593 97.1149 221.199 93.8329 221.011 90.6949C220.896 88.7579 221.38 86.7949 221.411 84.8389C221.437 83.2269 221.09 81.6109 221.101 79.9979C221.115 77.8629 221.456 75.7239 221.401 73.5979C221.337 71.0489 220.886 68.5089 220.821 65.9599C220.721 61.8939 220.793 57.8239 220.793 53.7549L220.056 53.6099Z" fill="white"/>
<path d="M464.055 45.1429C464.108 44.8295 464.07 44.5073 463.946 44.2146C463.822 43.9219 463.617 43.6708 463.355 43.4909C462.955 43.8009 462.555 44.1339 462.131 44.4329C461.861 44.637 461.547 44.7751 461.214 44.8362C460.881 44.8974 460.539 44.8798 460.214 44.7849C459.889 44.7202 459.599 44.537 459.401 44.2708C459.203 44.0045 459.11 43.6742 459.142 43.3439C459.18 43.1911 459.25 43.048 459.347 42.924C459.444 42.8001 459.567 42.6982 459.706 42.6249C460.039 42.4819 460.262 42.7799 460.389 43.1129C460.617 43.7129 460.904 43.8379 461.46 43.5309C461.834 43.3075 462.196 43.0645 462.545 42.8029C462.368 42.1379 462.189 41.5879 462.094 41.0239C462.069 40.8779 462.311 40.6859 462.421 40.5309L463.148 42.2769C463.599 41.8769 463.923 41.6009 464.233 41.3159C464.543 41.0309 464.833 40.7629 465.163 40.4509C461.997 37.8159 458.681 35.6639 454.447 35.4239C455.82 34.9479 457.299 34.8688 458.715 35.1959C460.891 35.7831 462.895 36.8843 464.557 38.4069C465.048 38.8069 465.521 39.2329 465.976 39.6249C467.076 38.7659 468.124 37.8909 469.23 37.0939C470.593 36.0569 472.189 35.3702 473.879 35.0939C475.176 34.8871 476.504 35.0095 477.742 35.4499C473.372 35.6619 470.054 37.8159 466.883 40.4599L468.743 42.1539C468.995 41.9801 469.195 41.7414 469.323 41.4631C469.451 41.1849 469.501 40.8773 469.468 40.5729C470.201 40.8469 470.178 41.4729 469.347 42.7069C469.812 43.0069 470.254 43.3359 470.742 43.5969C470.821 43.6513 470.913 43.6847 471.008 43.694C471.104 43.7032 471.2 43.6881 471.288 43.6499C471.376 43.6117 471.453 43.5519 471.511 43.476C471.569 43.4001 471.608 43.3106 471.622 43.2159C471.752 42.8349 471.916 42.4999 472.405 42.6159C472.61 42.6923 472.777 42.8452 472.871 43.0423C472.965 43.2395 472.979 43.4656 472.91 43.6729C472.81 44.0697 472.561 44.4126 472.214 44.6303C471.868 44.848 471.451 44.9238 471.05 44.8419C470.52 44.6847 470.016 44.4541 469.55 44.1569C469.25 43.955 468.967 43.7278 468.705 43.4779C468.44 43.6576 468.232 43.9094 468.105 44.2036C467.979 44.4977 467.939 44.8219 467.991 45.1379H467.878C466.99 44.3379 467.678 43.6379 468.064 42.9279L466.023 41.1709L463.987 42.9299C464.762 44.2299 464.779 44.5299 464.168 45.1379L464.055 45.1429Z" fill="black"/>
<path d="M465.026 26.9637C464.02 28.6264 463.543 30.5557 463.658 32.4957C462.822 30.6428 462.735 28.5384 463.415 26.6227C462.161 27.9443 461.281 29.5758 460.866 31.3497C460.691 30.2852 460.734 29.1962 460.993 28.1491C461.253 27.1021 461.725 26.1189 462.377 25.2597C461.154 26.1106 460.141 27.2289 459.415 28.5297C459.206 27.2997 460.21 25.6297 462.26 23.7297L462.195 23.6027C461.58 23.9001 460.982 24.2316 460.404 24.5957C459.821 25.0462 459.262 25.5261 458.729 26.0338C459.02 25.0964 459.549 24.2503 460.264 23.5779C460.979 22.9056 461.856 22.4297 462.809 22.1967C461.621 21.9476 460.384 22.1305 459.319 22.7127C460.055 21.5347 461.193 21.1127 464.019 20.9447L464.058 20.7897L461.997 20.3247C462.535 19.7357 463.76 19.6927 465.365 20.2877L466.017 18.7227L466.677 20.3037C467.206 20.0098 467.802 19.8556 468.408 19.8556C469.013 19.8556 469.609 20.0098 470.138 20.3037L467.993 20.7687L468.023 20.8637C468.891 20.9797 469.774 21.0327 470.624 21.2277C471.536 21.4885 472.334 22.0498 472.887 22.8207C471.774 22.2046 470.49 21.967 469.23 22.1437C470.175 22.3826 471.041 22.863 471.745 23.5378C472.448 24.2126 472.963 25.0586 473.241 25.9928C472.317 24.9216 471.116 24.1258 469.77 23.6927C470.576 24.235 471.254 24.947 471.757 25.779C472.259 26.6109 472.573 27.5426 472.677 28.5087C471.907 27.2268 470.879 26.1187 469.658 25.2547C470.317 26.1436 470.794 27.1543 471.06 28.2285C471.326 29.3027 471.376 30.419 471.208 31.5127C470.797 29.6968 469.932 28.015 468.693 26.6247C469.311 28.5555 469.221 30.6434 468.439 32.5137C468.329 31.5387 468.272 30.5687 468.098 29.6207C467.932 28.6694 467.562 27.7653 467.013 26.9707L466.802 26.9907C466.835 27.6921 466.869 28.3941 466.902 29.0967C466.902 29.1707 466.894 29.2517 466.891 29.3197C466.844 30.6617 466.791 32.0027 466.753 33.3487C466.728 34.3177 466.696 35.2877 466.741 36.2487C466.753 36.5187 467.023 36.7767 467.194 37.0747H464.714C465.596 36.5297 465.291 35.8097 465.249 35.1207C465.224 34.6947 465.33 34.2637 465.337 33.8347C465.337 33.4817 465.267 33.1247 465.269 32.7717C465.269 32.3067 465.346 31.8327 465.336 31.3647C465.322 30.8057 465.223 30.2478 465.209 29.6868C465.186 28.7938 465.209 27.8997 465.209 27.0057L465.026 26.9637Z" fill="black"/>
<path d="M456.653 59.1758V59.8558H455.983V59.1758H456.653ZM457.638 59.1758V59.8558H456.968V59.1758H457.638ZM458.493 62.1208C458.573 62.1208 458.593 62.2358 458.593 62.4208C458.593 62.6058 458.573 62.7208 458.493 62.7208H456.693C455.818 62.7208 455.578 62.3308 455.578 61.4708C455.578 60.6108 455.818 60.2208 456.693 60.2208H457.903V62.1208H458.493ZM456.693 62.1208H457.233V60.8208H456.693C456.298 60.8208 456.248 60.8458 456.248 61.4708C456.248 62.0958 456.298 62.1208 456.693 62.1208ZM459.758 60.2208V62.7208H458.493C458.413 62.7208 458.393 62.6058 458.393 62.4208C458.393 62.2358 458.413 62.1208 458.493 62.1208H459.088V60.2208H459.758ZM458.593 63.7008V63.0208H459.263V63.7008H458.593ZM459.578 63.0208H460.248V63.7008H459.578V63.0208ZM460.974 60.2208C461.774 60.2208 462.244 60.5558 462.244 61.5608V62.7208H460.309V62.1208H461.574V61.5608C461.574 60.9458 461.449 60.8208 460.974 60.8208H460.569V60.2208H460.974ZM465.612 62.1208C465.692 62.1208 465.712 62.2358 465.712 62.4208C465.712 62.6058 465.692 62.7208 465.612 62.7208H465.017V62.7508C465.017 63.4758 464.637 63.9508 463.877 63.9508C463.637 63.9508 463.327 63.9058 463.057 63.8458L463.202 63.2608C463.472 63.3208 463.702 63.3508 463.877 63.3508C464.207 63.3508 464.347 63.2008 464.347 62.7508V62.7208H463.807C462.932 62.7208 462.692 62.3308 462.692 61.4708C462.692 60.6108 462.932 60.2208 463.807 60.2208H465.017V62.1208H465.612ZM463.807 62.1208H464.347V60.8208H463.807C463.412 60.8208 463.362 60.8458 463.362 61.4708C463.362 62.0958 463.412 62.1208 463.807 62.1208ZM468.942 62.1208C469.022 62.1208 469.042 62.2358 469.042 62.4208C469.042 62.6058 469.022 62.7208 468.942 62.7208H468.152C467.842 62.7208 467.552 62.6558 467.292 62.5408C467.032 62.6558 466.742 62.7208 466.432 62.7208H465.612C465.532 62.7208 465.512 62.6058 465.512 62.4208C465.512 62.2358 465.532 62.1208 465.612 62.1208H466.432C466.492 62.1208 466.552 62.1158 466.612 62.1058C466.182 61.7158 465.927 61.2208 465.927 60.8608V60.5658C466.357 60.3408 466.887 60.2208 467.292 60.2208C467.697 60.2208 468.227 60.3408 468.657 60.5658V60.8608C468.657 61.2208 468.402 61.7158 467.972 62.1058C468.032 62.1158 468.092 62.1208 468.152 62.1208H468.942ZM466.602 60.9408C466.647 61.2508 466.932 61.5958 467.292 61.8308C467.652 61.5958 467.937 61.2508 467.982 60.9408C467.747 60.8608 467.507 60.8208 467.292 60.8208C467.077 60.8208 466.837 60.8608 466.602 60.9408ZM473.762 62.1208C473.842 62.1208 473.862 62.2358 473.862 62.4208C473.862 62.6058 473.842 62.7208 473.762 62.7208H471.852C471.667 62.7208 471.487 62.6658 471.322 62.5608C471.162 62.6708 470.952 62.7208 470.682 62.7208H468.942C468.862 62.7208 468.842 62.6058 468.842 62.4208C468.842 62.2358 468.862 62.1208 468.942 62.1208H469.607V60.4708H470.277V62.1208H470.682C470.982 62.1208 471.047 62.0408 471.047 61.4708V60.4708H471.717V61.4708C471.717 61.6908 471.697 61.8758 471.657 62.0358C471.742 62.1058 471.792 62.1208 471.852 62.1208H472.497V61.3358C472.497 61.2058 472.442 60.7608 472.367 60.3208L473.027 60.2208C473.087 60.5808 473.167 61.1358 473.167 61.3358V62.1208H473.762ZM474.507 59.2208H475.177V62.7208H473.762C473.682 62.7208 473.662 62.6058 473.662 62.4208C473.662 62.2358 473.682 62.1208 473.762 62.1208H474.507V59.2208ZM475.974 62.7208V59.2208H476.644V62.7208H475.974Z" fill="black"/>
<path d="M461.852 98.0913V86.5312H464.198V91.6143L465.762 91.4443L467.666 86.5312H470.335L467.819 92.3283L470.403 98.0913H467.7L465.762 93.4843L464.198 93.6543V98.0913H461.852Z" fill="black"/>
<path d="M465.218 116.894C464.062 116.894 462.345 116.588 461.359 116.367L461.597 114.548C462.583 114.684 464.198 114.854 465.082 114.854C466.34 114.854 466.884 114.259 466.884 113.358C466.884 112.644 466.476 112.321 464.81 111.845C462.209 111.097 461.223 110.213 461.223 108.36C461.223 105.963 462.821 104.926 465.167 104.926C466.289 104.926 468.006 105.181 468.975 105.385L468.788 107.238C467.751 107.119 466.119 106.966 465.405 106.966C464.147 106.966 463.552 107.425 463.552 108.19C463.552 108.921 464.011 109.176 465.949 109.788C468.448 110.587 469.213 111.284 469.213 113.205C469.213 115.721 467.496 116.894 465.218 116.894Z" fill="black"/>
<path d="M460.865 134.286L463.313 123.406H467.505L469.953 134.286H467.745L467.313 132.318H463.505L463.073 134.286H460.865ZM463.921 130.398H466.897L465.793 125.23H465.025L463.921 130.398Z" fill="black"/>
<path d="M448.01 85.2891H289.211" stroke="black" stroke-width="2"/>
<path d="M161 85L2 85" stroke="black" stroke-width="2"/>
<path d="M289 3L289 161" stroke="black" stroke-width="2"/>
<path d="M161 3L161 161" stroke="black" stroke-width="2"/>
<g filter="url(#filter0_d_3080_21688)">
<path d="M225.504 175.996C236.826 175.996 246.004 167.489 246.004 156.996C246.004 146.503 236.826 137.996 225.504 137.996C214.182 137.996 205.004 146.503 205.004 156.996C205.004 167.489 214.182 175.996 225.504 175.996Z" fill="#11014D"/>
</g>
<path d="M213 155.347V159.075C213 160.757 213.668 162.37 214.857 163.559C216.046 164.748 217.659 165.416 219.341 165.416H234.9C235.881 165.416 236.822 165.026 237.516 164.332C238.21 163.638 238.6 162.697 238.6 161.716H221.221C220.406 161.716 219.624 161.392 219.048 160.816C218.472 160.24 218.148 159.458 218.148 158.643V155.782C218.148 155.378 218.227 154.978 218.382 154.605C218.536 154.232 218.763 153.893 219.048 153.608C219.334 153.322 219.673 153.096 220.046 152.942C220.419 152.788 220.819 152.708 221.223 152.709C224.885 152.709 230.986 152.709 234.907 152.7C235.887 152.698 236.826 152.307 237.517 151.613C238.209 150.919 238.598 149.98 238.598 149H219.341C218.508 149 217.683 149.164 216.913 149.484C216.144 149.803 215.444 150.27 214.855 150.86C214.267 151.449 213.8 152.149 213.481 152.919C213.163 153.689 212.999 154.514 213 155.347Z" fill="#FA9C44"/>
<path d="M227.381 155.684H235.799C236.646 155.684 237.457 156.02 238.056 156.619C238.655 157.217 238.991 158.029 238.991 158.876H230.573C229.726 158.876 228.915 158.54 228.316 157.941C227.717 157.342 227.381 156.531 227.381 155.684Z" fill="#FAFAFA"/>
</g>
<defs>
<filter id="filter0_d_3080_21688" x="199.004" y="131.996" width="53" height="50" filterUnits="userSpaceOnUse" color-interpolation-filters="sRGB">
<feFlood flood-opacity="0" result="BackgroundImageFix"/>
<feColorMatrix in="SourceAlpha" type="matrix" values="0 0 0 0 0 0 0 0 0 0 0 0 0 0 0 0 0 0 127 0" result="hardAlpha"/>
<feOffset/>
<feGaussianBlur stdDeviation="3"/>
<feColorMatrix type="matrix" values="0 0 0 0 0 0 0 0 0 0 0 0 0 0 0 0 0 0 0.161 0"/>
<feBlend mode="normal" in2="BackgroundImageFix" result="effect1_dropShadow_3080_21688"/>
<feBlend mode="normal" in="SourceGraphic" in2="effect1_dropShadow_3080_21688" result="shape"/>
</filter>
<clipPath id="clip0_3080_21688">
<rect width="487" height="185" fill="white"/>
</clipPath>
</defs>
</svg>
