<svg width="239" height="95" viewBox="0 0 239 95" fill="none" xmlns="http://www.w3.org/2000/svg">
<g clip-path="url(#clip0_3080_21759)">
<path d="M228.669 1H10.3307C5.1775 1 1 5.47715 1 11V68C1 73.5229 5.1775 78 10.3307 78H228.669C233.822 78 238 73.5229 238 68V11C238 5.47715 233.822 1 228.669 1Z" stroke="black" stroke-width="2"/>
<path d="M219.855 0.417969V77.662" stroke="black" stroke-width="2"/>
<path d="M106.365 71.7871C106.484 71.0911 106.401 70.3756 106.128 69.7247C105.854 69.0739 105.4 68.5147 104.819 68.1131C103.919 68.8071 103.034 69.5421 102.095 70.2131C101.494 70.6656 100.796 70.9719 100.056 71.1076C99.3159 71.2434 98.5545 71.2048 97.832 70.9951C97.1081 70.8511 96.4635 70.4435 96.0229 69.8515C95.5823 69.2594 95.377 68.5248 95.447 67.7901C95.531 67.4501 95.6861 67.1317 95.902 66.8559C96.118 66.5801 96.3899 66.3532 96.7 66.1901C97.442 65.8741 97.938 66.5321 98.22 67.2751C98.728 68.6151 99.363 68.8881 100.603 68.2041C101.431 67.7064 102.232 67.1657 103.003 66.5841C102.609 65.1071 102.211 63.8841 102.003 62.6281C101.949 62.3031 102.486 61.8781 102.73 61.5281L104.347 65.4101C105.347 64.5241 106.061 63.9101 106.759 63.2741C107.429 62.6691 108.085 62.0451 108.831 61.3521C101.793 55.5071 94.418 50.7061 85.002 50.1731C88.0548 49.1142 91.3445 48.9381 94.493 49.6651C99.513 50.7741 103.603 53.6131 107.485 56.8061C108.576 57.7061 109.63 58.6431 110.641 59.5131C113.083 57.6041 115.418 55.6591 117.877 53.8861C120.902 51.5817 124.446 50.0538 128.198 49.4361C131.082 48.9763 134.036 49.2486 136.788 50.2281C127.072 50.7001 119.688 55.4901 112.642 61.3701L116.788 65.1371C117.348 64.7499 117.793 64.2193 118.077 63.6008C118.361 62.9824 118.473 62.2989 118.402 61.6221C120.034 62.2341 119.98 63.6221 118.132 66.3691C119.157 67.0341 120.147 67.7691 121.222 68.3481C121.398 68.4689 121.601 68.543 121.813 68.5637C122.025 68.5843 122.239 68.5508 122.435 68.4661C122.631 68.3816 122.802 68.2488 122.932 68.0802C123.062 67.9116 123.148 67.7127 123.18 67.5021C123.468 66.6551 123.835 65.9131 124.921 66.1721C125.376 66.342 125.748 66.6822 125.957 67.1208C126.167 67.5594 126.197 68.0622 126.043 68.5231C125.821 69.4021 125.27 70.1622 124.503 70.6461C123.736 71.13 122.813 71.3008 121.924 71.1231C120.744 70.7747 119.619 70.2623 118.582 69.6011C117.915 69.1526 117.287 68.6481 116.706 68.0931C116.117 68.4924 115.654 69.0521 115.372 69.7059C115.091 70.3598 115.002 71.0806 115.117 71.7831H114.871C112.895 69.9991 114.437 68.4531 115.283 66.8711L110.742 62.9641L106.213 66.8741C107.925 69.7661 107.973 70.4311 106.613 71.7841L106.365 71.7871Z" fill="black"/>
<path d="M108.534 26.3654C106.296 30.062 105.234 34.3516 105.49 38.6654C103.632 34.5456 103.438 29.8667 104.95 25.6074C103.106 26.8484 100.837 31.1194 99.2822 36.1164C98.5902 32.9914 98.9822 27.7424 102.642 22.5694C99.9233 24.4609 97.6715 26.9477 96.0582 29.8404C95.5932 27.1054 97.8212 23.3814 102.381 19.1694L102.237 18.8864C100.87 19.5477 99.5398 20.2849 98.2542 21.0944C96.9594 22.0968 95.7168 23.1649 94.5312 24.2944C96.0312 19.6654 99.2142 17.1044 103.606 15.7634C101.927 15.1054 99.5192 15.4734 95.8472 16.9114C97.4842 14.2934 100.009 13.3434 106.303 12.9794L106.388 12.6324L101.808 11.5884C103.008 10.2794 105.724 10.1834 109.295 11.5044L110.745 8.02344L112.211 11.5444C114.828 10.3444 117.357 10.1064 119.911 11.5614L115.143 12.5974L115.213 12.8074C117.142 13.0644 119.104 13.1854 120.992 13.6164C123.02 14.1966 124.793 15.4448 126.022 17.1584C123.547 15.7887 120.693 15.2605 117.891 15.6534C122.221 17.1024 125.485 19.6284 126.791 24.1934C124.735 21.8168 122.065 20.0523 119.072 19.0934C122.663 21.8124 125.12 25.1934 125.537 29.8024C123.825 26.9502 121.538 24.4848 118.823 22.5624C120.289 24.5391 121.347 26.7866 121.939 29.1751C122.53 31.5635 122.642 34.0455 122.268 36.4774C121.354 32.4402 119.43 28.701 116.676 25.6104C118.049 29.8982 117.849 34.5348 116.112 38.6884C115.868 36.5204 115.739 34.3644 115.355 32.2554C114.983 30.1394 114.157 28.1293 112.933 26.3634L112.464 26.4064C112.538 27.9671 112.61 29.5278 112.682 31.0884C112.69 31.2524 112.664 31.4184 112.659 31.5884C112.559 34.5714 112.432 37.5534 112.359 40.5364C112.302 42.6884 112.233 44.8454 112.329 46.9934C112.356 47.5934 112.956 48.1684 113.336 48.8294H107.816C109.778 47.6184 109.097 46.0154 109.006 44.4854C108.95 43.5394 109.186 42.5794 109.206 41.6254C109.219 40.8384 109.049 40.0494 109.055 39.2614C109.062 38.2184 109.228 37.1744 109.203 36.1334C109.172 34.8884 108.952 33.6484 108.92 32.4034C108.869 30.4174 108.906 28.4304 108.906 26.4424L108.534 26.3654Z" fill="black"/>
<path d="M227.69 22.2292C227.716 22.0763 227.698 21.919 227.638 21.7761C227.578 21.6331 227.478 21.5103 227.35 21.4222C227.15 21.5732 226.958 21.7362 226.75 21.8822C226.618 21.9819 226.465 22.0494 226.302 22.0793C226.14 22.1091 225.973 22.1005 225.814 22.0542C225.656 22.0228 225.515 21.9339 225.418 21.8046C225.321 21.6754 225.276 21.515 225.29 21.3542C225.309 21.2796 225.343 21.2098 225.39 21.1493C225.437 21.0888 225.497 21.039 225.565 21.0032C225.728 20.9332 225.837 21.0792 225.899 21.2412C226.01 21.5352 226.15 21.5952 226.422 21.4412C226.605 21.3319 226.782 21.2131 226.952 21.0852C226.866 20.7602 226.778 20.4922 226.732 20.2162C226.72 20.1452 226.838 20.0512 226.892 19.9752L227.247 20.8282C227.467 20.6342 227.625 20.4982 227.777 20.3592C227.929 20.2202 228.068 20.0892 228.231 19.9372C226.807 18.5621 224.966 17.6986 222.998 17.4822C223.668 17.2499 224.391 17.2114 225.082 17.3712C226.145 17.6579 227.123 18.1957 227.935 18.9392C228.175 19.1392 228.406 19.3392 228.628 19.5342C229.165 19.1152 229.677 18.6872 230.217 18.2982C230.882 17.7917 231.662 17.4563 232.487 17.3212C233.121 17.2202 233.77 17.28 234.374 17.4952C232.381 17.6869 230.513 18.5497 229.074 19.9422L229.982 20.7692C230.105 20.6841 230.203 20.5675 230.265 20.4317C230.327 20.2959 230.352 20.1458 230.336 19.9972C230.694 20.1312 230.683 20.4372 230.277 21.0392C230.504 21.1852 230.72 21.3462 230.958 21.4732C230.997 21.4997 231.041 21.516 231.088 21.5205C231.134 21.5251 231.181 21.5177 231.224 21.4992C231.267 21.4806 231.304 21.4513 231.333 21.4143C231.361 21.3772 231.38 21.3335 231.387 21.2872C231.451 21.1012 231.531 20.9372 231.769 20.9952C231.869 21.0325 231.951 21.1071 231.997 21.2033C232.043 21.2996 232.05 21.4099 232.016 21.5112C231.967 21.705 231.846 21.8725 231.677 21.9788C231.507 22.0852 231.304 22.1222 231.108 22.0822C230.849 22.0054 230.602 21.8927 230.374 21.7472C230.228 21.6487 230.09 21.538 229.962 21.4162C229.833 21.504 229.731 21.627 229.669 21.7707C229.607 21.9144 229.588 22.0728 229.613 22.2272H229.558C229.124 21.8352 229.458 21.4952 229.649 21.1482L228.649 20.2902L227.655 21.1492C228.033 21.7852 228.042 21.9302 227.744 22.2272L227.69 22.2292Z" fill="black"/>
<path d="M228.164 13.3522C227.673 14.1637 227.44 15.1053 227.496 16.0522C227.087 15.1474 227.045 14.1197 227.377 13.1842C226.764 13.8295 226.335 14.626 226.132 15.4922C226.046 14.9724 226.068 14.4405 226.195 13.9292C226.321 13.4179 226.551 12.9378 226.87 12.5182C226.272 12.9345 225.778 13.4818 225.424 14.1182C225.324 13.5182 225.812 12.7002 226.813 11.7722L226.781 11.7102C226.48 11.8554 226.188 12.0174 225.906 12.1952C225.621 12.4144 225.348 12.6481 225.088 12.8952C225.23 12.4373 225.488 12.0241 225.837 11.6957C226.187 11.3673 226.615 11.1349 227.081 11.0212C226.502 10.9006 225.9 10.99 225.381 11.2732C225.74 10.6982 226.296 10.4902 227.681 10.4092L227.7 10.3332L226.694 10.1062C226.957 9.81822 227.554 9.79722 228.339 10.0882L228.658 9.32422L228.98 10.0962C229.238 9.95271 229.529 9.8774 229.825 9.8774C230.121 9.8774 230.411 9.95271 230.67 10.0962L229.623 10.3232L229.638 10.3692C230.062 10.4262 230.492 10.4512 230.907 10.5472C231.351 10.6756 231.738 10.9496 232.007 11.3252C231.463 11.0242 230.836 10.908 230.221 10.9942C230.682 11.1109 231.106 11.3456 231.449 11.6752C231.792 12.0047 232.044 12.4179 232.18 12.8742C231.727 12.3512 231.139 11.9633 230.48 11.7532C230.874 12.018 231.205 12.3657 231.45 12.772C231.696 13.1783 231.849 13.6333 231.9 14.1052C231.524 13.4792 231.022 12.9381 230.426 12.5162C230.748 12.9503 230.981 13.4438 231.11 13.9684C231.24 14.493 231.265 15.0381 231.183 15.5722C230.982 14.6849 230.558 13.8633 229.953 13.1842C230.255 14.1271 230.211 15.1468 229.829 16.0602C229.775 15.5842 229.747 15.1102 229.663 14.6472C229.582 14.1827 229.401 13.7412 229.133 13.3532L229.033 13.3632C229.049 13.7059 229.065 14.0486 229.081 14.3912C229.081 14.4272 229.081 14.4672 229.076 14.5002C229.053 15.1552 229.026 15.8102 229.009 16.4682C228.997 16.9412 228.981 17.4152 229.003 17.8862C229.009 18.0182 229.141 18.1442 229.224 18.2862H228.013C228.444 18.0202 228.295 17.6682 228.274 17.3322C228.262 17.1242 228.313 16.9132 228.317 16.7042C228.317 16.5312 228.283 16.3572 228.284 16.1852C228.284 15.9582 228.322 15.7262 228.317 15.4982C228.31 15.2252 228.262 14.9522 228.255 14.6782C228.244 14.2422 228.255 13.8052 228.255 13.3692L228.164 13.3522Z" fill="black"/>
<path d="M224.821 31.5117V31.7837H224.553V31.5117H224.821ZM225.215 31.5117V31.7837H224.947V31.5117H225.215ZM225.557 32.6897C225.589 32.6897 225.597 32.7357 225.597 32.8097C225.597 32.8837 225.589 32.9297 225.557 32.9297H224.837C224.487 32.9297 224.391 32.7737 224.391 32.4297C224.391 32.0857 224.487 31.9297 224.837 31.9297H225.321V32.6897H225.557ZM224.837 32.6897H225.053V32.1697H224.837C224.679 32.1697 224.659 32.1797 224.659 32.4297C224.659 32.6797 224.679 32.6897 224.837 32.6897ZM226.063 31.9297V32.9297H225.557C225.525 32.9297 225.517 32.8837 225.517 32.8097C225.517 32.7357 225.525 32.6897 225.557 32.6897H225.795V31.9297H226.063ZM225.597 33.3217V33.0497H225.865V33.3217H225.597ZM225.991 33.0497H226.259V33.3217H225.991V33.0497ZM226.549 31.9297C226.869 31.9297 227.057 32.0637 227.057 32.4657V32.9297H226.283V32.6897H226.789V32.4657C226.789 32.2197 226.739 32.1697 226.549 32.1697H226.387V31.9297H226.549ZM228.404 32.6897C228.436 32.6897 228.444 32.7357 228.444 32.8097C228.444 32.8837 228.436 32.9297 228.404 32.9297H228.166V32.9417C228.166 33.2317 228.014 33.4217 227.71 33.4217C227.614 33.4217 227.49 33.4037 227.382 33.3797L227.44 33.1457C227.548 33.1697 227.64 33.1817 227.71 33.1817C227.842 33.1817 227.898 33.1217 227.898 32.9417V32.9297H227.682C227.332 32.9297 227.236 32.7737 227.236 32.4297C227.236 32.0857 227.332 31.9297 227.682 31.9297H228.166V32.6897H228.404ZM227.682 32.6897H227.898V32.1697H227.682C227.524 32.1697 227.504 32.1797 227.504 32.4297C227.504 32.6797 227.524 32.6897 227.682 32.6897ZM229.736 32.6897C229.768 32.6897 229.776 32.7357 229.776 32.8097C229.776 32.8837 229.768 32.9297 229.736 32.9297H229.42C229.296 32.9297 229.18 32.9037 229.076 32.8577C228.972 32.9037 228.856 32.9297 228.732 32.9297H228.404C228.372 32.9297 228.364 32.8837 228.364 32.8097C228.364 32.7357 228.372 32.6897 228.404 32.6897H228.732C228.756 32.6897 228.78 32.6877 228.804 32.6837C228.632 32.5277 228.53 32.3297 228.53 32.1857V32.0677C228.702 31.9777 228.914 31.9297 229.076 31.9297C229.238 31.9297 229.45 31.9777 229.622 32.0677V32.1857C229.622 32.3297 229.52 32.5277 229.348 32.6837C229.372 32.6877 229.396 32.6897 229.42 32.6897H229.736ZM228.8 32.2177C228.818 32.3417 228.932 32.4797 229.076 32.5737C229.22 32.4797 229.334 32.3417 229.352 32.2177C229.258 32.1857 229.162 32.1697 229.076 32.1697C228.99 32.1697 228.894 32.1857 228.8 32.2177ZM231.664 32.6897C231.696 32.6897 231.704 32.7357 231.704 32.8097C231.704 32.8837 231.696 32.9297 231.664 32.9297H230.9C230.826 32.9297 230.754 32.9077 230.688 32.8657C230.624 32.9097 230.54 32.9297 230.432 32.9297H229.736C229.704 32.9297 229.696 32.8837 229.696 32.8097C229.696 32.7357 229.704 32.6897 229.736 32.6897H230.002V32.0297H230.27V32.6897H230.432C230.552 32.6897 230.578 32.6577 230.578 32.4297V32.0297H230.846V32.4297C230.846 32.5177 230.838 32.5917 230.822 32.6557C230.856 32.6837 230.876 32.6897 230.9 32.6897H231.158V32.3757C231.158 32.3237 231.136 32.1457 231.106 31.9697L231.37 31.9297C231.394 32.0737 231.426 32.2957 231.426 32.3757V32.6897H231.664ZM231.962 31.5297H232.23V32.9297H231.664C231.632 32.9297 231.624 32.8837 231.624 32.8097C231.624 32.7357 231.632 32.6897 231.664 32.6897H231.962V31.5297ZM232.549 32.9297V31.5297H232.817V32.9297H232.549Z" fill="black"/>
<path d="M226.666 49.9023V43.7823H227.908V46.4733L228.736 46.3833L229.744 43.7823H231.157L229.825 46.8513L231.193 49.9023H229.762L228.736 47.4633L227.908 47.5533V49.9023H226.666Z" fill="black"/>
<path d="M228.448 59.0924C227.836 59.0924 226.927 58.9304 226.405 58.8134L226.531 57.8504C227.053 57.9224 227.908 58.0124 228.376 58.0124C229.042 58.0124 229.33 57.6974 229.33 57.2204C229.33 56.8424 229.114 56.6714 228.232 56.4194C226.855 56.0234 226.333 55.5554 226.333 54.5744C226.333 53.3054 227.179 52.7564 228.421 52.7564C229.015 52.7564 229.924 52.8914 230.437 52.9994L230.338 53.9804C229.789 53.9174 228.925 53.8364 228.547 53.8364C227.881 53.8364 227.566 54.0794 227.566 54.4844C227.566 54.8714 227.809 55.0064 228.835 55.3304C230.158 55.7534 230.563 56.1224 230.563 57.1394C230.563 58.4714 229.654 59.0924 228.448 59.0924Z" fill="black"/>
<path d="M226.153 68.0664L227.53 61.9464H229.888L231.265 68.0664H230.023L229.78 66.9594H227.638L227.395 68.0664H226.153ZM227.872 65.8794H229.546L228.925 62.9724H228.493L227.872 65.8794Z" fill="black"/>
<path d="M219.855 41.8477H142.305" stroke="black" stroke-width="1.5"/>
<path d="M79 42L1 42" stroke="black" stroke-width="1.5"/>
<path d="M142.305 1.52344V77.6624" stroke="black" stroke-width="1.5"/>
<path d="M79.4902 1.52344V77.6624" stroke="black" stroke-width="1.5"/>
<g filter="url(#filter0_d_3080_21759)">
<path d="M111 86C116.523 86 121 81.7467 121 76.5C121 71.2533 116.523 67 111 67C105.477 67 101 71.2533 101 76.5C101 81.7467 105.477 86 111 86Z" fill="#11014D"/>
</g>
<path d="M104.553 75.804V77.623C104.553 78.4451 104.879 79.2336 105.461 79.815C106.042 80.3963 106.831 80.7229 107.653 80.7229H115.253C115.732 80.7229 116.191 80.5327 116.53 80.194C116.868 79.8553 117.059 79.3959 117.059 78.9169H108.573C108.175 78.9169 107.793 78.7589 107.512 78.4776C107.231 78.1963 107.073 77.8148 107.073 77.4169V76.0169C107.073 75.6191 107.231 75.2376 107.512 74.9563C107.793 74.675 108.175 74.5169 108.573 74.5169C110.361 74.5169 113.341 74.5169 115.255 74.5169C115.733 74.5153 116.19 74.3244 116.528 73.9859C116.865 73.6474 117.055 73.1889 117.055 72.7109H107.645C106.825 72.7131 106.04 73.0396 105.46 73.6193C104.881 74.1989 104.555 74.9844 104.553 75.804Z" fill="#FA9C44"/>
<path d="M111.574 75.9688H115.685C116.099 75.9688 116.495 76.133 116.788 76.4254C117.08 76.7177 117.244 77.1143 117.244 77.5278H113.133C112.72 77.5278 112.323 77.3635 112.031 77.0711C111.738 76.7788 111.574 76.3822 111.574 75.9688Z" fill="white"/>
</g>
<defs>
<filter id="filter0_d_3080_21759" x="95" y="61" width="32" height="31" filterUnits="userSpaceOnUse" color-interpolation-filters="sRGB">
<feFlood flood-opacity="0" result="BackgroundImageFix"/>
<feColorMatrix in="SourceAlpha" type="matrix" values="0 0 0 0 0 0 0 0 0 0 0 0 0 0 0 0 0 0 127 0" result="hardAlpha"/>
<feOffset/>
<feGaussianBlur stdDeviation="3"/>
<feColorMatrix type="matrix" values="0 0 0 0 0 0 0 0 0 0 0 0 0 0 0 0 0 0 0.161 0"/>
<feBlend mode="normal" in2="BackgroundImageFix" result="effect1_dropShadow_3080_21759"/>
<feBlend mode="normal" in="SourceGraphic" in2="effect1_dropShadow_3080_21759" result="shape"/>
</filter>
<clipPath id="clip0_3080_21759">
<rect width="239" height="95" fill="white"/>
</clipPath>
</defs>
</svg>
