<svg width="524" height="185" viewBox="0 0 524 185" fill="none" xmlns="http://www.w3.org/2000/svg">
<path d="M198.361 0.416016H325.436V160.975H198.361V0.416016Z" fill="#5B86FA"/>
<path d="M513 1.5H11C5.75329 1.5 1.5 5.75329 1.5 11V151C1.5 156.247 5.75329 160.5 11 160.5H513C518.247 160.5 522.5 156.247 522.5 151V11C522.5 5.75329 518.247 1.5 513 1.5Z" stroke="black" stroke-width="3"/>
<path d="M485.01 0.477051V158.651" stroke="black" stroke-width="3"/>
<path d="M252.621 146.621C252.706 142.747 252.311 141.778 249.455 139.097C247.619 140.518 245.801 142.023 243.876 143.39C242.645 144.316 241.216 144.943 239.7 145.221C238.185 145.498 236.626 145.419 235.147 144.99C231.996 144.122 229.723 141.348 230.264 138.427C230.437 137.732 230.755 137.081 231.197 136.517C231.639 135.954 232.196 135.49 232.83 135.157C234.35 134.509 235.365 135.857 235.942 137.379C236.982 140.122 238.284 140.679 240.822 139.279C242.517 138.26 244.158 137.153 245.738 135.963C244.932 132.938 244.115 130.434 243.685 127.863C243.573 127.197 244.674 126.327 245.173 125.617L248.483 133.565C250.536 131.75 251.993 130.486 253.422 129.192C254.794 127.952 256.137 126.675 257.665 125.256C243.253 113.288 228.151 103.456 208.865 102.365C215.116 100.197 221.853 99.8362 228.3 101.325C238.579 103.595 246.954 109.41 254.9 115.948C257.133 117.784 259.292 119.711 261.362 121.491C266.362 117.581 271.144 113.598 276.179 109.969C282.374 105.25 289.63 102.122 297.314 100.857C303.221 99.9158 309.27 100.474 314.905 102.48C295.005 103.447 279.897 113.255 265.46 125.295L273.949 133.009C275.095 132.216 276.007 131.129 276.589 129.862C277.17 128.595 277.4 127.195 277.254 125.809C280.595 127.061 280.485 129.909 276.701 135.529C278.801 136.891 280.828 138.394 283.028 139.581C283.388 139.828 283.804 139.98 284.238 140.022C284.673 140.065 285.11 139.996 285.511 139.823C285.912 139.65 286.262 139.378 286.528 139.032C286.795 138.687 286.97 138.279 287.036 137.848C287.625 136.114 288.376 134.594 290.6 135.125C292.421 135.565 293.36 137.66 292.9 139.94C292.444 141.739 291.315 143.295 289.745 144.285C288.175 145.275 286.285 145.624 284.465 145.26C282.049 144.547 279.746 143.498 277.622 142.144C276.256 141.225 274.971 140.192 273.78 139.055C272.573 139.873 271.626 141.019 271.049 142.358C270.472 143.696 270.291 145.172 270.526 146.611H270.026C265.98 142.957 269.136 139.792 270.871 136.552L261.571 128.552L252.298 136.558C255.803 142.481 255.898 143.842 253.126 146.612L252.621 146.621Z" fill="white"/>
<path d="M257.056 53.609C252.187 61.274 250.606 69.78 250.823 78.799C247.017 70.3627 246.62 60.7811 249.716 52.059C245.941 54.6 241.293 63.347 238.109 73.578C236.693 67.178 237.489 56.431 244.99 45.838C239.422 49.7116 234.811 54.8041 231.508 60.728C230.557 55.128 235.117 47.503 244.456 38.877L244.162 38.297C241.361 39.6506 238.638 41.1597 236.006 42.817C233.354 44.8684 230.809 47.0543 228.381 49.366C231.451 39.888 237.97 34.644 246.963 31.896C243.524 30.548 238.595 31.302 231.075 34.247C234.427 28.887 239.598 26.94 252.486 26.196L252.66 25.486L243.281 23.347C245.729 20.668 251.301 20.469 258.612 23.175L261.581 16.046L264.581 23.257C269.94 20.807 275.119 20.313 280.338 23.293L270.575 25.415L270.718 25.844C274.668 26.371 278.685 26.619 282.551 27.501C286.551 28.42 289.703 30.969 292.851 34.754C287.782 31.9491 281.938 30.8675 276.201 31.672C285.067 34.64 291.752 39.813 294.43 49.159C290.221 44.2894 284.752 40.6734 278.623 38.708C285.976 44.276 291.007 51.202 291.862 60.638C288.356 54.7988 283.676 49.7513 278.118 45.815C281.118 49.8627 283.287 54.465 284.497 59.3559C285.708 64.2467 285.938 69.329 285.172 74.309C283.3 66.042 279.36 58.3856 273.721 52.057C276.532 60.8372 276.122 70.3315 272.566 78.837C272.066 74.397 271.802 69.982 271.016 65.665C270.255 61.3318 268.563 57.2152 266.057 53.599L265.096 53.687C265.246 56.8824 265.395 60.0777 265.542 63.273C265.558 63.609 265.505 63.949 265.494 64.288C265.28 70.395 265.029 76.503 264.874 82.612C264.758 87.019 264.615 91.436 264.814 95.834C264.87 97.064 266.097 98.241 266.875 99.594H255.575C259.593 97.114 258.199 93.832 258.011 90.694C257.896 88.757 258.38 86.794 258.411 84.838C258.437 83.226 258.09 81.61 258.101 79.997C258.115 77.862 258.456 75.723 258.401 73.597C258.337 71.048 257.886 68.508 257.821 65.959C257.721 61.893 257.793 57.823 257.793 53.754L257.056 53.609Z" fill="white"/>
<path d="M501.055 45.143C501.108 44.8296 501.07 44.5074 500.946 44.2147C500.822 43.922 500.617 43.6709 500.355 43.491C499.955 43.801 499.555 44.134 499.131 44.433C498.861 44.6371 498.547 44.7752 498.214 44.8363C497.881 44.8975 497.539 44.8799 497.214 44.785C496.889 44.7203 496.599 44.5371 496.401 44.2709C496.203 44.0046 496.11 43.6743 496.142 43.344C496.18 43.1912 496.25 43.0481 496.347 42.9241C496.444 42.8002 496.567 42.6983 496.706 42.625C497.039 42.482 497.262 42.78 497.389 43.113C497.617 43.713 497.904 43.838 498.46 43.531C498.834 43.3076 499.196 43.0646 499.545 42.803C499.368 42.138 499.189 41.588 499.094 41.024C499.069 40.878 499.311 40.686 499.421 40.531L500.148 42.277C500.599 41.877 500.923 41.601 501.233 41.316C501.543 41.031 501.833 40.763 502.163 40.451C498.997 37.816 495.681 35.664 491.447 35.424C492.82 34.948 494.299 34.8689 495.715 35.196C497.891 35.7832 499.895 36.8844 501.557 38.407C502.048 38.807 502.521 39.233 502.976 39.625C504.076 38.766 505.124 37.891 506.23 37.094C507.593 36.057 509.189 35.3703 510.879 35.094C512.176 34.8872 513.504 35.0096 514.742 35.45C510.372 35.662 507.054 37.816 503.883 40.46L505.743 42.154C505.995 41.9802 506.195 41.7415 506.323 41.4632C506.451 41.185 506.501 40.8774 506.468 40.573C507.201 40.847 507.178 41.473 506.347 42.707C506.812 43.007 507.254 43.336 507.742 43.597C507.821 43.6514 507.913 43.6848 508.008 43.6941C508.104 43.7033 508.2 43.6882 508.288 43.65C508.376 43.6118 508.453 43.552 508.511 43.4761C508.569 43.4002 508.608 43.3107 508.622 43.216C508.752 42.835 508.916 42.5 509.405 42.616C509.61 42.6924 509.777 42.8453 509.871 43.0424C509.965 43.2396 509.979 43.4657 509.91 43.673C509.81 44.0698 509.561 44.4127 509.214 44.6304C508.868 44.8481 508.451 44.9239 508.05 44.842C507.52 44.6848 507.016 44.4542 506.55 44.157C506.25 43.9551 505.967 43.7279 505.705 43.478C505.44 43.6577 505.232 43.9095 505.105 44.2037C504.979 44.4978 504.939 44.822 504.991 45.138H504.878C503.99 44.338 504.678 43.638 505.064 42.928L503.023 41.171L500.987 42.93C501.762 44.23 501.779 44.53 501.168 45.138L501.055 45.143Z" fill="black"/>
<path d="M502.026 26.963C501.02 28.6257 500.543 30.555 500.658 32.495C499.822 30.6421 499.735 28.5377 500.415 26.622C499.161 27.9436 498.281 29.5751 497.866 31.349C497.691 30.2845 497.735 29.1955 497.994 28.1484C498.254 27.1014 498.725 26.1182 499.377 25.259C498.154 26.1099 497.142 27.2282 496.416 28.529C496.207 27.299 497.21 25.629 499.26 23.729L499.195 23.602C498.58 23.8994 497.982 24.2309 497.404 24.595C496.821 25.0455 496.262 25.5254 495.729 26.0331C496.02 25.0957 496.549 24.2496 497.264 23.5772C497.979 22.9049 498.856 22.429 499.809 22.196C498.621 21.9469 497.384 22.1298 496.319 22.712C497.055 21.534 498.193 21.112 501.019 20.944L501.058 20.789L498.998 20.324C499.536 19.735 500.76 19.692 502.365 20.287L503.017 18.722L503.677 20.303C504.206 20.0091 504.802 19.8549 505.408 19.8549C506.013 19.8549 506.609 20.0091 507.138 20.303L504.993 20.768L505.024 20.863C505.892 20.979 506.774 21.032 507.624 21.227C508.536 21.4878 509.334 22.0491 509.887 22.82C508.774 22.2039 507.49 21.9663 506.23 22.143C507.175 22.3819 508.041 22.8623 508.745 23.5371C509.448 24.2119 509.963 25.0579 510.241 25.9921C509.317 24.9209 508.116 24.1251 506.77 23.692C507.576 24.2343 508.254 24.9463 508.757 25.7783C509.259 26.6102 509.573 27.5419 509.677 28.508C508.907 27.2261 507.879 26.118 506.658 25.254C507.317 26.1429 507.794 27.1536 508.06 28.2278C508.326 29.302 508.376 30.4183 508.208 31.512C507.797 29.6961 506.932 28.0143 505.693 26.624C506.311 28.5548 506.221 30.6427 505.439 32.513C505.329 31.538 505.272 30.568 505.098 29.62C504.932 28.6687 504.562 27.7646 504.013 26.97L503.802 26.99C503.835 27.6914 503.869 28.3934 503.902 29.096C503.902 29.17 503.894 29.251 503.891 29.319C503.844 30.661 503.791 32.002 503.753 33.348C503.728 34.317 503.696 35.287 503.741 36.248C503.753 36.518 504.023 36.776 504.194 37.074H501.714C502.596 36.529 502.291 35.809 502.249 35.12C502.224 34.694 502.33 34.263 502.337 33.834C502.337 33.481 502.267 33.124 502.269 32.771C502.269 32.306 502.346 31.832 502.336 31.364C502.322 30.805 502.223 30.2471 502.209 29.6861C502.186 28.7931 502.209 27.899 502.209 27.005L502.026 26.963Z" fill="black"/>
<path d="M493.653 59.1761V59.8561H492.983V59.1761H493.653ZM494.638 59.1761V59.8561H493.968V59.1761H494.638ZM495.493 62.1211C495.573 62.1211 495.593 62.2361 495.593 62.4211C495.593 62.6061 495.573 62.7211 495.493 62.7211H493.693C492.818 62.7211 492.578 62.3311 492.578 61.4711C492.578 60.6111 492.818 60.2211 493.693 60.2211H494.903V62.1211H495.493ZM493.693 62.1211H494.233V60.8211H493.693C493.298 60.8211 493.248 60.8461 493.248 61.4711C493.248 62.0961 493.298 62.1211 493.693 62.1211ZM496.758 60.2211V62.7211H495.493C495.413 62.7211 495.393 62.6061 495.393 62.4211C495.393 62.2361 495.413 62.1211 495.493 62.1211H496.088V60.2211H496.758ZM495.593 63.7011V63.0211H496.263V63.7011H495.593ZM496.578 63.0211H497.248V63.7011H496.578V63.0211ZM497.974 60.2211C498.774 60.2211 499.244 60.5561 499.244 61.5611V62.7211H497.309V62.1211H498.574V61.5611C498.574 60.9461 498.449 60.8211 497.974 60.8211H497.569V60.2211H497.974ZM502.612 62.1211C502.692 62.1211 502.712 62.2361 502.712 62.4211C502.712 62.6061 502.692 62.7211 502.612 62.7211H502.017V62.7511C502.017 63.4761 501.637 63.9511 500.877 63.9511C500.637 63.9511 500.327 63.9061 500.057 63.8461L500.202 63.2611C500.472 63.3211 500.702 63.3511 500.877 63.3511C501.207 63.3511 501.347 63.2011 501.347 62.7511V62.7211H500.807C499.932 62.7211 499.692 62.3311 499.692 61.4711C499.692 60.6111 499.932 60.2211 500.807 60.2211H502.017V62.1211H502.612ZM500.807 62.1211H501.347V60.8211H500.807C500.412 60.8211 500.362 60.8461 500.362 61.4711C500.362 62.0961 500.412 62.1211 500.807 62.1211ZM505.942 62.1211C506.022 62.1211 506.042 62.2361 506.042 62.4211C506.042 62.6061 506.022 62.7211 505.942 62.7211H505.152C504.842 62.7211 504.552 62.6561 504.292 62.5411C504.032 62.6561 503.742 62.7211 503.432 62.7211H502.612C502.532 62.7211 502.512 62.6061 502.512 62.4211C502.512 62.2361 502.532 62.1211 502.612 62.1211H503.432C503.492 62.1211 503.552 62.1161 503.612 62.1061C503.182 61.7161 502.927 61.2211 502.927 60.8611V60.5661C503.357 60.3411 503.887 60.2211 504.292 60.2211C504.697 60.2211 505.227 60.3411 505.657 60.5661V60.8611C505.657 61.2211 505.402 61.7161 504.972 62.1061C505.032 62.1161 505.092 62.1211 505.152 62.1211H505.942ZM503.602 60.9411C503.647 61.2511 503.932 61.5961 504.292 61.8311C504.652 61.5961 504.937 61.2511 504.982 60.9411C504.747 60.8611 504.507 60.8211 504.292 60.8211C504.077 60.8211 503.837 60.8611 503.602 60.9411ZM510.762 62.1211C510.842 62.1211 510.862 62.2361 510.862 62.4211C510.862 62.6061 510.842 62.7211 510.762 62.7211H508.852C508.667 62.7211 508.487 62.6661 508.322 62.5611C508.162 62.6711 507.952 62.7211 507.682 62.7211H505.942C505.862 62.7211 505.842 62.6061 505.842 62.4211C505.842 62.2361 505.862 62.1211 505.942 62.1211H506.607V60.4711H507.277V62.1211H507.682C507.982 62.1211 508.047 62.0411 508.047 61.4711V60.4711H508.717V61.4711C508.717 61.6911 508.697 61.8761 508.657 62.0361C508.742 62.1061 508.792 62.1211 508.852 62.1211H509.497V61.3361C509.497 61.2061 509.442 60.7611 509.367 60.3211L510.027 60.2211C510.087 60.5811 510.167 61.1361 510.167 61.3361V62.1211H510.762ZM511.507 59.2211H512.177V62.7211H510.762C510.682 62.7211 510.662 62.6061 510.662 62.4211C510.662 62.2361 510.682 62.1211 510.762 62.1211H511.507V59.2211ZM512.974 62.7211V59.2211H513.644V62.7211H512.974Z" fill="black"/>
<path d="M498.851 98.092V86.532H501.197V91.615L502.761 91.445L504.665 86.532H507.334L504.818 92.329L507.402 98.092H504.699L502.761 93.485L501.197 93.655V98.092H498.851Z" fill="black"/>
<path d="M502.217 116.892C501.061 116.892 499.344 116.586 498.358 116.365L498.596 114.546C499.582 114.682 501.197 114.852 502.081 114.852C503.339 114.852 503.883 114.257 503.883 113.356C503.883 112.642 503.475 112.319 501.809 111.843C499.208 111.095 498.222 110.211 498.222 108.358C498.222 105.961 499.82 104.924 502.166 104.924C503.288 104.924 505.005 105.179 505.974 105.383L505.787 107.236C504.75 107.117 503.118 106.964 502.404 106.964C501.146 106.964 500.551 107.423 500.551 108.188C500.551 108.919 501.01 109.174 502.948 109.786C505.447 110.585 506.212 111.282 506.212 113.203C506.212 115.719 504.495 116.892 502.217 116.892Z" fill="black"/>
<path d="M497.865 134.285L500.313 123.405H504.505L506.953 134.285H504.745L504.313 132.317H500.505L500.073 134.285H497.865ZM500.921 130.397H503.897L502.793 125.229H502.025L500.921 130.397Z" fill="black"/>
<path d="M485.01 85.288H326.211" stroke="black" stroke-width="2"/>
<path d="M197.536 85.288H2.32495" stroke="black" stroke-width="2"/>
<path d="M326.211 2.73999V158.65" stroke="black"/>
<path d="M197.586 2.73999V158.65" stroke="black"/>
<g filter="url(#filter0_d_4777_11154)">
<path d="M262.503 175.998C273.825 175.998 283.003 167.491 283.003 156.998C283.003 146.505 273.825 137.998 262.503 137.998C251.181 137.998 242.003 146.505 242.003 156.998C242.003 167.491 251.181 175.998 262.503 175.998Z" fill="#11014D"/>
</g>
<path d="M250 155.347V159.075C250 160.757 250.668 162.37 251.857 163.559C253.046 164.748 254.659 165.416 256.341 165.416H271.9C272.881 165.416 273.822 165.026 274.516 164.332C275.21 163.638 275.6 162.697 275.6 161.716H258.221C257.406 161.716 256.624 161.392 256.048 160.816C255.472 160.24 255.148 159.458 255.148 158.643V155.782C255.148 155.378 255.227 154.978 255.382 154.605C255.536 154.232 255.763 153.893 256.048 153.608C256.334 153.322 256.673 153.096 257.046 152.942C257.419 152.788 257.819 152.708 258.223 152.709C261.885 152.709 267.986 152.709 271.907 152.7C272.887 152.698 273.826 152.307 274.517 151.613C275.209 150.919 275.598 149.98 275.598 149H256.341C255.508 149 254.683 149.164 253.913 149.484C253.144 149.803 252.444 150.27 251.855 150.86C251.267 151.449 250.8 152.149 250.481 152.919C250.163 153.689 249.999 154.514 250 155.347Z" fill="#FA9C44"/>
<path d="M264.38 155.684H272.798C273.645 155.684 274.456 156.02 275.055 156.619C275.654 157.217 275.99 158.029 275.99 158.876H267.572C266.725 158.876 265.914 158.54 265.315 157.941C264.716 157.342 264.38 156.531 264.38 155.684Z" fill="#FAFAFA"/>
<defs>
<filter id="filter0_d_4777_11154" x="236.003" y="131.998" width="53" height="50" filterUnits="userSpaceOnUse" color-interpolation-filters="sRGB">
<feFlood flood-opacity="0" result="BackgroundImageFix"/>
<feColorMatrix in="SourceAlpha" type="matrix" values="0 0 0 0 0 0 0 0 0 0 0 0 0 0 0 0 0 0 127 0" result="hardAlpha"/>
<feOffset/>
<feGaussianBlur stdDeviation="3"/>
<feColorMatrix type="matrix" values="0 0 0 0 0 0 0 0 0 0 0 0 0 0 0 0 0 0 0.161 0"/>
<feBlend mode="normal" in2="BackgroundImageFix" result="effect1_dropShadow_4777_11154"/>
<feBlend mode="normal" in="SourceGraphic" in2="effect1_dropShadow_4777_11154" result="shape"/>
</filter>
</defs>
</svg>
