<svg xmlns="http://www.w3.org/2000/svg" xmlns:xlink="http://www.w3.org/1999/xlink" width="338" height="116" viewBox="0 0 338 116">
  <defs>
    <filter id="Ellipse_329" x="147" y="72" width="44" height="44" filterUnits="userSpaceOnUse">
      <feOffset input="SourceAlpha"/>
      <feGaussianBlur stdDeviation="3" result="blur"/>
      <feFlood flood-opacity="0.161"/>
      <feComposite operator="in" in2="blur"/>
      <feComposite in="SourceGraphic"/>
    </filter>
  </defs>
  <g id="Group_4872" data-name="Group 4872" transform="translate(-45 -257)">
    <g id="Group_4771" data-name="Group 4771" transform="translate(-1273.908 -1361.293)">
      <g id="Rectangle_2003" data-name="Rectangle 2003" transform="translate(1318.908 1618.293)" fill="none" stroke="#000" stroke-width="2">
        <rect width="338" height="97" rx="11" stroke="none"/>
        <rect x="1" y="1" width="336" height="95" rx="10" fill="none"/>
      </g>
      <line id="Line_165" data-name="Line 165" y2="95.461" transform="translate(1631.879 1618.333)" fill="none" stroke="#000" stroke-width="2"/>
      <g id="Group_4769" data-name="Group 4769" transform="translate(1453.693 1628.388)">
        <path id="Path_24455" data-name="Path 24455" d="M-327.231,269.574c.055-2.5-.2-3.125-2.043-4.855-1.185.917-2.358,1.888-3.6,2.77a6.4,6.4,0,0,1-5.633,1.033c-2.033-.56-3.5-2.35-3.151-4.235a3.277,3.277,0,0,1,1.656-2.11c.981-.418,1.636.452,2.008,1.434.671,1.77,1.511,2.132,3.149,1.228a36.506,36.506,0,0,0,3.172-2.14c-.52-1.952-1.047-3.568-1.325-5.227-.072-.43.638-.991.96-1.449l2.136,5.129c1.325-1.171,2.265-1.987,3.187-2.822.885-.8,1.752-1.624,2.738-2.54-9.3-7.723-19.045-14.067-31.487-14.771a22.691,22.691,0,0,1,12.541-.671c6.633,1.465,12.037,5.217,17.167,9.436,1.441,1.185,2.834,2.428,4.17,3.577,3.227-2.523,6.312-5.093,9.561-7.435a30.746,30.746,0,0,1,13.638-5.88,23.034,23.034,0,0,1,11.351,1.047c-12.839.624-22.59,6.953-31.906,14.722l5.478,4.978a5.012,5.012,0,0,0,2.133-4.644c2.156.808,2.085,2.646-.357,6.272,1.354.879,2.663,1.849,4.083,2.615a1.663,1.663,0,0,0,2.586-1.118c.38-1.119.865-2.1,2.3-1.757,1.175.284,1.781,1.636,1.482,3.107a4.67,4.67,0,0,1-5.443,3.433,17.369,17.369,0,0,1-4.416-2.011,18.728,18.728,0,0,1-2.479-1.993,4.929,4.929,0,0,0-2.1,4.876H-316c-2.611-2.358-.574-4.4.545-6.491l-6-5.163-5.984,5.166c2.262,3.822,2.326,4.7.534,6.488Z" transform="translate(355.459 -191.931)"/>
        <path id="Path_24456" data-name="Path 24456" d="M-298.857,119.171c-3.142,4.946-4.162,10.435-4.022,16.255a23.136,23.136,0,0,1-.714-17.255c-2.436,1.64-5.435,7.284-7.49,13.886-.914-4.129-.4-11.065,4.44-17.9a28.78,28.78,0,0,0-8.7,9.608c-.614-3.614,2.329-8.534,8.355-14.1l-.19-.374a53.9,53.9,0,0,0-5.263,2.917,63.374,63.374,0,0,0-4.92,4.226c1.981-6.116,6.188-9.5,11.991-11.273-2.219-.87-5.4-.383-10.252,1.517,2.163-3.459,5.5-4.715,13.816-5.195l.112-.458-6.052-1.38c1.58-1.729,5.175-1.857,9.893-.111l1.916-4.6L-294,99.587c3.458-1.581,6.8-1.9,10.168.023l-6.3,1.369.092.277c2.549.34,5.141.5,7.636,1.069,2.578.593,4.615,2.238,6.647,4.68a17.245,17.245,0,0,0-10.744-1.989c5.721,1.915,10.035,5.253,11.763,11.284a22.606,22.606,0,0,0-10.2-6.744c4.745,3.593,7.991,8.062,8.543,14.151a31.742,31.742,0,0,0-8.871-9.566,24.6,24.6,0,0,1,4.552,18.387,32.31,32.31,0,0,0-7.389-14.359,25.022,25.022,0,0,1-.745,17.281c-.323-2.865-.493-5.714-1-8.5a19.634,19.634,0,0,0-3.2-7.786l-.62.057q.145,3.093.288,6.186c.01.217-.024.436-.031.655-.138,3.941-.3,7.882-.4,11.824-.075,2.844-.167,5.694-.039,8.532.036.794.828,1.553,1.33,2.426h-7.294c2.593-1.6,1.693-3.718,1.572-5.74-.074-1.25.238-2.518.26-3.779.017-1.04-.207-2.083-.2-3.124.009-1.378.229-2.758.195-4.133-.041-1.645-.332-3.284-.374-4.929-.067-2.624-.018-5.25-.018-7.876Z" transform="translate(329.947 -94.941)"/>
      </g>
      <g id="Group_4770" data-name="Group 4770" transform="translate(1636.115 1630.103)">
        <path id="Path_24455-2" data-name="Path 24455" d="M-349.259,246.315a1.075,1.075,0,0,0-.449-1.066c-.26.2-.518.415-.79.608a1.4,1.4,0,0,1-1.237.227.864.864,0,0,1-.692-.93.72.72,0,0,1,.364-.464c.215-.092.359.1.441.315.147.389.332.468.691.27a8.017,8.017,0,0,0,.7-.47c-.114-.429-.23-.784-.291-1.148-.016-.094.14-.218.211-.318l.469,1.127c.291-.257.5-.436.7-.62s.385-.357.6-.558c-2.043-1.7-4.183-3.089-6.915-3.244a4.983,4.983,0,0,1,2.754-.147,9.084,9.084,0,0,1,3.77,2.072c.317.26.622.533.916.786.709-.554,1.386-1.119,2.1-1.633a6.753,6.753,0,0,1,3-1.291,5.059,5.059,0,0,1,2.493.23c-2.82.137-4.961,1.527-7.007,3.233l1.2,1.093a1.1,1.1,0,0,0,.468-1.02c.473.177.458.581-.078,1.377.3.193.585.406.9.574a.365.365,0,0,0,.568-.246c.084-.246.19-.462.505-.386a.544.544,0,0,1,.326.682,1.026,1.026,0,0,1-1.2.754,3.816,3.816,0,0,1-.97-.442,4.112,4.112,0,0,1-.545-.438,1.083,1.083,0,0,0-.461,1.071h-.073c-.573-.518-.126-.967.12-1.426l-1.317-1.134-1.314,1.135c.5.84.511,1.032.117,1.425Z" transform="translate(355.459 -229.263)"/>
        <path id="Path_24456-2" data-name="Path 24456" d="M-313.3,100.262a6.184,6.184,0,0,0-.883,3.57,5.081,5.081,0,0,1-.157-3.79,6.623,6.623,0,0,0-1.645,3.05,5.123,5.123,0,0,1,.975-3.93,6.321,6.321,0,0,0-1.911,2.11c-.135-.794.512-1.874,1.835-3.1l-.042-.082a11.831,11.831,0,0,0-1.156.641,13.921,13.921,0,0,0-1.081.928,3.668,3.668,0,0,1,2.633-2.476,3.287,3.287,0,0,0-2.252.333c.475-.76,1.209-1.035,3.034-1.141l.025-.1-1.329-.3c.347-.38,1.137-.408,2.173-.024l.421-1.01.426,1.02a2.3,2.3,0,0,1,2.233,0l-1.384.3.02.061c.56.075,1.129.109,1.677.235a2.716,2.716,0,0,1,1.46,1.028,3.787,3.787,0,0,0-2.36-.437A3.628,3.628,0,0,1-308,99.632a4.965,4.965,0,0,0-2.24-1.481,4.3,4.3,0,0,1,1.876,3.108,6.971,6.971,0,0,0-1.948-2.1,5.4,5.4,0,0,1,1,4.038,7.1,7.1,0,0,0-1.623-3.154,5.5,5.5,0,0,1-.164,3.8c-.071-.629-.108-1.255-.22-1.867a4.312,4.312,0,0,0-.7-1.71l-.136.013q.032.679.063,1.359c0,.048-.005.1-.007.144-.03.866-.066,1.731-.089,2.6-.016.625-.037,1.251-.008,1.874.008.174.182.341.292.533h-1.6c.569-.352.372-.816.345-1.261-.016-.275.052-.553.057-.83,0-.228-.045-.458-.044-.686,0-.3.05-.606.043-.908-.009-.361-.073-.721-.082-1.083-.015-.576,0-1.153,0-1.73Z" transform="translate(320.127 -94.941)"/>
      </g>
      <text id="السعودية" transform="translate(1635.908 1657.293)" font-size="3" font-family="Cairo-Bold, Cairo" font-weight="700"><tspan x="0" y="0">السعودية</tspan></text>
      <text id="K_S_A" data-name="K
S
A" transform="translate(1643.908 1674.293)" font-size="13" font-family="Cairo-Bold, Cairo" font-weight="700"><tspan x="-3.855" y="0">K</tspan><tspan x="-3.536" y="12">S</tspan><tspan x="-3.913" y="24">A</tspan></text>
      <line id="Line_170" data-name="Line 170" x1="102.471" transform="translate(1529.408 1669.577)" fill="none" stroke="#000" stroke-width="1"/>
      <path id="Path_24459" data-name="Path 24459" d="M125.967,0H0" transform="translate(1320.408 1669.577)" fill="none" stroke="#000" stroke-width="1"/>
      <line id="Line_172" data-name="Line 172" y2="94" transform="translate(1529.408 1619.793)" fill="none" stroke="#000" stroke-width="1"/>
      <line id="Line_173" data-name="Line 173" y2="94" transform="translate(1446.408 1619.793)" fill="none" stroke="#000" stroke-width="1"/>
    </g>
    <g id="Group_4795" data-name="Group 4795" transform="translate(-5 134)">
      <g transform="matrix(1, 0, 0, 1, 50, 123)" filter="url(#Ellipse_329)">
        <circle id="Ellipse_329-2" data-name="Ellipse 329" cx="13" cy="13" r="13" transform="translate(156 81)" fill="#fff"/>
      </g>
      <g id="Group_4766" data-name="Group 4766" transform="translate(8.707 -227.331)">
        <path id="Path_1" data-name="Path 1" d="M201.908,443.376v2.406A4.092,4.092,0,0,0,206,449.874h10.04a2.386,2.386,0,0,0,2.386-2.386H207.213a1.983,1.983,0,0,1-1.983-1.983v-1.846a1.982,1.982,0,0,1,1.984-1.983c2.363,0,6.3,0,8.83-.006a2.386,2.386,0,0,0,2.382-2.386H206A4.092,4.092,0,0,0,201.908,443.376Z" transform="translate(0 0)" fill="#fa9c44"/>
        <path id="Rectangle_3" data-name="Rectangle 3" d="M0,0H5.432a2.06,2.06,0,0,1,2.06,2.06v0a0,0,0,0,1,0,0H2.06A2.06,2.06,0,0,1,0,0V0A0,0,0,0,1,0,0Z" transform="translate(211.187 443.593)" fill="#fa9c44"/>
      </g>
    </g>
  </g>
</svg>
