<svg id="Layer_1" data-name="Layer 1" xmlns="http://www.w3.org/2000/svg" viewBox="0 0 338 107"><defs><style>.cls-1{fill:#3d74f1;}.cls-2,.cls-3,.cls-7{fill:none;}.cls-3,.cls-7{stroke:#000;}.cls-3{stroke-width:2px;}.cls-4,.cls-5,.cls-6{isolation:isolate;}.cls-5{font-size:3px;}.cls-5,.cls-6{font-family:Cairo-Regular, Cairo;}.cls-6{font-size:13px;}.cls-8{fill:#fff;}.cls-9{fill:#fa9c44;}</style></defs><title>Group 4815</title><g id="Group_4815" data-name="Group 4815"><rect id="Rectangle_2028" data-name="Rectangle 2028" class="cls-1" x="128" y="2" width="83" height="94"/><g id="Rectangle_2003" data-name="Rectangle 2003"><rect class="cls-2" width="338" height="97" rx="11"/><rect class="cls-3" x="1" y="1" width="336" height="95" rx="10"/></g><line id="Line_165" data-name="Line 165" class="cls-3" x1="312.97" y1="0.04" x2="312.97" y2="95.5"/><g id="Group_4769" data-name="Group 4769"><path id="Path_24455" data-name="Path 24455" d="M163,87.74c.06-2.5-.2-3.13-2-4.86-1.18.92-2.36,1.89-3.6,2.77a6.38,6.38,0,0,1-5.63,1c-2-.56-3.5-2.35-3.15-4.24a3.25,3.25,0,0,1,1.65-2.11c1-.42,1.64.45,2,1.43.67,1.77,1.51,2.14,3.15,1.23a35.2,35.2,0,0,0,3.17-2.14c-.52-2-1-3.57-1.32-5.22-.08-.43.63-1,1-1.45l2.13,5.13c1.33-1.18,2.27-2,3.19-2.83s1.75-1.62,2.74-2.54c-9.3-7.72-19.05-14.06-31.49-14.77a22.68,22.68,0,0,1,12.54-.67c6.63,1.47,12,5.22,17.17,9.44,1.44,1.18,2.83,2.43,4.17,3.57,3.22-2.52,6.31-5.09,9.56-7.43a30.75,30.75,0,0,1,13.64-5.88,22.94,22.94,0,0,1,11.35,1c-12.84.62-22.59,6.95-31.91,14.72l5.48,5a5,5,0,0,0,2.13-4.65c2.16.81,2.09,2.65-.35,6.27,1.35.88,2.66,1.85,4.08,2.62a1.66,1.66,0,0,0,2.31-.43,1.54,1.54,0,0,0,.27-.69c.38-1.12.87-2.1,2.3-1.76,1.18.29,1.79,1.64,1.49,3.11a4.67,4.67,0,0,1-5.45,3.43,17.22,17.22,0,0,1-4.41-2,19,19,0,0,1-2.48-2,4.93,4.93,0,0,0-2.1,4.88h-.33c-2.61-2.36-.57-4.4.55-6.49l-6-5.17-6,5.17c2.27,3.82,2.33,4.7.54,6.49Z"/><path id="Path_24456" data-name="Path 24456" d="M165.87,34.32c-3.14,5-4.16,10.44-4,16.26a23.17,23.17,0,0,1-.71-17.26c-2.44,1.64-5.44,7.29-7.49,13.89-.92-4.13-.4-11.06,4.44-17.9a28.83,28.83,0,0,0-8.7,9.61c-.62-3.62,2.33-8.54,8.35-14.1l-.19-.38a56.24,56.24,0,0,0-5.26,2.92q-2.56,2-4.92,4.23c2-6.12,6.19-9.5,12-11.28-2.22-.87-5.4-.38-10.25,1.52,2.16-3.46,5.5-4.71,13.82-5.19l.11-.46-6-1.38c1.58-1.73,5.17-1.86,9.89-.11l1.91-4.6,1.94,4.65c3.46-1.58,6.8-1.9,10.17,0l-6.3,1.37.09.28c2.55.34,5.14.5,7.64,1.07s4.61,2.24,6.64,4.68a17.23,17.23,0,0,0-10.74-2c5.72,1.91,10,5.25,11.76,11.28a22.57,22.57,0,0,0-10.2-6.74c4.75,3.59,8,8.06,8.55,14.15a32,32,0,0,0-8.87-9.57A24.61,24.61,0,0,1,184,47.68a32.38,32.38,0,0,0-7.39-14.36,25,25,0,0,1-.75,17.28c-.32-2.86-.49-5.71-1-8.5a19.56,19.56,0,0,0-3.2-7.78l-.62,0q.15,3.1.29,6.19c0,.22,0,.44,0,.66-.14,3.94-.3,7.88-.4,11.82-.07,2.84-.17,5.69,0,8.53,0,.8.83,1.55,1.33,2.43h-7.29c2.59-1.6,1.69-3.72,1.57-5.74-.07-1.25.24-2.52.26-3.78,0-1-.21-2.08-.2-3.13,0-1.37.23-2.75.19-4.13,0-1.64-.33-3.28-.37-4.93-.07-2.62,0-5.25,0-7.87Z"/></g><g id="Group_4770" data-name="Group 4770"><path id="Path_24455-2" data-name="Path 24455-2" d="M323.41,28.86a1.1,1.1,0,0,0-.45-1.07c-.26.2-.52.42-.79.61a1.41,1.41,0,0,1-1.24.23.87.87,0,0,1-.69-.93.7.7,0,0,1,.36-.46c.22-.1.36.1.44.31.15.39.34.47.7.27a7.78,7.78,0,0,0,.7-.47c-.12-.43-.23-.78-.3-1.15,0-.09.14-.22.22-.32l.46,1.13c.3-.26.5-.43.7-.62s.39-.35.6-.56c-2-1.7-4.18-3.09-6.91-3.24a5,5,0,0,1,2.75-.15,9.07,9.07,0,0,1,3.77,2.07c.32.26.63.54.92.79.71-.55,1.39-1.12,2.1-1.63a6.77,6.77,0,0,1,3-1.29,4.91,4.91,0,0,1,2.49.23c-2.82.13-5,1.52-7,3.23l1.2,1.09a1.08,1.08,0,0,0,.46-1c.48.18.46.58-.07,1.38a10.5,10.5,0,0,0,.9.57.35.35,0,0,0,.5-.09.47.47,0,0,0,.06-.15c.09-.25.19-.46.51-.39a.54.54,0,0,1,.32.68,1,1,0,0,1-1.2.76,4,4,0,0,1-1-.44,4.51,4.51,0,0,1-.54-.44,1.07,1.07,0,0,0-.46,1.07h-.07c-.58-.52-.13-1,.11-1.43l-1.31-1.13-1.32,1.13c.5.84.52,1,.12,1.43Z"/><path id="Path_24456-2" data-name="Path 24456-2" d="M324,17.13a6.21,6.21,0,0,0-.88,3.57,5.12,5.12,0,0,1-.16-3.79A6.64,6.64,0,0,0,321.35,20a5.12,5.12,0,0,1,1-3.93,6.33,6.33,0,0,0-1.91,2.11c-.13-.79.51-1.87,1.84-3.1l0-.08a10.05,10.05,0,0,0-1.16.64,12,12,0,0,0-1.08.93,3.68,3.68,0,0,1,2.63-2.48,3.32,3.32,0,0,0-2.25.33c.47-.76,1.21-1,3-1.14l0-.1-1.33-.3c.35-.38,1.14-.41,2.17,0l.42-1,.43,1a2.27,2.27,0,0,1,2.23,0l-1.38.3,0,.06c.56.07,1.13.11,1.68.23a2.81,2.81,0,0,1,1.46,1,3.8,3.8,0,0,0-2.36-.43,3.59,3.59,0,0,1,2.58,2.48A4.93,4.93,0,0,0,327.09,15,4.29,4.29,0,0,1,329,18.13a6.87,6.87,0,0,0-2-2.1,5.38,5.38,0,0,1,1,4,7,7,0,0,0-1.62-3.15,5.52,5.52,0,0,1-.16,3.8c-.08-.63-.11-1.25-.22-1.87a4.49,4.49,0,0,0-.7-1.71l-.14,0,.06,1.36v.14c0,.87-.07,1.73-.09,2.6,0,.62,0,1.25,0,1.87,0,.18.18.34.29.54h-1.6c.57-.36.37-.82.35-1.26,0-.28.05-.56.05-.83s0-.46,0-.69.05-.61,0-.91-.07-.72-.08-1.08c0-.58,0-1.15,0-1.73Z"/></g><g id="السعودية" class="cls-4"><text class="cls-5" transform="translate(319.72 39)">ةيدوعسلا</text></g><g id="K_S_A" data-name="K S A" class="cls-4"><text class="cls-6" transform="translate(321.15 56)">K</text><text class="cls-6" transform="translate(321.46 68)">S</text><text class="cls-6" transform="translate(321.09 80)">A</text></g><line id="Line_170" data-name="Line 170" class="cls-7" x1="312.97" y1="51.28" x2="210.5" y2="51.28"/><path id="Path_24459" data-name="Path 24459" class="cls-7" d="M127.47,51.28H1.5"/><line id="Line_172" data-name="Line 172" class="cls-7" x1="210.5" y1="1.5" x2="210.5" y2="95.5"/><line id="Line_173" data-name="Line 173" class="cls-7" x1="127.5" y1="1.5" x2="127.5" y2="95.5"/><circle id="Ellipse_329-2" data-name="Ellipse 329-2" class="cls-8" cx="169" cy="94" r="13"/><g id="Group_4766" data-name="Group 4766"><path id="Path_1" data-name="Path 1" class="cls-9" d="M160.61,93.05v2.4a4.1,4.1,0,0,0,4.1,4.09h10a2.39,2.39,0,0,0,2.38-2.38H165.92a2,2,0,0,1-2-2h0V93.33a2,2,0,0,1,2-2h8.83A2.38,2.38,0,0,0,177.13,89H164.71a4.11,4.11,0,0,0-4.1,4.1Z"/><path id="Rectangle_3" data-name="Rectangle 3" class="cls-9" d="M169.89,93.26h5.44a2.06,2.06,0,0,1,2.06,2.06H172a2.06,2.06,0,0,1-2.06-2.06Z"/></g></g></svg>