<svg width="232" height="73" viewBox="0 0 232 73" fill="none" xmlns="http://www.w3.org/2000/svg">
<path d="M5.72839 2.41151C4.58895 2.41151 3.49617 2.85232 2.69045 3.63697C1.88474 4.42162 1.4321 5.48583 1.4321 6.59549V60.9873C1.4321 62.097 1.88474 63.1612 2.69045 63.9458C3.49617 64.7305 4.58895 65.1713 5.72839 65.1713H226.272C227.411 65.1713 228.504 64.7305 229.31 63.9458C230.115 63.1612 230.568 62.097 230.568 60.9873V6.59549C230.568 5.48583 230.115 4.42162 229.31 3.63697C228.504 2.85232 227.411 2.41151 226.272 2.41151H5.72839ZM5.72839 1.01685H226.272C227.791 1.01685 229.248 1.60459 230.322 2.65079C231.396 3.69699 232 5.11594 232 6.59549V60.9873C232 62.4669 231.396 63.8858 230.322 64.932C229.248 65.9782 227.791 66.566 226.272 66.566H5.72839C4.20913 66.566 2.75209 65.9782 1.67781 64.932C0.603526 63.8858 0 62.4669 0 60.9873V6.59549C0 5.11594 0.603526 3.69699 1.67781 2.65079C2.75209 1.60459 4.20913 1.01685 5.72839 1.01685Z" fill="black"/>
<path d="M218 65.5418H216V1.01685H218V65.5418Z" fill="black"/>
<path d="M112.875 58.1096C112.984 57.4607 112.909 56.7936 112.658 56.1867C112.406 55.5799 111.99 55.0587 111.457 54.6845C110.635 55.331 109.822 56.0172 108.964 56.6388C108.414 57.0608 107.776 57.3469 107.098 57.4744C106.421 57.6019 105.724 57.5674 105.063 57.3735C104.399 57.2393 103.808 56.8593 103.404 56.3071C103 55.7549 102.812 55.0698 102.877 54.3847C102.954 54.0683 103.097 53.772 103.294 53.5155C103.492 53.2589 103.742 53.0479 104.025 52.8963C104.706 52.6024 105.161 53.2151 105.418 53.9087C105.883 55.1576 106.466 55.4119 107.603 54.7756C108.362 54.3116 109.096 53.8074 109.803 53.2651C109.443 51.8883 109.081 50.748 108.884 49.5784C108.834 49.2757 109.326 48.879 109.55 48.5498L111.033 52.1689C111.952 51.3431 112.603 50.7671 113.243 50.1779C113.857 49.6122 114.458 49.0318 115.143 48.3852C108.692 42.9368 101.932 38.461 93.3007 37.9643C96.0994 36.9776 99.115 36.8136 102.001 37.4912C106.438 38.7084 110.522 40.9917 113.911 44.149C114.911 44.9851 115.877 45.8623 116.8 46.6719C119.04 44.891 121.178 43.0778 123.433 41.4262C126.206 39.2781 129.454 37.8538 132.894 37.2781C135.538 36.8482 138.245 37.1009 140.768 38.0128C131.862 38.4536 125.098 42.9191 118.635 48.3999L122.435 51.9118C122.948 51.5508 123.356 51.0562 123.616 50.4796C123.877 49.9031 123.98 49.266 123.914 48.635C125.41 49.2052 125.359 50.5012 123.667 53.0594C124.607 53.6794 125.515 54.3642 126.499 54.9049C126.66 55.017 126.847 55.0857 127.041 55.1047C127.235 55.1237 127.431 55.0923 127.61 55.0135C127.79 54.9348 127.946 54.8111 128.066 54.6542C128.185 54.4972 128.264 54.312 128.294 54.1158C128.558 53.3268 128.893 52.6318 129.883 52.8757C130.301 53.034 130.641 53.3512 130.833 53.7603C131.025 54.1693 131.053 54.6383 130.912 55.068C130.708 55.887 130.202 56.5949 129.5 57.0456C128.797 57.4963 127.951 57.6552 127.136 57.4896C126.055 57.1645 125.024 56.6867 124.073 56.0701C123.462 55.6518 122.887 55.1814 122.354 54.6639C121.814 55.0361 121.389 55.5577 121.131 56.1672C120.873 56.7767 120.791 57.4487 120.896 58.1038H120.667C118.855 56.4404 120.269 54.9975 121.045 53.5252L116.886 49.8825L112.735 53.5266C114.304 56.2229 114.348 56.8401 113.104 58.1038L112.875 58.1096Z" fill="black"/>
<path d="M114.86 20.4258C112.81 23.8703 111.837 27.8673 112.07 31.887C110.366 28.0462 110.189 23.684 111.575 19.7131C109.884 20.871 107.804 24.856 106.373 29.5095C106.016 27.3027 106.105 25.045 106.635 22.8744C107.165 20.7037 108.124 18.6656 109.454 16.8845C106.96 18.6475 104.895 20.9658 103.416 23.6628C102.99 21.1134 105.031 17.6383 109.212 13.718L109.081 13.4535C107.827 14.0695 106.608 14.7563 105.43 15.5107C104.243 16.4446 103.104 17.4397 102.017 18.492C102.61 16.5486 103.688 14.7945 105.146 13.4007C106.603 12.0068 108.391 11.0206 110.335 10.5382C108.796 9.92404 106.587 10.2679 103.222 11.608C104.722 9.1673 107.039 8.28127 112.807 7.94331L112.885 7.62004L108.686 6.6473C109.783 5.42771 112.277 5.33661 115.549 6.56942L116.878 3.32355L118.224 6.60029C119.304 5.9945 120.518 5.67815 121.752 5.68098C122.986 5.68381 124.199 6.00572 125.277 6.61645L120.905 7.58331L120.969 7.77874C122.737 8.01825 124.534 8.12845 126.265 8.53254C128.124 9.07338 129.748 10.2368 130.876 11.8342C128.606 10.5571 125.99 10.0646 123.422 10.431C127.391 11.7814 130.383 14.1368 131.582 18.3921C129.697 16.1746 127.248 14.5284 124.503 13.6342C126.146 14.7583 127.528 16.2344 128.551 17.9589C129.574 19.6834 130.214 21.6146 130.426 23.6173C128.857 20.9586 126.761 18.6604 124.273 16.8684C125.616 18.7111 126.586 20.8063 127.129 23.0328C127.671 25.2593 127.774 27.573 127.431 29.8401C126.593 26.0766 124.829 22.5911 122.305 19.7102C123.564 23.7087 123.381 28.0327 121.788 31.9061C121.564 29.8842 121.445 27.8741 121.093 25.9095C120.752 23.937 119.995 22.0631 118.874 20.4169L118.44 20.4566C118.508 21.9113 118.574 23.366 118.64 24.8207C118.64 24.9676 118.624 25.1293 118.618 25.2821C118.523 28.0622 118.41 30.8422 118.339 33.6238C118.287 35.6295 118.224 37.6411 118.312 39.6483C118.336 40.2081 118.89 40.7444 119.233 41.3601H114.177C115.975 40.2302 115.351 38.7373 115.267 37.3105C115.215 36.4289 115.434 35.534 115.448 34.6435C115.46 33.9089 115.304 33.1742 115.304 32.4395C115.304 31.4667 115.462 30.494 115.438 29.5242C115.409 28.3634 115.207 27.207 115.178 26.0462C115.132 24.1947 115.165 22.3418 115.165 20.4889L114.86 20.4258Z" fill="black"/>
<path d="M165.348 18.032C164.769 18.032 164.245 17.9256 163.775 17.713C163.306 17.5003 162.936 17.2033 162.664 16.822C162.393 16.4406 162.257 16.0043 162.257 15.513C162.257 15.359 162.268 15.1573 162.29 14.908C162.32 14.6513 162.353 14.369 162.389 14.061C162.433 13.7456 162.481 13.4303 162.532 13.115C162.584 12.7923 162.631 12.488 162.675 12.202L163.522 12.334C163.442 12.84 163.368 13.3093 163.302 13.742C163.244 14.1673 163.196 14.534 163.159 14.842C163.13 15.1426 163.115 15.3663 163.115 15.513C163.115 15.8503 163.207 16.1473 163.39 16.404C163.581 16.668 163.845 16.8733 164.182 17.02C164.52 17.174 164.908 17.251 165.348 17.251C165.788 17.251 166.166 17.1813 166.481 17.042C166.797 16.9026 167.039 16.7083 167.207 16.459C167.376 16.2096 167.46 15.9163 167.46 15.579V9.80396H168.318V15.579C168.318 16.0923 168.183 16.5323 167.911 16.899C167.647 17.2656 167.292 17.5443 166.844 17.735C166.397 17.933 165.898 18.032 165.348 18.032ZM164.875 9.80396V8.81395H165.733V9.80396H164.875ZM172.276 18.956C172.202 18.538 172.136 18.142 172.078 17.768C172.026 17.394 172.001 17.075 172.001 16.811C172.001 16.3343 172.081 15.9236 172.243 15.579C172.411 15.2416 172.65 14.9813 172.958 14.798C173.273 14.6146 173.647 14.523 174.08 14.523C174.204 14.523 174.388 14.523 174.63 14.523C174.872 14.523 175.15 14.523 175.466 14.523C175.781 14.523 176.107 14.523 176.445 14.523C176.782 14.523 177.101 14.523 177.402 14.523L176.764 15.084V12.609C176.764 12.0956 176.705 11.6923 176.588 11.399C176.47 11.1056 176.269 10.8966 175.983 10.772C175.704 10.6473 175.323 10.585 174.839 10.585C174.531 10.585 174.223 10.607 173.915 10.651C173.614 10.695 173.379 10.7536 173.211 10.827L173.728 10.299C173.684 10.475 173.64 10.6986 173.596 10.97C173.552 11.234 173.515 11.52 173.486 11.828C173.464 12.136 173.453 12.444 173.453 12.752C173.453 13.0673 173.464 13.3753 173.486 13.676C173.515 13.9766 173.548 14.237 173.585 14.457C173.621 14.677 173.651 14.831 173.673 14.919L172.859 15.15C172.829 15.0546 172.793 14.8896 172.749 14.655C172.712 14.4203 172.675 14.138 172.639 13.808C172.609 13.478 172.595 13.126 172.595 12.752C172.595 12.3926 172.609 12.0443 172.639 11.707C172.675 11.3623 172.716 11.0506 172.76 10.772C172.811 10.4933 172.859 10.2696 172.903 10.101C173.064 10.035 173.321 9.96895 173.673 9.90295C174.025 9.83695 174.413 9.80396 174.839 9.80396C175.205 9.80396 175.535 9.83695 175.829 9.90295C176.129 9.96162 176.39 10.0606 176.61 10.2C176.837 10.3393 177.024 10.519 177.171 10.739C177.325 10.9516 177.438 11.2156 177.512 11.531C177.585 11.839 177.622 12.1983 177.622 12.609V15.304C177.314 15.304 176.98 15.304 176.621 15.304C176.269 15.304 175.92 15.304 175.576 15.304C175.238 15.304 174.934 15.304 174.663 15.304C174.399 15.304 174.204 15.304 174.08 15.304C173.962 15.304 173.834 15.3186 173.695 15.348C173.555 15.3846 173.42 15.4506 173.288 15.546C173.163 15.6486 173.06 15.799 172.98 15.997C172.899 16.2023 172.859 16.4736 172.859 16.811C172.859 17.0896 172.884 17.4086 172.936 17.768C172.987 18.1273 173.046 18.5233 173.112 18.956H172.276ZM184.328 18.032C183.903 18.032 183.507 17.9696 183.14 17.845C182.774 17.7276 182.451 17.559 182.172 17.339C181.901 17.1263 181.688 16.8696 181.534 16.569C181.38 16.2683 181.303 15.9383 181.303 15.579C181.303 15.4323 181.314 15.238 181.336 14.996C181.366 14.754 181.399 14.4826 181.435 14.182C181.479 13.874 181.527 13.5623 181.578 13.247L182.425 13.368C182.345 13.8593 182.279 14.3066 182.227 14.71C182.183 15.1133 182.161 15.3993 182.161 15.568C182.161 15.898 182.253 16.1876 182.436 16.437C182.62 16.6936 182.873 16.8916 183.195 17.031C183.525 17.1776 183.903 17.251 184.328 17.251H187.441C187.999 17.251 188.42 17.097 188.706 16.789C189 16.4883 189.146 16.0263 189.146 15.403C189.146 15.1023 189.099 14.8676 189.003 14.699C188.915 14.523 188.754 14.3763 188.519 14.259C188.292 14.1416 187.966 14.0206 187.54 13.896C187.166 13.786 186.829 13.6796 186.528 13.577C186.228 13.4743 185.971 13.3533 185.758 13.214C185.546 13.0746 185.381 12.895 185.263 12.675C185.153 12.455 185.098 12.169 185.098 11.817C185.098 11.3623 185.19 10.9883 185.373 10.695C185.564 10.3943 185.835 10.1706 186.187 10.024C186.539 9.87729 186.965 9.80396 187.463 9.80396C187.713 9.80396 187.999 9.82229 188.321 9.85895C188.644 9.89562 189.095 9.96162 189.674 10.057L189.575 10.772C189.062 10.7133 188.633 10.6693 188.288 10.64C187.944 10.6033 187.658 10.585 187.43 10.585C186.924 10.585 186.55 10.6803 186.308 10.871C186.066 11.0616 185.945 11.3623 185.945 11.773C185.945 12.0736 186.011 12.3046 186.143 12.466C186.275 12.62 186.477 12.7446 186.748 12.84C187.02 12.928 187.361 13.0306 187.771 13.148C188.226 13.28 188.618 13.4266 188.948 13.588C189.286 13.7493 189.542 13.973 189.718 14.259C189.902 14.545 189.993 14.941 189.993 15.447C189.993 15.953 189.894 16.4003 189.696 16.789C189.498 17.1776 189.209 17.482 188.827 17.702C188.453 17.922 187.991 18.032 187.441 18.032H184.328ZM184.471 20.034V19.044H185.329V20.034H184.471ZM185.978 20.034V19.044H186.836V20.034H185.978Z" fill="black"/>
<path d="M44.2961 16.3276H45.4982V5.83621H44.2961V16.3276Z" fill="black"/>
<path d="M43.217 56.4468V50.1658L41.369 51.3978L40.962 50.7268L43.272 49.1868H44.097V56.4468H43.217Z" fill="black"/>
<path d="M164.186 56.4468V48.8458H165.825L168.685 55.6658H168.905V48.8458H169.785V56.4468H168.179L165.275 49.6268H165.066V56.4468H164.186ZM174.048 56.4468V48.8458H175.643L177.744 55.2258L179.856 48.8458H181.451V56.4468H180.571V49.7808H180.406L178.239 56.1718H177.26L175.093 49.7808H174.928V56.4468H174.048ZM187.32 56.4468V53.2568L184.9 48.8458H185.89L187.749 52.3768L189.619 48.8458H190.609L188.2 53.2568V56.4468H187.32Z" fill="black"/>
<path d="M224.14 16.5716C224.164 16.4292 224.148 16.2826 224.093 16.1494C224.038 16.0161 223.946 15.9015 223.83 15.8193C223.649 15.9663 223.47 16.1132 223.282 16.2484C223.161 16.3411 223.02 16.4039 222.871 16.4317C222.723 16.4595 222.569 16.4516 222.424 16.4085C222.278 16.379 222.148 16.2954 222.06 16.1741C221.971 16.0527 221.93 15.9022 221.944 15.7517C221.961 15.682 221.992 15.6168 222.036 15.5603C222.08 15.5039 222.134 15.4574 222.197 15.4241C222.341 15.3594 222.447 15.4946 222.503 15.6459C222.606 15.9207 222.733 15.9765 222.983 15.8369C223.149 15.7349 223.31 15.6241 223.465 15.5049C223.386 15.2022 223.307 14.9524 223.263 14.6952C223.252 14.6291 223.36 14.5483 223.408 14.4704L223.733 15.2654C223.935 15.0846 224.078 14.9568 224.218 14.8245C224.358 14.6923 224.485 14.5733 224.636 14.4307C223.33 13.1494 221.643 12.3443 219.839 12.1414C220.454 11.9244 221.116 11.8882 221.75 12.0371C222.725 12.3066 223.622 12.8106 224.366 13.5065C224.585 13.6902 224.799 13.8827 225.001 14.0604C225.493 13.6696 225.964 13.2714 226.458 12.9085C227.067 12.4367 227.78 12.1239 228.535 11.9974C229.117 11.9024 229.714 11.9579 230.269 12.1591C228.441 12.3369 226.727 13.141 225.407 14.4396L226.242 15.211C226.355 15.1316 226.445 15.0229 226.502 14.8963C226.559 14.7696 226.582 14.6296 226.567 14.491C226.895 14.6159 226.885 14.901 226.513 15.4623C226.719 15.5989 226.919 15.7561 227.135 15.8678C227.171 15.8928 227.212 15.9082 227.254 15.9125C227.297 15.9169 227.34 15.9101 227.38 15.8927C227.419 15.8753 227.454 15.848 227.48 15.8133C227.506 15.7786 227.523 15.7377 227.53 15.6944C227.587 15.521 227.661 15.3682 227.879 15.4226C227.971 15.4574 228.046 15.5272 228.088 15.6171C228.13 15.7071 228.136 15.8102 228.105 15.9045C228.06 16.0843 227.949 16.2397 227.794 16.3387C227.64 16.4377 227.454 16.4727 227.275 16.4365C227.038 16.3652 226.811 16.2603 226.602 16.1249C226.468 16.0331 226.342 15.9299 226.225 15.8164C226.107 15.8982 226.014 16.0128 225.957 16.1466C225.9 16.2804 225.883 16.4279 225.906 16.5716H225.855C225.458 16.2058 225.768 15.8898 225.937 15.5666L225.024 14.7672L224.113 15.568C224.457 16.1558 224.467 16.3027 224.194 16.5731L224.14 16.5716Z" fill="black"/>
<path d="M224.575 8.30046C224.125 9.05736 223.911 9.93572 223.963 10.819C223.588 9.9752 223.55 9.01693 223.854 8.1447C223.293 8.74605 222.899 9.48853 222.713 10.2959C222.634 9.81124 222.654 9.31542 222.77 8.8387C222.886 8.36197 223.097 7.91435 223.389 7.52315C222.841 7.91027 222.388 8.41935 222.063 9.01164C221.969 8.4518 222.418 7.68919 223.336 6.82813L223.307 6.77082C223.031 6.90637 222.764 7.05746 222.505 7.22339C222.244 7.42867 221.994 7.64741 221.755 7.87874C221.885 7.45194 222.122 7.0667 222.442 6.76053C222.762 6.45436 223.154 6.2377 223.581 6.13164C223.05 6.01833 222.496 6.10169 222.019 6.36674C222.349 5.83041 222.857 5.63205 224.124 5.56152L224.142 5.49098L223.22 5.27793C223.461 5.0105 224.009 4.98405 224.727 5.26029L225.016 4.54764L225.305 5.26763C225.542 5.1341 225.808 5.06404 226.079 5.06404C226.35 5.06404 226.617 5.1341 226.854 5.26763L225.893 5.47923L225.907 5.52184C226.296 5.57474 226.69 5.59825 227.07 5.68788C227.478 5.80667 227.835 6.06253 228.082 6.41377C227.583 6.13311 227.009 6.0248 226.445 6.10519C226.866 6.21424 227.253 6.43267 227.567 6.73914C227.881 7.04561 228.112 7.42964 228.236 7.85376C227.823 7.36709 227.285 7.00564 226.683 6.80903C227.044 7.056 227.347 7.38018 227.572 7.75887C227.796 8.13757 227.937 8.56163 227.983 9.00135C227.639 8.41735 227.179 7.91249 226.633 7.51874C226.927 7.9237 227.14 8.3839 227.259 8.87288C227.378 9.36185 227.401 9.86993 227.326 10.3679C227.142 9.5414 226.755 8.77595 226.201 8.14323C226.477 9.02107 226.436 9.97019 226.086 10.8204C226.037 10.3796 226.011 9.93883 225.933 9.49801C225.859 9.06482 225.693 8.65324 225.446 8.29164L225.352 8.30046C225.367 8.6198 225.381 8.93915 225.396 9.2585C225.396 9.29229 225.396 9.32609 225.396 9.35988C225.374 9.97115 225.35 10.5809 225.334 11.1922C225.322 11.633 225.308 12.0738 225.334 12.5147C225.334 12.6381 225.459 12.7556 225.536 12.8908H224.425C224.819 12.6425 224.682 12.3148 224.665 12.0018C224.653 11.8079 224.701 11.611 224.704 11.4141C224.704 11.2525 224.672 11.0908 224.673 10.9307C224.673 10.7176 224.708 10.5031 224.704 10.29C224.704 10.0358 224.653 9.7816 224.647 9.52592C224.637 9.1189 224.647 8.71188 224.647 8.30486L224.575 8.30046Z" fill="black"/>
<path d="M218.74 23.8754C218.627 23.8754 218.534 23.8574 218.46 23.8214C218.387 23.7854 218.332 23.7307 218.296 23.6574C218.262 23.584 218.244 23.4914 218.244 23.3794C218.244 23.2674 218.262 23.174 218.296 23.0994C218.332 23.0234 218.387 22.9667 218.46 22.9294C218.534 22.8907 218.627 22.8714 218.74 22.8714H219.192V23.7494H218.924V23.0454L218.99 23.1034H218.74C218.686 23.1034 218.642 23.11 218.608 23.1234C218.575 23.1354 218.55 23.1614 218.534 23.2014C218.52 23.24 218.512 23.2994 218.512 23.3794C218.512 23.4554 218.519 23.5127 218.532 23.5514C218.547 23.5887 218.571 23.6134 218.604 23.6254C218.638 23.6374 218.683 23.6434 218.74 23.6434H219.402V23.8754H218.74ZM219.402 23.8754V23.6434C219.418 23.6434 219.429 23.654 219.434 23.6754C219.44 23.6954 219.442 23.7234 219.442 23.7594C219.442 23.794 219.44 23.822 219.434 23.8434C219.429 23.8647 219.418 23.8754 219.402 23.8754ZM218.496 22.7514V22.5234H218.764V22.7514H218.496ZM218.77 22.7514V22.5234H219.038V22.7514H218.77ZM219.403 23.8754V23.6434H219.877L219.721 23.7734V22.8714H219.987V23.8754H219.403ZM219.403 23.8754C219.387 23.8754 219.376 23.8647 219.371 23.8434C219.365 23.822 219.363 23.794 219.363 23.7594C219.363 23.7234 219.365 23.6954 219.371 23.6754C219.376 23.654 219.387 23.6434 219.403 23.6434V23.8754ZM219.483 24.2914V24.0634H219.751V24.2914H219.483ZM219.757 24.2914V24.0634H220.025V24.2914H219.757ZM220.213 23.8754V23.6434H220.939L220.757 23.8014V23.4654C220.757 23.3707 220.747 23.2974 220.727 23.2454C220.709 23.1934 220.677 23.1567 220.631 23.1354C220.587 23.114 220.527 23.1034 220.449 23.1034H220.287V22.8714H220.449C220.572 22.8714 220.676 22.8914 220.761 22.9314C220.848 22.9714 220.913 23.0354 220.957 23.1234C221.003 23.21 221.025 23.324 221.025 23.4654V23.8754H220.213ZM222.153 23.8754V23.6434H222.363V23.8754H222.153ZM221.613 24.3714C221.564 24.3714 221.512 24.3674 221.457 24.3594C221.404 24.3527 221.347 24.3434 221.285 24.3314L221.325 24.1174C221.392 24.1254 221.449 24.1314 221.495 24.1354C221.542 24.1394 221.581 24.1414 221.613 24.1414C221.709 24.1414 221.779 24.124 221.821 24.0894C221.864 24.0547 221.885 24.0027 221.885 23.9334V23.0554L221.951 23.1034H221.701C221.647 23.1034 221.603 23.11 221.569 23.1234C221.536 23.1354 221.511 23.1614 221.495 23.2014C221.481 23.24 221.473 23.2994 221.473 23.3794C221.473 23.4554 221.48 23.5127 221.493 23.5514C221.508 23.5887 221.532 23.6134 221.565 23.6254C221.599 23.6374 221.644 23.6434 221.701 23.6434H221.885V23.8754H221.701C221.588 23.8754 221.495 23.8574 221.421 23.8214C221.348 23.7854 221.293 23.7307 221.257 23.6574C221.223 23.584 221.205 23.4914 221.205 23.3794C221.205 23.2674 221.223 23.174 221.257 23.0994C221.293 23.0234 221.348 22.9667 221.421 22.9294C221.495 22.8907 221.588 22.8714 221.701 22.8714H222.153V23.9334C222.153 24.024 222.131 24.102 222.085 24.1674C222.041 24.234 221.979 24.2847 221.897 24.3194C221.817 24.354 221.723 24.3714 221.613 24.3714ZM222.363 23.8754V23.6434C222.379 23.6434 222.39 23.654 222.395 23.6754C222.401 23.6954 222.403 23.7234 222.403 23.7594C222.403 23.794 222.401 23.822 222.395 23.8434C222.39 23.8647 222.379 23.8754 222.363 23.8754ZM222.364 23.8754V23.6434H222.788C222.845 23.6434 222.9 23.6327 222.954 23.6114C223.007 23.5887 223.056 23.5594 223.1 23.5234C223.145 23.486 223.184 23.4454 223.218 23.4014C223.252 23.356 223.279 23.31 223.298 23.2634C223.318 23.2167 223.328 23.1727 223.328 23.1314V23.0034L223.456 23.2154C223.386 23.178 223.316 23.15 223.244 23.1314C223.172 23.1127 223.103 23.1034 223.038 23.1034C222.974 23.1034 222.905 23.1127 222.832 23.1314C222.76 23.15 222.69 23.178 222.622 23.2154L222.75 23.0034V23.1314C222.75 23.1727 222.759 23.2167 222.778 23.2634C222.798 23.31 222.824 23.356 222.858 23.4014C222.891 23.4454 222.93 23.486 222.976 23.5234C223.021 23.5594 223.07 23.5887 223.124 23.6114C223.177 23.6327 223.232 23.6434 223.288 23.6434H223.7V23.8754H223.372C223.268 23.8754 223.17 23.8587 223.08 23.8254C222.989 23.792 222.907 23.748 222.834 23.6934C222.76 23.6374 222.697 23.5767 222.644 23.5114C222.592 23.4447 222.552 23.3787 222.524 23.3134C222.496 23.2467 222.482 23.186 222.482 23.1314V23.0174C222.539 22.9854 222.6 22.9587 222.664 22.9374C222.729 22.916 222.794 22.9 222.858 22.8894C222.923 22.8774 222.983 22.8714 223.038 22.8714C223.094 22.8714 223.154 22.8774 223.218 22.8894C223.282 22.9 223.346 22.916 223.41 22.9374C223.475 22.9587 223.536 22.9854 223.594 23.0174V23.1314C223.594 23.186 223.58 23.2467 223.552 23.3134C223.524 23.3787 223.483 23.4447 223.43 23.5114C223.378 23.5767 223.315 23.6374 223.242 23.6934C223.168 23.748 223.086 23.792 222.996 23.8254C222.905 23.8587 222.808 23.8754 222.704 23.8754H222.364ZM222.364 23.8754C222.348 23.8754 222.337 23.8647 222.332 23.8434C222.326 23.822 222.324 23.794 222.324 23.7594C222.324 23.7234 222.326 23.6954 222.332 23.6754C222.337 23.654 222.348 23.6434 222.364 23.6434V23.8754ZM223.7 23.8754V23.6434C223.716 23.6434 223.726 23.654 223.732 23.6754C223.737 23.6954 223.74 23.7234 223.74 23.7594C223.74 23.794 223.737 23.822 223.732 23.8434C223.726 23.8647 223.716 23.8754 223.7 23.8754ZM225.378 23.8754V23.6434H225.59V23.8754H225.378ZM224.876 23.8754C224.821 23.8754 224.766 23.8654 224.712 23.8454C224.658 23.824 224.609 23.7927 224.564 23.7514L224.728 23.5814C224.754 23.6027 224.779 23.6187 224.802 23.6294C224.826 23.6387 224.85 23.6434 224.876 23.6434H225.25L225.112 23.7694V23.3254C225.112 23.304 225.109 23.272 225.104 23.2294C225.1 23.1854 225.093 23.136 225.084 23.0814C225.076 23.0254 225.066 22.9687 225.054 22.9114L225.318 22.8714C225.327 22.9194 225.336 22.9734 225.344 23.0334C225.353 23.092 225.361 23.148 225.368 23.2014C225.374 23.2534 225.378 23.2947 225.378 23.3254V23.8754H224.876ZM223.7 23.8754V23.6434H223.992L223.932 23.7054V23.0754H224.2V23.8754H223.7ZM224.2 23.8754V23.6434H224.362C224.404 23.6434 224.437 23.6374 224.46 23.6254C224.482 23.612 224.498 23.586 224.506 23.5474C224.515 23.5074 224.52 23.448 224.52 23.3694V22.9754H224.788V23.3694C224.788 23.488 224.772 23.5847 224.742 23.6594C224.712 23.734 224.666 23.7887 224.604 23.8234C224.541 23.858 224.46 23.8754 224.362 23.8754H224.2ZM223.7 23.8754C223.684 23.8754 223.673 23.8647 223.668 23.8434C223.662 23.822 223.66 23.794 223.66 23.7594C223.66 23.7234 223.662 23.6954 223.668 23.6754C223.673 23.654 223.684 23.6434 223.7 23.6434V23.8754ZM225.59 23.8754V23.6434C225.606 23.6434 225.616 23.654 225.622 23.6754C225.627 23.6954 225.63 23.7234 225.63 23.7594C225.63 23.794 225.627 23.822 225.622 23.8434C225.616 23.8647 225.606 23.8754 225.59 23.8754ZM225.816 23.8754V22.4614H226.084V23.8754H225.816ZM225.59 23.8754V23.6434H225.816V23.8754H225.59ZM225.59 23.8754C225.574 23.8754 225.564 23.8647 225.558 23.8434C225.553 23.822 225.55 23.794 225.55 23.7594C225.55 23.7234 225.553 23.6954 225.558 23.6754C225.564 23.654 225.574 23.6434 225.59 23.6434V23.8754ZM226.405 23.8754V22.4614H226.671V23.8754H226.405Z" fill="black"/>
<path d="M223.196 34.7529V30.6549H224.024V32.3829L224.54 32.3709L225.356 30.6549H226.22L225.254 32.6829L226.286 34.7529H225.398L224.546 33.1149L224.024 33.1269V34.7529H223.196Z" fill="black"/>
<path d="M224.735 43.6353C224.583 43.6353 224.417 43.6253 224.237 43.6053C224.057 43.5893 223.881 43.5693 223.709 43.5453C223.541 43.5173 223.397 43.4933 223.277 43.4733L223.331 42.8193C223.455 42.8353 223.599 42.8533 223.763 42.8733C223.927 42.8893 224.089 42.9033 224.249 42.9153C224.413 42.9273 224.555 42.9333 224.675 42.9333C224.903 42.9333 225.069 42.8893 225.173 42.8013C225.277 42.7093 225.329 42.5673 225.329 42.3753C225.329 42.2713 225.307 42.1893 225.263 42.1293C225.223 42.0653 225.149 42.0153 225.041 41.9793C224.933 41.9393 224.783 41.9013 224.591 41.8653C224.271 41.8053 224.011 41.7313 223.811 41.6433C223.615 41.5553 223.471 41.4313 223.379 41.2713C223.291 41.1113 223.247 40.8973 223.247 40.6293C223.247 40.3173 223.305 40.0733 223.421 39.8973C223.537 39.7173 223.703 39.5893 223.919 39.5133C224.135 39.4373 224.389 39.3993 224.681 39.3993C224.813 39.3993 224.963 39.4073 225.131 39.4233C225.303 39.4353 225.471 39.4513 225.635 39.4713C225.803 39.4913 225.945 39.5133 226.061 39.5373L226.025 40.1973C225.905 40.1813 225.765 40.1673 225.605 40.1553C225.449 40.1393 225.293 40.1253 225.137 40.1133C224.985 40.1013 224.855 40.0953 224.747 40.0953C224.519 40.0953 224.351 40.1313 224.243 40.2033C224.135 40.2753 224.081 40.3913 224.081 40.5513C224.081 40.6713 224.105 40.7633 224.153 40.8273C224.201 40.8913 224.281 40.9433 224.393 40.9833C224.509 41.0233 224.667 41.0653 224.867 41.1093C225.103 41.1613 225.303 41.2173 225.467 41.2773C225.635 41.3373 225.769 41.4093 225.869 41.4933C225.973 41.5773 226.049 41.6853 226.097 41.8173C226.145 41.9493 226.169 42.1153 226.169 42.3153C226.169 42.6353 226.111 42.8933 225.995 43.0893C225.883 43.2813 225.719 43.4213 225.503 43.5093C225.291 43.5933 225.035 43.6353 224.735 43.6353Z" fill="black"/>
<path d="M222.851 52.3856L223.895 48.2876H225.341L226.379 52.3856H225.551L225.323 51.5576H223.889L223.673 52.3856H222.851ZM224.021 50.8916H225.203L224.741 48.9596H224.489L224.021 50.8916Z" fill="black"/>
<path d="M148 65.5418H147V1.01685H148V65.5418Z" fill="black"/>
<path d="M87 65.5418H86V2.04105H87V65.5418Z" fill="black"/>
<path d="M216.72 32.7789H147.369V32.0443H216.72V32.7789Z" fill="black"/>
<path d="M86.1475 32.7789H0V32.0443H86.1475V32.7789Z" fill="black"/>
</svg>
