<svg width="17" height="16" viewBox="0 0 17 16" fill="none" xmlns="http://www.w3.org/2000/svg">
<path d="M6.69097 0H1.35764C1.12189 0 0.895799 0.0936505 0.7291 0.26035C0.562401 0.427049 0.46875 0.653141 0.46875 0.888889V6.22222C0.46875 6.45797 0.562401 6.68406 0.7291 6.85076C0.895799 7.01746 1.12189 7.11111 1.35764 7.11111H6.69097C6.92672 7.11111 7.15281 7.01746 7.31951 6.85076C7.48621 6.68406 7.57986 6.45797 7.57986 6.22222V0.888889C7.57986 0.653141 7.48621 0.427049 7.31951 0.26035C7.15281 0.0936505 6.92672 0 6.69097 0ZM5.80208 5.33333H2.24653V1.77778H5.80208V5.33333ZM15.5799 0H10.2465C10.0108 0 9.78469 0.0936505 9.61799 0.26035C9.45129 0.427049 9.35764 0.653141 9.35764 0.888889V6.22222C9.35764 6.45797 9.45129 6.68406 9.61799 6.85076C9.78469 7.01746 10.0108 7.11111 10.2465 7.11111H15.5799C15.8156 7.11111 16.0417 7.01746 16.2084 6.85076C16.3751 6.68406 16.4688 6.45797 16.4688 6.22222V0.888889C16.4688 0.653141 16.3751 0.427049 16.2084 0.26035C16.0417 0.0936505 15.8156 0 15.5799 0ZM14.691 5.33333H11.1354V1.77778H14.691V5.33333ZM6.69097 8.88889H1.35764C1.12189 8.88889 0.895799 8.98254 0.7291 9.14924C0.562401 9.31594 0.46875 9.54203 0.46875 9.77778V15.1111C0.46875 15.3469 0.562401 15.573 0.7291 15.7397C0.895799 15.9064 1.12189 16 1.35764 16H6.69097C6.92672 16 7.15281 15.9064 7.31951 15.7397C7.48621 15.573 7.57986 15.3469 7.57986 15.1111V9.77778C7.57986 9.54203 7.48621 9.31594 7.31951 9.14924C7.15281 8.98254 6.92672 8.88889 6.69097 8.88889ZM5.80208 14.2222H2.24653V10.6667H5.80208V14.2222ZM12.9132 8.88889C10.9523 8.88889 9.35764 10.4836 9.35764 12.4444C9.35764 14.4053 10.9523 16 12.9132 16C14.8741 16 16.4688 14.4053 16.4688 12.4444C16.4688 10.4836 14.8741 8.88889 12.9132 8.88889ZM12.9132 14.2222C11.9328 14.2222 11.1354 13.4249 11.1354 12.4444C11.1354 11.464 11.9328 10.6667 12.9132 10.6667C13.8936 10.6667 14.691 11.464 14.691 12.4444C14.691 13.4249 13.8936 14.2222 12.9132 14.2222Z" fill="#12004C"/>
</svg>
