<svg xmlns="http://www.w3.org/2000/svg" width="18.251" height="18.251" viewBox="0 0 18.251 18.251">
  <path id="Subtraction_15" data-name="Subtraction 15" d="M-1411,18.251v0l1.926-5.778a8.528,8.528,0,0,1-.913-3.853,8.61,8.61,0,0,1,1.288-4.53A8.611,8.611,0,0,1-1405.22.913,8.54,8.54,0,0,1-1401.39,0h.53a8.588,8.588,0,0,1,8.112,8.112v.507a8.536,8.536,0,0,1-.912,3.853,8.617,8.617,0,0,1-3.177,3.477,8.615,8.615,0,0,1-4.53,1.289h-.017a8.551,8.551,0,0,1-3.836-.913L-1411,18.25Zm14-11.126a1,1,0,0,0-1,1,1,1,0,0,0,1,1,1,1,0,0,0,1-1A1,1,0,0,0-1397,7.125Zm-4,0a1,1,0,0,0-1,1,1,1,0,0,0,1,1,1,1,0,0,0,1-1A1,1,0,0,0-1401,7.125Zm-4,0a1,1,0,0,0-1,1,1,1,0,0,0,1,1,1,1,0,0,0,1-1A1,1,0,0,0-1405,7.125Z" transform="translate(1411)" fill="#11014d"/>
</svg>
