<svg width="35" height="32" viewBox="0 0 35 32" fill="none" xmlns="http://www.w3.org/2000/svg">
<path d="M6.09047 13.4525H13.373C13.6828 13.4525 13.9332 13.1951 13.9332 12.878C13.9332 12.5609 13.6828 12.3036 13.373 12.3036H6.09047C5.78068 12.3036 5.53027 12.5609 5.53027 12.878C5.53027 13.1951 5.78068 13.4525 6.09047 13.4525Z" fill="#12004C"/>
<path d="M20.6556 15.7502H6.09047C5.78068 15.7502 5.53027 16.0075 5.53027 16.3246C5.53027 16.6417 5.78068 16.899 6.09047 16.899H20.6556C20.9654 16.899 21.2158 16.6417 21.2158 16.3246C21.2158 16.0075 20.9654 15.7502 20.6556 15.7502Z" fill="#12004C"/>
<path d="M20.6556 19.1967H6.09047C5.78068 19.1967 5.53027 19.4541 5.53027 19.7711C5.53027 20.0882 5.78068 20.3456 6.09047 20.3456H20.6556C20.9654 20.3456 21.2158 20.0882 21.2158 19.7711C21.2158 19.4541 20.9654 19.1967 20.6556 19.1967Z" fill="#12004C"/>
<path d="M30.7782 0.280628L11.652 0.240417C9.82018 0.240417 8.33005 1.76841 8.33005 3.64681V6.5902L3.80927 6.59997C1.97743 6.59997 0.487305 8.12796 0.487305 10.0064V22.1505C0.487305 24.0288 1.97743 25.5563 3.80927 25.5563H7.20966V31.3006C7.20966 31.5378 7.35195 31.751 7.56819 31.8365C7.63373 31.8624 7.70207 31.875 7.76986 31.875C7.92447 31.875 8.07628 31.809 8.1844 31.6872L13.6205 25.5551L22.9344 25.5161C24.7662 25.5161 26.2563 23.9881 26.2563 22.1102V22.0453L29.203 25.369C29.3111 25.4908 29.4629 25.5568 29.6175 25.5568C29.6853 25.5568 29.7536 25.5442 29.8192 25.5184C30.0354 25.4328 30.1777 25.2197 30.1777 24.9824V19.2381H30.7771C32.609 19.2381 34.0991 17.7101 34.0991 15.8323V3.68702C34.0991 1.80919 32.6095 0.281202 30.7782 0.280628ZM25.1359 22.1097C25.1359 23.3545 24.1483 24.3666 22.9321 24.3666L13.3696 24.4068C13.2127 24.4074 13.0626 24.4758 12.9573 24.5947L8.33005 29.8145V24.9813C8.33005 24.6642 8.07964 24.4068 7.76986 24.4068H3.80927C2.59532 24.4068 1.6077 23.3941 1.6077 22.1499V10.0058C1.6077 8.76099 2.59532 7.74826 3.81039 7.74826L8.89025 7.73735C8.89081 7.73735 8.89081 7.73735 8.89137 7.73735L22.9344 7.70748C24.1483 7.70748 25.1359 8.7202 25.1359 9.965V20.5581V22.1097ZM32.9787 15.8311C32.9787 17.0759 31.9911 18.0881 30.7771 18.0881H29.6175C29.3077 18.0881 29.0573 18.3454 29.0573 18.6625V23.4958L26.2563 20.3364V9.96557C26.2563 8.08718 24.7662 6.55918 22.9333 6.55918L9.45045 6.58733V3.64623C9.45045 2.40144 10.4381 1.38871 11.6509 1.38871L30.7766 1.42892C30.7771 1.42892 30.7771 1.42892 30.7777 1.42892C31.9916 1.42892 32.9792 2.44165 32.9792 3.68644V15.8311H32.9787Z" fill="#12004C"/>
</svg>
