<svg width="26" height="25" viewBox="0 0 26 25" fill="none" xmlns="http://www.w3.org/2000/svg">
<path d="M15.194 24.3809L11.922 20.2909H5.844C5.6904 20.2909 5.53831 20.2606 5.39641 20.2018C5.25452 20.143 5.1256 20.0568 5.01704 19.9482C4.90847 19.8395 4.82239 19.7105 4.7637 19.5686C4.70501 19.4266 4.67487 19.2745 4.675 19.1209V6.3849C4.67632 6.07573 4.80007 5.77967 5.01916 5.56152C5.23824 5.34337 5.53483 5.2209 5.844 5.2209H24.544C24.854 5.2209 25.1514 5.34406 25.3706 5.56329C25.5898 5.78252 25.713 6.07986 25.713 6.3899V19.1209C25.713 19.4309 25.5898 19.7283 25.3706 19.9475C25.1514 20.1667 24.854 20.2899 24.544 20.2899H18.467L15.194 24.3809ZM17.343 17.9529H23.375V7.5539H7.013V17.9539H13.045L15.194 20.6399L17.343 17.9529ZM1.169 0.420898H21.039V2.7589H2.338V15.6149H0V1.5899C0 1.27986 0.123162 0.982521 0.342392 0.763291C0.561622 0.544061 0.858962 0.420898 1.169 0.420898Z" fill="white"/>
</svg>
