<svg width="19" height="19" viewBox="0 0 19 19" fill="none" xmlns="http://www.w3.org/2000/svg">
<path d="M16.8799 7.761H12.5736C12.4996 7.761 12.439 7.82156 12.439 7.89558V8.70301C12.439 8.77703 12.4996 8.83759 12.5736 8.83759H16.8799C16.954 8.83759 17.0145 8.77703 17.0145 8.70301V7.89558C17.0145 7.82156 16.954 7.761 16.8799 7.761ZM14.6258 10.0487H12.5736C12.4996 10.0487 12.439 10.1093 12.439 10.1833V10.9907C12.439 11.0648 12.4996 11.1253 12.5736 11.1253H14.6258C14.6999 11.1253 14.7604 11.0648 14.7604 10.9907V10.1833C14.7604 10.1093 14.6999 10.0487 14.6258 10.0487ZM9.01248 6.25547H8.28411C8.17981 6.25547 8.0957 6.33958 8.0957 6.44387V10.6156C8.0957 10.6762 8.1243 10.7317 8.17308 10.767L10.6778 12.5938C10.7619 12.6544 10.8797 12.6376 10.9402 12.5535L11.3726 11.963V11.9614C11.4331 11.8772 11.4146 11.7595 11.3305 11.6989L9.1992 10.1581V6.44387C9.20088 6.33958 9.11509 6.25547 9.01248 6.25547Z" fill="#12004C"/>
<path d="M14.5222 12.1666H13.5499C13.4557 12.1666 13.3665 12.2153 13.3161 12.2961C13.1024 12.6342 12.8535 12.9471 12.5675 13.233C12.0746 13.7259 11.501 14.1128 10.8635 14.382C10.2024 14.6612 9.50093 14.8025 8.77761 14.8025C8.0526 14.8025 7.35114 14.6612 6.69173 14.382C6.05419 14.1128 5.48058 13.7259 4.98771 13.233C4.49483 12.7402 4.10794 12.1666 3.83879 11.529C3.55955 10.8696 3.41825 10.1682 3.41825 9.44314C3.41825 8.71813 3.55955 8.01836 3.83879 7.35727C4.10794 6.71973 4.49483 6.14612 4.98771 5.65325C5.48058 5.16037 6.05419 4.77348 6.69173 4.50433C7.35114 4.22509 8.05428 4.08379 8.77761 4.08379C9.50262 4.08379 10.2041 4.22509 10.8635 4.50433C11.501 4.77348 12.0746 5.16037 12.5675 5.65325C12.8535 5.93921 13.1024 6.25209 13.3161 6.59021C13.3665 6.67095 13.4557 6.71973 13.5499 6.71973H14.5222C14.6382 6.71973 14.7123 6.59862 14.6601 6.49601C13.5633 4.31425 11.3395 2.89619 8.85667 2.86759C5.22153 2.82218 2.20205 5.79791 2.19532 9.42969C2.1886 13.0682 5.13742 16.0204 8.77592 16.0204C11.2908 16.0204 13.5516 14.5973 14.6601 12.3903C14.7123 12.2877 14.6366 12.1666 14.5222 12.1666Z" fill="#12004C"/>
</svg>
