<svg width="12" height="12" viewBox="0 0 12 12" fill="none" xmlns="http://www.w3.org/2000/svg">
<path d="M11.4186 1.08752C11.4186 0.950024 11.3061 0.837524 11.1686 0.837524L9.10606 0.8469L5.9998 4.55002L2.89668 0.850025L0.831055 0.84065C0.693555 0.84065 0.581055 0.950025 0.581055 1.09065C0.581055 1.15002 0.602929 1.20627 0.640429 1.25315L4.70605 6.0969L0.640429 10.9375C0.602668 10.9833 0.581716 11.0407 0.581055 11.1C0.581055 11.2375 0.693555 11.35 0.831055 11.35L2.89668 11.3407L5.9998 7.63753L9.10293 11.3375L11.1654 11.3469C11.3029 11.3469 11.4154 11.2375 11.4154 11.0969C11.4154 11.0375 11.3936 10.9813 11.3561 10.9344L7.29668 6.09377L11.3623 1.25002C11.3998 1.20627 11.4186 1.1469 11.4186 1.08752Z" fill="#11014D"/>
</svg>
