<svg width="16" height="18" viewBox="0 0 16 18" fill="none" xmlns="http://www.w3.org/2000/svg">
<path d="M0 16.3125C0 16.7601 0.180612 17.1893 0.502103 17.5057C0.823594 17.8222 1.25963 18 1.71429 18H14.2857C14.7404 18 15.1764 17.8222 15.4979 17.5057C15.8194 17.1893 16 16.7601 16 16.3125V6.75H0V16.3125ZM11.4286 9.4221C11.4288 9.31023 11.4741 9.203 11.5544 9.12389C11.6348 9.04479 11.7437 9.00024 11.8574 9H13.2864C13.4001 9.00024 13.509 9.04479 13.5893 9.12389C13.6697 9.203 13.715 9.31023 13.7152 9.4221V10.8288C13.715 10.9407 13.6697 11.0479 13.5893 11.127C13.509 11.2061 13.4001 11.2507 13.2864 11.2509H11.8574C11.7437 11.2507 11.6348 11.2061 11.5544 11.127C11.4741 11.0479 11.4288 10.9407 11.4286 10.8288V9.4221ZM11.4286 13.9221C11.4288 13.8102 11.4741 13.703 11.5544 13.6239C11.6348 13.5448 11.7437 13.5002 11.8574 13.5H13.2864C13.4001 13.5002 13.509 13.5448 13.5893 13.6239C13.6697 13.703 13.715 13.8102 13.7152 13.9221V15.3288C13.715 15.4407 13.6697 15.5479 13.5893 15.627C13.509 15.7061 13.4001 15.7507 13.2864 15.7509H11.8574C11.7437 15.7507 11.6348 15.7061 11.5544 15.627C11.4741 15.5479 11.4288 15.4407 11.4286 15.3288V13.9221ZM6.85714 9.4221C6.85738 9.31023 6.90264 9.203 6.983 9.12389C7.06337 9.04479 7.17229 9.00024 7.28594 9H8.71406C8.82771 9.00024 8.93663 9.04479 9.017 9.12389C9.09736 9.203 9.14262 9.31023 9.14286 9.4221V10.8288C9.14262 10.9407 9.09736 11.0479 9.017 11.127C8.93663 11.2061 8.82771 11.2507 8.71406 11.2509H7.28594C7.17229 11.2507 7.06337 11.2061 6.983 11.127C6.90264 11.0479 6.85738 10.9407 6.85714 10.8288V9.4221ZM6.85714 13.9221C6.85738 13.8102 6.90264 13.703 6.983 13.6239C7.06337 13.5448 7.17229 13.5002 7.28594 13.5H8.71406C8.82771 13.5002 8.93663 13.5448 9.017 13.6239C9.09736 13.703 9.14262 13.8102 9.14286 13.9221V15.3288C9.14262 15.4407 9.09736 15.5479 9.017 15.627C8.93663 15.7061 8.82771 15.7507 8.71406 15.7509H7.28594C7.17229 15.7507 7.06337 15.7061 6.983 15.627C6.90264 15.5479 6.85738 15.4407 6.85714 15.3288V13.9221ZM2.28571 9.4221C2.28596 9.31023 2.33121 9.203 2.41157 9.12389C2.49194 9.04479 2.60086 9.00024 2.71451 9H4.14263C4.25628 9.00024 4.36521 9.04479 4.44557 9.12389C4.52593 9.203 4.57119 9.31023 4.57143 9.4221V10.8288C4.57119 10.9407 4.52593 11.0479 4.44557 11.127C4.36521 11.2061 4.25628 11.2507 4.14263 11.2509H2.71451C2.60086 11.2507 2.49194 11.2061 2.41157 11.127C2.33121 11.0479 2.28596 10.9407 2.28571 10.8288V9.4221ZM2.28571 13.9221C2.28596 13.8102 2.33121 13.703 2.41157 13.6239C2.49194 13.5448 2.60086 13.5002 2.71451 13.5H4.14263C4.25628 13.5002 4.36521 13.5448 4.44557 13.6239C4.52593 13.703 4.57119 13.8102 4.57143 13.9221V15.3288C4.57119 15.4407 4.52593 15.5479 4.44557 15.627C4.36521 15.7061 4.25628 15.7507 4.14263 15.7509H2.71451C2.60086 15.7507 2.49194 15.7061 2.41157 15.627C2.33121 15.5479 2.28596 15.4407 2.28571 15.3288V13.9221ZM14.2857 2.25H12.5714V0.5625C12.5709 0.413462 12.5106 0.270663 12.4035 0.165277C12.2965 0.0598903 12.1514 0.000474648 12 0L10.8571 0C10.7057 0.000474648 10.5607 0.0598903 10.4536 0.165277C10.3466 0.270663 10.2862 0.413462 10.2857 0.5625V2.25H5.71429V0.5625C5.7138 0.413462 5.65344 0.270663 5.54639 0.165277C5.43933 0.0598903 5.29426 0.000474648 5.14286 0L4 0C3.8486 0.000474648 3.70353 0.0598903 3.59647 0.165277C3.48941 0.270663 3.42905 0.413462 3.42857 0.5625V2.25H1.71429C1.25963 2.25 0.823594 2.42779 0.502103 2.74426C0.180612 3.06072 0 3.48995 0 3.9375L0 5.625H16V3.9375C16 3.48995 15.8194 3.06072 15.4979 2.74426C15.1764 2.42779 14.7404 2.25 14.2857 2.25Z" fill="#11014D"/>
</svg>
