<svg xmlns="http://www.w3.org/2000/svg" width="74" height="76.024" viewBox="0 0 74 76.024">
  <g id="Group_4870" data-name="Group 4870" transform="translate(3251 963.315)">
    <g id="Group_4869" data-name="Group 4869" transform="translate(-3240.323 -963.315)">
      <path id="Path_1" data-name="Path 1" d="M201.908,452.271v7.634a12.987,12.987,0,0,0,12.987,12.987h31.861a7.573,7.573,0,0,0,7.573-7.573H218.742a6.292,6.292,0,0,1-6.292-6.292v-5.859a6.291,6.291,0,0,1,6.3-6.292c7.5.007,20.008-.008,28.022-.019a7.572,7.572,0,0,0,7.561-7.573H214.895A12.987,12.987,0,0,0,201.908,452.271Z" transform="translate(-201.908 -439.284)" fill="#fa9c44"/>
      <path id="Rectangle_3" data-name="Rectangle 3" d="M0,0H17.238a6.538,6.538,0,0,1,6.538,6.538v0a0,0,0,0,1,0,0H6.538A6.538,6.538,0,0,1,0,0V0A0,0,0,0,1,0,0Z" transform="translate(29.446 13.675)" fill="#f5f5f5"/>
    </g>
    <text id="Golden_Deal" data-name="Golden Deal" transform="translate(-3214 -908.848)" fill="#fa9c44" font-size="14" font-family="Cairo-Bold, Cairo" font-weight="700"><tspan x="-36.218" y="0">Golden </tspan><tspan y="0" fill="#fff">Deal</tspan></text>
    <text id="قولــدن_ديل" data-name="قولــدن ديل" transform="translate(-3216.444 -894.29)" fill="#fff" font-size="13" font-family="Cairo-Bold, Cairo" font-weight="700"><tspan x="-33.377" y="0">ديل</tspan><tspan y="0" fill="#fa9c44">قولــدن </tspan></text>
  </g>
</svg>
