<svg width="17" height="17" viewBox="0 0 17 17" fill="none" xmlns="http://www.w3.org/2000/svg">
<path d="M5.19076 1.5H5.02409C5.11576 1.5 5.19076 1.425 5.19076 1.33333V1.5H11.5241V1.33333C11.5241 1.425 11.5991 1.5 11.6908 1.5H11.5241V3H13.0241V1.33333C13.0241 0.597917 12.4262 0 11.6908 0H5.02409C4.28867 0 3.69076 0.597917 3.69076 1.33333V3H5.19076V1.5ZM15.6908 3H1.02409C0.655339 3 0.357422 3.29792 0.357422 3.66667V4.33333C0.357422 4.425 0.432422 4.5 0.524089 4.5H1.78242L2.29701 15.3958C2.33034 16.1063 2.91784 16.6667 3.62826 16.6667H13.0866C13.7991 16.6667 14.3845 16.1083 14.4178 15.3958L14.9324 4.5H16.1908C16.2824 4.5 16.3574 4.425 16.3574 4.33333V3.66667C16.3574 3.29792 16.0595 3 15.6908 3ZM12.9262 15.1667H3.78867L3.28451 4.5H13.4303L12.9262 15.1667Z" fill="#12004C"/>
</svg>
