<svg width="58" height="56" viewBox="0 0 58 56" fill="none" xmlns="http://www.w3.org/2000/svg">
<g filter="url(#filter0_b_2585_4939)">
<path d="M18.9999 56L38.0181 56C46.4775 56 50.7073 56 53.5125 53.6041C53.9109 53.2638 54.2819 52.8928 54.6221 52.4945C57.0181 49.6892 57.0181 45.4595 57.0181 37L57.0181 19C57.0181 10.5405 57.0181 6.31081 54.6221 3.50552C54.2819 3.10717 53.9109 2.73617 53.5125 2.39594C50.7073 0 46.4775 0 38.0181 0L18.9999 0C10.5404 0 6.31069 0 3.50541 2.39594C3.10706 2.73617 2.73605 3.10717 2.39583 3.50552C-0.000114441 6.31081 -0.000114441 10.5405 -0.000114441 19L-0.000114441 37C-0.000114441 45.4595 -0.000114441 49.6892 2.39583 52.4945C2.73605 52.8928 3.10706 53.2638 3.50541 53.6041C6.31069 56 10.5404 56 18.9999 56Z" fill="#8E8E8E"/>
</g>
<path d="M33.0176 17.3832C33.2802 17.087 33.592 16.852 33.9352 16.6917C34.2783 16.5314 34.6461 16.4489 35.0176 16.4489C35.389 16.4489 35.7568 16.5314 36.1 16.6917C36.4431 16.852 36.7549 17.087 37.0176 17.3832C37.2802 17.6794 37.4886 18.031 37.6307 18.4181C37.7728 18.8051 37.846 19.2199 37.846 19.6388C37.846 20.0576 37.7728 20.4724 37.6307 20.8594C37.4886 21.2465 37.2802 21.5981 37.0176 21.8943L23.5176 37.1193L18.0176 38.811L19.5176 32.6082L33.0176 17.3832Z" fill="#FAFAFA"/>
<defs>
<filter id="filter0_b_2585_4939" x="-6.60241" y="-6.60241" width="70.2229" height="69.2048" filterUnits="userSpaceOnUse" color-interpolation-filters="sRGB">
<feFlood flood-opacity="0" result="BackgroundImageFix"/>
<feGaussianBlur in="BackgroundImage" stdDeviation="3.3012"/>
<feComposite in2="SourceAlpha" operator="in" result="effect1_backgroundBlur_2585_4939"/>
<feBlend mode="normal" in="SourceGraphic" in2="effect1_backgroundBlur_2585_4939" result="shape"/>
</filter>
</defs>
</svg>
