<svg width="17" height="16" viewBox="0 0 17 16" fill="none" xmlns="http://www.w3.org/2000/svg">
<path d="M15.1248 9.99041C14.9047 9.99041 14.7263 10.1688 14.7263 10.3889V13.927C14.7255 14.587 14.1908 15.1218 13.5308 15.1224H2.34983C1.68985 15.1218 1.15516 14.587 1.15439 13.927V3.54295C1.15516 2.88312 1.68985 2.34828 2.34983 2.3475H5.88791C6.10801 2.3475 6.2864 2.16912 6.2864 1.94902C6.2864 1.72908 6.10801 1.55054 5.88791 1.55054H2.34983C1.24996 1.55178 0.358667 2.44307 0.357422 3.54295V13.9271C0.358667 15.027 1.24996 15.9183 2.34983 15.9195H13.5308C14.6307 15.9183 15.522 15.027 15.5232 13.9271V10.3889C15.5232 10.1688 15.3449 9.99041 15.1248 9.99041Z" fill="#12004C"/>
<path d="M15.3648 0.525226C14.6645 -0.175075 13.5291 -0.175075 12.8288 0.525226L5.71965 7.63439C5.67093 7.68311 5.63575 7.74351 5.61739 7.80982L4.68251 11.1849C4.64406 11.3233 4.68313 11.4715 4.78462 11.5731C4.88626 11.6746 5.03445 11.7137 5.17283 11.6754L8.54794 10.7404C8.61425 10.722 8.67464 10.6868 8.72336 10.6381L15.8324 3.52878C16.5316 2.82801 16.5316 1.69359 15.8324 0.992819L15.3648 0.525226ZM6.58791 7.8934L12.4062 2.07495L14.2827 3.95139L8.4642 9.76985L6.58791 7.8934ZM6.21308 8.64554L7.71222 10.1448L5.63855 10.7194L6.21308 8.64554ZM15.2689 2.9653L14.8463 3.38791L12.9697 1.51131L13.3925 1.0887C13.7814 0.699717 14.4122 0.699717 14.8011 1.0887L15.2689 1.5563C15.6573 1.94575 15.6573 2.57601 15.2689 2.9653Z" fill="#12004C"/>
</svg>
