<svg width="56" height="56" viewBox="0 0 56 56" fill="none" xmlns="http://www.w3.org/2000/svg">
<circle cx="28" cy="28" r="28" fill="white"/>
<path d="M35.1133 16.5453C35.4197 16.2111 35.7835 15.9459 36.1838 15.765C36.5842 15.5841 37.0133 15.491 37.4466 15.491C37.88 15.491 38.309 15.5841 38.7094 15.765C39.1098 15.9459 39.4735 16.2111 39.7799 16.5453C40.0864 16.8796 40.3294 17.2764 40.4953 17.7132C40.6611 18.1499 40.7464 18.618 40.7464 19.0908C40.7464 19.5635 40.6611 20.0316 40.4953 20.4684C40.3294 20.9051 40.0864 21.302 39.7799 21.6362L24.0299 38.8181L17.6133 40.7271L19.3633 33.7271L35.1133 16.5453Z" fill="#12004C"/>
</svg>
