<svg width="16" height="14" viewBox="0 0 16 14" fill="none" xmlns="http://www.w3.org/2000/svg">
<path d="M0.00342062 12.5355V1.8382C0.00342062 1.82584 0.0188134 1.70811 0.0495991 1.48502L5.27803 6.87126L0.0615713 12.9072C0.0286901 12.7868 0.0080165 12.6619 0 12.5355H0.00342062ZM0.697808 0.74262C0.781301 0.702923 0.870609 0.684008 0.960341 0.687017H15.0422C15.1367 0.687313 15.2306 0.706092 15.3201 0.74262L10.0755 6.14739L9.38107 6.81565L8.00854 8.17174L6.63602 6.81565L5.94163 6.14739L0.697808 0.74262ZM0.71149 13.6311L5.97071 7.55599L8.00683 9.54327L10.043 7.55599L15.3022 13.6311C15.2182 13.6686 15.1292 13.6874 15.0396 13.6867H0.959486C0.874704 13.6864 0.790669 13.6676 0.71149 13.6311ZM10.7373 6.87126L15.9538 1.48502C15.985 1.59896 16.0006 1.71824 16 1.8382V12.5355C15.9983 12.6613 15.9828 12.7863 15.9538 12.9072L10.7373 6.87126Z" fill="#11014D"/>
</svg>
