<svg width="24" height="26" viewBox="0 0 24 26" fill="none" xmlns="http://www.w3.org/2000/svg">
<path d="M21 4.875H3C2.60218 4.875 2.22064 5.0462 1.93934 5.35095C1.65804 5.6557 1.5 6.06902 1.5 6.5V19.5C1.5 19.931 1.65804 20.3443 1.93934 20.649C2.22064 20.9538 2.60218 21.125 3 21.125H21C21.3978 21.125 21.7794 20.9538 22.0607 20.649C22.342 20.3443 22.5 19.931 22.5 19.5V6.5C22.5 6.06902 22.342 5.6557 22.0607 5.35095C21.7794 5.0462 21.3978 4.875 21 4.875ZM19.35 6.5L12 12.0087L4.65 6.5H19.35ZM3 19.5V7.23937L11.5725 13.6663C11.698 13.7606 11.8472 13.8112 12 13.8112C12.1528 13.8112 12.302 13.7606 12.4275 13.6663L21 7.23937V19.5H3Z" fill="#CCCCCC"/>
</svg>
