<svg width="18" height="22" viewBox="0 0 18 22" fill="none" xmlns="http://www.w3.org/2000/svg">
<path d="M1.5 21.5H10.5C10.8977 21.4996 11.279 21.3414 11.5602 21.0602C11.8414 20.779 11.9996 20.3977 12 20V17.75H10.5V20H1.5V2H10.5V4.25H12V2C11.9996 1.6023 11.8414 1.221 11.5602 0.939778C11.279 0.65856 10.8977 0.500397 10.5 0.5H1.5C1.1023 0.500397 0.720997 0.65856 0.439779 0.939778C0.15856 1.221 0.000397108 1.6023 0 2V20C0.000397108 20.3977 0.15856 20.779 0.439779 21.0602C0.720997 21.3414 1.1023 21.4996 1.5 21.5Z" fill="#C02929"/>
<path d="M12.4395 14.4395L15.129 11.75H4.5V10.25H15.129L12.4395 7.5605L13.5 6.5L18 11L13.5 15.5L12.4395 14.4395Z" fill="#C02929"/>
</svg>
