<svg xmlns="http://www.w3.org/2000/svg" width="15.539" height="15.789" viewBox="0 0 15.539 15.789">
  <g id="Group_4874" data-name="Group 4874" transform="translate(-27.23 -227.105)">
    <path id="Icon_awesome-power-off" data-name="Icon awesome-power-off" d="M12.843,1.695a7.768,7.768,0,1,1-9.029,0,.754.754,0,0,1,1.1.241l.495.88a.752.752,0,0,1-.207.971,5.263,5.263,0,1,0,6.263,0,.747.747,0,0,1-.2-.968l.495-.88a.751.751,0,0,1,1.09-.244ZM9.585,8.271V.752A.75.75,0,0,0,8.833,0h-1a.75.75,0,0,0-.752.752V8.271a.75.75,0,0,0,.752.752h1A.75.75,0,0,0,9.585,8.271Z" transform="translate(26.668 227.105)" fill="#d90e0e"/>
  </g>
</svg>
