<svg width="160" height="160" viewBox="0 0 160 160" fill="none" xmlns="http://www.w3.org/2000/svg">
<path d="M80.0002 160C124.183 160 160 124.183 160 80.0002C160 35.8173 124.183 0 80.0002 0C35.8173 0 0 35.8173 0 80.0002C0 124.183 35.8173 160 80.0002 160Z" fill="#C02929"/>
<path d="M160 80.0002C160 124 124 160 80.0001 160C54.5002 160 32.0002 148.5 17.5 130C31 141 48.5001 147.501 67.4999 147.501C111.5 147.501 147.5 111.501 147.5 67.5004C147.5 48.5005 141 31.0004 130 17.5004C148.5 31.9999 160 54.4999 160 80.0002Z" fill="#C02929"/>
<path d="M116.5 116.5C113.5 119.5 108.5 119.5 105.5 116.5L79.9998 91.0002L54.5 116.5C51.5001 119.5 46.4998 119.5 43.4999 116.5C40.5 113.5 40.5 108.5 43.4999 105.5L68.9998 80.0002L43.4999 54.5003C40.5 51.5004 40.5 46.5001 43.4999 43.5002C46.4998 40.5004 51.5001 40.5004 54.5 43.5002L79.9998 69.0001L105.5 43.5002C108.5 40.5004 113.5 40.5004 116.5 43.5002C119.5 46.5001 119.5 51.5004 116.5 54.5003L90.9999 80.0002L116.5 105.5C119.5 108.5 119.5 113.5 116.5 116.5Z" fill="white"/>
</svg>
