<svg xmlns="http://www.w3.org/2000/svg" width="21.836" height="20.996" viewBox="0 0 21.836 20.996">
  <path id="Icon_ionic-ios-heart-empty" data-name="Icon ionic-ios-heart-empty" d="M19.332,3.938H19.28a5.972,5.972,0,0,0-4.987,2.729A5.972,5.972,0,0,0,9.306,3.938H9.254A5.935,5.935,0,0,0,3.375,9.869a12.777,12.777,0,0,0,2.509,6.965,43.97,43.97,0,0,0,8.409,8.1,43.97,43.97,0,0,0,8.409-8.1,12.777,12.777,0,0,0,2.509-6.965A5.935,5.935,0,0,0,19.332,3.938Z" transform="translate(-3.375 -3.938)" fill="#11014d"/>
</svg>
