<svg width="48" height="48" viewBox="0 0 48 48" fill="none" xmlns="http://www.w3.org/2000/svg">
<path d="M22.38 34.3164L20.31 32.3588C18.19 30.3493 16.2748 28.3553 14.5644 26.3765C12.854 24.3977 11.9992 22.2176 12 19.8362C12 17.8889 12.63 16.2627 13.89 14.9576C15.15 13.6525 16.72 13 18.6 13C19.66 13 20.66 13.2328 21.6 13.6985C22.54 14.1642 23.34 14.8014 24 15.6102C24.66 14.8023 25.46 14.165 26.4 13.6985C27.34 13.232 28.34 12.9992 29.4 13C31.28 13 32.85 13.6525 34.11 14.9576C35.37 16.2627 36 17.8889 36 19.8362C36 22.2185 35.15 24.404 33.45 26.3927C31.75 28.3814 29.82 30.3804 27.66 32.3898L25.62 34.3164C25.16 34.7721 24.62 35 24 35C23.38 35 22.84 34.7721 22.38 34.3164ZM22.86 18.096C22.28 17.2467 21.66 16.5991 21 16.1533C20.34 15.7075 19.54 15.485 18.6 15.4859C17.4 15.4859 16.4 15.9002 15.6 16.7288C14.8 17.5574 14.4 18.5932 14.4 19.8362C14.4 20.9134 14.77 22.0581 15.51 23.2704C16.25 24.4827 17.1352 25.6581 18.1656 26.7966C19.1952 27.936 20.2552 29.0028 21.3456 29.9972C22.436 30.9915 23.3208 31.8098 24 32.452C24.68 31.8098 25.5652 30.9915 26.6556 29.9972C27.746 29.0028 28.806 27.936 29.8356 26.7966C30.8652 25.6573 31.75 24.4818 32.49 23.2704C33.23 22.0589 33.6 20.9142 33.6 19.8362C33.6 18.5932 33.2 17.5574 32.4 16.7288C31.6 15.9002 30.6 15.4859 29.4 15.4859C28.46 15.4859 27.66 15.7084 27 16.1533C26.34 16.5983 25.72 17.2459 25.14 18.096C25 18.3032 24.83 18.4586 24.63 18.5621C24.43 18.6657 24.22 18.7175 24 18.7175C23.78 18.7175 23.57 18.6657 23.37 18.5621C23.17 18.4586 23 18.3032 22.86 18.096Z" fill="black"/>
</svg>
