<svg width="24" height="24" viewBox="0 0 24 24" fill="none" xmlns="http://www.w3.org/2000/svg">
<path d="M11.1458 5.13174L11.9955 6.5013L12.8453 5.13174C13.2522 4.4758 13.8074 3.94001 14.4573 3.56938C15.1061 3.19935 15.8305 3.00459 16.5656 3H16.6062C17.7613 3.01143 18.8739 3.49594 19.6999 4.36187C20.5226 5.22444 20.9932 6.39588 20.9999 7.62594C20.8857 9.82186 20.1531 11.9309 18.8977 13.6907C16.8846 16.3259 14.5675 18.6906 12 20.7322C9.43251 18.6906 7.11545 16.3259 5.10228 13.6907C3.84693 11.9309 3.11432 9.82186 3.00007 7.62595C3.00675 6.39654 3.47686 5.22567 4.29883 4.3632C5.1239 3.49746 6.2354 3.01252 7.38975 3H7.42548C8.16051 3.00459 8.88495 3.19935 9.5338 3.56938C10.1837 3.94001 10.7388 4.4758 11.1458 5.13174Z" stroke="#11014D" stroke-width="2"/>
</svg>
