<svg width="64" height="64" viewBox="0 0 64 64" fill="none" xmlns="http://www.w3.org/2000/svg">
<rect width="64" height="64" rx="10" fill="#E29547"/>
<path d="M34.6667 48H29.3333C28.6261 48 27.9478 47.719 27.4477 47.219C26.9476 46.7189 26.6667 46.0406 26.6667 45.3333V35.2133L16.7867 25.3333C16.2859 24.8355 16.003 24.1594 16 23.4533V18.6667C16 17.9594 16.281 17.2811 16.781 16.781C17.2811 16.281 17.9594 16 18.6667 16H45.3333C46.0406 16 46.7189 16.281 47.219 16.781C47.719 17.2811 48 17.9594 48 18.6667V23.4533C47.997 24.1594 47.7141 24.8355 47.2133 25.3333L37.3333 35.2133V45.3333C37.3333 46.0406 37.0524 46.7189 36.5523 47.219C36.0522 47.719 35.3739 48 34.6667 48ZM18.6667 18.6667V23.4533L29.3333 34.12V45.3333H34.6667V34.12L45.3333 23.4533V18.6667H18.6667Z" fill="#FAFAFA"/>
</svg>
