<svg width="22" height="27" viewBox="0 0 22 27" fill="none" xmlns="http://www.w3.org/2000/svg">
<path d="M21.1754 0H15.6779C15.4592 0 15.2494 0.0775809 15.0948 0.215676C14.9401 0.353771 14.8532 0.541068 14.8532 0.736364C14.8532 0.931659 14.9401 1.11896 15.0948 1.25705C15.2494 1.39515 15.4592 1.47273 15.6779 1.47273H19.1825L15.1831 5.05636C14.1194 4.19016 12.8401 3.56247 11.451 3.22517C10.0618 2.88787 8.60275 2.85066 7.19431 3.1166C5.78588 3.38254 4.46855 3.944 3.35123 4.75457C2.2339 5.56515 1.34867 6.60154 0.768704 7.7781C0.188737 8.95466 -0.0693052 10.2376 0.015906 11.5208C0.101117 12.8041 0.527135 14.0508 1.25874 15.1579C1.99035 16.265 3.00654 17.2007 4.22331 17.8877C5.44007 18.5747 6.82247 18.9932 8.25623 19.1086V22.0909H4.68285C4.46415 22.0909 4.2544 22.1685 4.09976 22.3066C3.94511 22.4447 3.85823 22.632 3.85823 22.8273C3.85823 23.0226 3.94511 23.2099 4.09976 23.348C4.2544 23.4861 4.46415 23.5636 4.68285 23.5636H8.25623V26.2636C8.25623 26.4589 8.34311 26.6462 8.49776 26.7843C8.65241 26.9224 8.86215 27 9.08086 27C9.29956 27 9.50931 26.9224 9.66396 26.7843C9.8186 26.6462 9.90549 26.4589 9.90549 26.2636V23.5636H13.4789C13.6976 23.5636 13.9073 23.4861 14.062 23.348C14.2166 23.2099 14.3035 23.0226 14.3035 22.8273C14.3035 22.632 14.2166 22.4447 14.062 22.3066C13.9073 22.1685 13.6976 22.0909 13.4789 22.0909H9.90549V19.1086C11.5185 18.9768 13.0626 18.4616 14.3772 17.6167C15.6919 16.7719 16.7293 15.628 17.3815 14.3041C18.0337 12.9801 18.2771 11.5244 18.0863 10.0881C17.8954 8.65176 17.2774 7.28727 16.2963 6.13636L20.3507 2.51591V5.64545C20.3507 5.84075 20.4376 6.02805 20.5923 6.16614C20.7469 6.30424 20.9567 6.38182 21.1754 6.38182C21.3941 6.38182 21.6038 6.30424 21.7585 6.16614C21.9131 6.02805 22 5.84075 22 5.64545V0.736364C22 0.541068 21.9131 0.353771 21.7585 0.215676C21.6038 0.0775809 21.3941 0 21.1754 0ZM9.08086 17.6727C7.613 17.6727 6.1781 17.284 4.95762 16.5558C3.73714 15.8276 2.78589 14.7926 2.22416 13.5816C1.66244 12.3706 1.51546 11.0381 1.80183 9.75254C2.0882 8.46697 2.79504 7.28611 3.83297 6.35926C4.8709 5.43242 6.19331 4.80124 7.63297 4.54552C9.07263 4.28981 10.5649 4.42105 11.921 4.92265C13.2771 5.42426 14.4362 6.27369 15.2517 7.36354C16.0672 8.45339 16.5025 9.7347 16.5025 11.0455C16.5025 12.8031 15.7206 14.4888 14.3287 15.7316C12.9369 16.9745 11.0492 17.6727 9.08086 17.6727Z" fill="#8E8E8E"/>
</svg>
