<svg width="16" height="17" viewBox="0 0 16 17" fill="none" xmlns="http://www.w3.org/2000/svg">
<path d="M11.6408 3.36226L13.858 1.21308H10.9822V0H16V4.8584H14.7469V2.07303L12.5269 4.22086C13.2507 5.13935 13.5869 6.28979 13.4675 7.43924C13.348 8.58869 12.7818 9.65123 11.8835 10.4117C10.9853 11.1722 9.82201 11.5738 8.62935 11.5352C7.4367 11.4966 6.30377 11.0207 5.45996 10.2038C4.61616 9.3869 4.12454 8.29012 4.08466 7.13551C4.04478 5.9809 4.45962 4.85477 5.24517 3.98514C6.03073 3.11551 7.12829 2.56738 8.31562 2.45173C9.50294 2.33608 10.692 2.66156 11.6408 3.36226ZM8.78656 10.3233C9.46886 10.3231 10.1358 10.127 10.7029 9.75979C11.2701 9.39262 11.7121 8.87089 11.973 8.26056C12.234 7.65022 12.3021 6.9787 12.1688 6.33089C12.0355 5.68307 11.7068 5.08807 11.2243 4.62109C10.7417 4.15411 10.1269 3.83614 9.45774 3.70737C8.78852 3.57861 8.0949 3.64483 7.46456 3.89767C6.83421 4.15051 6.29547 4.57861 5.91643 5.12784C5.53739 5.67708 5.33508 6.32278 5.33508 6.98332C5.33508 7.42205 5.42436 7.85648 5.59783 8.2618C5.77131 8.66712 6.02556 9.03538 6.34608 9.34555C6.6666 9.65572 7.0471 9.90171 7.46584 10.0695C7.88459 10.2373 8.33337 10.3235 8.78656 10.3233Z" fill="#11014D"/>
<path d="M4.08219 12.1059C2.89833 11.952 1.81912 11.3683 1.06312 10.473C0.307122 9.57772 -0.0691584 8.43774 0.010486 7.28394C0.0901304 6.13014 0.619747 5.04876 1.49208 4.25881C2.36441 3.46886 3.51424 3.02939 4.70872 3.02939C5.9032 3.02939 7.05304 3.46886 7.92537 4.25881C8.7977 5.04876 9.32732 6.13014 9.40696 7.28394C9.48661 8.43774 9.11032 9.57772 8.35432 10.473C7.59832 11.3683 6.51911 11.952 5.33525 12.1059V13.3607H8.47138V14.5738H5.33665V17H4.08359V14.5738H0.945371V13.3607H4.0815L4.08219 12.1059ZM4.70872 10.9312C5.39103 10.9309 6.05793 10.7348 6.62511 10.3676C7.19229 10.0005 7.63428 9.47873 7.8952 8.8684C8.15611 8.25807 8.22424 7.58654 8.09096 6.93873C7.95768 6.29092 7.62898 5.69591 7.14642 5.22893C6.66386 4.76196 6.04911 4.44398 5.3799 4.31522C4.71069 4.18645 4.01706 4.25267 3.38672 4.50551C2.75638 4.75835 2.21763 5.18645 1.83859 5.73568C1.45955 6.28492 1.25724 6.93062 1.25724 7.59116C1.25724 8.02995 1.34655 8.46444 1.52006 8.8698C1.69358 9.27516 1.9479 9.64345 2.26849 9.95363C2.58908 10.2638 2.96966 10.5098 3.38849 10.6775C3.80731 10.8453 4.25548 10.9314 4.70872 10.9312Z" fill="#11014D"/>
</svg>
