<svg xmlns="http://www.w3.org/2000/svg" width="104" height="128" viewBox="0 0 104 128">
  <g id="Group_4870" data-name="Group 4870" transform="translate(3249.56 963.315)">
    <g id="Group_4869" data-name="Group 4869" transform="translate(-3241.56 -963.315)">
      <path id="Path_1" data-name="Path 1" d="M201.908,460.936v12.728a21.59,21.59,0,0,0,21.528,21.652h52.816a12.59,12.59,0,0,0,12.554-12.626H229.814a10.461,10.461,0,0,1-10.43-10.49v-9.768a10.459,10.459,0,0,1,10.438-10.49c12.429.011,33.167-.013,46.451-.032a12.588,12.588,0,0,0,12.533-12.626H223.436A21.59,21.59,0,0,0,201.908,460.936Z" transform="translate(-201.908 -439.284)" fill="#fa9c44"/>
      <path id="Rectangle_3" data-name="Rectangle 3" d="M0,0H28.739a10.9,10.9,0,0,1,10.9,10.9v0a0,0,0,0,1,0,0H10.9A10.9,10.9,0,0,1,0,0V0A0,0,0,0,1,0,0Z" transform="translate(48.592 22.799)" fill="#f5f5f5"/>
    </g>
    <text id="Golden_Deal" data-name="Golden Deal" transform="translate(-3197.56 -876.251)" fill="#fa9c44" font-size="20" font-family="Cairo-Bold, Cairo" font-weight="700"><tspan x="-51.74" y="0">Golden </tspan><tspan y="0" fill="#fff">Deal</tspan></text>
    <text id="قولــدن_ديل" data-name="قولــدن ديل" transform="translate(-3197.56 -846.315)" fill="#fff" font-size="19" font-family="Cairo-Bold, Cairo" font-weight="700"><tspan x="-48.783" y="0">ديل</tspan><tspan y="0" fill="#fa9c44">قولــدن </tspan></text>
  </g>
</svg>
