<svg width="78" height="74" viewBox="0 0 78 74" fill="none" xmlns="http://www.w3.org/2000/svg">
<path d="M7 15.9483V25.3232C7.00015 29.5529 8.67027 33.6092 11.6429 36.6C14.6156 39.5908 18.6474 41.271 22.8513 41.271H61.7398C64.1913 41.271 66.5423 40.2912 68.2757 38.5471C70.0091 36.8031 70.983 34.4377 70.983 31.9712H27.5476C25.5109 31.9711 23.5577 31.157 22.1175 29.708C20.6773 28.259 19.8681 26.2938 19.868 24.2446V17.0501C19.8678 16.0349 20.0666 15.0296 20.4528 14.0917C20.839 13.1538 21.4052 12.3017 22.119 11.5841C22.8328 10.8665 23.6801 10.2975 24.6126 9.90961C25.545 9.5217 26.5443 9.32252 27.5534 9.32343C36.7051 9.33152 51.9747 9.31418 61.7554 9.29972C64.2043 9.2962 66.5518 8.31479 68.2821 6.57109C70.0124 4.82738 70.984 2.46398 70.9836 0H22.8513C20.7697 0 18.7085 0.412511 16.7853 1.21399C14.8621 2.01547 13.1147 3.19021 11.6427 4.67115C10.1708 6.15209 9.00321 7.91023 8.20661 9.84517C7.41 11.7801 7 13.8539 7 15.9483Z" fill="white"/>
<path d="M42.9395 16.7932H63.978C65.0259 16.7931 66.0636 17.0007 67.0319 17.4042C68.0001 17.8076 68.8798 18.399 69.6208 19.1445C70.3619 19.89 70.9497 20.7751 71.3508 21.7492C71.7518 22.7233 71.9583 23.7674 71.9583 24.8217H50.9197C49.8718 24.8218 48.8341 24.6142 47.8658 24.2108C46.8976 23.8073 46.0179 23.216 45.2769 22.4704C44.5358 21.7249 43.948 20.8398 43.5469 19.8657C43.1459 18.8916 42.9395 17.8476 42.9395 16.7932Z" fill="white"/>
<path d="M4.95516 65.3308C4.09516 65.3308 3.38516 65.2208 2.82516 65.0008C2.26516 64.7708 1.82516 64.4358 1.50516 63.9958C1.19516 63.5458 0.975156 62.9958 0.845156 62.3458C0.715156 61.6858 0.650156 60.9258 0.650156 60.0658C0.650156 59.1558 0.720156 58.3708 0.860156 57.7108C1.01016 57.0408 1.25016 56.4908 1.58016 56.0608C1.92016 55.6208 2.36016 55.2958 2.90016 55.0858C3.45016 54.8658 4.12516 54.7558 4.92516 54.7558C5.33516 54.7558 5.76016 54.7808 6.20016 54.8308C6.65016 54.8708 7.07516 54.9258 7.47516 54.9958C7.88516 55.0658 8.22516 55.1358 8.49516 55.2058L8.46516 56.8258C8.18516 56.7758 7.84516 56.7308 7.44516 56.6908C7.05516 56.6508 6.65516 56.6208 6.24516 56.6008C5.83516 56.5708 5.46516 56.5558 5.13516 56.5558C4.63516 56.5558 4.22516 56.6208 3.90516 56.7508C3.59516 56.8808 3.35516 57.0908 3.18516 57.3808C3.02516 57.6608 2.91516 58.0258 2.85516 58.4758C2.79516 58.9158 2.76516 59.4458 2.76516 60.0658C2.76516 60.8558 2.82016 61.5158 2.93016 62.0458C3.05016 62.5658 3.27516 62.9508 3.60516 63.2008C3.94516 63.4508 4.43016 63.5758 5.06016 63.5758C5.22016 63.5758 5.39016 63.5708 5.57016 63.5608C5.76016 63.5508 5.94016 63.5358 6.11016 63.5158C6.29016 63.4958 6.44016 63.4758 6.56016 63.4558V61.2208H5.34516V59.6458H8.52516V64.9408C8.30516 64.9708 8.04016 65.0108 7.73016 65.0608C7.42016 65.1008 7.09516 65.1408 6.75516 65.1808C6.42516 65.2208 6.10016 65.2558 5.78016 65.2858C5.47016 65.3158 5.19516 65.3308 4.95516 65.3308ZM13.358 65.3458C12.508 65.3458 11.823 65.2058 11.303 64.9258C10.793 64.6458 10.423 64.2158 10.193 63.6358C9.96297 63.0458 9.84797 62.2858 9.84797 61.3558C9.84797 60.4558 9.96797 59.7258 10.208 59.1658C10.448 58.5958 10.828 58.1758 11.348 57.9058C11.868 57.6258 12.538 57.4858 13.358 57.4858C14.188 57.4858 14.858 57.6258 15.368 57.9058C15.888 58.1758 16.268 58.5958 16.508 59.1658C16.758 59.7258 16.883 60.4558 16.883 61.3558C16.883 62.2858 16.768 63.0458 16.538 63.6358C16.308 64.2158 15.933 64.6458 15.413 64.9258C14.903 65.2058 14.218 65.3458 13.358 65.3458ZM13.358 63.6958C13.778 63.6958 14.093 63.6208 14.303 63.4708C14.513 63.3108 14.653 63.0608 14.723 62.7208C14.803 62.3708 14.843 61.9158 14.843 61.3558C14.843 60.8058 14.798 60.3708 14.708 60.0508C14.618 59.7208 14.468 59.4858 14.258 59.3458C14.048 59.2058 13.748 59.1358 13.358 59.1358C12.978 59.1358 12.678 59.2058 12.458 59.3458C12.248 59.4858 12.098 59.7208 12.008 60.0508C11.918 60.3708 11.873 60.8058 11.873 61.3558C11.873 61.9158 11.908 62.3708 11.978 62.7208C12.058 63.0608 12.203 63.3108 12.413 63.4708C12.623 63.6208 12.938 63.6958 13.358 63.6958ZM18.3079 65.1808V54.5758H20.3029V65.1808H18.3079ZM24.5475 65.3458C24.1875 65.3458 23.8575 65.3008 23.5575 65.2108C23.2575 65.1308 22.9925 65.0008 22.7625 64.8208C22.5425 64.6308 22.3525 64.3858 22.1925 64.0858C22.0425 63.7858 21.9275 63.4208 21.8475 62.9908C21.7675 62.5508 21.7275 62.0408 21.7275 61.4608C21.7275 60.6008 21.8325 59.8758 22.0425 59.2858C22.2625 58.6958 22.6075 58.2508 23.0775 57.9508C23.5475 57.6408 24.1725 57.4858 24.9525 57.4858C25.1825 57.4858 25.4525 57.5058 25.7625 57.5458C26.0825 57.5758 26.3375 57.6058 26.5275 57.6358V54.5758H28.5375V65.1808H26.5575L26.5425 64.7458C26.4025 64.8258 26.2175 64.9158 25.9875 65.0158C25.7675 65.1058 25.5325 65.1808 25.2825 65.2408C25.0325 65.3108 24.7875 65.3458 24.5475 65.3458ZM25.0575 63.6658C25.2375 63.6658 25.4175 63.6458 25.5975 63.6058C25.7875 63.5658 25.9625 63.5208 26.1225 63.4708C26.2925 63.4108 26.4275 63.3558 26.5275 63.3058V59.2708C26.4375 59.2508 26.3175 59.2358 26.1675 59.2258C26.0175 59.2058 25.8625 59.1908 25.7025 59.1808C25.5425 59.1608 25.3975 59.1508 25.2675 59.1508C24.8775 59.1508 24.5725 59.2408 24.3525 59.4208C24.1425 59.6008 23.9925 59.8658 23.9025 60.2158C23.8125 60.5558 23.7675 60.9708 23.7675 61.4608C23.7675 61.8908 23.7975 62.2508 23.8575 62.5408C23.9175 62.8208 24.0025 63.0458 24.1125 63.2158C24.2325 63.3758 24.3725 63.4908 24.5325 63.5608C24.6925 63.6308 24.8675 63.6658 25.0575 63.6658ZM33.2313 65.3458C32.4013 65.3458 31.7413 65.2058 31.2513 64.9258C30.7713 64.6458 30.4263 64.2208 30.2163 63.6508C30.0063 63.0808 29.9013 62.3658 29.9013 61.5058C29.9013 60.5758 30.0313 59.8158 30.2913 59.2258C30.5613 58.6358 30.9513 58.2008 31.4613 57.9208C31.9713 57.6308 32.6013 57.4858 33.3513 57.4858C34.4613 57.4858 35.2963 57.7658 35.8563 58.3258C36.4263 58.8858 36.7113 59.7708 36.7113 60.9808L36.6213 62.0908H31.9113C31.9213 62.6508 32.0363 63.0708 32.2563 63.3508C32.4763 63.6308 32.8563 63.7708 33.3963 63.7708C33.7063 63.7708 34.0463 63.7658 34.4163 63.7558C34.7863 63.7358 35.1513 63.7158 35.5113 63.6958C35.8813 63.6758 36.1963 63.6558 36.4563 63.6358L36.5013 65.0308C36.2513 65.0708 35.9363 65.1158 35.5563 65.1658C35.1763 65.2158 34.7813 65.2558 34.3713 65.2858C33.9713 65.3258 33.5913 65.3458 33.2313 65.3458ZM31.9113 60.8158H34.7163C34.7163 60.1358 34.6063 59.6608 34.3863 59.3908C34.1763 59.1208 33.8313 58.9858 33.3513 58.9858C32.8813 58.9858 32.5213 59.1258 32.2713 59.4058C32.0313 59.6858 31.9113 60.1558 31.9113 60.8158ZM38.0379 65.1808V57.6508H40.0329V58.1308C40.1929 58.0308 40.3879 57.9358 40.6179 57.8458C40.8479 57.7458 41.0879 57.6608 41.3379 57.5908C41.5979 57.5208 41.8479 57.4858 42.0879 57.4858C42.7879 57.4858 43.3279 57.6108 43.7079 57.8608C44.0979 58.1008 44.3729 58.5008 44.5329 59.0608C44.6929 59.6108 44.7729 60.3508 44.7729 61.2808V65.1808H42.7629V61.3858C42.7629 60.8658 42.7329 60.4508 42.6729 60.1408C42.6129 59.8208 42.4979 59.5908 42.3279 59.4508C42.1579 59.3108 41.9079 59.2408 41.5779 59.2408C41.3979 59.2408 41.2079 59.2608 41.0079 59.3008C40.8179 59.3308 40.6329 59.3758 40.4529 59.4358C40.2829 59.4958 40.1429 59.5558 40.0329 59.6158V65.1808H38.0379ZM49.7155 65.1808V54.9358H53.6305C54.4305 54.9358 55.1005 55.0508 55.6405 55.2808C56.1905 55.5008 56.6305 55.8258 56.9605 56.2558C57.2905 56.6858 57.5255 57.2058 57.6655 57.8158C57.8155 58.4258 57.8905 59.1208 57.8905 59.9008C57.8905 60.6908 57.8205 61.4058 57.6805 62.0458C57.5505 62.6858 57.3255 63.2408 57.0055 63.7108C56.6855 64.1808 56.2555 64.5458 55.7155 64.8058C55.1755 65.0558 54.5005 65.1808 53.6905 65.1808H49.7155ZM51.7855 63.4408H53.5705C54.0405 63.4408 54.4205 63.3508 54.7105 63.1708C55.0005 62.9908 55.2205 62.7408 55.3705 62.4208C55.5305 62.0908 55.6355 61.7158 55.6855 61.2958C55.7455 60.8658 55.7755 60.4008 55.7755 59.9008C55.7755 59.4208 55.7455 58.9858 55.6855 58.5958C55.6255 58.1958 55.5155 57.8558 55.3555 57.5758C55.2055 57.2858 54.9855 57.0658 54.6955 56.9158C54.4155 56.7558 54.0405 56.6758 53.5705 56.6758H51.7855V63.4408ZM62.3671 65.3458C61.5371 65.3458 60.8771 65.2058 60.3871 64.9258C59.9071 64.6458 59.5621 64.2208 59.3521 63.6508C59.1421 63.0808 59.0371 62.3658 59.0371 61.5058C59.0371 60.5758 59.1671 59.8158 59.4271 59.2258C59.6971 58.6358 60.0871 58.2008 60.5971 57.9208C61.1071 57.6308 61.7371 57.4858 62.4871 57.4858C63.5971 57.4858 64.4321 57.7658 64.9921 58.3258C65.5621 58.8858 65.8471 59.7708 65.8471 60.9808L65.7571 62.0908H61.0471C61.0571 62.6508 61.1721 63.0708 61.3921 63.3508C61.6121 63.6308 61.9921 63.7708 62.5321 63.7708C62.8421 63.7708 63.1821 63.7658 63.5521 63.7558C63.9221 63.7358 64.2871 63.7158 64.6471 63.6958C65.0171 63.6758 65.3321 63.6558 65.5921 63.6358L65.6371 65.0308C65.3871 65.0708 65.0721 65.1158 64.6921 65.1658C64.3121 65.2158 63.9171 65.2558 63.5071 65.2858C63.1071 65.3258 62.7271 65.3458 62.3671 65.3458ZM61.0471 60.8158H63.8521C63.8521 60.1358 63.7421 59.6608 63.5221 59.3908C63.3121 59.1208 62.9671 58.9858 62.4871 58.9858C62.0171 58.9858 61.6571 59.1258 61.4071 59.4058C61.1671 59.6858 61.0471 60.1558 61.0471 60.8158ZM69.1386 65.3458C68.3586 65.3458 67.7686 65.1508 67.3686 64.7608C66.9786 64.3608 66.7836 63.7608 66.7836 62.9608C66.7836 62.4008 66.8836 61.9658 67.0836 61.6558C67.2836 61.3358 67.5786 61.1058 67.9686 60.9658C68.3686 60.8158 68.8536 60.7258 69.4236 60.6958L71.2536 60.5308V60.0808C71.2536 59.7208 71.1636 59.4708 70.9836 59.3308C70.8036 59.1808 70.5386 59.1058 70.1886 59.1058C69.9086 59.1058 69.5836 59.1158 69.2136 59.1358C68.8536 59.1558 68.4936 59.1808 68.1336 59.2108C67.7836 59.2408 67.4786 59.2708 67.2186 59.3008L67.1586 57.8908C67.4186 57.8308 67.7286 57.7708 68.0886 57.7108C68.4586 57.6408 68.8436 57.5858 69.2436 57.5458C69.6436 57.5058 70.0136 57.4858 70.3536 57.4858C70.9936 57.4858 71.5286 57.5658 71.9586 57.7258C72.3886 57.8858 72.7136 58.1508 72.9336 58.5208C73.1536 58.8808 73.2636 59.3708 73.2636 59.9908V63.4258C73.2836 63.5658 73.3586 63.6758 73.4886 63.7558C73.6186 63.8258 73.7686 63.8758 73.9386 63.9058L73.8936 65.2858C73.6536 65.2958 73.4186 65.3008 73.1886 65.3008C72.9586 65.3008 72.7636 65.2858 72.6036 65.2558C72.3736 65.2258 72.1736 65.1658 72.0036 65.0758C71.8436 64.9858 71.7136 64.8908 71.6136 64.7908C71.4536 64.8608 71.2386 64.9408 70.9686 65.0308C70.6986 65.1208 70.4036 65.1958 70.0836 65.2558C69.7736 65.3158 69.4586 65.3458 69.1386 65.3458ZM69.6186 63.8608C69.8086 63.8608 70.0086 63.8408 70.2186 63.8008C70.4286 63.7608 70.6236 63.7158 70.8036 63.6658C70.9936 63.6058 71.1436 63.5508 71.2536 63.5008V61.7758L69.7236 61.9108C69.3936 61.9408 69.1536 62.0408 69.0036 62.2108C68.8636 62.3708 68.7936 62.6008 68.7936 62.9008C68.7936 63.2008 68.8586 63.4358 68.9886 63.6058C69.1286 63.7758 69.3386 63.8608 69.6186 63.8608ZM75.0852 65.1808V54.5758H77.0802V65.1808H75.0852Z" fill="white"/>
</svg>
