<svg width="97" height="128" viewBox="0 0 97 128" fill="none" xmlns="http://www.w3.org/2000/svg">
<path d="M7.4825 19.795V31.4314C7.475 34.0235 7.98181 36.5916 8.97402 38.9893C9.96622 41.3869 11.4244 43.567 13.2652 45.4051C15.1061 47.2433 17.2936 48.7034 19.7029 49.7022C22.1121 50.7011 24.696 51.219 27.3069 51.2264H75.9432C77.4657 51.2221 78.9724 50.9201 80.3774 50.3376C81.7823 49.7552 83.0579 48.9038 84.1314 47.8319C85.2049 46.76 86.0552 45.4887 86.6339 44.0906C87.2125 42.6924 87.508 41.1948 87.5037 39.6833H33.1801C30.6256 39.6758 28.1786 38.6612 26.3774 36.8627C24.5763 35.0642 23.5684 32.6291 23.5755 30.093V21.1627C23.5718 19.9062 23.8175 18.6614 24.2986 17.4992C24.7797 16.3371 25.4868 15.2805 26.3795 14.3898C27.2722 13.4992 28.3329 12.7919 29.5011 12.3085C30.6692 11.825 31.9219 11.5749 33.1875 11.5724C44.6329 11.5824 63.7298 11.5605 75.9625 11.5431C79.0341 11.5298 81.9749 10.3067 84.1388 8.14237C86.3027 5.97806 87.513 3.04954 87.5037 0H27.3069C24.696 0.00743298 22.1121 0.525345 19.7029 1.52416C17.2936 2.52298 15.1061 3.98313 13.2652 5.82127C11.4244 7.65941 9.96622 9.83953 8.97402 12.2372C7.98181 14.6348 7.475 17.2029 7.4825 19.795Z" fill="#FA9C44"/>
<path d="M52.2285 20.8436H78.6932C81.3553 20.8436 83.9083 21.8935 85.7907 23.7624C87.6731 25.6312 88.7306 28.1659 88.7306 30.8088H62.2659C59.6038 30.8088 57.0508 29.7589 55.1684 27.8901C53.286 26.0212 52.2285 23.4866 52.2285 20.8436Z" fill="#F5F5F5"/>
<path d="M6.06401 85.5331C1.97538 85.5331 0.944011 83.2494 0.944011 79.0503C0.944011 74.4828 2.27005 72.5674 5.97193 72.5674C7.39005 72.5674 9.28703 72.8621 10.3368 73.0831L10.2631 75.0537C9.30545 74.9432 7.59265 74.8143 6.37711 74.8143C4.20387 74.8143 3.55926 75.5326 3.55926 79.0503C3.55926 82.3838 4.0197 83.3231 6.30344 83.3231C6.85595 83.3231 7.50056 83.2862 7.83207 83.2494V80.8183H6.6902V78.6082H10.3368V85.1095C9.21336 85.2937 7.26113 85.5331 6.06401 85.5331ZM16.2732 85.5331C13.0686 85.5331 12.0372 83.5257 12.0372 80.6894C12.0372 77.8531 13.0686 75.8825 16.2732 75.8825C19.4778 75.8825 20.5092 77.8531 20.5092 80.6894C20.5092 83.5257 19.4778 85.5331 16.2732 85.5331ZM16.2732 83.4336C17.6361 83.4336 18.0044 82.4759 18.0044 80.6894C18.0044 78.9029 17.6361 77.9821 16.2732 77.9821C14.9103 77.9821 14.542 78.9029 14.542 80.6894C14.542 82.4759 14.9103 83.4336 16.2732 83.4336ZM22.4288 85.3121V72.42H24.8967V85.3121H22.4288ZM30.4316 85.5331C27.6506 85.5331 26.8403 83.9124 26.8403 80.671C26.8403 77.3006 28.1479 75.8825 30.6526 75.8825C31.1499 75.8825 32.0708 76.0298 32.6417 76.1403V72.42H35.1096V85.3121H32.6601V84.9254C32.1076 85.1832 31.1131 85.5331 30.4316 85.5331ZM30.8552 83.3231C31.4814 83.3231 32.2549 83.1573 32.6417 83.0468V78.2031C32.1997 78.1294 31.4078 78.0189 30.8368 78.0189C29.916 78.0189 29.345 78.8108 29.345 80.671C29.345 82.5495 29.6949 83.3231 30.8552 83.3231ZM40.8895 85.5331C38.1085 85.5331 36.9298 84.1518 36.9298 80.8367C36.9298 77.5585 38.3111 75.8825 41 75.8825C43.7073 75.8825 45.0149 77.2638 45.0149 80.0448L44.8308 81.7576H39.4161C39.4345 82.8626 39.9502 83.3599 41.2762 83.3599C42.3813 83.3599 43.8731 83.2678 44.6834 83.1941L44.7203 85.0175C43.8178 85.2385 42.1419 85.5331 40.8895 85.5331ZM39.3977 79.879H42.5839C42.5839 78.3872 42.1603 77.9084 41 77.9084C39.8213 77.9084 39.4161 78.4793 39.3977 79.879ZM46.7787 85.3121V76.1035H49.2282V76.6192C49.7623 76.3061 50.7568 75.8825 51.5303 75.8825C54.1088 75.8825 54.7718 77.5032 54.7718 80.3211V85.3121H52.3039V80.3947C52.3039 78.995 52.1197 78.0926 50.9226 78.0926C50.2964 78.0926 49.5965 78.2767 49.2466 78.4241V85.3121H46.7787ZM61.2263 85.3121V72.7884H65.4439C69.8088 72.7884 70.7665 74.6485 70.7665 78.8108C70.7665 83.0836 69.9377 85.3121 65.4439 85.3121H61.2263ZM63.7679 83.1021H65.4439C67.9118 83.1021 68.1512 81.5918 68.1512 78.8108C68.1512 76.0667 67.9118 74.9985 65.4439 74.9985H63.7679V83.1021ZM76.2492 85.5331C73.4682 85.5331 72.2895 84.1518 72.2895 80.8367C72.2895 77.5585 73.6708 75.8825 76.3597 75.8825C79.067 75.8825 80.3747 77.2638 80.3747 80.0448L80.1905 81.7576H74.7758C74.7942 82.8626 75.3099 83.3599 76.636 83.3599C77.741 83.3599 79.2328 83.2678 80.0431 83.1941L80.08 85.0175C79.1775 85.2385 77.5016 85.5331 76.2492 85.5331ZM74.7574 79.879H77.9436C77.9436 78.3872 77.52 77.9084 76.3597 77.9084C75.181 77.9084 74.7758 78.4793 74.7574 79.879ZM84.3853 85.5331C82.4515 85.5331 81.5306 84.4649 81.5306 82.5127C81.5306 80.4316 82.7278 79.8422 84.7537 79.6949L86.7243 79.5475V78.9766C86.7243 78.1847 86.3744 77.9821 85.6377 77.9821C84.7537 77.9821 83.1329 78.0741 82.1752 78.1294L82.1016 76.4166C82.9488 76.1956 84.5511 75.8825 85.8403 75.8825C88.2345 75.8825 89.1922 76.8218 89.1922 78.9766V82.8074C89.2291 83.3599 89.3027 83.5809 89.8 83.673L89.7263 85.5331C89.0449 85.5331 88.566 85.4963 88.124 85.3674C87.7557 85.2753 87.4426 85.128 87.0927 84.8885C86.5217 85.1648 85.3983 85.5331 84.3853 85.5331ZM84.9194 83.5257C85.4903 83.5257 86.2823 83.3599 86.7243 83.231V81.2603L85.0483 81.4077C84.4037 81.4629 84.017 81.776 84.017 82.439C84.017 83.0836 84.2564 83.5257 84.9194 83.5257ZM91.6554 85.3121V72.42H94.1233V85.3121H91.6554Z" fill="white"/>
<path d="M16.8188 115.042C17.1135 115.042 17.1872 115.465 17.1872 116.147C17.1872 116.828 17.1135 117.252 16.8188 117.252H14.6272V117.344C14.6272 120.015 12.4171 121.819 9.23091 121.819C6.00789 121.819 3.61364 119.886 3.61364 117.234C3.61364 116.239 3.96357 113.826 4.27667 111.856L6.70774 112.206C6.30256 114.766 6.08156 116.571 6.08156 117.234C6.08156 118.615 7.2971 119.609 9.23091 119.609C11.1463 119.609 12.1593 118.744 12.1593 117.344V104.36H14.6272V115.042H16.8188ZM21.4754 108.043V117.252H16.8158C16.5211 117.252 16.4475 116.828 16.4475 116.147C16.4475 115.465 16.5211 115.042 16.8158 115.042H19.0075V108.043H21.4754ZM17.1841 120.862V118.357H19.6521V120.862H17.1841ZM20.8123 118.357H23.2803V120.862H20.8123V118.357ZM25.9552 108.043C28.902 108.043 30.6332 109.277 30.6332 112.979V117.252H23.5057V115.042H28.1653V112.979C28.1653 110.714 27.7049 110.253 25.9552 110.253H24.4634V108.043H25.9552ZM40.6023 108.043V105.539H43.0702V108.043H40.6023ZM41.9467 121.819C38.7237 121.819 36.3295 119.886 36.3295 117.234C36.3295 116.239 36.6794 113.826 36.9925 111.856L39.4236 112.206C39.0184 114.766 38.7974 116.571 38.7974 117.234C38.7974 118.615 40.0129 119.609 41.9467 119.609C43.8621 119.609 44.8751 118.744 44.8751 117.344V108.043H47.343V117.344C47.343 120.015 45.1329 121.819 41.9467 121.819ZM58.6882 115.042C58.9829 115.042 59.0565 115.465 59.0565 116.147C59.0565 116.828 58.9829 117.252 58.6882 117.252H49.369V115.042H54.0286V112.979C54.0286 110.714 53.5682 110.253 51.8185 110.253H50.3267V108.043H51.8185C54.7653 108.043 56.4965 109.277 56.4965 112.979V115.042H58.6882ZM63.2906 115.042C63.5853 115.042 63.659 115.465 63.659 116.147C63.659 116.828 63.5853 117.252 63.2906 117.252H58.6863C58.3916 117.252 58.318 116.828 58.318 116.147C58.318 115.465 58.3916 115.042 58.6863 115.042H63.2906ZM66.0348 104.36H68.5027V117.252H63.2906C62.9959 117.252 62.9223 116.828 62.9223 116.147C62.9223 115.465 62.9959 115.042 63.2906 115.042H66.0348V104.36ZM81.2758 115.042C81.5705 115.042 81.6442 115.465 81.6442 116.147C81.6442 116.828 81.5705 117.252 81.2758 117.252H79.0842V117.362C79.0842 120.033 77.6844 121.783 74.885 121.783C74.001 121.783 72.8591 121.617 71.8646 121.396L72.3987 119.241C73.3932 119.462 74.2404 119.573 74.885 119.573C76.1006 119.573 76.6162 119.02 76.6162 117.362V117.252H74.6272C71.4042 117.252 70.5201 115.815 70.5201 112.648C70.5201 109.48 71.4042 108.043 74.6272 108.043H79.0842V115.042H81.2758ZM74.6272 115.042H76.6162V110.253H74.6272C73.1722 110.253 72.988 110.345 72.988 112.648C72.988 114.95 73.1722 115.042 74.6272 115.042ZM87.1145 104.194V106.699H84.6466V104.194H87.1145ZM90.7427 104.194V106.699H88.2748V104.194H90.7427ZM87.0777 108.043H91.5347V117.252H81.2762C80.9816 117.252 80.9079 116.828 80.9079 116.147C80.9079 115.465 80.9816 115.042 81.2762 115.042H83.2469C83.0443 114.397 82.9706 113.605 82.9706 112.648C82.9706 109.48 83.8547 108.043 87.0777 108.043ZM85.4385 112.648C85.4385 114.95 85.6227 115.042 87.0777 115.042H89.0667V110.253H87.0777C85.6227 110.253 85.4385 110.345 85.4385 112.648Z" fill="white"/>
</svg>
