<svg width="252" height="264" viewBox="0 0 252 264" fill="none" xmlns="http://www.w3.org/2000/svg">
<g style="mix-blend-mode:multiply">
<path d="M12 0.981689L240 65.7601V80.4761L12 12.1734V0.981689Z" fill="#EDEEF0"/>
</g>
<path d="M13.211 12.2174L244.775 81.7667C246.867 82.3942 248.697 83.6631 249.998 85.3867C251.299 87.1104 252 89.1976 252 91.3413V241.15C252 247.211 249.543 253.023 245.17 257.308C240.797 261.593 234.867 264 228.684 264H23.3221C20.2596 264.001 17.2269 263.411 14.3973 262.263C11.5676 261.115 8.99647 259.432 6.83069 257.31C4.66491 255.188 2.94695 252.668 1.77493 249.895C0.6029 247.122 -0.000230914 244.15 1.32077e-05 241.149V21.8049C-0.0025582 20.2375 0.370375 18.6915 1.08878 17.2912C1.80719 15.891 2.85102 14.6756 4.13622 13.7429C5.42143 12.8102 6.91212 12.1863 8.4883 11.9213C10.0645 11.6564 11.6821 11.7578 13.211 12.2174Z" fill="url(#paint0_linear_4476_12467)"/>
<g style="mix-blend-mode:multiply">
<path d="M0 90.2899L240 14.7829V0L0 72.7806V90.2899Z" fill="#EDEEF0"/>
</g>
<path d="M238.787 12.218L7.22304 81.7686C5.13187 82.3965 3.30151 83.6656 2.00127 85.3892C0.701017 87.1128 -0.000488198 89.1999 2.54907e-07 91.3434V241.155C0.000731848 244.156 0.604575 247.128 1.77704 249.9C2.9495 252.672 4.66763 255.191 6.83331 257.312C8.99899 259.433 11.5698 261.116 14.399 262.264C17.2281 263.411 20.2602 264.001 23.3221 264H228.683C234.866 264 240.796 261.593 245.169 257.309C249.541 253.025 251.998 247.213 252 241.154V21.8056C252.003 20.2381 251.63 18.6918 250.911 17.2913C250.193 15.8908 249.149 14.6753 247.863 13.7425C246.578 12.8098 245.087 12.1859 243.51 11.9211C241.934 11.6563 240.316 11.758 238.787 12.218Z" fill="url(#paint1_linear_4476_12467)"/>
<defs>
<linearGradient id="paint0_linear_4476_12467" x1="11.3407" y1="-22913.3" x2="211.906" y2="-23177.2" gradientUnits="userSpaceOnUse">
<stop stop-color="#FFBA51"/>
<stop offset="0.462" stop-color="#FFFCBD"/>
<stop offset="0.661" stop-color="#E7C178"/>
<stop offset="1" stop-color="#B78B45"/>
</linearGradient>
<linearGradient id="paint1_linear_4476_12467" x1="1072.76" y1="267.531" x2="1242.55" y2="43.9543" gradientUnits="userSpaceOnUse">
<stop stop-color="#FFB340"/>
<stop offset="0.425" stop-color="#FFFCBD"/>
<stop offset="0.706" stop-color="#E7C178"/>
<stop offset="1" stop-color="#B78B45"/>
</linearGradient>
</defs>
</svg>
