<svg width="162" height="48" viewBox="0 0 162 48" fill="none" xmlns="http://www.w3.org/2000/svg">
<path fill-rule="evenodd" clip-rule="evenodd" d="M155.998 48H6.00221C2.69414 48 0 45.2948 0 42V6C0 2.69327 2.69414 0 6.00221 0H155.998C159.303 0 162 2.69327 162 6V42C162 45.2948 159.303 48 155.998 48Z" fill="black"/>
<path fill-rule="evenodd" clip-rule="evenodd" d="M155.998 0.960598C158.772 0.960598 161.043 3.22594 161.043 6V42C161.043 44.7741 158.787 47.0394 155.998 47.0394H6.00221C3.2276 47.0394 0.956658 44.7741 0.956658 42V6C0.956658 3.22594 3.2127 0.960598 6.00221 0.960598H155.998ZM155.998 0H6.00221C2.69414 0 0 2.70524 0 6V42C0 45.3067 2.69414 48 6.00221 48H155.998C159.303 48 162 45.3067 162 42V6C162 2.70524 159.303 0 155.998 0Z" fill="#A6A6A6"/>
<path d="M85.3426 15.8781C84.2608 15.8781 83.3488 15.4981 82.6276 14.75C81.9123 14.0228 81.513 13.0203 81.5309 11.9968C81.5309 10.9046 81.9004 9.97988 82.6276 9.24671C83.3458 8.49858 84.2578 8.11853 85.3396 8.11853C86.4095 8.11853 87.3215 8.49858 88.0546 9.24671C88.7818 10.0038 89.1513 10.9285 89.1513 11.9968C89.1394 13.0921 88.7698 14.0168 88.0546 14.747C87.3364 15.5011 86.4244 15.8781 85.3426 15.8781ZM53.1532 15.8781C52.0952 15.8781 51.1773 15.5041 50.4263 14.7649C49.6812 14.0288 49.3027 13.0981 49.3027 11.9998C49.3027 10.9016 49.6812 9.9709 50.4263 9.23474C51.1624 8.49559 52.0803 8.12152 53.1532 8.12152C53.6777 8.12152 54.1873 8.22626 54.6761 8.43873C55.1559 8.64521 55.5463 8.92651 55.8354 9.27065L55.9069 9.35743L55.0993 10.1534L55.0158 10.0547C54.5598 9.51005 53.9489 9.24372 53.1413 9.24372C52.42 9.24372 51.7912 9.50107 51.2727 10.0098C50.7511 10.5215 50.4859 11.1918 50.4859 12.0028C50.4859 12.8138 50.7511 13.4841 51.2727 13.9958C51.7912 14.5046 52.42 14.7619 53.1413 14.7619C53.9102 14.7619 54.5569 14.5046 55.0605 13.9958C55.3585 13.6966 55.5433 13.2776 55.6089 12.748H53.0191V11.6288H56.7205L56.7354 11.7305C56.7622 11.919 56.7891 12.1135 56.7891 12.2931C56.7891 13.3255 56.4791 14.1604 55.8652 14.7769C55.1678 15.5071 54.2559 15.8781 53.1532 15.8781ZM95.9522 15.7195H94.8108L91.315 10.1026L91.3448 11.114V15.7165H90.2033V8.28013H91.5057L91.5415 8.33698L94.8286 13.6278L94.7988 12.6193V8.28013H95.9522V15.7195ZM76.7655 15.7195H75.6092V9.39933H73.6035V8.28013H78.7682V9.39933H76.7625V15.7195H76.7655ZM72.6617 15.7195H71.5084V8.28013H72.6617V15.7195ZM66.1797 15.7195H65.0264V9.39933H63.0207V8.28013H68.1854V9.39933H66.1797V15.7195ZM62.2906 15.7076H57.8679V8.28013H62.2906V9.39933H59.0242V11.4402H61.9717V12.5475H59.0242V14.5884H62.2906V15.7076ZM83.474 13.9809C83.9896 14.4986 84.6154 14.7589 85.3426 14.7589C86.0906 14.7589 86.7016 14.5046 87.2112 13.9809C87.7178 13.4721 87.9741 12.8048 87.9741 11.9998C87.9741 11.1948 87.7178 10.5245 87.2142 10.0188C86.6986 9.50107 86.0698 9.24072 85.3456 9.24072C84.5975 9.24072 83.9866 9.49509 83.4799 10.0188C82.9733 10.5275 82.717 11.1948 82.717 11.9998C82.717 12.8048 82.9703 13.4751 83.474 13.9809Z" fill="white"/>
<path fill-rule="evenodd" clip-rule="evenodd" d="M81.4238 26.1068C78.6074 26.1068 76.3246 28.2524 76.3246 31.212C76.3246 34.1447 78.6223 36.3173 81.4238 36.3173C84.2401 36.3173 86.523 34.1567 86.523 31.212C86.523 28.2524 84.2401 26.1068 81.4238 26.1068ZM81.4238 34.2943C79.883 34.2943 78.5568 33.0135 78.5568 31.2001C78.5568 29.3597 79.886 28.1058 81.4238 28.1058C82.9646 28.1058 84.2908 29.3597 84.2908 31.2001C84.2937 33.0255 82.9646 34.2943 81.4238 34.2943ZM70.2985 26.1068C67.4822 26.1068 65.1993 28.2524 65.1993 31.212C65.1993 34.1447 67.4971 36.3173 70.2985 36.3173C73.1148 36.3173 75.3977 34.1567 75.3977 31.212C75.3977 28.2524 73.1119 26.1068 70.2985 26.1068ZM70.2985 34.2943C68.7577 34.2943 67.4315 33.0135 67.4315 31.2001C67.4315 29.3597 68.7607 28.1058 70.2985 28.1058C71.8393 28.1058 73.1655 29.3597 73.1655 31.2001C73.1655 33.0255 71.8393 34.2943 70.2985 34.2943ZM57.0603 27.6659V29.8265H62.225C62.0671 31.0385 61.6677 31.9332 61.0568 32.5467C60.2998 33.3068 59.1315 34.1327 57.0722 34.1327C53.8982 34.1327 51.4157 31.5592 51.4157 28.3721C51.4157 25.1851 53.8982 22.6115 57.0722 22.6115C58.7858 22.6115 60.0345 23.2908 60.9614 24.1587L62.4873 22.6265C61.1998 21.3876 59.4862 20.439 57.0841 20.439C52.73 20.439 49.0762 24.0001 49.0762 28.3602C49.0762 32.7322 52.727 36.2814 57.0841 36.2814C59.4355 36.2814 61.1998 35.5093 62.5946 34.0549C64.0161 32.6275 64.4662 30.6135 64.4662 28.9886C64.4662 28.4829 64.4274 28.028 64.347 27.642H57.0573C57.0603 27.639 57.0603 27.6659 57.0603 27.6659ZM111.208 29.3477C110.782 28.2016 109.495 26.0948 106.854 26.0948C104.238 26.0948 102.062 28.1627 102.062 31.2001C102.062 34.0669 104.214 36.3053 107.108 36.3053C109.432 36.3053 110.785 34.8779 111.342 34.04L109.617 32.8789C109.045 33.7317 108.249 34.2913 107.119 34.2913C105.978 34.2913 105.179 33.7706 104.649 32.7442L111.447 29.9163C111.447 29.9193 111.208 29.3477 111.208 29.3477ZM104.276 31.0534C104.223 29.0814 105.802 28.0789 106.932 28.0789C107.823 28.0789 108.565 28.5188 108.818 29.1592L104.276 31.0534ZM98.7539 36.0001H100.986V21.0016H98.7539V36.0001ZM95.0882 27.241H95.0077C94.5041 26.6395 93.5474 26.0948 92.3255 26.0948C89.7893 26.0948 87.4528 28.3362 87.4528 31.215C87.4528 34.0819 89.7774 36.2963 92.3255 36.2963C93.5325 36.2963 94.5041 35.7487 95.0077 35.1352H95.0882V35.8684C95.0882 37.8165 94.0511 38.8669 92.3791 38.8669C91.0112 38.8669 90.1618 37.8794 89.8161 37.0534L87.876 37.8674C88.4333 39.214 89.9204 40.8809 92.3762 40.8809C94.9928 40.8809 97.2101 39.3337 97.2101 35.5602V26.4001H95.1001V27.241C95.1031 27.241 95.0882 27.241 95.0882 27.241ZM92.5252 34.2943C90.9844 34.2943 89.6969 33.0016 89.6969 31.215C89.6969 29.4135 90.9844 28.1088 92.5252 28.1088C94.0511 28.1088 95.2342 29.4285 95.2342 31.215C95.2491 33.0016 94.054 34.2943 92.5252 34.2943ZM121.66 21.0016H116.322V36.0001H118.555V30.3203H121.663C124.134 30.3203 126.563 28.5218 126.563 25.6669C126.563 22.812 124.143 21.0016 121.66 21.0016ZM121.726 28.2255H118.552V23.0784H121.726C123.398 23.0784 124.342 24.4639 124.342 25.6519C124.342 26.828 123.386 28.2255 121.726 28.2255ZM135.509 26.0799C133.888 26.0799 132.216 26.8011 131.525 28.3721L133.504 29.1981C133.93 28.3721 134.711 28.0908 135.536 28.0908C136.692 28.0908 137.861 28.7851 137.888 30.024V30.1826C137.488 29.9552 136.612 29.608 135.563 29.608C133.426 29.608 131.259 30.7811 131.259 32.9806C131.259 34.9946 133.012 36.2873 134.964 36.2873C136.463 36.2873 137.288 35.608 137.804 34.821H137.885V35.9821H140.036V30.2365C140.036 27.5612 138.057 26.0799 135.509 26.0799ZM135.229 34.2943C134.499 34.2943 133.477 33.9352 133.477 33.0135C133.477 31.8524 134.752 31.4125 135.84 31.4125C136.824 31.4125 137.288 31.625 137.873 31.9183C137.712 33.2649 136.579 34.2824 135.229 34.2943ZM147.886 26.4001L145.323 32.9058H145.243L142.587 26.4001H140.185L144.17 35.4943L141.899 40.5487H144.223L150.354 26.4001H147.886ZM127.793 36.0001H130.026V21.0016H127.793V36.0001Z" fill="white"/>
<path fill-rule="evenodd" clip-rule="evenodd" d="M12.4692 9.04039C12.1235 9.41446 11.9238 9.98603 11.9238 10.7342V37.2688C11.9238 38.017 12.1235 38.5885 12.4811 38.9476L12.5735 39.0284L27.3794 24.1616V23.8294L12.5616 8.95959L12.4692 9.04039Z" fill="url(#paint0_linear_2403_3812)"/>
<path fill-rule="evenodd" clip-rule="evenodd" d="M32.3055 29.1323L27.3672 24.1737V23.8265L32.3055 18.8679L32.4128 18.9338L38.2541 22.2674C39.926 23.2131 39.926 24.7752 38.2541 25.7328L32.4128 29.0664L32.3055 29.1323Z" fill="url(#paint1_linear_2403_3812)"/>
<path fill-rule="evenodd" clip-rule="evenodd" d="M32.4125 29.0663L27.367 24L12.4688 38.9596C13.0141 39.5461 13.9291 39.612 14.9513 39.0404L32.4125 29.0663Z" fill="url(#paint2_linear_2403_3812)"/>
<path fill-rule="evenodd" clip-rule="evenodd" d="M32.4125 18.9336L14.9513 8.97446C13.9291 8.38792 13.0112 8.46872 12.4688 9.05526L27.367 23.9999L32.4125 18.9336Z" fill="url(#paint3_linear_2403_3812)"/>
<path opacity="0.2" fill-rule="evenodd" clip-rule="evenodd" d="M32.3051 28.9586L14.963 38.8519C13.9944 39.4115 13.1302 39.3725 12.5729 38.8638L12.4805 38.9566L12.5729 39.0374C13.1302 39.5431 13.9944 39.585 14.963 39.0254L32.4244 29.0663L32.3051 28.9586Z" fill="black"/>
<path opacity="0.12" fill-rule="evenodd" clip-rule="evenodd" d="M38.2545 25.5591L32.291 28.9586L32.3983 29.0663L38.2396 25.7327C39.077 25.2539 39.4883 24.6254 39.4883 24C39.4376 24.5746 39.0115 25.1192 38.2545 25.5591Z" fill="black"/>
<path opacity="0.25" fill-rule="evenodd" clip-rule="evenodd" d="M14.9518 9.14812L38.2543 22.4409C39.0112 22.8688 39.4374 23.4284 39.503 24C39.503 23.3746 39.0917 22.7461 38.2543 22.2673L14.9518 8.97456C13.2798 8.01396 11.9238 8.81595 11.9238 10.7342V10.9077C11.9238 8.98653 13.2798 8.1995 14.9518 9.14812Z" fill="white"/>
<defs>
<linearGradient id="paint0_linear_2403_3812" x1="26.0513" y1="10.4479" x2="2.32202" y2="16.7446" gradientUnits="userSpaceOnUse">
<stop stop-color="#00A0FF"/>
<stop offset="0.00657" stop-color="#00A1FF"/>
<stop offset="0.2601" stop-color="#00BEFF"/>
<stop offset="0.5122" stop-color="#00D2FF"/>
<stop offset="0.7604" stop-color="#00DFFF"/>
<stop offset="1" stop-color="#00E3FF"/>
</linearGradient>
<linearGradient id="paint1_linear_2403_3812" x1="40.4344" y1="24.0001" x2="11.5171" y2="24.0001" gradientUnits="userSpaceOnUse">
<stop stop-color="#FFE000"/>
<stop offset="0.4087" stop-color="#FFBD00"/>
<stop offset="0.7754" stop-color="#FFA500"/>
<stop offset="1" stop-color="#FF9C00"/>
</linearGradient>
<linearGradient id="paint2_linear_2403_3812" x1="29.669" y1="26.7568" x2="10.5136" y2="58.8646" gradientUnits="userSpaceOnUse">
<stop stop-color="#FF3A44"/>
<stop offset="1" stop-color="#C31162"/>
</linearGradient>
<linearGradient id="paint3_linear_2403_3812" x1="8.71721" y1="0.214444" x2="17.2632" y2="14.5543" gradientUnits="userSpaceOnUse">
<stop stop-color="#32A071"/>
<stop offset="0.0685" stop-color="#2DA771"/>
<stop offset="0.4762" stop-color="#15CF74"/>
<stop offset="0.8009" stop-color="#06E775"/>
<stop offset="1" stop-color="#00F076"/>
</linearGradient>
</defs>
</svg>
