<svg width="40" height="40" viewBox="0 0 40 40" fill="none" xmlns="http://www.w3.org/2000/svg">
<circle cx="20" cy="20" r="20" fill="white"/>
<path d="M32.5005 20.3001C32.5005 19.4223 32.4235 18.5889 32.2915 17.7778H19.8643V22.7889H26.9797C26.6608 24.4334 25.726 25.8223 24.3403 26.7667V30.1001H28.5853C31.0708 27.7778 32.5005 24.3556 32.5005 20.3001Z" fill="#4285F4"/>
<path d="M19.8644 33.3333C23.4276 33.3333 26.4079 32.1333 28.5854 30.1L24.3404 26.7667C23.1526 27.5667 21.646 28.0555 19.8644 28.0555C16.4221 28.0555 13.5077 25.7111 12.463 22.5444H8.08594V25.9778C10.2525 30.3333 14.7065 33.3333 19.8644 33.3333Z" fill="#34A853"/>
<path d="M12.4627 22.5442C12.1878 21.7442 12.0448 20.8886 12.0448 19.9998C12.0448 19.1109 12.1988 18.2553 12.4627 17.4553V14.022H8.08568C7.18388 15.822 6.66699 17.8442 6.66699 19.9998C6.66699 22.1553 7.18388 24.1775 8.08568 25.9775L12.4627 22.5442Z" fill="#FBBC05"/>
<path d="M19.8644 11.9443C21.8109 11.9443 23.5485 12.6221 24.9232 13.9443L28.6844 10.1443C26.4079 7.98873 23.4276 6.6665 19.8644 6.6665C14.7065 6.6665 10.2525 9.6665 8.08594 14.0221L12.463 17.4554C13.5077 14.2887 16.4221 11.9443 19.8644 11.9443Z" fill="#EA4335"/>
</svg>
