<svg xmlns="http://www.w3.org/2000/svg" width="18.022" height="18" viewBox="0 0 18.022 18">
  <g id="Group_4878" data-name="Group 4878" transform="translate(-278.989 -242)">
    <path id="Path_32039" data-name="Path 32039" d="M-5819,243.873l8.146,4.549-8.146,4.656-8.15-4.871Z" transform="translate(6107 -1)" fill="#fff"/>
    <g id="Group_4837" data-name="Group 4837" transform="translate(2271.718 54.509)">
      <path id="Path_32036" data-name="Path 32036" d="M-1983.809,683.919a2.942,2.942,0,0,1-.7-.357q-3.951-2.265-7.9-4.534a.57.57,0,0,1-.317-.583.56.56,0,0,1,.429-.474.588.588,0,0,1,.441.076q1.078.621,2.158,1.239,2.93,1.682,5.859,3.367a.156.156,0,0,0,.181,0q3.716-2.121,7.434-4.239l.638-.363a.563.563,0,0,1,.8.186.564.564,0,0,1-.241.791l-6.2,3.533c-.683.389-1.365.781-2.051,1.167-.134.076-.282.129-.423.192Z" transform="translate(0 -478.428)" fill="#11014d"/>
      <path id="Path_32037" data-name="Path 32037" d="M-1983.421,198.212a1.887,1.887,0,0,1-.27-.1q-2.578-1.466-5.154-2.938l-3.238-1.848a.528.528,0,0,1-.286-.6.5.5,0,0,1,.269-.363q.8-.456,1.6-.915,3.378-1.926,6.755-3.855a.613.613,0,0,1,.671,0q3.393,1.938,6.791,3.867.806.459,1.612.918a.508.508,0,0,1,.265.573.539.539,0,0,1-.295.366q-1.039.588-2.076,1.18l-6.289,3.579A.856.856,0,0,1-1983.421,198.212Zm-7.241-5.378.13.077q3.518,2.006,7.035,4.013a.157.157,0,0,0,.181,0q3.51-2,7.022-4c.05-.028.1-.058.155-.092l-.089-.052q-3.551-2.022-7.1-4.045a.136.136,0,0,0-.157,0q-2.619,1.5-5.24,2.99Z" transform="translate(-0.341 0)" fill="#11014d"/>
      <path id="Path_32038" data-name="Path 32038" d="M-1992.129,530.119a2.354,2.354,0,0,1,.323.126q2.216,1.267,4.429,2.54,1.8,1.031,3.59,2.064a.141.141,0,0,0,.164-.008l8.034-4.578a.628.628,0,0,1,.48-.1.538.538,0,0,1,.43.46.527.527,0,0,1-.246.554c-.125.083-.259.152-.389.226q-4.025,2.294-8.048,4.59a.645.645,0,0,1-.7,0q-4.154-2.391-8.312-4.775a.56.56,0,0,1-.07-.969A1.708,1.708,0,0,1-1992.129,530.119Z" transform="translate(-0.036 -334.219)" fill="#11014d"/>
    </g>
  </g>
</svg>
