<svg xmlns="http://www.w3.org/2000/svg" xmlns:xlink="http://www.w3.org/1999/xlink" width="256" height="95" viewBox="0 0 256 95">
  <defs>
    <filter id="Ellipse_329" x="109" y="58" width="38" height="37" filterUnits="userSpaceOnUse">
      <feOffset input="SourceAlpha"/>
      <feGaussianBlur stdDeviation="3" result="blur"/>
      <feFlood flood-opacity="0.161"/>
      <feComposite operator="in" in2="blur"/>
      <feComposite in="SourceGraphic"/>
    </filter>
  </defs>
  <g id="Group_4874" data-name="Group 4874" transform="translate(0 0.387)">
    <g id="Group_4871" data-name="Group 4871" transform="translate(0 -0.387)">
      <g id="Rectangle_2003" data-name="Rectangle 2003" fill="none" stroke="#000" stroke-width="2">
        <rect width="256" height="79" rx="11" stroke="none"/>
        <rect x="1" y="1" width="254" height="77" rx="10" fill="none"/>
      </g>
      <line id="Line_165" data-name="Line 165" y2="77.244" transform="translate(236.855 0.418)" fill="none" stroke="#000" stroke-width="2"/>
      <g id="Group_4769" data-name="Group 4769" transform="translate(102.001 8.022)">
        <path id="Path_24455" data-name="Path 24455" d="M-334.1,262.323a3.708,3.708,0,0,0-1.546-3.674c-.9.694-1.785,1.429-2.724,2.1a4.843,4.843,0,0,1-4.263.782,2.98,2.98,0,0,1-2.385-3.205,2.48,2.48,0,0,1,1.253-1.6c.742-.316,1.238.342,1.52,1.085.508,1.34,1.143,1.613,2.383.929a27.64,27.64,0,0,0,2.4-1.62c-.394-1.477-.792-2.7-1-3.956-.054-.325.483-.75.727-1.1l1.617,3.882c1-.886,1.714-1.5,2.412-2.136.67-.605,1.326-1.229,2.072-1.922-7.038-5.845-14.413-10.646-23.829-11.179a17.172,17.172,0,0,1,9.491-.508c5.02,1.109,9.11,3.948,12.992,7.141,1.091.9,2.145,1.837,3.156,2.707,2.442-1.909,4.777-3.854,7.236-5.627a23.268,23.268,0,0,1,10.321-4.45,17.432,17.432,0,0,1,8.59.792c-9.716.472-17.1,5.262-24.146,11.142l4.146,3.767a3.793,3.793,0,0,0,1.614-3.515c1.632.612,1.578,2-.27,4.747,1.025.665,2.015,1.4,3.09,1.979a1.259,1.259,0,0,0,1.213.118,1.259,1.259,0,0,0,.745-.964c.288-.847.655-1.589,1.741-1.33a1.874,1.874,0,0,1,1.122,2.351,3.534,3.534,0,0,1-4.119,2.6,13.145,13.145,0,0,1-3.342-1.522,14.173,14.173,0,0,1-1.876-1.508,3.73,3.73,0,0,0-1.589,3.69h-.246c-1.976-1.784-.434-3.33.412-4.912l-4.541-3.907-4.529,3.91c1.712,2.892,1.76,3.557.4,4.91Z" transform="translate(355.464 -198.558)"/>
        <path id="Path_24456" data-name="Path 24456" d="M-303.357,113.276a21.312,21.312,0,0,0-3.044,12.3,17.509,17.509,0,0,1-.54-13.058c-1.844,1.241-4.113,5.512-5.668,10.509-.692-3.125-.3-8.374,3.36-13.547a21.78,21.78,0,0,0-6.584,7.271c-.465-2.735,1.763-6.459,6.323-10.671l-.144-.283a40.8,40.8,0,0,0-3.983,2.208,47.954,47.954,0,0,0-3.723,3.2c1.5-4.629,4.683-7.19,9.075-8.531-1.679-.658-4.087-.29-7.759,1.148,1.637-2.618,4.162-3.568,10.456-3.932l.085-.347-4.58-1.044c1.2-1.309,3.916-1.405,7.487-.084l1.45-3.481,1.466,3.521c2.617-1.2,5.146-1.438,7.7.017l-4.768,1.036.07.21c1.929.257,3.891.378,5.779.809a9.36,9.36,0,0,1,5.03,3.542,13.051,13.051,0,0,0-8.131-1.505c4.33,1.449,7.594,3.975,8.9,8.54a17.108,17.108,0,0,0-7.719-5.1c3.591,2.719,6.048,6.1,6.465,10.709a24.022,24.022,0,0,0-6.714-7.24,18.617,18.617,0,0,1,3.445,13.915,24.452,24.452,0,0,0-5.592-10.867,18.936,18.936,0,0,1-.564,13.078c-.244-2.168-.373-4.324-.757-6.433a14.86,14.86,0,0,0-2.422-5.892l-.469.043q.11,2.341.218,4.682c.008.164-.018.33-.023.5-.1,2.983-.227,5.965-.3,8.948-.057,2.152-.126,4.309-.03,6.457.027.6.627,1.175,1.007,1.836h-5.52c1.962-1.211,1.281-2.814,1.19-4.344-.056-.946.18-1.906.2-2.86.013-.787-.157-1.576-.151-2.364.007-1.043.173-2.087.148-3.128-.031-1.245-.251-2.485-.283-3.73-.051-1.986-.014-3.973-.014-5.961Z" transform="translate(326.89 -94.934)"/>
      </g>
      <g id="Group_4874-2" data-name="Group 4874">
        <g id="Group_4770" data-name="Group 4770" transform="translate(240 9.325)">
          <path id="Path_24455-2" data-name="Path 24455" d="M-350.766,244.723a.814.814,0,0,0-.34-.807c-.2.151-.392.314-.6.46a1.059,1.059,0,0,1-.936.172.654.654,0,0,1-.524-.7.545.545,0,0,1,.275-.351c.163-.07.272.076.334.238.111.294.251.354.523.2a6.067,6.067,0,0,0,.53-.356c-.086-.325-.174-.593-.22-.869-.012-.071.106-.165.16-.241l.355.853c.22-.194.378-.33.53-.469s.291-.27.454-.422a8.942,8.942,0,0,0-5.233-2.455,3.771,3.771,0,0,1,2.084-.111,6.875,6.875,0,0,1,2.853,1.568c.24.2.471.4.693.595.537-.419,1.049-.847,1.589-1.236a5.111,5.111,0,0,1,2.27-.977,3.829,3.829,0,0,1,1.887.174,8.837,8.837,0,0,0-5.3,2.447l.908.827a.833.833,0,0,0,.354-.772c.358.134.347.44-.059,1.042.227.146.443.307.681.434a.276.276,0,0,0,.266.026.276.276,0,0,0,.163-.212c.064-.186.144-.35.382-.292a.412.412,0,0,1,.247.516.776.776,0,0,1-.908.571,2.888,2.888,0,0,1-.734-.335,3.11,3.11,0,0,1-.412-.331.82.82,0,0,0-.349.811h-.055c-.434-.392-.1-.732.091-1.079l-1-.858-.994.859c.378.636.387.781.089,1.078Z" transform="translate(355.457 -231.818)"/>
          <path id="Path_24456-2" data-name="Path 24456" d="M-314.289,98.968a4.68,4.68,0,0,0-.668,2.7,3.845,3.845,0,0,1-.119-2.868,5.013,5.013,0,0,0-1.245,2.308,3.877,3.877,0,0,1,.738-2.974,4.784,4.784,0,0,0-1.446,1.6c-.1-.6.388-1.418,1.389-2.346l-.032-.062a8.953,8.953,0,0,0-.875.485,10.526,10.526,0,0,0-.818.7,2.776,2.776,0,0,1,1.993-1.874,2.488,2.488,0,0,0-1.7.252c.359-.575.915-.783,2.3-.864l.019-.076-1.006-.227c.263-.288.86-.309,1.645-.018l.319-.764.322.772a1.741,1.741,0,0,1,1.69,0l-1.047.227.015.046c.424.057.854.082,1.269.178a2.055,2.055,0,0,1,1.1.778,2.866,2.866,0,0,0-1.786-.331,2.746,2.746,0,0,1,1.959,1.88,3.758,3.758,0,0,0-1.7-1.121,3.254,3.254,0,0,1,1.42,2.352,5.275,5.275,0,0,0-1.474-1.589,4.087,4.087,0,0,1,.757,3.056A5.374,5.374,0,0,0-312.5,98.8a4.163,4.163,0,0,1-.124,2.876c-.054-.476-.082-.95-.166-1.413a3.264,3.264,0,0,0-.53-1.294l-.1.01q.024.514.048,1.028c0,.036,0,.076-.005.109-.023.655-.05,1.31-.067,1.968-.012.473-.028.947-.006,1.418.006.132.138.258.221.4h-1.211c.431-.266.282-.618.261-.954-.012-.208.039-.419.043-.628,0-.173-.034-.347-.033-.519,0-.227.038-.459.033-.687-.007-.273-.055-.546-.062-.82-.011-.436,0-.873,0-1.309Z" transform="translate(319.454 -94.941)"/>
        </g>
        <text id="السعودية" transform="translate(240.688 28.928)" font-size="2" font-family="Cairo-Bold, Cairo" font-weight="700"><tspan x="0.656" y="3">السعودية</tspan></text>
        <g id="Group" transform="translate(243 34.902)">
          <text id="K" transform="translate(0 12)" font-size="9" font-family="Cairo-Bold, Cairo" font-weight="700"><tspan x="0" y="0">K</tspan></text>
          <text id="S" transform="translate(0 21.082)" font-size="9" font-family="Cairo-Bold, Cairo" font-weight="700"><tspan x="0" y="0">S</tspan></text>
          <text id="A" transform="translate(0 30.163)" font-size="9" font-family="Cairo-Bold, Cairo" font-weight="700"><tspan x="0" y="0">A</tspan></text>
        </g>
      </g>
      <line id="Line_170" data-name="Line 170" x1="77.55" transform="translate(159.305 41.848)" fill="none" stroke="#000" stroke-width="1"/>
      <path id="Path_24459" data-name="Path 24459" d="M95.331,0H0" transform="translate(1.135 41.848)" fill="none" stroke="#000" stroke-width="1"/>
      <line id="Line_172" data-name="Line 172" y2="76.139" transform="translate(159.305 1.523)" fill="none" stroke="#000" stroke-width="1"/>
      <line id="Line_173" data-name="Line 173" y2="76.139" transform="translate(96.491 1.523)" fill="none" stroke="#000" stroke-width="1"/>
    </g>
    <g id="Group_4872" data-name="Group 4872" transform="translate(118 66.613)">
      <g transform="matrix(1, 0, 0, 1, -118, -67)" filter="url(#Ellipse_329)">
        <ellipse id="Ellipse_329-2" data-name="Ellipse 329" cx="10" cy="9.5" rx="10" ry="9.5" transform="translate(118 67)" fill="#11014d"/>
      </g>
      <g id="Group_4766" data-name="Group 4766" transform="translate(3.553 5.707)">
        <path id="Path_1" data-name="Path 1" d="M201.908,442.381V444.2a3.1,3.1,0,0,0,3.1,3.1h7.6a1.806,1.806,0,0,0,1.806-1.806h-8.486a1.5,1.5,0,0,1-1.5-1.5v-1.4a1.5,1.5,0,0,1,1.5-1.5c1.788,0,4.768,0,6.682,0a1.806,1.806,0,0,0,1.8-1.806H205A3.1,3.1,0,0,0,201.908,442.381Z" transform="translate(-201.908 -439.284)" fill="#fa9c44"/>
        <path id="Rectangle_3" data-name="Rectangle 3" d="M0,0H4.111A1.559,1.559,0,0,1,5.67,1.559H1.559A1.559,1.559,0,0,1,0,0Z" transform="translate(7.022 3.261)" fill="#fff"/>
      </g>
    </g>
  </g>
</svg>
