<svg xmlns="http://www.w3.org/2000/svg" width="31" height="18" viewBox="0 0 31 18">
  <g id="Group_4877" data-name="Group 4877" transform="translate(-136 -250)">
    <g id="Rectangle_2040" data-name="Rectangle 2040" transform="translate(136 250)" fill="#f5f5f5" stroke="#11014d" stroke-width="1">
      <rect width="31" height="18" rx="3" stroke="none"/>
      <rect x="0.5" y="0.5" width="30" height="17" rx="2.5" fill="none"/>
    </g>
    <line id="Line_212" data-name="Line 212" y2="17.463" transform="translate(157.5 250.537)" fill="none" stroke="#11014d" stroke-width="1"/>
    <line id="Line_213" data-name="Line 213" y2="17.463" transform="translate(145.5 250.537)" fill="none" stroke="#11014d" stroke-width="1"/>
    <line id="Line_214" data-name="Line 214" x1="9" transform="translate(157.5 259.269)" fill="none" stroke="#11014d" stroke-width="1"/>
    <line id="Line_215" data-name="Line 215" x1="9" transform="translate(136.5 259.269)" fill="none" stroke="#11014d" stroke-width="1"/>
    <g id="Group_4826" data-name="Group 4826" transform="translate(12.499 11.546)">
      <path id="Path_24471" data-name="Path 24471" d="M-352.63,242.757a.491.491,0,0,0-.2-.487c-.119.092-.236.189-.36.278a.641.641,0,0,1-.565.1.4.4,0,0,1-.316-.424.328.328,0,0,1,.166-.212c.1-.042.164.045.2.144.067.177.151.214.316.123a3.66,3.66,0,0,0,.318-.215c-.052-.2-.1-.358-.133-.524-.007-.043.064-.1.1-.145l.214.514c.133-.117.227-.2.319-.283s.176-.163.274-.255a5.4,5.4,0,0,0-3.156-1.48,2.274,2.274,0,0,1,1.257-.067,4.145,4.145,0,0,1,1.721.946c.144.119.284.243.418.359.323-.253.633-.511.958-.745a3.081,3.081,0,0,1,1.367-.589,2.308,2.308,0,0,1,1.138.1,5.33,5.33,0,0,0-3.2,1.476l.549.5a.5.5,0,0,0,.214-.465c.216.081.209.265-.036.629.136.088.267.185.409.262a.167.167,0,0,0,.259-.112c.038-.112.087-.211.23-.176a.248.248,0,0,1,.149.311.468.468,0,0,1-.545.344,1.741,1.741,0,0,1-.443-.2,1.879,1.879,0,0,1-.249-.2.494.494,0,0,0-.211.489h-.033c-.262-.236-.057-.441.055-.651l-.6-.517-.6.518c.227.383.233.471.054.65Z" transform="translate(491.031 8.588)" fill="#11014d"/>
      <path id="Path_24472" data-name="Path 24472" d="M-315.508,97.369a2.823,2.823,0,0,0-.4,1.629,2.319,2.319,0,0,1-.072-1.729,3.022,3.022,0,0,0-.751,1.392,2.338,2.338,0,0,1,.445-1.794,2.884,2.884,0,0,0-.872.963c-.062-.362.233-.855.837-1.413l-.019-.038a5.4,5.4,0,0,0-.527.292,6.35,6.35,0,0,0-.493.424,1.674,1.674,0,0,1,1.2-1.13,1.5,1.5,0,0,0-1.028.152c.217-.347.552-.473,1.385-.521l.011-.046-.607-.138c.158-.173.519-.186.992-.011l.192-.461.194.466a1.051,1.051,0,0,1,1.019,0l-.632.137.009.028c.255.034.515.05.765.107a1.24,1.24,0,0,1,.666.469,1.728,1.728,0,0,0-1.077-.2,1.656,1.656,0,0,1,1.179,1.131,2.266,2.266,0,0,0-1.022-.676,1.963,1.963,0,0,1,.856,1.418,3.181,3.181,0,0,0-.889-.959,2.466,2.466,0,0,1,.456,1.843,3.238,3.238,0,0,0-.741-1.439A2.508,2.508,0,0,1-314.505,99c-.032-.287-.049-.573-.1-.852a1.967,1.967,0,0,0-.321-.78l-.062.006q.015.31.029.62c0,.022,0,.044,0,.066-.014.395-.03.79-.04,1.185-.007.285-.017.571,0,.855,0,.08.083.156.133.243h-.731c.26-.16.17-.373.158-.575-.007-.125.024-.252.026-.379,0-.1-.021-.209-.02-.313,0-.138.023-.276.02-.414,0-.165-.033-.329-.038-.494-.007-.263,0-.526,0-.789Z" transform="translate(454.196 148.622)" fill="#11014d"/>
    </g>
  </g>
</svg>
