<svg width="32" height="32" viewBox="0 0 32 32" fill="none" xmlns="http://www.w3.org/2000/svg">
<g filter="url(#filter0_b_2424_3493)">
<path d="M15.2 32H16.8C23.5676 32 26.9514 32 29.1956 30.0832C29.5143 29.8111 29.8111 29.5143 30.0832 29.1956C32 26.9514 32 23.5676 32 16.8V15.2C32 8.43243 32 5.04864 30.0832 2.80441C29.8111 2.48573 29.5143 2.18893 29.1956 1.91675C26.9514 0 23.5676 0 16.8 0H15.2C8.43243 0 5.04864 0 2.80441 1.91675C2.48573 2.18893 2.18893 2.48573 1.91675 2.80441C0 5.04864 0 8.43243 0 15.2V16.8C0 23.5676 0 26.9514 1.91675 29.1956C2.18893 29.5143 2.48573 29.8111 2.80441 30.0832C5.04864 32 8.43243 32 15.2 32Z" fill="#F7F9FD"/>
<path d="M16.8 31.5H15.2C11.8036 31.5 9.30151 31.4991 7.36625 31.2641C5.44263 31.0304 4.14621 30.5717 3.12914 29.703C2.83037 29.4479 2.55212 29.1696 2.29696 28.8709C1.4283 27.8538 0.969612 26.5574 0.735945 24.6338C0.500864 22.6985 0.5 20.1964 0.5 16.8V15.2C0.5 11.8036 0.500864 9.30151 0.735945 7.36625C0.969612 5.44263 1.4283 4.14621 2.29696 3.12914C2.55212 2.83037 2.83037 2.55212 3.12914 2.29696C4.14621 1.4283 5.44263 0.969612 7.36625 0.735945C9.30151 0.500864 11.8036 0.5 15.2 0.5H16.8C20.1964 0.5 22.6985 0.500864 24.6338 0.735945C26.5574 0.969612 27.8538 1.4283 28.8709 2.29696C29.1696 2.55212 29.4479 2.83037 29.703 3.12914C30.5717 4.14621 31.0304 5.44263 31.2641 7.36625C31.4991 9.30151 31.5 11.8036 31.5 15.2V16.8C31.5 20.1964 31.4991 22.6985 31.2641 24.6338C31.0304 26.5574 30.5717 27.8538 29.703 28.8709C29.4479 29.1696 29.1696 29.4479 28.8709 29.703C27.8538 30.5717 26.5574 31.0304 24.6338 31.2641C22.6985 31.4991 20.1964 31.5 16.8 31.5Z" stroke="#8E8E8E"/>
</g>
<path fill-rule="evenodd" clip-rule="evenodd" d="M13.1646 8.82282C13.1646 7.26126 14.4644 6 16.0509 6C17.6477 6 18.9373 7.26126 18.9373 8.82282C18.9373 10.3844 17.6477 11.6456 16.0509 11.6456C14.4542 11.6456 13.1646 10.3844 13.1646 8.82282ZM23.8196 16.08C23.8606 16.4504 24.1779 16.7306 24.5566 16.7306H24.6385C25.0479 16.6906 25.3447 16.3302 25.3038 15.9298C25.0069 13.3172 23.574 10.9549 21.3529 9.44337C21.0151 9.21314 20.5545 9.29322 20.3191 9.62355C20.0837 9.95388 20.1656 10.4043 20.5034 10.6346C22.3662 11.8958 23.574 13.8778 23.8196 16.08ZM7.47376 16.7808H7.54541C7.92412 16.7808 8.25165 16.5005 8.29259 16.1201C8.51777 13.9279 9.71532 11.946 11.5577 10.6647C11.8852 10.4344 11.9671 9.984 11.7317 9.65367C11.4963 9.33335 11.0254 9.25327 10.6979 9.4835C8.4973 11.005 7.08482 13.3674 6.80846 15.98C6.76752 16.3804 7.06435 16.7407 7.47376 16.7808ZM20.084 25.1091C18.8251 25.6997 17.474 26 16.0615 26C14.5876 26 13.1854 25.6797 11.8752 25.029C11.5068 24.8589 11.3635 24.4184 11.5477 24.0581C11.7217 23.6977 12.1721 23.5576 12.5405 23.7277C13.1854 24.048 13.8711 24.2683 14.5671 24.3984C15.5088 24.5786 16.4709 24.5886 17.4126 24.4284C18.1086 24.3083 18.7944 24.0981 19.429 23.7978C19.8077 23.6276 20.258 23.7678 20.4218 24.1381C20.606 24.4985 20.4627 24.9389 20.084 25.1091ZM8.88638 17.8721C7.2999 17.8721 6 19.1333 6 20.6949C6 22.2565 7.28966 23.5177 8.88638 23.5177C10.4831 23.5177 11.7728 22.2565 11.7728 20.6949C11.7728 19.1333 10.4729 17.8721 8.88638 17.8721ZM20.2273 20.6949C20.2273 19.1333 21.5272 17.8721 23.1137 17.8721C24.7104 17.8721 26.0001 19.1333 26.0001 20.6949C26.0001 22.2565 24.7104 23.5177 23.1137 23.5177C21.517 23.5177 20.2273 22.2565 20.2273 20.6949Z" fill="#8E8E8E"/>
<defs>
<filter id="filter0_b_2424_3493" x="-4" y="-4" width="40" height="40" filterUnits="userSpaceOnUse" color-interpolation-filters="sRGB">
<feFlood flood-opacity="0" result="BackgroundImageFix"/>
<feGaussianBlur in="BackgroundImage" stdDeviation="2"/>
<feComposite in2="SourceAlpha" operator="in" result="effect1_backgroundBlur_2424_3493"/>
<feBlend mode="normal" in="SourceGraphic" in2="effect1_backgroundBlur_2424_3493" result="shape"/>
</filter>
</defs>
</svg>
