<svg width="40" height="40" viewBox="0 0 40 40" fill="none" xmlns="http://www.w3.org/2000/svg">
<circle r="20" transform="matrix(-1 0 0 1 20 20)" fill="white"/>
<path d="M24.1683 10C27.3841 10 30 12.6183 30 15.835V24.1683C30 27.3841 27.3817 30 24.165 30H15.8317C12.6159 30 10 27.3817 10 24.165V15.8317C10 12.6159 12.6183 10 15.835 10H24.1683ZM14.1667 13.3333C13.7067 13.3333 13.3333 13.7067 13.3333 14.1667C13.3333 14.6267 13.7067 15 14.1667 15C14.6267 15 15 14.6267 15 14.1667C15 13.7067 14.6267 13.3333 14.1667 13.3333ZM20 15C17.2425 15 15 17.2425 15 20C15 22.7575 17.2425 25 20 25C22.7575 25 25 22.7575 25 20C25 17.2425 22.7575 15 20 15ZM20 16.6667C20.8841 16.6667 21.7319 17.0179 22.357 17.643C22.9821 18.2681 23.3333 19.1159 23.3333 20C23.3333 20.8841 22.9821 21.7319 22.357 22.357C21.7319 22.9821 20.8841 23.3333 20 23.3333C19.1159 23.3333 18.2681 22.9821 17.643 22.357C17.0179 21.7319 16.6667 20.8841 16.6667 20C16.6667 19.1159 17.0179 18.2681 17.643 17.643C18.2681 17.0179 19.1159 16.6667 20 16.6667Z" fill="#E29547"/>
</svg>
