<svg width="40" height="40" viewBox="0 0 40 40" fill="none" xmlns="http://www.w3.org/2000/svg">
<rect width="40" height="40" rx="20" fill="#FAFAFA"/>
<path d="M16.0054 20C16.0054 17.7909 17.7968 15.9997 20.0072 15.9997C22.2176 15.9997 24.0099 17.7909 24.0099 20C24.0099 22.2091 22.2176 24.0003 20.0072 24.0003C17.7968 24.0003 16.0054 22.2091 16.0054 20ZM13.8416 20C13.8416 23.4032 16.602 26.1619 20.0072 26.1619C23.4124 26.1619 26.1728 23.4032 26.1728 20C26.1728 16.5968 23.4124 13.8381 20.0072 13.8381C16.602 13.8381 13.8416 16.5968 13.8416 20ZM24.976 13.5938C24.9759 13.8786 25.0603 14.1571 25.2185 14.3939C25.3767 14.6308 25.6017 14.8155 25.8649 14.9246C26.1281 15.0337 26.4178 15.0623 26.6974 15.0068C26.9769 14.9514 27.2337 14.8143 27.4353 14.613C27.6369 14.4117 27.7742 14.1552 27.8299 13.8759C27.8856 13.5966 27.8572 13.307 27.7482 13.0439C27.6393 12.7807 27.4547 12.5557 27.2178 12.3974C26.9809 12.2391 26.7024 12.1545 26.4174 12.1544H26.4168C26.0349 12.1546 25.6686 12.3063 25.3984 12.5762C25.1282 12.846 24.9763 13.2121 24.976 13.5938ZM15.1563 29.7677C13.9856 29.7144 13.3494 29.5196 12.9265 29.3549C12.3659 29.1368 11.9659 28.877 11.5454 28.4573C11.1249 28.0376 10.8645 27.6382 10.6473 27.078C10.4824 26.6556 10.2874 26.0195 10.2342 24.8495C10.176 23.5846 10.1644 23.2047 10.1644 20.0001C10.1644 16.7955 10.177 16.4166 10.2342 15.1507C10.2875 13.9807 10.484 13.3459 10.6473 12.9222C10.8655 12.362 11.1254 11.9622 11.5454 11.5419C11.9654 11.1216 12.365 10.8615 12.9265 10.6443C13.3492 10.4796 13.9856 10.2847 15.1563 10.2315C16.4219 10.1733 16.8021 10.1617 20.0072 10.1617C23.2123 10.1617 23.5928 10.1743 24.8596 10.2315C26.0302 10.2848 26.6654 10.4811 27.0893 10.6443C27.6499 10.8615 28.0499 11.1222 28.4705 11.5419C28.891 11.9616 29.1503 12.362 29.3686 12.9222C29.5334 13.3446 29.7284 13.9807 29.7816 15.1507C29.8398 16.4166 29.8515 16.7955 29.8515 20.0001C29.8515 23.2047 29.8398 23.5836 29.7816 24.8495C29.7283 26.0195 29.5324 26.6554 29.3686 27.078C29.1503 27.6382 28.8904 28.038 28.4705 28.4573C28.0505 28.8766 27.6499 29.1368 27.0893 29.3549C26.6667 29.5196 26.0302 29.7145 24.8596 29.7677C23.5939 29.8259 23.2137 29.8375 20.0072 29.8375C16.8007 29.8375 16.4216 29.8259 15.1563 29.7677ZM15.0569 8.07267C13.7786 8.13085 12.9052 8.33341 12.1424 8.63005C11.3524 8.93638 10.6837 9.34736 10.0154 10.0142C9.34711 10.681 8.93695 11.3504 8.63043 12.1399C8.33361 12.9027 8.13093 13.7752 8.07272 15.0526C8.01354 16.3321 8 16.7412 8 20C8 23.2588 8.01354 23.6679 8.07272 24.9474C8.13093 26.2249 8.33361 27.0973 8.63043 27.8601C8.93695 28.6491 9.34721 29.3193 10.0154 29.9858C10.6836 30.6524 11.3524 31.0628 12.1424 31.37C12.9066 31.6666 13.7786 31.8692 15.0569 31.9273C16.3378 31.9855 16.7464 32 20.0072 32C23.268 32 23.6773 31.9865 24.9575 31.9273C26.2359 31.8692 27.1087 31.6666 27.872 31.37C28.6615 31.0628 29.3307 30.6526 29.999 29.9858C30.6673 29.319 31.0766 28.6491 31.384 27.8601C31.6808 27.0973 31.8844 26.2248 31.9417 24.9474C31.9999 23.6669 32.0134 23.2588 32.0134 20C32.0134 16.7412 31.9999 16.3321 31.9417 15.0526C31.8835 13.7751 31.6808 12.9022 31.384 12.1399C31.0766 11.3509 30.6662 10.682 29.999 10.0142C29.3318 9.3463 28.6615 8.93638 27.873 8.63005C27.1087 8.33341 26.2358 8.12989 24.9585 8.07267C23.6782 8.0145 23.2689 8 20.0082 8C16.7474 8 16.3378 8.01354 15.0569 8.07267Z" fill="url(#paint0_linear_4746_12318)"/>
<defs>
<linearGradient id="paint0_linear_4746_12318" x1="31.5519" y1="32" x2="7.55191" y2="7.98656" gradientUnits="userSpaceOnUse">
<stop stop-color="#FBE18A"/>
<stop offset="0.21" stop-color="#FCBB45"/>
<stop offset="0.38" stop-color="#F75274"/>
<stop offset="0.52" stop-color="#D53692"/>
<stop offset="0.74" stop-color="#8F39CE"/>
<stop offset="1" stop-color="#5B4FE9"/>
</linearGradient>
</defs>
</svg>
