<svg width="16" height="16" viewBox="0 0 16 16" fill="none" xmlns="http://www.w3.org/2000/svg">
<g clip-path="url(#clip0_2580_6746)">
<path d="M7.91567 7.99998C7.20861 7.99998 6.63011 7.39998 6.63011 6.66665C6.63011 5.93331 7.20861 5.33331 7.91567 5.33331C8.62273 5.33331 9.20123 5.93331 9.20123 6.66665C9.20123 7.39998 8.62273 7.99998 7.91567 7.99998ZM11.7723 6.79998C11.7723 4.37998 10.069 2.66665 7.91567 2.66665C5.76236 2.66665 4.059 4.37998 4.059 6.79998C4.059 8.35998 5.31242 10.4266 7.91567 12.8933C10.5189 10.4266 11.7723 8.35998 11.7723 6.79998ZM7.91567 1.33331C10.6153 1.33331 13.0579 3.47998 13.0579 6.79998C13.0579 9.01331 11.3417 11.6333 7.91567 14.6666C4.48966 11.6333 2.77344 9.01331 2.77344 6.79998C2.77344 3.47998 5.216 1.33331 7.91567 1.33331Z" fill="#E29547"/>
</g>
<defs>
<clipPath id="clip0_2580_6746">
<rect width="15.4267" height="16" fill="white" transform="translate(0.203125)"/>
</clipPath>
</defs>
</svg>
