<svg width="14" height="16" viewBox="0 0 14 16" fill="none" xmlns="http://www.w3.org/2000/svg">
<path d="M6.68246 0C8.45349 0.00298797 10.1511 0.70811 11.403 1.96077C12.655 3.21344 13.3592 4.91142 13.3612 6.68246C13.3612 11.6393 7.3524 15.7022 7.09647 15.8734C6.97277 15.956 6.8274 16 6.6787 16C6.52999 16 6.38462 15.956 6.26092 15.8734C6.00876 15.7022 0 11.6393 0 6.68246C0.00199234 4.91077 0.706675 3.21222 1.95945 1.95945C3.21222 0.706675 4.91077 0.00199234 6.68246 0ZM6.68246 14.319C7.98094 13.348 11.8557 10.162 11.8557 6.68246C11.8193 5.3341 11.2581 4.05317 10.2916 3.11234C9.32502 2.1715 8.02943 1.64506 6.68058 1.64506C5.33173 1.64506 4.03614 2.1715 3.06959 3.11234C2.10303 4.05317 1.54185 5.3341 1.50548 6.68246C1.50548 10.162 5.38398 13.348 6.68246 14.319Z" fill="#11014D"/>
<path d="M6.68376 3.95377C7.22345 3.95377 7.75101 4.1138 8.19974 4.41363C8.64847 4.71346 8.99821 5.13963 9.20474 5.63823C9.41127 6.13683 9.46531 6.68548 9.36002 7.21479C9.25473 7.74411 8.99485 8.23031 8.61324 8.61192C8.23162 8.99354 7.74542 9.25342 7.2161 9.35871C6.68679 9.46399 6.13814 9.40996 5.63954 9.20343C5.14094 8.9969 4.71478 8.64716 4.41494 8.19843C4.11511 7.7497 3.95508 7.22214 3.95508 6.68245C3.95607 5.95906 4.24388 5.26559 4.75539 4.75408C5.2669 4.24257 5.96038 3.95476 6.68376 3.95377ZM6.68376 7.90566C6.92569 7.90566 7.16218 7.83392 7.36334 7.69951C7.56449 7.5651 7.72128 7.37406 7.81386 7.15055C7.90644 6.92704 7.93066 6.68109 7.88346 6.44382C7.83627 6.20654 7.71977 5.98858 7.5487 5.81752C7.37763 5.64645 7.15968 5.52995 6.9224 5.48275C6.68512 5.43555 6.43918 5.45978 6.21566 5.55236C5.99215 5.64494 5.80111 5.80172 5.66671 6.00288C5.5323 6.20403 5.46056 6.44053 5.46056 6.68245C5.46106 7.00671 5.59009 7.31755 5.81938 7.54684C6.04866 7.77612 6.3595 7.90516 6.68376 7.90566Z" fill="#11014D"/>
</svg>
