<svg width="16" height="19" viewBox="0 0 16 19" fill="none" xmlns="http://www.w3.org/2000/svg">
<path d="M7.99954 19L2.34043 13.4355C0.841683 11.9583 0 9.95675 0 7.87021C0 5.78367 0.841683 3.78209 2.34043 2.30489C3.08188 1.57189 3.9638 0.990912 4.93518 0.595246C5.90657 0.19958 6.9481 -0.00269155 7.99954 2.94118e-05C9.05112 -0.00280728 10.0928 0.199577 11.0644 0.595246C12.0359 0.990916 12.918 1.57179 13.6596 2.30489C15.1583 3.78209 16 5.78367 16 7.87021C16 9.95675 15.1583 11.9583 13.6596 13.4355L7.99954 19ZM7.99954 3.49789C6.82058 3.49928 5.69034 3.96003 4.85669 4.7797C4.02304 5.59937 3.55405 6.71103 3.55264 7.87021C3.55428 9.02933 4.02331 10.1403 4.85691 10.9599C5.6905 11.7795 6.82065 12.2409 7.99954 12.2425C9.17857 12.2414 10.309 11.7804 11.1427 10.9607C11.9764 10.141 12.4453 9.02947 12.4464 7.87021C12.4464 6.7106 11.9779 5.59881 11.144 4.77884C10.31 3.95887 9.17893 3.49789 7.99954 3.49789Z" fill="#11014D"/>
</svg>
