<svg width="169" height="141" viewBox="0 0 169 141" fill="none" xmlns="http://www.w3.org/2000/svg">
<path d="M7.58989 130.521H21.5655L21.507 131.113C21.4037 132.55 20.9901 133.948 20.2949 135.21C19.5996 136.472 18.6391 137.568 17.4795 138.423C15.6493 139.837 13.4038 140.607 11.0911 140.616H11.0107C9.6216 140.618 8.24555 140.348 6.96124 139.818C5.67693 139.289 4.50955 138.512 3.52585 137.531C2.51718 136.617 1.71409 135.499 1.16973 134.252C0.625377 133.005 0.352168 131.656 0.368186 130.295C0.348838 128.931 0.610821 127.578 1.13777 126.321C1.66473 125.063 2.44533 123.928 3.43083 122.985C4.41299 122.028 5.57641 121.276 6.85289 120.774C8.12936 120.272 9.49321 120.03 10.8645 120.061C12.7422 120.002 14.6032 120.43 16.2662 121.304C17.981 122.359 19.3602 123.88 20.2425 125.69L20.6664 126.479H17.3845L17.2237 126.245C16.5981 125.326 15.7796 124.555 14.8252 123.984C13.8709 123.414 12.8036 123.059 11.6979 122.943C10.5922 122.828 9.47458 122.955 8.42298 123.316C7.37137 123.676 6.41108 124.262 5.60903 125.032C4.88747 125.692 4.30939 126.493 3.91077 127.386C3.51215 128.279 3.30151 129.244 3.29195 130.222C3.25101 131.189 3.42288 132.154 3.79544 133.049C4.16801 133.943 4.7322 134.744 5.44823 135.397C6.93261 136.816 8.88529 137.643 10.9376 137.721C12.5013 137.787 14.0383 137.3 15.2794 136.347C16.4097 135.574 17.3171 134.518 17.9108 133.284H7.58989V130.521ZM36.2866 127.298C37.713 128.79 38.4949 130.783 38.4635 132.847C38.432 134.911 37.5897 136.88 36.1185 138.328C35.4302 139.046 34.6027 139.616 33.6864 140.003C32.7702 140.39 31.7846 140.586 30.79 140.579H30.5195C29.5208 140.566 28.5352 140.349 27.6238 139.94C26.7123 139.532 25.8943 138.94 25.2202 138.203C24.515 137.487 23.9583 136.639 23.582 135.707C23.2057 134.775 23.0172 133.778 23.0274 132.773C23.0143 131.725 23.2142 130.686 23.6151 129.719C24.0159 128.751 24.6092 127.875 25.3591 127.144C26.0766 126.394 26.9458 125.805 27.9087 125.417C28.8716 125.029 29.9061 124.85 30.9435 124.893C31.95 124.914 32.9421 125.138 33.8601 125.551C34.7782 125.964 35.6035 126.558 36.2866 127.298ZM27.413 129.176C26.5185 130.107 26.0086 131.341 25.9855 132.631C25.9625 133.922 26.428 135.173 27.2887 136.135C27.692 136.613 28.1928 136.999 28.7576 137.268C29.3224 137.536 29.9381 137.681 30.5634 137.692C31.2239 137.74 31.8866 137.632 32.4983 137.379C33.11 137.125 33.6539 136.731 34.0865 136.23C34.5697 135.755 34.9492 135.185 35.2008 134.556C35.4524 133.927 35.5708 133.252 35.5484 132.575C35.5196 131.287 34.9961 130.06 34.0865 129.147C33.6643 128.692 33.1501 128.331 32.578 128.089C32.006 127.847 31.389 127.729 30.768 127.744C30.1399 127.736 29.5171 127.86 28.9395 128.106C28.3618 128.353 27.8419 128.717 27.413 129.176ZM41.7175 140.257H44.6413V120.317H41.7175V140.257ZM59.7718 120.42H62.6955V132.846C62.731 133.887 62.5432 134.925 62.1448 135.888C61.7464 136.851 61.1467 137.718 60.3858 138.43C59.6904 139.147 58.8574 139.716 57.9367 140.103C57.016 140.49 56.0266 140.686 55.028 140.681H54.7575C53.7581 140.67 52.7715 140.455 51.8587 140.047C50.946 139.64 50.1265 139.05 49.4509 138.313C48.0332 136.811 47.2575 134.815 47.2889 132.749C47.3203 130.684 48.1563 128.712 49.619 127.254C50.3323 126.502 51.1986 125.912 52.1595 125.524C53.1204 125.135 54.1534 124.958 55.1888 125.003C56.8662 125.045 58.4796 125.656 59.7645 126.735L59.7718 120.42ZM51.6803 129.257C51.2151 129.702 50.8456 130.238 50.5942 130.831C50.3429 131.424 50.215 132.063 50.2184 132.707C50.1856 134.004 50.6663 135.263 51.556 136.208C51.9593 136.686 52.4601 137.072 53.0249 137.341C53.5897 137.609 54.2053 137.754 54.8306 137.765C55.4909 137.81 56.1526 137.701 56.7639 137.448C57.3752 137.194 57.9194 136.802 58.3538 136.303C58.8307 135.826 59.2026 135.254 59.4455 134.625C59.6884 133.995 59.7971 133.322 59.7645 132.648C59.7628 131.366 59.259 130.136 58.3611 129.22C57.9364 128.762 57.4187 128.399 56.8426 128.157C56.2665 127.915 55.6453 127.799 55.0207 127.817C54.3944 127.812 53.774 127.937 53.1988 128.185C52.6237 128.433 52.1065 128.798 51.6803 129.257ZM79.456 127.312C80.8082 128.667 81.5702 130.501 81.5758 132.414V133.957H69.1498C69.3614 134.946 69.8932 135.837 70.6628 136.493C71.5794 137.306 72.7711 137.74 73.9959 137.706C74.9018 137.742 75.7965 137.497 76.557 137.003C77.3175 136.51 77.9064 135.793 78.2427 134.951L78.3888 134.644H81.4588L81.2103 135.375C80.6938 136.906 79.7117 138.238 78.4012 139.185C77.0907 140.131 75.5173 140.644 73.9009 140.652H73.762C72.7726 140.65 71.7935 140.451 70.8822 140.066C69.9709 139.68 69.1458 139.117 68.4554 138.408C67.6963 137.681 67.0914 136.808 66.6768 135.842C66.2623 134.876 66.0465 133.837 66.0424 132.786C66.0383 131.734 66.246 130.693 66.653 129.724C67.06 128.755 67.6581 127.877 68.4115 127.144C69.1563 126.369 70.0619 125.767 71.0646 125.379C72.0672 124.991 73.1426 124.828 74.2152 124.9C76.2034 124.995 78.0782 125.854 79.4487 127.298L79.456 127.312ZM77.0366 128.913C76.1648 128.183 75.0602 127.788 73.9228 127.802H73.8497C72.8224 127.793 71.8189 128.111 70.9844 128.71C70.15 129.31 69.5279 130.159 69.2082 131.135H78.5204C78.2484 130.266 77.7305 129.494 77.0293 128.913H77.0366ZM91.3046 124.922C90.4101 124.9 89.5205 125.062 88.6916 125.399C87.8628 125.736 87.1124 126.241 86.4877 126.881C85.8564 127.526 85.3615 128.291 85.0325 129.131C84.7034 129.971 84.547 130.869 84.5726 131.771V140.257H87.4964V131.574C87.4905 131.077 87.5882 130.585 87.7833 130.128C87.9783 129.671 88.2665 129.26 88.6293 128.92C88.9746 128.566 89.3872 128.285 89.8429 128.093C90.2986 127.901 90.7881 127.802 91.2827 127.802C91.7772 127.802 92.2667 127.901 92.7224 128.093C93.1781 128.285 93.5907 128.566 93.936 128.92C94.2988 129.26 94.587 129.671 94.7821 130.128C94.9771 130.585 95.0748 131.077 95.0689 131.574V140.257H97.9927V131.771C98.0166 130.869 97.8594 129.972 97.5305 129.132C97.2016 128.292 96.7075 127.527 96.0776 126.881C95.4582 126.244 94.714 125.741 93.8915 125.404C93.069 125.067 92.1859 124.903 91.2973 124.922H91.3046ZM121.931 123.205C122.926 124.1 123.717 125.199 124.249 126.428C124.782 127.656 125.043 128.985 125.016 130.324C124.996 132.953 123.944 135.468 122.085 137.327C120.226 139.186 117.711 140.238 115.082 140.257H108.16V120.368H114.154C117.013 120.272 119.798 121.289 121.924 123.205H121.931ZM119.738 125.193C118.289 123.885 116.398 123.175 114.446 123.205H111.033V137.421H114.972C115.923 137.439 116.867 137.253 117.74 136.874C118.612 136.496 119.394 135.935 120.031 135.229C120.704 134.551 121.229 133.742 121.572 132.851C121.916 131.96 122.07 131.007 122.026 130.053C122.018 129.125 121.808 128.21 121.412 127.371C121.016 126.532 120.442 125.789 119.731 125.193H119.738ZM141.44 127.298C142.789 128.64 143.556 130.46 143.574 132.363V133.906H131.148C131.36 134.894 131.892 135.786 132.661 136.442C133.576 137.258 134.769 137.692 135.994 137.655C136.9 137.691 137.795 137.446 138.555 136.952C139.316 136.459 139.905 135.742 140.241 134.9L140.387 134.593H143.457L143.216 135.324C142.698 136.854 141.715 138.185 140.405 139.131C139.095 140.077 137.522 140.591 135.907 140.601H135.768C134.778 140.599 133.799 140.4 132.888 140.015C131.977 139.629 131.152 139.066 130.461 138.357C129.704 137.627 129.102 136.753 128.69 135.785C128.279 134.817 128.067 133.777 128.067 132.725C128.067 131.674 128.279 130.633 128.69 129.665C129.102 128.698 129.704 127.823 130.461 127.093C131.205 126.319 132.11 125.718 133.111 125.33C134.112 124.942 135.186 124.778 136.257 124.849C138.235 124.971 140.09 125.847 141.44 127.298ZM139.02 128.899C138.149 128.167 137.044 127.773 135.907 127.788C134.756 127.757 133.633 128.141 132.742 128.869C132.011 129.446 131.473 130.231 131.199 131.121H140.512C140.235 130.259 139.721 129.494 139.028 128.913L139.02 128.899ZM159.896 127.298C160.6 128.01 161.151 128.86 161.513 129.795C161.875 130.729 162.041 131.728 162.001 132.729V140.257H159.077V138.795C157.751 139.944 156.051 140.568 154.297 140.55H154.041C153.047 140.528 152.067 140.305 151.162 139.894C150.256 139.483 149.443 138.893 148.771 138.16C148.066 137.443 147.51 136.595 147.134 135.663C146.757 134.731 146.569 133.734 146.578 132.729C146.565 131.681 146.765 130.643 147.166 129.675C147.567 128.708 148.16 127.832 148.91 127.1C149.633 126.353 150.509 125.77 151.477 125.391C152.446 125.013 153.485 124.848 154.524 124.908C155.533 124.928 156.529 125.15 157.451 125.561C158.374 125.971 159.205 126.562 159.896 127.298ZM150.942 129.191C150.477 129.632 150.107 130.164 149.856 130.753C149.604 131.343 149.476 131.978 149.48 132.619C149.456 133.26 149.561 133.9 149.788 134.5C150.015 135.1 150.36 135.649 150.803 136.113C151.21 136.587 151.71 136.972 152.272 137.244C152.834 137.515 153.447 137.668 154.07 137.692C154.73 137.729 155.389 137.617 155.999 137.364C156.609 137.111 157.154 136.723 157.594 136.23C158.077 135.755 158.456 135.185 158.708 134.556C158.96 133.927 159.078 133.252 159.056 132.575C159.053 131.295 158.543 130.067 157.637 129.162C157.221 128.713 156.715 128.356 156.152 128.114C155.59 127.872 154.983 127.751 154.37 127.758C153.731 127.747 153.096 127.868 152.506 128.115C151.916 128.361 151.383 128.728 150.942 129.191ZM165.312 120.317V140.257H168.236V120.317H165.312Z" fill="#FAFAFA"/>
<path d="M112.202 72.9524C111.931 72.9524 111.705 72.9963 111.42 73.0036H62.2418C57.6954 72.9305 53.9749 71.6806 51.0072 69.1515C48.0396 66.6225 46.6216 63.2382 46.6216 59.0353V45.6883V36.1861C46.6216 36.1861 46.8409 21.6404 62.7023 21.5307H114.139C120.553 21.5311 126.809 19.5329 132.036 15.8139C137.263 12.0949 141.201 6.83985 143.303 0.779297H58.6383C27.1639 0.793916 20.834 21.8231 20.834 36.113V63.0262C20.834 71.2201 23.9551 78.376 30.2851 84.6913C36.7685 90.9628 45.1963 94.062 55.6853 94.062H117.523C125.953 93.9256 133.104 91.2454 138.976 86.0217C143.012 82.6442 145.866 78.069 147.126 72.9597L112.202 72.9524Z" fill="#FAFAFA"/>
<path d="M90.2129 38.7006H122.067V38.664H128.916C133.924 38.664 138.728 40.6515 142.272 44.19C145.816 47.7285 147.811 52.5288 147.818 57.5369H116.256C110.485 57.5376 104.861 55.7173 100.185 52.3352C95.5089 48.9531 92.0191 44.1817 90.2129 38.7006Z" fill="#FAFAFA"/>
</svg>
