<svg width="126" height="144" viewBox="0 0 126 144" fill="none" xmlns="http://www.w3.org/2000/svg">
<path d="M16.4746 22.3208V35.4451C16.4749 41.3647 18.8481 47.0419 23.0723 51.2276C27.2965 55.4134 33.0256 57.7649 38.9994 57.7649H94.2594C97.7429 57.7649 101.084 56.3936 103.547 53.9527C106.01 51.5119 107.394 48.2014 107.394 44.7495H45.6721C42.7778 44.7495 40.002 43.6101 37.9554 41.582C35.9088 39.554 34.7591 36.8034 34.7591 33.9353V23.8631C34.7588 22.4422 35.0412 21.0352 35.59 19.7226C36.1388 18.4099 36.9433 17.2173 37.9576 16.213C38.9718 15.2087 40.1759 14.4123 41.5009 13.8693C42.8259 13.3264 44.246 13.0476 45.6798 13.0489C58.6841 13.0603 80.382 13.0355 94.2816 13.0154C97.7615 13.0104 101.097 11.6368 103.556 9.19644C106.015 6.75607 107.395 3.44843 107.395 0H38.9994C36.0414 0 33.1123 0.577354 30.3795 1.69908C27.6467 2.8208 25.1636 4.46493 23.072 6.5376C20.9803 8.61028 19.3212 11.0709 18.1892 13.779C17.0572 16.4871 16.4746 19.3896 16.4746 22.3208Z" fill="white"/>
<path d="M67.5469 23.5037H97.444C100.451 23.5039 103.335 24.6878 105.461 26.795C107.588 28.9022 108.782 31.7601 108.782 34.74H78.8859C75.8786 34.74 72.9945 33.5561 70.868 31.4489C68.7415 29.3417 67.5469 26.4837 67.5469 23.5037Z" fill="#FA9C44"/>
<path d="M7.82244 101.607C9.39662 101.607 11.9637 101.292 13.441 101.05V92.5007H8.64586V95.4068H10.1474V98.6036C9.71145 98.6521 8.86382 98.7005 8.13728 98.7005C5.13423 98.7005 4.52878 97.4654 4.52878 93.0819C4.52878 88.4562 5.37642 87.5117 8.23415 87.5117C9.83254 87.5117 12.0848 87.6813 13.3442 87.8266L13.441 85.2352C12.0606 84.9446 9.56614 84.5571 7.70135 84.5571C2.83352 84.5571 1.08981 87.0758 1.08981 93.0819C1.08981 98.6036 2.44603 101.607 7.82244 101.607ZM21.2472 101.607C25.4612 101.607 26.8174 98.9669 26.8174 95.2373C26.8174 91.5077 25.4612 88.9164 21.2472 88.9164C17.0333 88.9164 15.677 91.5077 15.677 95.2373C15.677 98.9669 17.0333 101.607 21.2472 101.607ZM21.2472 98.8458C19.4551 98.8458 18.9707 97.5865 18.9707 95.2373C18.9707 92.8881 19.4551 91.6772 21.2472 91.6772C23.0393 91.6772 23.5237 92.8881 23.5237 95.2373C23.5237 97.5865 23.0393 98.8458 21.2472 98.8458ZM29.3415 101.316H32.5868V84.3634H29.3415V101.316ZM39.8651 101.607C40.7611 101.607 42.0689 101.147 42.7954 100.807V101.316H46.0164V84.3634H42.7712V89.2554C42.0205 89.1101 40.8096 88.9164 40.1557 88.9164C36.862 88.9164 35.1425 90.7812 35.1425 95.2131C35.1425 99.4755 36.2081 101.607 39.8651 101.607ZM40.4221 98.7005C38.8963 98.7005 38.4362 97.6833 38.4362 95.2131C38.4362 92.7671 39.1869 91.7257 40.3978 91.7257C41.1486 91.7257 42.19 91.871 42.7712 91.9679V98.3372C42.2626 98.4825 41.2455 98.7005 40.4221 98.7005ZM53.6168 101.607C55.2636 101.607 57.4674 101.219 58.6541 100.929L58.6057 98.531C57.5401 98.6278 55.5784 98.7489 54.1253 98.7489C52.3816 98.7489 51.7035 98.095 51.6793 96.6419H58.7994L59.0416 94.3897C59.0416 90.7327 57.3221 88.9164 53.7621 88.9164C50.2262 88.9164 48.4099 91.1202 48.4099 95.431C48.4099 99.7903 49.9598 101.607 53.6168 101.607ZM51.6551 94.1717C51.6793 92.3311 52.2121 91.5804 53.7621 91.5804C55.2878 91.5804 55.8448 92.21 55.8448 94.1717H51.6551ZM61.3609 101.316H64.6061V92.2585C65.0662 92.0647 65.9865 91.8225 66.8099 91.8225C68.3841 91.8225 68.6263 93.0092 68.6263 94.8498V101.316H71.8715V94.7529C71.8715 91.0476 70.9997 88.9164 67.6091 88.9164C66.592 88.9164 65.2842 89.4734 64.5819 89.8851V89.207H61.3609V101.316Z" fill="#FA9C44"/>
<path d="M80.359 101.316H85.905C91.8142 101.316 92.904 98.3857 92.904 92.7671C92.904 87.2938 91.6446 84.8477 85.905 84.8477H80.359V101.316ZM83.7011 98.4099V87.7539H85.905C89.1502 87.7539 89.465 89.1586 89.465 92.7671C89.465 96.424 89.1502 98.4099 85.905 98.4099H83.7011ZM100.114 101.607C101.76 101.607 103.964 101.219 105.151 100.929L105.103 98.531C104.037 98.6278 102.075 98.7489 100.622 98.7489C98.8785 98.7489 98.2004 98.095 98.1761 96.6419H105.296L105.538 94.3897C105.538 90.7327 103.819 88.9164 100.259 88.9164C96.7231 88.9164 94.9067 91.1202 94.9067 95.431C94.9067 99.7903 96.4567 101.607 100.114 101.607ZM98.1519 94.1717C98.1761 92.3311 98.7089 91.5804 100.259 91.5804C101.785 91.5804 102.342 92.21 102.342 94.1717H98.1519ZM110.812 101.607C112.144 101.607 113.622 101.122 114.372 100.759C114.833 101.074 115.244 101.268 115.729 101.389C116.31 101.558 116.939 101.607 117.836 101.607L117.932 99.1606C117.279 99.0395 117.182 98.7489 117.133 98.0224V92.985C117.133 90.1515 115.874 88.9164 112.726 88.9164C111.03 88.9164 108.923 89.3281 107.809 89.6187L107.906 91.871C109.165 91.7983 111.297 91.6772 112.459 91.6772C113.428 91.6772 113.888 91.9436 113.888 92.985V93.7358L111.297 93.9295C108.633 94.1233 107.059 94.8982 107.059 97.6349C107.059 100.202 108.269 101.607 110.812 101.607ZM111.515 98.9669C110.643 98.9669 110.328 98.3857 110.328 97.538C110.328 96.6662 110.837 96.2545 111.684 96.1818L113.888 95.9881V98.5794C113.307 98.7489 112.265 98.9669 111.515 98.9669ZM120.372 101.316H123.617V84.3634H120.372V101.316Z" fill="white"/>
<path d="M19.6753 127.411H16.7933V113.365H13.5481V130.438C13.5481 132.279 12.2161 133.417 9.69743 133.417C7.15453 133.417 5.55614 132.11 5.55614 130.293C5.55614 129.421 5.84676 127.048 6.37956 123.682L3.18277 123.221C2.77106 125.813 2.31092 128.985 2.31092 130.293C2.31092 133.781 5.45927 136.323 9.69743 136.323C13.8872 136.323 16.7933 133.95 16.7933 130.438V130.317H19.6753C20.0628 130.317 20.1596 129.76 20.1596 128.864C20.1596 127.968 20.0628 127.411 19.6753 127.411ZM25.7985 118.208H22.5533V127.411H19.6713C19.2838 127.411 19.187 127.968 19.187 128.864C19.187 129.76 19.2838 130.317 19.6713 130.317H25.7985V118.208ZM20.1557 135.064H23.4009V131.77H20.1557V135.064ZM24.9266 131.77V135.064H28.1719V131.77H24.9266ZM31.6893 118.208H29.7277V121.115H31.6893C33.9901 121.115 34.5955 121.72 34.5955 124.699V127.411H28.4683V130.317H37.8407V124.699C37.8407 119.831 35.5642 118.208 31.6893 118.208Z" fill="white"/>
<path d="M50.9497 118.208H54.195V114.915H50.9497V118.208ZM52.7176 136.323C56.9074 136.323 59.8135 133.95 59.8135 130.438V118.208H56.5683V130.438C56.5683 132.279 55.2363 133.417 52.7176 133.417C50.1747 133.417 48.5764 132.11 48.5764 130.293C48.5764 129.421 48.867 127.048 49.3998 123.682L46.203 123.221C45.7913 125.813 45.3311 128.985 45.3311 130.293C45.3311 133.781 48.4795 136.323 52.7176 136.323ZM74.7321 127.411H71.8501V124.699C71.8501 119.831 69.5736 118.208 65.6987 118.208H63.7371V121.115H65.6987C67.9994 121.115 68.6049 121.72 68.6049 124.699V127.411H62.4777V130.317H74.7321C75.1196 130.317 75.2164 129.76 75.2164 128.864C75.2164 127.968 75.1196 127.411 74.7321 127.411ZM80.7841 127.411H74.7296C74.3421 127.411 74.2453 127.968 74.2453 128.864C74.2453 129.76 74.3421 130.317 74.7296 130.317H80.7841C81.1716 130.317 81.2685 129.76 81.2685 128.864C81.2685 127.968 81.1716 127.411 80.7841 127.411ZM86.8387 127.411H80.7841C80.3967 127.411 80.2998 127.968 80.2998 128.864C80.2998 129.76 80.3967 130.317 80.7841 130.317H86.8387C87.2262 130.317 87.323 129.76 87.323 128.864C87.323 127.968 87.2262 127.411 86.8387 127.411ZM90.4472 113.365V127.411H86.8387C86.4512 127.411 86.3543 127.968 86.3543 128.864C86.3543 129.76 86.4512 130.317 86.8387 130.317H93.6924V113.365H90.4472ZM110.489 127.411H107.607V118.208H101.746C97.5077 118.208 96.3452 120.097 96.3452 124.263C96.3452 128.428 97.5077 130.317 101.746 130.317H104.361V130.463C104.361 132.642 103.683 133.369 102.085 133.369C101.237 133.369 100.123 133.224 98.8154 132.933L98.1131 135.766C99.4209 136.057 100.922 136.275 102.085 136.275C105.766 136.275 107.607 133.974 107.607 130.463V130.317H110.489C110.876 130.317 110.973 129.76 110.973 128.864C110.973 127.968 110.876 127.411 110.489 127.411ZM101.746 127.411C99.8326 127.411 99.5904 127.29 99.5904 124.263C99.5904 121.236 99.8326 121.115 101.746 121.115H104.361V127.411H101.746ZM118.166 113.147H114.921V116.44H118.166V113.147ZM122.937 113.147H119.692V116.44H122.937V113.147ZM118.118 118.208C113.88 118.208 112.717 120.097 112.717 124.263C112.717 125.522 112.814 126.564 113.08 127.411H110.489C110.102 127.411 110.005 127.968 110.005 128.864C110.005 129.76 110.102 130.317 110.489 130.317H123.979V118.208H118.118ZM115.962 124.263C115.962 121.236 116.205 121.115 118.118 121.115H120.733V127.411H118.118C116.205 127.411 115.962 127.29 115.962 124.263Z" fill="#FA9C44"/>
</svg>
