<svg width="22" height="20" viewBox="0 0 22 20" fill="none" xmlns="http://www.w3.org/2000/svg">
<path d="M21.7885 16.7391H6.34615C6.22981 16.7391 6.13462 16.837 6.13462 16.9565V18.4783C6.13462 18.5978 6.22981 18.6957 6.34615 18.6957H21.7885C21.9048 18.6957 22 18.5978 22 18.4783V16.9565C22 16.837 21.9048 16.7391 21.7885 16.7391ZM21.7885 1.30435H6.34615C6.22981 1.30435 6.13462 1.40217 6.13462 1.52174V3.04348C6.13462 3.16304 6.22981 3.26087 6.34615 3.26087H21.7885C21.9048 3.26087 22 3.16304 22 3.04348V1.52174C22 1.40217 21.9048 1.30435 21.7885 1.30435ZM21.7885 9.02174H6.34615C6.22981 9.02174 6.13462 9.11956 6.13462 9.23913V10.7609C6.13462 10.8804 6.22981 10.9783 6.34615 10.9783H21.7885C21.9048 10.9783 22 10.8804 22 10.7609V9.23913C22 9.11956 21.9048 9.02174 21.7885 9.02174ZM3.17308 15.4348H0.105769C0.0475962 15.4348 0 15.4837 0 15.5435V16.4674C0 16.5272 0.0475962 16.5761 0.105769 16.5761H2.02019V17.1332H1.0762C1.01803 17.1332 0.970433 17.1821 0.970433 17.2418V18.1658C0.970433 18.2255 1.01803 18.2745 1.0762 18.2745H2.02019V18.8587H0.105769C0.0475962 18.8587 0 18.9076 0 18.9674V19.8913C0 19.9511 0.0475962 20 0.105769 20H3.17308C3.23125 20 3.27885 19.9511 3.27885 19.8913V15.5435C3.27885 15.4837 3.23125 15.4348 3.17308 15.4348ZM0.105769 1.19565H1.11058V4.45652C1.11058 4.5163 1.15817 4.56522 1.21635 4.56522H2.27404C2.33221 4.56522 2.37981 4.5163 2.37981 4.45652V0.217391C2.37981 0.0978261 2.28462 0 2.16827 0H0.105769C0.0475962 0 0 0.048913 0 0.108696V1.08696C0 1.14674 0.0475962 1.19565 0.105769 1.19565ZM3.17308 7.71739H0.105769C0.0475962 7.71739 0 7.7663 0 7.82609V8.80435C0 8.86413 0.0475962 8.91304 0.105769 8.91304H1.91442L0.0555288 11.0245C0.0204681 11.0649 0.000756671 11.117 0 11.1712V12.1739C0 12.2337 0.0475962 12.2826 0.105769 12.2826H3.17308C3.23125 12.2826 3.27885 12.2337 3.27885 12.1739V11.1957C3.27885 11.1359 3.23125 11.087 3.17308 11.087H1.36442L3.22332 8.97554C3.25838 8.93507 3.27809 8.88298 3.27885 8.8288V7.82609C3.27885 7.7663 3.23125 7.71739 3.17308 7.71739Z" fill="#12004C"/>
</svg>
