<svg xmlns="http://www.w3.org/2000/svg" width="18" height="14.625" viewBox="0 0 18 14.625">
  <path id="Icon_awesome-list-ul" data-name="Icon awesome-list-ul" d="M1.687,3.375A1.687,1.687,0,1,0,3.375,5.062,1.687,1.687,0,0,0,1.687,3.375ZM1.687,9a1.687,1.687,0,1,0,1.687,1.687A1.687,1.687,0,0,0,1.687,9Zm0,5.625a1.687,1.687,0,1,0,1.687,1.687,1.687,1.687,0,0,0-1.687-1.687Zm15.75.562H6.187a.562.562,0,0,0-.562.562v1.125a.562.562,0,0,0,.562.562h11.25A.562.562,0,0,0,18,16.875V15.75A.562.562,0,0,0,17.437,15.187Zm0-11.25H6.187a.562.562,0,0,0-.562.562V5.625a.562.562,0,0,0,.562.562h11.25A.562.562,0,0,0,18,5.625V4.5A.562.562,0,0,0,17.437,3.937Zm0,5.625H6.187a.562.562,0,0,0-.562.562V11.25a.562.562,0,0,0,.562.562h11.25A.562.562,0,0,0,18,11.25V10.125A.562.562,0,0,0,17.437,9.562Z" transform="translate(0 -3.375)" fill="#11014d"/>
</svg>
