<svg width="78" height="24" viewBox="0 0 78 24" fill="none" xmlns="http://www.w3.org/2000/svg">
<path d="M78 0H0L8.6265 12.2718L0 24H78V0Z" fill="#FA9C44"/>
<path d="M25.6333 16.8406C25.5799 16.5366 25.5319 16.2486 25.4893 15.9766C25.4519 15.7046 25.4333 15.4726 25.4333 15.2806C25.4333 14.934 25.4919 14.6353 25.6093 14.3846C25.7319 14.1393 25.9053 13.95 26.1293 13.8166C26.3586 13.6833 26.6306 13.6166 26.9453 13.6166C27.0359 13.6166 27.1693 13.6166 27.3453 13.6166C27.5213 13.6166 27.7239 13.6166 27.9533 13.6166C28.1826 13.6166 28.4199 13.6166 28.6653 13.6166C28.9106 13.6166 29.1426 13.6166 29.3613 13.6166L28.8973 14.0246V12.2246C28.8973 11.8513 28.8546 11.558 28.7693 11.3446C28.6839 11.1313 28.5373 10.9793 28.3293 10.8886C28.1266 10.798 27.8493 10.7526 27.4973 10.7526C27.2733 10.7526 27.0493 10.7686 26.8253 10.8006C26.6066 10.8326 26.4359 10.8753 26.3133 10.9286L26.6893 10.5446C26.6573 10.6726 26.6253 10.8353 26.5933 11.0326C26.5613 11.2246 26.5346 11.4326 26.5133 11.6566C26.4973 11.8806 26.4893 12.1046 26.4893 12.3286C26.4893 12.558 26.4973 12.782 26.5133 13.0006C26.5346 13.2193 26.5586 13.4086 26.5853 13.5686C26.6119 13.7286 26.6333 13.8406 26.6493 13.9046L26.0573 14.0726C26.0359 14.0033 26.0093 13.8833 25.9773 13.7126C25.9506 13.542 25.9239 13.3366 25.8973 13.0966C25.8759 12.8566 25.8653 12.6006 25.8653 12.3286C25.8653 12.0673 25.8759 11.814 25.8973 11.5686C25.9239 11.318 25.9533 11.0913 25.9853 10.8886C26.0226 10.686 26.0573 10.5233 26.0893 10.4006C26.2066 10.3526 26.3933 10.3046 26.6493 10.2566C26.9053 10.2086 27.1879 10.1846 27.4973 10.1846C27.7639 10.1846 28.0039 10.2086 28.2173 10.2566C28.4359 10.2993 28.6253 10.3713 28.7853 10.4726C28.9506 10.574 29.0866 10.7046 29.1933 10.8646C29.3053 11.0193 29.3879 11.2113 29.4413 11.4406C29.4946 11.6646 29.5213 11.926 29.5213 12.2246V14.1846C29.2973 14.1846 29.0546 14.1846 28.7933 14.1846C28.5373 14.1846 28.2839 14.1846 28.0333 14.1846C27.7879 14.1846 27.5666 14.1846 27.3693 14.1846C27.1773 14.1846 27.0359 14.1846 26.9453 14.1846C26.8599 14.1846 26.7666 14.1953 26.6653 14.2166C26.5639 14.2433 26.4653 14.2913 26.3693 14.3606C26.2786 14.4353 26.2039 14.5446 26.1453 14.6886C26.0866 14.838 26.0573 15.0353 26.0573 15.2806C26.0573 15.4833 26.0759 15.7153 26.1133 15.9766C26.1506 16.238 26.1933 16.526 26.2413 16.8406H25.6333ZM33.8811 14.1846V13.6166H34.7451V14.1846H33.8811ZM31.9851 15.9526C31.7984 15.9526 31.5984 15.9366 31.3851 15.9046C31.1771 15.878 30.9478 15.838 30.6971 15.7846L30.7931 15.2806C31.0758 15.318 31.3104 15.3446 31.4971 15.3606C31.6891 15.3766 31.8518 15.3846 31.9851 15.3846C32.4278 15.3846 32.7504 15.2993 32.9531 15.1286C33.1558 14.9633 33.2571 14.7206 33.2571 14.4006V10.5446L33.5771 10.7526H32.2251C31.9158 10.7526 31.6758 10.79 31.5051 10.8646C31.3398 10.9393 31.2251 11.0806 31.1611 11.2886C31.0971 11.4913 31.0651 11.79 31.0651 12.1846C31.0651 12.5793 31.0971 12.8806 31.1611 13.0886C31.2251 13.2913 31.3398 13.43 31.5051 13.5046C31.6758 13.5793 31.9158 13.6166 32.2251 13.6166H33.2571V14.1846H32.2251C31.7611 14.1846 31.3984 14.1153 31.1371 13.9766C30.8811 13.8326 30.6998 13.614 30.5931 13.3206C30.4918 13.022 30.4411 12.6433 30.4411 12.1846C30.4411 11.726 30.4918 11.35 30.5931 11.0566C30.6998 10.758 30.8811 10.5393 31.1371 10.4006C31.3984 10.2566 31.7611 10.1846 32.2251 10.1846H33.8811V14.3926C33.8811 14.7233 33.8038 15.006 33.6491 15.2406C33.4998 15.4753 33.2838 15.6513 33.0011 15.7686C32.7184 15.8913 32.3798 15.9526 31.9851 15.9526ZM34.7451 14.1846V13.6166C34.8144 13.6166 34.8571 13.6433 34.8731 13.6966C34.8944 13.7446 34.9051 13.8113 34.9051 13.8966C34.9051 13.982 34.8944 14.0513 34.8731 14.1046C34.8571 14.158 34.8144 14.1846 34.7451 14.1846ZM40.7621 14.1846V13.6166H41.6261V14.1846H40.7621ZM38.9541 14.1846C38.7728 14.1846 38.5941 14.15 38.4181 14.0806C38.2474 14.0113 38.0821 13.902 37.9221 13.7526L38.3301 13.3286C38.4528 13.43 38.5621 13.5046 38.6581 13.5526C38.7541 13.5953 38.8528 13.6166 38.9541 13.6166H40.3781L40.1381 13.8726V11.9606C40.1381 11.8646 40.1274 11.7286 40.1061 11.5526C40.0901 11.3766 40.0634 11.1793 40.0261 10.9606C39.9941 10.7366 39.9541 10.5126 39.9061 10.2886L40.5141 10.1846C40.5514 10.3713 40.5888 10.5793 40.6261 10.8086C40.6634 11.038 40.6954 11.2566 40.7221 11.4646C40.7488 11.6673 40.7621 11.8326 40.7621 11.9606V14.1846H38.9541ZM34.7461 14.1846V13.6166H35.9141L35.7541 13.7766V10.9846H36.3701V14.1846H34.7461ZM36.3701 14.1846V13.6166H37.2741C37.4554 13.6166 37.5914 13.59 37.6821 13.5366C37.7781 13.4833 37.8448 13.3766 37.8821 13.2166C37.9194 13.0566 37.9381 12.822 37.9381 12.5126V10.5846H38.5621V12.5126C38.5621 12.9286 38.5168 13.2593 38.4261 13.5046C38.3408 13.75 38.2048 13.926 38.0181 14.0326C37.8314 14.134 37.5834 14.1846 37.2741 14.1846H36.3701ZM34.7461 14.1846C34.6768 14.1846 34.6341 14.158 34.6181 14.1046C34.5968 14.0513 34.5861 13.982 34.5861 13.8966C34.5861 13.8113 34.5968 13.7446 34.6181 13.6966C34.6341 13.6433 34.6768 13.6166 34.7461 13.6166V14.1846ZM41.6261 14.1846V13.6166C41.6954 13.6166 41.7381 13.6433 41.7541 13.6966C41.7754 13.7446 41.7861 13.8113 41.7861 13.8966C41.7861 13.982 41.7754 14.0513 41.7541 14.1046C41.7381 14.158 41.6954 14.1846 41.6261 14.1846ZM42.5969 14.1846V8.44863H43.2209V14.1846H42.5969ZM41.6289 14.1846V13.6166H42.5969V14.1846H41.6289ZM41.6289 14.1846C41.5596 14.1846 41.5169 14.158 41.5009 14.1046C41.4796 14.0513 41.4689 13.982 41.4689 13.8966C41.4689 13.8113 41.4796 13.7446 41.5009 13.6966C41.5169 13.6433 41.5596 13.6166 41.6289 13.6166V14.1846ZM44.6 14.1846V8.44863H45.216V14.1846H44.6ZM55.2903 14.1846V13.6166H56.1543V14.1846H55.2903ZM54.6663 14.1846V8.44863H55.2903V14.1846H54.6663ZM53.6983 14.1846V13.6166H54.6663V14.1846H53.6983ZM53.6983 14.1846C53.6289 14.1846 53.5836 14.158 53.5623 14.1046C53.5463 14.0513 53.5383 13.982 53.5383 13.8966C53.5383 13.8113 53.5463 13.7446 53.5623 13.6966C53.5836 13.6433 53.6289 13.6166 53.6983 13.6166V14.1846ZM50.2583 16.1686C49.9489 16.1686 49.6609 16.1233 49.3943 16.0326C49.1276 15.9473 48.8929 15.8246 48.6903 15.6646C48.4929 15.51 48.3383 15.3233 48.2263 15.1046C48.1143 14.886 48.0583 14.646 48.0583 14.3846C48.0583 14.278 48.0663 14.1366 48.0823 13.9606C48.1036 13.7846 48.1276 13.5873 48.1543 13.3686C48.1863 13.1446 48.2209 12.918 48.2583 12.6886L48.8743 12.7766C48.8156 13.134 48.7676 13.4593 48.7303 13.7526C48.6983 14.046 48.6823 14.254 48.6823 14.3766C48.6823 14.6166 48.7489 14.8273 48.8823 15.0086C49.0156 15.1953 49.1996 15.3393 49.4343 15.4406C49.6743 15.5473 49.9489 15.6006 50.2583 15.6006H52.5223C52.9276 15.6006 53.2343 15.4886 53.4423 15.2646C53.6556 15.0406 53.7623 14.7126 53.7623 14.2806V14.0166H54.3783V14.2886C54.3783 14.6566 54.3063 14.982 54.1623 15.2646C54.0183 15.5473 53.8076 15.7686 53.5303 15.9286C53.2583 16.0886 52.9223 16.1686 52.5223 16.1686H50.2583ZM53.2983 14.1846C53.1169 14.1846 52.9329 14.166 52.7463 14.1286C52.5649 14.0913 52.3836 14.014 52.2023 13.8966L52.5543 13.4246C52.6289 13.4726 52.7009 13.5126 52.7703 13.5446C52.8396 13.5713 52.9169 13.59 53.0023 13.6006C53.0876 13.6113 53.1863 13.6166 53.2983 13.6166H54.8103V14.1846H53.2983ZM54.8103 14.1846V13.6166C54.8796 13.6166 54.9223 13.6433 54.9383 13.6966C54.9596 13.7446 54.9703 13.8113 54.9703 13.8966C54.9703 13.982 54.9596 14.0513 54.9383 14.1046C54.9223 14.158 54.8796 14.1846 54.8103 14.1846ZM56.1543 14.1846V13.6166C56.2236 13.6166 56.2663 13.6433 56.2823 13.6966C56.3036 13.7446 56.3143 13.8113 56.3143 13.8966C56.3143 13.982 56.3036 14.0513 56.2823 14.1046C56.2663 14.158 56.2236 14.1846 56.1543 14.1846ZM57.8883 14.1606C57.6003 13.9153 57.379 13.6353 57.2243 13.3206C57.075 13.0006 57.0003 12.662 57.0003 12.3046C57.0003 12.0006 57.0537 11.7206 57.1603 11.4646C57.267 11.2033 57.4137 10.9766 57.6003 10.7846C57.787 10.5926 58.0083 10.446 58.2643 10.3446C58.5203 10.238 58.795 10.1846 59.0883 10.1846C59.243 10.1846 59.4083 10.2006 59.5843 10.2326C59.7657 10.2646 59.939 10.31 60.1043 10.3686L59.8883 10.9046C59.755 10.8566 59.619 10.8193 59.4803 10.7926C59.347 10.766 59.219 10.7526 59.0963 10.7526C58.8137 10.7526 58.5603 10.8193 58.3363 10.9526C58.1123 11.086 57.9363 11.27 57.8083 11.5046C57.6857 11.734 57.6243 12.0006 57.6243 12.3046C57.6243 12.8806 57.8483 13.3553 58.2963 13.7286L57.8883 14.1606ZM56.1523 14.1846V13.6166H60.2003V14.1846H56.1523ZM56.1523 14.1846C56.083 14.1846 56.0403 14.158 56.0243 14.1046C56.003 14.0513 55.9923 13.982 55.9923 13.8966C55.9923 13.8113 56.003 13.7446 56.0243 13.6966C56.0403 13.6433 56.083 13.6166 56.1523 13.6166V14.1846Z" fill="#11014D"/>
</svg>
