<svg width="78" height="24" viewBox="0 0 78 24" fill="none" xmlns="http://www.w3.org/2000/svg">
<path d="M78 0H0L8.6265 12.2718L0 24H78V0Z" fill="#11014D"/>
<path d="M19.1266 18.652C19.0533 18.2413 18.9873 17.849 18.9286 17.475C18.8773 17.101 18.8516 16.7783 18.8516 16.507C18.8516 16.0083 18.9396 15.5757 19.1156 15.209C19.299 14.8497 19.5593 14.5747 19.8966 14.384C20.234 14.186 20.6336 14.087 21.0956 14.087C21.2203 14.087 21.3926 14.087 21.6126 14.087C21.8326 14.087 22.0856 14.087 22.3716 14.087C22.665 14.087 22.9693 14.087 23.2846 14.087C23.6073 14.087 23.9226 14.087 24.2306 14.087L23.5816 14.67V12.294C23.5816 11.8173 23.5266 11.4433 23.4166 11.172C23.314 10.9007 23.127 10.7063 22.8556 10.589C22.5916 10.4717 22.2286 10.413 21.7666 10.413C21.466 10.413 21.1653 10.435 20.8646 10.479C20.564 10.5157 20.3293 10.5707 20.1606 10.644L20.7876 10.028C20.7436 10.204 20.6996 10.4277 20.6556 10.699C20.619 10.963 20.586 11.2453 20.5566 11.546C20.5346 11.8467 20.5236 12.1437 20.5236 12.437C20.5236 12.7377 20.5346 13.0347 20.5566 13.328C20.586 13.6213 20.6153 13.878 20.6446 14.098C20.6813 14.318 20.7106 14.4683 20.7326 14.549L19.7646 14.824C19.7353 14.7287 19.6986 14.5637 19.6546 14.329C19.6106 14.0943 19.5703 13.8157 19.5336 13.493C19.5043 13.163 19.4896 12.811 19.4896 12.437C19.4896 12.0777 19.508 11.7293 19.5446 11.392C19.5813 11.0473 19.6216 10.7357 19.6656 10.457C19.717 10.1783 19.7646 9.95467 19.8086 9.786C19.9773 9.72 20.2376 9.654 20.5896 9.588C20.949 9.522 21.345 9.489 21.7776 9.489C22.1736 9.489 22.5256 9.52567 22.8336 9.599C23.1416 9.67233 23.4056 9.78233 23.6256 9.929C23.853 10.0757 24.04 10.259 24.1866 10.479C24.3333 10.699 24.4396 10.963 24.5056 11.271C24.5716 11.5717 24.6046 11.9163 24.6046 12.305V15C24.2966 15 23.963 15 23.6036 15C23.2516 15 22.907 15 22.5696 15C22.2323 15 21.9316 15 21.6676 15C21.411 15 21.2203 15 21.0956 15C20.9783 15 20.85 15.0147 20.7106 15.044C20.5713 15.0807 20.4356 15.1467 20.3036 15.242C20.179 15.3447 20.0763 15.495 19.9956 15.693C19.915 15.8983 19.8746 16.1697 19.8746 16.507C19.8746 16.7857 19.9003 17.101 19.9516 17.453C20.003 17.8123 20.0616 18.212 20.1276 18.652H19.1266ZM30.7175 15V14.087H31.8945V15H30.7175ZM28.0115 17.519C27.7475 17.519 27.4689 17.497 27.1755 17.453C26.8895 17.4163 26.5742 17.3613 26.2295 17.288L26.3835 16.463C26.7722 16.507 27.0949 16.54 27.3515 16.562C27.6082 16.584 27.8282 16.595 28.0115 16.595C28.5982 16.595 29.0235 16.485 29.2875 16.265C29.5589 16.045 29.6945 15.726 29.6945 15.308V10.138L30.1125 10.413H28.3855C27.9969 10.413 27.6925 10.4607 27.4725 10.556C27.2525 10.644 27.0985 10.8237 27.0105 11.095C26.9225 11.359 26.8785 11.7477 26.8785 12.261C26.8785 12.767 26.9225 13.152 27.0105 13.416C27.0985 13.6727 27.2489 13.8487 27.4615 13.944C27.6815 14.0393 27.9895 14.087 28.3855 14.087H29.6945V15H28.3855C27.7475 15 27.2452 14.9047 26.8785 14.714C26.5119 14.516 26.2479 14.2153 26.0865 13.812C25.9325 13.4013 25.8555 12.8843 25.8555 12.261C25.8555 11.6303 25.9325 11.1097 26.0865 10.699C26.2479 10.2883 26.5119 9.984 26.8785 9.786C27.2452 9.588 27.7475 9.489 28.3855 9.489H30.7175V15.297C30.7175 15.7663 30.6075 16.166 30.3875 16.496C30.1675 16.8333 29.8559 17.0863 29.4525 17.255C29.0492 17.431 28.5689 17.519 28.0115 17.519ZM31.8945 15V14.087C31.9899 14.087 32.0485 14.1273 32.0705 14.208C32.0999 14.2887 32.1145 14.3987 32.1145 14.538C32.1145 14.6773 32.0999 14.791 32.0705 14.879C32.0485 14.9597 31.9899 15 31.8945 15ZM40.4291 15V14.087H41.6061V15H40.4291ZM37.8661 15C37.6021 15 37.3417 14.9523 37.0851 14.857C36.8357 14.7543 36.5974 14.5967 36.3701 14.384L37.0191 13.702C37.1804 13.834 37.3271 13.933 37.4591 13.999C37.5911 14.0577 37.7267 14.087 37.8661 14.087H39.8571L39.4061 14.527V11.953C39.4061 11.821 39.3914 11.6377 39.3621 11.403C39.3401 11.161 39.3034 10.8897 39.2521 10.589C39.2081 10.281 39.1531 9.96933 39.0871 9.654L40.0881 9.489C40.1394 9.753 40.1907 10.0427 40.2421 10.358C40.2934 10.6733 40.3374 10.974 40.3741 11.26C40.4107 11.546 40.4291 11.777 40.4291 11.953V15H37.8661ZM31.8931 15V14.087H33.4991L33.2461 14.34V10.6H34.2691V15H31.8931ZM34.2691 15V14.087H35.4131C35.6624 14.087 35.8494 14.0503 35.9741 13.977C36.0987 13.9037 36.1867 13.757 36.2381 13.537C36.2894 13.317 36.3151 12.9943 36.3151 12.569V10.05H37.3491V12.569C37.3491 13.163 37.2794 13.6397 37.1401 13.999C37.0081 14.3583 36.8027 14.615 36.5241 14.769C36.2454 14.923 35.8751 15 35.4131 15H34.2691ZM31.8931 15C31.7977 15 31.7391 14.9597 31.7171 14.879C31.6877 14.791 31.6731 14.6773 31.6731 14.538C31.6731 14.3987 31.6877 14.2887 31.7171 14.208C31.7391 14.1273 31.7977 14.087 31.8931 14.087V15ZM41.6061 15V14.087C41.7014 14.087 41.7601 14.1273 41.7821 14.208C41.8114 14.2887 41.8261 14.3987 41.8261 14.538C41.8261 14.6773 41.8114 14.791 41.7821 14.879C41.7601 14.9597 41.7014 15 41.6061 15ZM42.913 15V7.146H43.936V15H42.913ZM41.604 15V14.087H42.913V15H41.604ZM41.604 15C41.5087 15 41.45 14.9597 41.428 14.879C41.3987 14.791 41.384 14.6773 41.384 14.538C41.384 14.3987 41.3987 14.2887 41.428 14.208C41.45 14.1273 41.5087 14.087 41.604 14.087V15ZM45.7962 15V7.146H46.8192V15H45.7962ZM60.9322 15V14.087H62.1202V15H60.9322ZM59.9092 15V7.146H60.9322V15H59.9092ZM58.6002 15V14.087H59.9092V15H58.6002ZM58.6002 15C58.5049 15 58.4425 14.9597 58.4132 14.879C58.3912 14.791 58.3802 14.6773 58.3802 14.538C58.3802 14.3987 58.3912 14.2887 58.4132 14.208C58.4425 14.1273 58.5049 14.087 58.6002 14.087V15ZM53.8152 17.728C53.3752 17.728 52.9645 17.6657 52.5832 17.541C52.2092 17.4163 51.8792 17.2403 51.5932 17.013C51.3145 16.793 51.0945 16.529 50.9332 16.221C50.7792 15.913 50.7022 15.5793 50.7022 15.22C50.7022 15.0733 50.7132 14.8827 50.7352 14.648C50.7645 14.406 50.7975 14.1383 50.8342 13.845C50.8782 13.5443 50.9259 13.2363 50.9772 12.921L51.9892 13.053C51.9085 13.537 51.8425 13.977 51.7912 14.373C51.7472 14.7617 51.7252 15.0367 51.7252 15.198C51.7252 15.5133 51.8132 15.792 51.9892 16.034C52.1652 16.276 52.4109 16.4667 52.7262 16.606C53.0415 16.7453 53.4045 16.815 53.8152 16.815H56.9282C57.4635 16.815 57.8669 16.6683 58.1382 16.375C58.4169 16.089 58.5562 15.6673 58.5562 15.11V14.725H59.5792V15.11C59.5792 15.6233 59.4729 16.0743 59.2602 16.463C59.0549 16.859 58.7542 17.167 58.3582 17.387C57.9695 17.6143 57.4929 17.728 56.9282 17.728H53.8152ZM57.9622 15C57.6909 15 57.4195 14.9707 57.1482 14.912C56.8769 14.8533 56.6129 14.7397 56.3562 14.571L56.9392 13.812C57.0419 13.878 57.1409 13.933 57.2362 13.977C57.3315 14.021 57.4379 14.0503 57.5552 14.065C57.6725 14.0797 57.8082 14.087 57.9622 14.087H60.1402V15H57.9622ZM60.1402 15V14.087C60.2282 14.087 60.2869 14.1273 60.3162 14.208C60.3455 14.2887 60.3602 14.3987 60.3602 14.538C60.3602 14.6773 60.3455 14.791 60.3162 14.879C60.2869 14.9597 60.2282 15 60.1402 15ZM62.1202 15V14.087C62.2082 14.087 62.2669 14.1273 62.2962 14.208C62.3255 14.2887 62.3402 14.3987 62.3402 14.538C62.3402 14.6773 62.3255 14.791 62.2962 14.879C62.2669 14.9597 62.2082 15 62.1202 15ZM64.4206 14.923C64.0319 14.5857 63.7349 14.2043 63.5296 13.779C63.3242 13.3537 63.2216 12.9027 63.2216 12.426C63.2216 12.0007 63.2986 11.6083 63.4526 11.249C63.6066 10.8897 63.8119 10.578 64.0686 10.314C64.3326 10.05 64.6442 9.84833 65.0036 9.709C65.3629 9.56233 65.7442 9.489 66.1476 9.489C66.3602 9.489 66.5876 9.511 66.8296 9.555C67.0789 9.599 67.3172 9.66133 67.5446 9.742L67.2036 10.611C67.0276 10.545 66.8516 10.4973 66.6756 10.468C66.4996 10.4313 66.3309 10.413 66.1696 10.413C65.7956 10.413 65.4619 10.501 65.1686 10.677C64.8826 10.8457 64.6589 11.0803 64.4976 11.381C64.3362 11.6817 64.2556 12.0263 64.2556 12.415C64.2556 13.1557 64.5416 13.768 65.1136 14.252L64.4206 14.923ZM62.1216 15V14.087H67.6656V15H62.1216ZM62.1216 15C62.0262 15 61.9676 14.9597 61.9456 14.879C61.9162 14.791 61.9016 14.6773 61.9016 14.538C61.9016 14.3987 61.9162 14.2887 61.9456 14.208C61.9676 14.1273 62.0262 14.087 62.1216 14.087V15Z" fill="#F7F9FD"/>
</svg>
