<svg width="62" height="80" viewBox="0 0 62 80" fill="none" xmlns="http://www.w3.org/2000/svg">
<path d="M4.73247 12.7254V20.2059C4.72765 21.8722 5.05346 23.5232 5.6913 25.0645C6.32915 26.6058 7.26654 28.0073 8.44995 29.189C9.63336 30.3707 11.0396 31.3093 12.5884 31.9514C14.1372 32.5935 15.7983 32.9265 17.4767 32.9313H48.7429C49.7217 32.9285 50.6903 32.7343 51.5934 32.3599C52.4966 31.9855 53.3167 31.4381 54.0068 30.7491C54.6969 30.06 55.2435 29.2427 55.6155 28.3439C55.9874 27.4451 56.1775 26.4824 56.1747 25.5107H21.2524C19.6101 25.5058 18.0371 24.8536 16.8792 23.6975C15.7213 22.5413 15.0734 20.9759 15.078 19.3455V13.6046C15.0756 12.7969 15.2335 11.9966 15.5428 11.2495C15.8521 10.5024 16.3067 9.82317 16.8805 9.2506C17.4544 8.67803 18.1363 8.22336 18.8873 7.91258C19.6382 7.6018 20.4435 7.441 21.2571 7.43938C28.6149 7.44585 40.8914 7.43175 48.7553 7.42059C50.73 7.41203 52.6204 6.62573 54.0115 5.23438C55.4026 3.84304 56.1806 1.96042 56.1747 0H17.4767C15.7983 0.00477834 14.1372 0.337721 12.5884 0.979818C11.0396 1.62191 9.63336 2.56058 8.44995 3.74225C7.26654 4.92391 6.32915 6.32541 5.6913 7.86674C5.05346 9.40807 4.72765 11.059 4.73247 12.7254Z" fill="#FA9C44"/>
<path d="M33.498 13.3994H50.5111C52.2224 13.3994 53.8637 14.0743 55.0738 15.2757C56.2839 16.4771 56.9637 18.1066 56.9637 19.8056H39.9507C38.2393 19.8056 36.5981 19.1307 35.388 17.9293C34.1779 16.7279 33.498 15.0984 33.498 13.3994Z" fill="#F5F5F5"/>
<path d="M3.82421 54.557C1.19581 54.557 0.532785 53.0889 0.532785 50.3894C0.532785 47.4532 1.38524 46.2219 3.76502 46.2219C4.67667 46.2219 5.89616 46.4113 6.57102 46.5534L6.52366 47.8202C5.908 47.7492 4.80691 47.6663 4.02549 47.6663C2.62841 47.6663 2.21402 48.1281 2.21402 50.3894C2.21402 52.5324 2.51001 53.1362 3.97813 53.1362C4.33332 53.1362 4.74771 53.1126 4.96082 53.0889V51.526H4.22676V50.1053H6.57102V54.2847C5.8488 54.4031 4.59379 54.557 3.82421 54.557ZM10.3873 54.557C8.32717 54.557 7.66415 53.2665 7.66415 51.4432C7.66415 49.6199 8.32717 48.353 10.3873 48.353C12.4474 48.353 13.1104 49.6199 13.1104 51.4432C13.1104 53.2665 12.4474 54.557 10.3873 54.557ZM10.3873 53.2073C11.2634 53.2073 11.5002 52.5916 11.5002 51.4432C11.5002 50.2947 11.2634 49.7027 10.3873 49.7027C9.51114 49.7027 9.27435 50.2947 9.27435 51.4432C9.27435 52.5916 9.51114 53.2073 10.3873 53.2073ZM14.3444 54.4149V46.1271H15.9309V54.4149H14.3444ZM19.4891 54.557C17.7013 54.557 17.1804 53.5151 17.1804 51.4313C17.1804 49.2647 18.021 48.353 19.6312 48.353C19.9509 48.353 20.5428 48.4477 20.9099 48.5188V46.1271H22.4964V54.4149H20.9217V54.1663C20.5665 54.332 19.9272 54.557 19.4891 54.557ZM19.7614 53.1362C20.164 53.1362 20.6612 53.0297 20.9099 52.9586V49.8448C20.6257 49.7974 20.1166 49.7264 19.7496 49.7264C19.1576 49.7264 18.7906 50.2355 18.7906 51.4313C18.7906 52.639 19.0155 53.1362 19.7614 53.1362ZM26.212 54.557C24.4242 54.557 23.6665 53.669 23.6665 51.5379C23.6665 49.4304 24.5545 48.353 26.283 48.353C28.0235 48.353 28.8641 49.241 28.8641 51.0288L28.7457 52.1299H25.2648C25.2767 52.8402 25.6082 53.1599 26.4606 53.1599C27.171 53.1599 28.13 53.1007 28.651 53.0534L28.6747 54.2255C28.0945 54.3676 27.0171 54.557 26.212 54.557ZM25.253 50.9222H27.3013C27.3013 49.9632 27.0289 49.6554 26.283 49.6554C25.5253 49.6554 25.2648 50.0224 25.253 50.9222ZM29.9979 54.4149V48.4951H31.5726V48.8266C31.916 48.6253 32.5553 48.353 33.0526 48.353C34.7101 48.353 35.1363 49.3949 35.1363 51.2064V54.4149H33.5498V51.2537C33.5498 50.3539 33.4314 49.7738 32.6619 49.7738C32.2593 49.7738 31.8094 49.8922 31.5844 49.9869V54.4149H29.9979ZM39.2857 54.4149V46.3639H41.997C44.803 46.3639 45.4186 47.5597 45.4186 50.2355C45.4186 52.9823 44.8859 54.4149 41.997 54.4149H39.2857ZM40.9196 52.9942H41.997C43.5835 52.9942 43.7374 52.0233 43.7374 50.2355C43.7374 48.4714 43.5835 47.7847 41.997 47.7847H40.9196V52.9942ZM48.9432 54.557C47.1555 54.557 46.3977 53.669 46.3977 51.5379C46.3977 49.4304 47.2857 48.353 49.0143 48.353C50.7547 48.353 51.5953 49.241 51.5953 51.0288L51.4769 52.1299H47.9961C48.0079 52.8402 48.3394 53.1599 49.1919 53.1599C49.9023 53.1599 50.8613 53.1007 51.3822 53.0534L51.4059 54.2255C50.8258 54.3676 49.7483 54.557 48.9432 54.557ZM47.9842 50.9222H50.0325C50.0325 49.9632 49.7602 49.6554 49.0143 49.6554C48.2565 49.6554 47.9961 50.0224 47.9842 50.9222ZM54.1736 54.557C52.9304 54.557 52.3385 53.8703 52.3385 52.6153C52.3385 51.2774 53.108 50.8985 54.4104 50.8038L55.6772 50.7091V50.3421C55.6772 49.833 55.4523 49.7027 54.9787 49.7027C54.4104 49.7027 53.3685 49.7619 52.7528 49.7974L52.7055 48.6964C53.2501 48.5543 54.2802 48.353 55.1089 48.353C56.6481 48.353 57.2638 48.9568 57.2638 50.3421V52.8047C57.2874 53.1599 57.3348 53.302 57.6545 53.3612L57.6071 54.557C57.169 54.557 56.8612 54.5333 56.5771 54.4504C56.3403 54.3912 56.139 54.2965 55.914 54.1426C55.547 54.3202 54.8248 54.557 54.1736 54.557ZM54.517 53.2665C54.884 53.2665 55.3931 53.1599 55.6772 53.077V51.8102L54.5998 51.9049C54.1854 51.9404 53.9368 52.1417 53.9368 52.5679C53.9368 52.9823 54.0907 53.2665 54.517 53.2665ZM58.8472 54.4149V46.1271H60.4337V54.4149H58.8472Z" fill="white"/>
<path d="M10.738 71.2412C10.9275 71.2412 10.9748 71.5135 10.9748 71.9516C10.9748 72.3897 10.9275 72.662 10.738 72.662H9.3291V72.7212C9.3291 74.4379 7.90834 75.5982 5.86008 75.5982C3.78813 75.5982 2.24898 74.3551 2.24898 72.6501C2.24898 72.0108 2.47393 70.4598 2.67521 69.193L4.23804 69.4179C3.97757 71.0636 3.83549 72.2239 3.83549 72.6501C3.83549 73.5381 4.61691 74.1775 5.86008 74.1775C7.0914 74.1775 7.74258 73.621 7.74258 72.7212V64.3742H9.3291V71.2412H10.738ZM13.7315 66.7422V72.662H10.7361C10.5466 72.662 10.4993 72.3897 10.4993 71.9516C10.4993 71.5135 10.5466 71.2412 10.7361 71.2412H12.145V66.7422H13.7315ZM10.9729 74.9826V73.3724H12.5594V74.9826H10.9729ZM13.3053 73.3724H14.8918V74.9826H13.3053V73.3724ZM16.6114 66.7422C18.5058 66.7422 19.6187 67.5354 19.6187 69.9152V72.662H15.0367V71.2412H18.0322V69.9152C18.0322 68.4589 17.7362 68.1629 16.6114 68.1629H15.6524V66.7422H16.6114ZM26.0274 66.7422V65.132H27.6139V66.7422H26.0274ZM26.8917 75.5982C24.8197 75.5982 23.2806 74.3551 23.2806 72.6501C23.2806 72.0108 23.5055 70.4598 23.7068 69.193L25.2696 69.4179C25.0092 71.0636 24.8671 72.2239 24.8671 72.6501C24.8671 73.5381 25.6485 74.1775 26.8917 74.1775C28.123 74.1775 28.7742 73.621 28.7742 72.7212V66.7422H30.3607V72.7212C30.3607 74.4379 28.9399 75.5982 26.8917 75.5982ZM37.654 71.2412C37.8435 71.2412 37.8908 71.5135 37.8908 71.9516C37.8908 72.3897 37.8435 72.662 37.654 72.662H31.6632V71.2412H34.6586V69.9152C34.6586 68.4589 34.3626 68.1629 33.2378 68.1629H32.2788V66.7422H33.2378C35.1322 66.7422 36.2451 67.5354 36.2451 69.9152V71.2412H37.654ZM40.6127 71.2412C40.8022 71.2412 40.8495 71.5135 40.8495 71.9516C40.8495 72.3897 40.8022 72.662 40.6127 72.662H37.6528C37.4634 72.662 37.416 72.3897 37.416 71.9516C37.416 71.5135 37.4634 71.2412 37.6528 71.2412H40.6127ZM42.3769 64.3742H43.9634V72.662H40.6127C40.4233 72.662 40.3759 72.3897 40.3759 71.9516C40.3759 71.5135 40.4233 71.2412 40.6127 71.2412H42.3769V64.3742ZM52.1746 71.2412C52.3641 71.2412 52.4114 71.5135 52.4114 71.9516C52.4114 72.3897 52.3641 72.662 52.1746 72.662H50.7657V72.733C50.7657 74.4498 49.8659 75.5745 48.0663 75.5745C47.498 75.5745 46.7639 75.468 46.1246 75.3259L46.4679 73.9407C47.1073 74.0827 47.6519 74.1538 48.0663 74.1538C48.8477 74.1538 49.1792 73.7986 49.1792 72.733V72.662H47.9005C45.8286 72.662 45.2603 71.7385 45.2603 69.7021C45.2603 67.6656 45.8286 66.7422 47.9005 66.7422H50.7657V71.2412H52.1746ZM47.9005 71.2412H49.1792V68.1629H47.9005C46.9652 68.1629 46.8468 68.2221 46.8468 69.7021C46.8468 71.182 46.9652 71.2412 47.9005 71.2412ZM55.9281 64.2677V65.8779H54.3416V64.2677H55.9281ZM58.2605 64.2677V65.8779H56.674V64.2677H58.2605ZM55.9044 66.7422H58.7696V72.662H52.1749C51.9855 72.662 51.9381 72.3897 51.9381 71.9516C51.9381 71.5135 51.9855 71.2412 52.1749 71.2412H53.4418C53.3115 70.8268 53.2642 70.3177 53.2642 69.7021C53.2642 67.6656 53.8325 66.7422 55.9044 66.7422ZM54.8507 69.7021C54.8507 71.182 54.9691 71.2412 55.9044 71.2412H57.1831V68.1629H55.9044C54.9691 68.1629 54.8507 68.2221 54.8507 69.7021Z" fill="white"/>
</svg>
