<svg width="62" height="70" viewBox="0 0 62 70" fill="none" xmlns="http://www.w3.org/2000/svg">
<path d="M8.32129 10.8504V17.2302C8.32141 20.1078 9.47334 22.8675 11.5237 24.9023C13.574 26.937 16.3548 28.0801 19.2544 28.0801H46.0765C47.7673 28.0801 49.3888 27.4135 50.5844 26.227C51.78 25.0404 52.4516 23.4312 52.4516 21.7532H22.4932C21.0883 21.7532 19.741 21.1993 18.7476 20.2134C17.7543 19.2276 17.1962 17.8905 17.1962 16.4963V11.6001C17.1961 10.9094 17.3331 10.2254 17.5995 9.58735C17.8659 8.94926 18.2564 8.36952 18.7487 7.8813C19.241 7.39308 19.8254 7.00595 20.4685 6.74203C21.1117 6.4781 21.8009 6.34257 22.4969 6.34318C28.8089 6.34875 39.3406 6.33668 46.0872 6.32693C47.7763 6.32447 49.3954 5.65677 50.5888 4.47048C51.7822 3.28419 52.4524 1.67631 52.4521 0H19.2544C17.8186 0 16.3969 0.280658 15.0704 0.825939C13.744 1.37122 12.5387 2.17045 11.5235 3.17799C10.5083 4.18554 9.70296 5.38168 9.15352 6.69811C8.60408 8.01453 8.32129 9.42547 8.32129 10.8504Z" fill="white"/>
<path d="M33.1104 11.4258H47.6218C49.0814 11.4259 50.4812 12.0014 51.5132 13.0258C52.5453 14.0501 53.1251 15.4393 53.1251 16.8879H38.6141C37.1544 16.8879 35.7545 16.3124 34.7224 15.2881C33.6902 14.2637 33.1104 12.8744 33.1104 11.4258Z" fill="#FA9C44"/>
<path d="M4.12205 49.3227C4.88612 49.3227 6.13215 49.1699 6.8492 49.0523V44.9028H4.52172V46.3134H5.25053V47.8651C5.03894 47.8886 4.62751 47.9121 4.27486 47.9121C2.81725 47.9121 2.52337 47.3126 2.52337 45.185C2.52337 42.9398 2.9348 42.4813 4.32188 42.4813C5.09771 42.4813 6.19092 42.5636 6.80218 42.6341L6.8492 41.3763C6.17917 41.2353 4.96841 41.0472 4.06328 41.0472C1.70053 41.0472 0.854169 42.2697 0.854169 45.185C0.854169 47.8651 1.51245 49.3227 4.12205 49.3227ZM10.6382 49.3227C12.6835 49.3227 13.3418 48.0414 13.3418 46.2311C13.3418 44.4209 12.6835 43.1631 10.6382 43.1631C8.59279 43.1631 7.93452 44.4209 7.93452 46.2311C7.93452 48.0414 8.59279 49.3227 10.6382 49.3227ZM10.6382 47.9826C9.76829 47.9826 9.53319 47.3714 9.53319 46.2311C9.53319 45.0909 9.76829 44.5032 10.6382 44.5032C11.508 44.5032 11.7431 45.0909 11.7431 46.2311C11.7431 47.3714 11.508 47.9826 10.6382 47.9826ZM14.567 49.1816H16.1421V40.9532H14.567V49.1816ZM19.6749 49.3227C20.1098 49.3227 20.7446 49.0994 21.0972 48.9348V49.1816H22.6606V40.9532H21.0855V43.3277C20.7211 43.2571 20.1333 43.1631 19.8159 43.1631C18.2173 43.1631 17.3827 44.0682 17.3827 46.2194C17.3827 48.2883 17.8999 49.3227 19.6749 49.3227ZM19.9452 47.9121C19.2047 47.9121 18.9813 47.4184 18.9813 46.2194C18.9813 45.0321 19.3457 44.5267 19.9335 44.5267C20.2979 44.5267 20.8034 44.5972 21.0855 44.6442V47.7358C20.8386 47.8063 20.3449 47.9121 19.9452 47.9121ZM26.3497 49.3227C27.149 49.3227 28.2187 49.1346 28.7947 48.9936L28.7712 47.8298C28.254 47.8768 27.3018 47.9356 26.5965 47.9356C25.7502 47.9356 25.421 47.6182 25.4093 46.9129H28.8652L28.9828 45.8197C28.9828 44.0447 28.1482 43.1631 26.4202 43.1631C24.704 43.1631 23.8224 44.2328 23.8224 46.3252C23.8224 48.4411 24.5747 49.3227 26.3497 49.3227ZM25.3975 45.7139C25.4093 44.8205 25.6679 44.4561 26.4202 44.4561C27.1608 44.4561 27.4311 44.7618 27.4311 45.7139H25.3975ZM30.1085 49.1816H31.6837V44.7853C31.907 44.6912 32.3537 44.5737 32.7534 44.5737C33.5175 44.5737 33.635 45.1497 33.635 46.0431V49.1816H35.2102V45.996C35.2102 44.1975 34.787 43.1631 33.1413 43.1631C32.6476 43.1631 32.0128 43.4335 31.6719 43.6333V43.3042H30.1085V49.1816Z" fill="#FA9C44"/>
<path d="M39.3298 49.1816H42.0217C44.8899 49.1816 45.4189 47.7593 45.4189 45.0321C45.4189 42.3755 44.8076 41.1883 42.0217 41.1883H39.3298V49.1816ZM40.952 47.771V42.5989H42.0217C43.5969 42.5989 43.7497 43.2806 43.7497 45.0321C43.7497 46.8071 43.5969 47.771 42.0217 47.771H40.952ZM48.9183 49.3227C49.7176 49.3227 50.7873 49.1346 51.3633 48.9936L51.3398 47.8298C50.8226 47.8768 49.8705 47.9356 49.1652 47.9356C48.3188 47.9356 47.9897 47.6182 47.9779 46.9129H51.4339L51.5514 45.8197C51.5514 44.0447 50.7168 43.1631 48.9888 43.1631C47.2726 43.1631 46.391 44.2328 46.391 46.3252C46.391 48.4411 47.1433 49.3227 48.9183 49.3227ZM47.9662 45.7139C47.9779 44.8205 48.2365 44.4561 48.9888 44.4561C49.7294 44.4561 49.9998 44.7618 49.9998 45.7139H47.9662ZM54.1112 49.3227C54.7578 49.3227 55.4748 49.0876 55.8392 48.9113C56.0626 49.0641 56.2624 49.1581 56.4975 49.2169C56.7796 49.2992 57.0853 49.3227 57.5202 49.3227L57.5672 48.1354C57.2498 48.0767 57.2028 47.9356 57.1793 47.583V45.1379C57.1793 43.7626 56.568 43.1631 55.0399 43.1631C54.217 43.1631 53.1944 43.3629 52.6536 43.504L52.7006 44.5972C53.3119 44.5619 54.3463 44.5032 54.9106 44.5032C55.3808 44.5032 55.6041 44.6325 55.6041 45.1379V45.5023L54.3463 45.5964C53.0533 45.6904 52.2892 46.0666 52.2892 47.3949C52.2892 48.6409 52.877 49.3227 54.1112 49.3227ZM54.4521 48.0414C54.029 48.0414 53.8761 47.7593 53.8761 47.3479C53.8761 46.9247 54.123 46.7249 54.5344 46.6896L55.6041 46.5955V47.8533C55.322 47.9356 54.8165 48.0414 54.4521 48.0414ZM58.7514 49.1816H60.3266V40.9532H58.7514V49.1816Z" fill="white"/>
<path d="M9.87587 61.8687H8.47703V55.0508H6.90187V63.3381C6.90187 64.2314 6.25534 64.7839 5.03283 64.7839C3.79856 64.7839 3.02273 64.1492 3.02273 63.2675C3.02273 62.8444 3.16379 61.6924 3.4224 60.0584L1.87074 59.8351C1.67091 61.0929 1.44756 62.6328 1.44756 63.2675C1.44756 64.9603 2.97571 66.1945 5.03283 66.1945C7.06644 66.1945 8.47703 65.0425 8.47703 63.3381V63.2793H9.87587C10.064 63.2793 10.111 63.0089 10.111 62.574C10.111 62.1391 10.064 61.8687 9.87587 61.8687ZM12.848 57.4018H11.2728V61.8687H9.87395C9.68587 61.8687 9.63885 62.1391 9.63885 62.574C9.63885 63.0089 9.68587 63.2793 9.87395 63.2793H12.848V57.4018ZM10.109 65.5833H11.6842V63.9846H10.109V65.5833ZM12.4248 63.9846V65.5833H13.9999V63.9846H12.4248ZM15.7073 57.4018H14.7551V58.8124H15.7073C16.824 58.8124 17.1179 59.1063 17.1179 60.5521V61.8687H14.1438V63.2793H18.693V60.5521C18.693 58.1894 17.5881 57.4018 15.7073 57.4018Z" fill="white"/>
<path d="M25.0559 57.4018H26.631V55.8031H25.0559V57.4018ZM25.914 66.1945C27.9476 66.1945 29.3582 65.0425 29.3582 63.3381V57.4018H27.783V63.3381C27.783 64.2314 27.1365 64.7839 25.914 64.7839C24.6797 64.7839 23.9039 64.1492 23.9039 63.2675C23.9039 62.8444 24.0449 61.6924 24.3035 60.0584L22.7519 59.8351C22.552 61.0929 22.3287 62.6328 22.3287 63.2675C22.3287 64.9603 23.8568 66.1945 25.914 66.1945ZM36.5993 61.8687H35.2005V60.5521C35.2005 58.1894 34.0955 57.4018 32.2147 57.4018H31.2626V58.8124H32.2147C33.3314 58.8124 33.6253 59.1063 33.6253 60.5521V61.8687H30.6513V63.2793H36.5993C36.7874 63.2793 36.8344 63.0089 36.8344 62.574C36.8344 62.1391 36.7874 61.8687 36.5993 61.8687ZM39.5369 61.8687H36.5981C36.41 61.8687 36.363 62.1391 36.363 62.574C36.363 63.0089 36.41 63.2793 36.5981 63.2793H39.5369C39.725 63.2793 39.772 63.0089 39.772 62.574C39.772 62.1391 39.725 61.8687 39.5369 61.8687ZM42.4756 61.8687H39.5369C39.3488 61.8687 39.3018 62.1391 39.3018 62.574C39.3018 63.0089 39.3488 63.2793 39.5369 63.2793H42.4756C42.6637 63.2793 42.7107 63.0089 42.7107 62.574C42.7107 62.1391 42.6637 61.8687 42.4756 61.8687ZM44.2271 55.0508V61.8687H42.4756C42.2875 61.8687 42.2405 62.1391 42.2405 62.574C42.2405 63.0089 42.2875 63.2793 42.4756 63.2793H45.8023V55.0508H44.2271ZM53.9548 61.8687H52.556V57.4018H49.7113C47.6541 57.4018 47.0899 58.3187 47.0899 60.3406C47.0899 62.3624 47.6541 63.2793 49.7113 63.2793H50.9808V63.3498C50.9808 64.4078 50.6517 64.7604 49.8758 64.7604C49.4644 64.7604 48.9237 64.6899 48.2889 64.5488L47.948 65.9242C48.5828 66.0652 49.3116 66.171 49.8758 66.171C51.6626 66.171 52.556 65.0543 52.556 63.3498V63.2793H53.9548C54.1429 63.2793 54.1899 63.0089 54.1899 62.574C54.1899 62.1391 54.1429 61.8687 53.9548 61.8687ZM49.7113 61.8687C48.7826 61.8687 48.6651 61.8099 48.6651 60.3406C48.6651 58.8712 48.7826 58.8124 49.7113 58.8124H50.9808V61.8687H49.7113ZM57.6814 54.945H56.1062V56.5437H57.6814V54.945ZM59.9971 54.945H58.422V56.5437H59.9971V54.945ZM57.6579 57.4018C55.6008 57.4018 55.0365 58.3187 55.0365 60.3406C55.0365 60.9518 55.0836 61.4573 55.2129 61.8687H53.9551C53.767 61.8687 53.72 62.1391 53.72 62.574C53.72 63.0089 53.767 63.2793 53.9551 63.2793H60.5026V57.4018H57.6579ZM56.6117 60.3406C56.6117 58.8712 56.7292 58.8124 57.6579 58.8124H58.9274V61.8687H57.6579C56.7292 61.8687 56.6117 61.8099 56.6117 60.3406Z" fill="#FA9C44"/>
</svg>
