<svg width="24" height="24" viewBox="0 0 24 24" fill="none" xmlns="http://www.w3.org/2000/svg">
<path fill-rule="evenodd" clip-rule="evenodd" d="M12 22.8C17.9647 22.8 22.8 17.9648 22.8 12C22.8 6.03533 17.9648 1.19997 12 1.19997C6.03533 1.19997 1.19997 6.03533 1.19997 12C1.19997 17.9647 6.03533 22.8 12 22.8ZM12 24C18.6273 24 24 18.6273 24 12C24 5.37253 18.6273 0 12 0C5.37253 0 0 5.37253 0 12C0 18.6273 5.37253 24 12 24Z" fill="#12004C"/>
<path fill-rule="evenodd" clip-rule="evenodd" d="M16.8002 11.9999C16.8002 12.3312 16.5315 12.5999 16.2003 12.5999H7.80018C7.46878 12.5999 7.2002 12.3312 7.2002 11.9999C7.2002 11.6686 7.46878 11.3999 7.80018 11.3999H16.2001C16.5315 11.3999 16.8002 11.6686 16.8002 11.9999Z" fill="#12004C"/>
<path fill-rule="evenodd" clip-rule="evenodd" d="M12.0004 16.8002C11.6691 16.8002 11.4004 16.5315 11.4004 16.2003V7.80018C11.4004 7.46878 11.6691 7.2002 12.0004 7.2002C12.3316 7.2002 12.6004 7.46878 12.6004 7.80018V16.2001C12.6004 16.5315 12.3316 16.8002 12.0004 16.8002Z" fill="#12004C"/>
</svg>
