<svg width="40" height="40" viewBox="0 0 40 40" fill="none" xmlns="http://www.w3.org/2000/svg">
<g clip-path="url(#clip0_2006_193)">
<mask id="mask0_2006_193" style="mask-type:luminance" maskUnits="userSpaceOnUse" x="0" y="0" width="40" height="40">
<path d="M0 0H40V40H0V0Z" fill="white"/>
</mask>
<g mask="url(#mask0_2006_193)">
<path fill-rule="evenodd" clip-rule="evenodd" d="M0 20C0 8.955 8.955 0 20 0C31.045 0 40 8.955 40 20C40 31.045 31.045 40 20 40C8.955 40 0 31.045 0 20ZM20 3.33333C10.795 3.33333 3.33333 10.795 3.33333 20C3.33333 29.205 10.795 36.6667 20 36.6667C29.205 36.6667 36.6667 29.205 36.6667 20C36.6667 10.795 29.205 3.33333 20 3.33333ZM13.8217 13.8217C14.1342 13.5092 14.5581 13.3337 15 13.3337C15.4419 13.3337 15.8658 13.5092 16.1783 13.8217L20 17.6433L23.8217 13.8217C23.9754 13.6625 24.1593 13.5355 24.3627 13.4482C24.566 13.3608 24.7847 13.3148 25.006 13.3129C25.2273 13.311 25.4468 13.3532 25.6516 13.437C25.8564 13.5208 26.0425 13.6445 26.199 13.801C26.3555 13.9575 26.4792 14.1436 26.563 14.3484C26.6468 14.5532 26.689 14.7727 26.6871 14.994C26.6852 15.2153 26.6392 15.434 26.5518 15.6373C26.4645 15.8407 26.3375 16.0246 26.1783 16.1783L22.3567 20L26.1783 23.8217C26.4819 24.136 26.6499 24.557 26.6461 24.994C26.6423 25.431 26.467 25.849 26.158 26.158C25.849 26.467 25.431 26.6423 24.994 26.6461C24.557 26.6499 24.136 26.4819 23.8217 26.1783L20 22.3567L16.1783 26.1783C15.864 26.4819 15.443 26.6499 15.006 26.6461C14.569 26.6423 14.151 26.467 13.842 26.158C13.533 25.849 13.3577 25.431 13.3539 24.994C13.3501 24.557 13.5181 24.136 13.8217 23.8217L17.6433 20L13.8217 16.1783C13.5092 15.8658 13.3337 15.4419 13.3337 15C13.3337 14.5581 13.5092 14.1342 13.8217 13.8217Z" fill="#EB5757"/>
</g>
</g>
<defs>
<clipPath id="clip0_2006_193">
<rect width="40" height="40" fill="white"/>
</clipPath>
</defs>
</svg>
