<svg width="40" height="40" viewBox="0 0 40 40" fill="none" xmlns="http://www.w3.org/2000/svg">
<path d="M33.0001 6.99935C29.5001 3.49935 24.8334 1.66602 20.0001 1.66602C15.1667 1.66602 10.5001 3.49935 7.00008 6.99935C3.50008 10.4993 1.66675 15.166 1.66675 19.9993C1.66675 24.8327 3.50008 29.4993 7.00008 32.9993C10.5001 36.4993 15.1667 38.3327 20.0001 38.3327C24.8334 38.3327 29.5001 36.4993 33.0001 32.9993C36.5001 29.4993 38.3334 24.8327 38.3334 19.9993C38.3334 15.166 36.5001 10.4993 33.0001 6.99935ZM30.6667 30.666C27.8334 33.4993 24.0001 34.9994 20.0001 34.9994C16.0001 34.9994 12.1667 33.4993 9.33341 30.666C6.50008 27.8327 5.00008 23.9994 5.00008 19.9993C5.00008 15.9993 6.50008 12.166 9.33341 9.33268C12.1667 6.49935 16.0001 4.99935 20.0001 4.99935C24.0001 4.99935 27.8334 6.49935 30.6667 9.33268C33.5001 12.166 35.0001 15.9993 35.0001 19.9993C35.0001 23.9994 33.5001 27.8327 30.6667 30.666ZM27.1667 13.8327L18.3334 22.666L14.5001 18.8327C13.8334 18.166 12.8334 18.166 12.1667 18.8327C11.5001 19.4994 11.5001 20.4993 12.1667 21.166L17.1667 26.166C17.5001 26.4993 18.0001 26.666 18.3334 26.666C18.6667 26.666 19.1667 26.4993 19.5001 26.166L29.5001 16.166C30.1668 15.4993 30.1668 14.4993 29.5001 13.8327C28.8334 13.166 27.8334 13.166 27.1667 13.8327Z" fill="#5FCE64"/>
</svg>
