<svg width="22" height="26" viewBox="0 0 22 26" fill="none" xmlns="http://www.w3.org/2000/svg">
<path d="M19.4323 19.0637V11.584C19.4323 7.78571 16.7936 4.57898 13.2134 3.62061V3.08887C13.2134 1.93713 12.2544 1 11.0755 1H11.0493C9.87064 1 8.9116 1.93713 8.9116 3.08887V3.57959C5.25121 4.48486 2.5345 7.73022 2.5345 11.5842V19.1501C1.59326 19.7037 1 20.704 1 21.7755C1 21.8998 1.05059 22.019 1.14054 22.1069C1.23048 22.1948 1.35247 22.2443 1.47971 22.2443H8.52221V22.5176C8.52221 23.8864 9.6617 25 11.0624 25C12.4633 25 13.6028 23.8864 13.6028 22.5176V22.2444H20.6453C20.9101 22.2444 21.125 22.0344 21.125 21.7757C21.125 20.6436 20.4568 19.5911 19.4323 19.0637ZM9.87101 3.32819V3.08887C9.87101 2.45404 10.3996 1.9375 11.0493 1.9375H11.0755C11.7252 1.9375 12.2538 2.45404 12.2538 3.08887V3.32819H9.87101ZM12.6434 22.5176C12.6434 23.3694 11.9341 24.0625 11.0624 24.0625C10.1907 24.0625 9.48162 23.3694 9.48162 22.5176V22.2444H12.6434V22.5176ZM13.1231 21.3069H2.01488C2.15692 20.7124 2.56354 20.1917 3.13376 19.8965H12.0938C12.3587 19.8965 12.5735 19.6866 12.5735 19.4277C12.5735 19.1688 12.3587 18.959 12.0938 18.959H3.49391V11.5844C3.49391 7.54895 6.85373 4.26587 10.9833 4.26569C15.1131 4.26569 18.4729 7.54877 18.4729 11.584V19.3631C18.4729 19.5552 18.5929 19.7278 18.7756 19.7987C19.4528 20.0618 19.949 20.6377 20.1097 21.3068H13.1231V21.3069Z" fill="#F7F9FD" stroke="white"/>
<path d="M13.9397 18.959C13.8136 18.959 13.6899 19.0092 13.6005 19.0963C13.5113 19.184 13.46 19.3049 13.46 19.4281C13.46 19.5515 13.5113 19.6718 13.6005 19.7595C13.6899 19.8467 13.8136 19.8965 13.9397 19.8965C14.066 19.8965 14.1896 19.8467 14.2788 19.7595C14.368 19.6724 14.4194 19.5515 14.4194 19.4281C14.4194 19.3043 14.368 19.184 14.2788 19.0963C14.1896 19.0092 14.066 18.959 13.9397 18.959Z" fill="#F7F9FD" stroke="white"/>
</svg>
