<svg width="20" height="24" viewBox="0 0 20 24" fill="none" xmlns="http://www.w3.org/2000/svg">
<path d="M18.0114 18.0637V10.584C18.0114 6.78571 15.4329 3.57898 11.9344 2.62061V2.08887C11.9344 0.937134 10.9973 0 9.8454 0H9.81976C8.66803 0 7.7309 0.937134 7.7309 2.08887V2.57959C4.15411 3.48486 1.49945 6.73022 1.49945 10.5842V18.1501C0.579712 18.7037 0 19.704 0 20.7755C0 20.8998 0.0494385 21.019 0.137329 21.1069C0.22522 21.1948 0.344421 21.2443 0.46875 21.2443H7.3504V21.5176C7.3504 22.8864 8.46387 24 9.83258 24C11.2015 24 12.3149 22.8864 12.3149 21.5176V21.2444H19.1966C19.4553 21.2444 19.6653 21.0344 19.6653 20.7757C19.6653 19.6436 19.0124 18.5911 18.0114 18.0637ZM8.6684 2.32819V2.08887C8.6684 1.45404 9.18494 0.9375 9.81976 0.9375H9.8454C10.4802 0.9375 10.9968 1.45404 10.9968 2.08887V2.32819H8.6684ZM11.3774 21.5176C11.3774 22.3694 10.6844 23.0625 9.83258 23.0625C8.98077 23.0625 8.2879 22.3694 8.2879 21.5176V21.2444H11.3774V21.5176ZM11.8462 20.3069H0.991699C1.13049 19.7124 1.52783 19.1917 2.08502 18.8965H10.8404C11.0993 18.8965 11.3091 18.6866 11.3091 18.4277C11.3091 18.1688 11.0993 17.959 10.8404 17.959H2.43695V10.5844C2.43695 6.54895 5.72003 3.26587 9.75531 3.26569C13.7908 3.26569 17.0739 6.54877 17.0739 10.584V18.3631C17.0739 18.5552 17.191 18.7278 17.3696 18.7987C18.0313 19.0618 18.5162 19.6377 18.6733 20.3068H11.8462V20.3069Z" fill="#14274E"/>
<path d="M12.645 17.959C12.5218 17.959 12.4009 18.0092 12.3136 18.0963C12.2264 18.184 12.1763 18.3049 12.1763 18.4281C12.1763 18.5515 12.2264 18.6718 12.3136 18.7595C12.4009 18.8467 12.5218 18.8965 12.645 18.8965C12.7684 18.8965 12.8893 18.8467 12.9764 18.7595C13.0636 18.6724 13.1138 18.5515 13.1138 18.4281C13.1138 18.3043 13.0636 18.184 12.9764 18.0963C12.8893 18.0092 12.7684 17.959 12.645 17.959Z" fill="#14274E"/>
</svg>
