<svg width="16" height="17" viewBox="0 0 16 17" fill="none" xmlns="http://www.w3.org/2000/svg">
<path d="M0.456829 11.4147L3.95795 9.91472C4.1075 9.85084 4.27375 9.8373 4.43167 9.87612C4.58958 9.91494 4.7306 10.004 4.83347 10.13L6.38374 12.0237C8.81668 10.8768 10.7746 8.91901 11.9216 6.48624L10.0258 4.93415C9.89959 4.83148 9.8103 4.69047 9.77145 4.53249C9.73261 4.37451 9.74633 4.20818 9.81053 4.05869L11.3106 0.561678C11.3808 0.400602 11.5051 0.269081 11.6619 0.18979C11.8188 0.110499 11.9983 0.0884087 12.1697 0.127326L15.4208 0.880203C15.5857 0.918764 15.7326 1.01195 15.8378 1.14461C15.9429 1.27727 16.0001 1.4416 16 1.61088C15.9997 5.456 14.472 9.14354 11.7528 11.8624C9.03361 14.5812 5.3457 16.1086 1.50031 16.1086C1.33086 16.1089 1.16629 16.0518 1.03342 15.9467C0.900558 15.8415 0.80722 15.6944 0.768619 15.5294L0.0185854 12.2776C-0.0202831 12.1052 0.00222735 11.9247 0.0822333 11.7672C0.162239 11.6097 0.294723 11.485 0.456829 11.4147Z" fill="#11014D"/>
</svg>
