<svg width="35" height="35" viewBox="0 0 35 35" fill="none" xmlns="http://www.w3.org/2000/svg">
<path d="M32.3641 14.1367H21.3191V3.08672C21.3178 2.43648 21.0585 1.81332 20.5983 1.354C20.138 0.894682 19.5143 0.636717 18.8641 0.636719H16.4101C15.7598 0.636717 15.1362 0.894682 14.6759 1.354C14.2156 1.81332 13.9564 2.43648 13.9551 3.08672V14.1367H2.91008C2.25984 14.1367 1.63615 14.3947 1.1759 14.854C0.715638 15.3133 0.456402 15.9365 0.455078 16.5867L0.455078 19.0417C0.455078 19.6928 0.713729 20.3173 1.17413 20.7777C1.63453 21.2381 2.25897 21.4967 2.91008 21.4967H13.9551V32.5457C13.9551 33.1968 14.2137 33.8213 14.6741 34.2817C15.1345 34.7421 15.759 35.0007 16.4101 35.0007H18.8651C19.1875 35.0007 19.5067 34.9372 19.8046 34.8138C20.1024 34.6905 20.3731 34.5096 20.601 34.2817C20.829 34.0537 21.0098 33.7831 21.1332 33.4852C21.2566 33.1874 21.3201 32.8681 21.3201 32.5457V21.5007H32.3641C33.0152 21.5007 33.6396 21.2421 34.1 20.7817C34.5604 20.3213 34.8191 19.6968 34.8191 19.0457V16.5867C34.8178 15.9365 34.5585 15.3133 34.0983 14.854C33.638 14.3947 33.0143 14.1367 32.3641 14.1367Z" fill="#707070"/>
</svg>
