<svg width="76" height="76" viewBox="0 0 76 76" fill="none" xmlns="http://www.w3.org/2000/svg">
<path d="M2 16.4C2 12.5809 3.51714 8.91819 6.21766 6.21766C8.91819 3.51714 12.5809 2 16.4 2H59.6C63.4191 2 67.0818 3.51714 69.7823 6.21766C72.4829 8.91819 74 12.5809 74 16.4V59.6C74 63.4191 72.4829 67.0818 69.7823 69.7823C67.0818 72.4829 63.4191 74 59.6 74H16.4C12.5809 74 8.91819 72.4829 6.21766 69.7823C3.51714 67.0818 2 63.4191 2 59.6V16.4Z" stroke="#E29547" stroke-width="4" stroke-linecap="round" stroke-linejoin="round"/>
<path d="M25.3984 34.4C30.369 34.4 34.3984 30.3706 34.3984 25.4C34.3984 20.4295 30.369 16.4 25.3984 16.4C20.4279 16.4 16.3984 20.4295 16.3984 25.4C16.3984 30.3706 20.4279 34.4 25.3984 34.4Z" stroke="#E29547" stroke-width="4" stroke-linecap="round" stroke-linejoin="round"/>
<path d="M47.092 40.2356L16.3984 74H60.0772C63.7694 74 67.3103 72.5333 69.921 69.9226C72.5317 67.3118 73.9984 63.7709 73.9984 60.0788V59.6C73.9984 57.9224 73.3684 57.278 72.2344 56.036L57.7264 40.214C57.0503 39.4764 56.2278 38.8879 55.3115 38.4859C54.3951 38.0839 53.4051 37.8774 52.4045 37.8794C51.4039 37.8814 50.4147 38.092 49.5 38.4977C48.5853 38.9034 47.7652 39.4953 47.092 40.2356V40.2356Z" stroke="#E29547" stroke-width="4" stroke-linecap="round" stroke-linejoin="round"/>
</svg>
