<svg width="16" height="16" viewBox="0 0 16 16" fill="none" xmlns="http://www.w3.org/2000/svg">
<path d="M15.182 15.9998C14.9698 15.9998 14.7663 15.924 14.6163 15.789C14.4663 15.6541 14.382 15.471 14.382 15.2802V13.6609C14.382 12.9929 14.087 12.3522 13.5619 11.8799C13.0368 11.4075 12.3246 11.1421 11.582 11.1421H4.4C3.65739 11.1421 2.9452 11.4075 2.4201 11.8799C1.895 12.3522 1.6 12.9929 1.6 13.6609V15.2802C1.6 15.471 1.51571 15.6541 1.36569 15.789C1.21566 15.924 1.01217 15.9998 0.8 15.9998C0.587827 15.9998 0.384344 15.924 0.234315 15.789C0.0842858 15.6541 8.94243e-09 15.471 0 15.2802V13.6609C0 12.6112 0.46357 11.6044 1.28873 10.8621C2.11389 10.1198 3.23305 9.7028 4.4 9.7028H11.6C12.767 9.7028 13.8861 10.1198 14.7113 10.8621C15.5364 11.6044 16 12.6112 16 13.6609V15.2802C16 15.376 15.9788 15.471 15.9374 15.5594C15.8961 15.6477 15.8356 15.7278 15.7594 15.7948C15.6832 15.8619 15.5928 15.9146 15.4937 15.9498C15.3945 15.985 15.2886 16.002 15.182 15.9998Z" fill="#11014D"/>
<path d="M7.99766 0C8.86789 0 9.71859 0.23214 10.4422 0.667064C11.1657 1.10199 11.7297 1.72016 12.0627 2.44341C12.3958 3.16667 12.4829 3.96251 12.3131 4.73031C12.1433 5.49811 11.7243 6.20338 11.1089 6.75694C10.4936 7.31049 9.70957 7.68746 8.85605 7.84019C8.00254 7.99291 7.11784 7.91453 6.31385 7.61495C5.50985 7.31537 4.82267 6.80805 4.33919 6.15714C3.85571 5.50623 3.59766 4.74096 3.59766 3.95812C3.59766 2.90836 4.06122 1.9016 4.88638 1.15931C5.71154 0.417016 6.8307 0 7.99766 0ZM7.99766 6.47693C8.55144 6.47693 9.09279 6.3292 9.55325 6.05243C10.0137 5.77566 10.3726 5.38228 10.5845 4.92203C10.7964 4.46178 10.8519 3.95533 10.7439 3.46673C10.6358 2.97813 10.3691 2.52932 9.97755 2.17706C9.58597 1.8248 9.08706 1.5849 8.54391 1.48771C8.00076 1.39053 7.43777 1.44041 6.92614 1.63105C6.41451 1.82169 5.97721 2.14453 5.66954 2.55875C5.36187 2.97296 5.19765 3.45995 5.19765 3.95812C5.19765 4.2889 5.27008 4.61643 5.41079 4.92203C5.55151 5.22762 5.75775 5.50529 6.01776 5.73919C6.27776 5.97308 6.58643 6.15861 6.92614 6.28519C7.26585 6.41178 7.62995 6.47693 7.99766 6.47693Z" fill="#11014D"/>
</svg>
