<svg width="17" height="15" viewBox="0 0 17 15" fill="none" xmlns="http://www.w3.org/2000/svg">
<path d="M7.6872 0.515236L5.73646 4.33426L1.36861 4.94947C1.19209 4.9746 1.02635 5.04689 0.890085 5.15818C0.753825 5.26947 0.652466 5.41534 0.597442 5.57931C0.542419 5.74329 0.535921 5.91886 0.578681 6.08622C0.621441 6.25358 0.711757 6.40606 0.839442 6.52647L3.99874 9.50501L3.25208 13.7075C3.22172 13.8774 3.24127 14.0522 3.30851 14.212C3.37575 14.3717 3.48799 14.5101 3.6325 14.6114C3.77701 14.7126 3.94801 14.7728 4.12609 14.7849C4.30417 14.797 4.48221 14.7607 4.64001 14.6801L8.54597 12.6958L12.4542 14.6801C12.6121 14.7599 12.7898 14.7955 12.9675 14.7829C13.1452 14.7704 13.3158 14.7102 13.46 14.6092C13.6042 14.5081 13.7164 14.3702 13.7839 14.2109C13.8514 14.0516 13.8716 13.8772 13.8421 13.7075L13.0954 9.50501L16.2525 6.5308C16.3802 6.41039 16.4705 6.25791 16.5133 6.09055C16.556 5.9232 16.5495 5.74763 16.4945 5.58365C16.4395 5.41967 16.3381 5.27381 16.2019 5.16252C16.0656 5.05123 15.8999 4.97894 15.7233 4.9538L11.3555 4.33426L9.40474 0.515236C9.32549 0.360931 9.20321 0.231072 9.05168 0.140289C8.90015 0.049505 8.72539 0.00140381 8.54709 0.00140381C8.36879 0.00140381 8.19403 0.049505 8.0425 0.140289C7.89097 0.231072 7.76645 0.360931 7.6872 0.515236Z" fill="#FFA219"/>
</svg>
