<svg width="20" height="26" viewBox="0 0 20 26" fill="none" xmlns="http://www.w3.org/2000/svg">
<path d="M9.75 25C14.8504 25 19 20.9791 19 16.0368C19 11.9047 16.1405 8.50693 12.3415 7.43136C12.3426 7.41488 12.3441 7.39844 12.3441 7.38167V6.82977C12.3441 6.71143 12.3151 6.59986 12.2648 6.50004L12.9847 5.6828C13.1188 5.53048 13.1001 5.30164 12.943 5.17165C12.7857 5.04167 12.5496 5.05979 12.4155 5.21202L11.6517 6.07914C11.6323 6.07692 11.5918 6.07441 11.5646 6.07441H10.9889L11.7221 3.38215H14.0273L13.549 3.92511C13.4149 4.07738 13.4336 4.30622 13.5907 4.43621C13.748 4.56624 13.9841 4.54807 14.1182 4.39579L14.6909 3.74557C15.0353 3.35464 15.0842 2.74401 14.6862 2.33912V2.33907L13.0041 0.62831C12.7677 0.387963 12.4355 0.25 12.0927 0.25H7.40733C7.06446 0.25 6.73227 0.387963 6.49585 0.628455L4.81368 2.33926C4.41973 2.74005 4.46079 3.35039 4.80899 3.74567L7.23512 6.50009C7.18484 6.59986 7.15585 6.71148 7.15585 6.82982V7.38172C7.15585 7.39849 7.15735 7.41488 7.15845 7.43141C3.36747 8.50475 0.5 11.8964 0.5 16.0368C0.50005 20.9791 4.64956 25 9.75 25ZM11.5646 6.7996C11.5789 6.7996 11.5958 6.81183 11.5958 6.82982V7.38172C11.5958 7.39979 11.579 7.41193 11.5646 7.41193H7.93538C7.92106 7.41193 7.9042 7.39999 7.9042 7.38172V6.82982C7.9042 6.81203 7.92081 6.7996 7.93538 6.7996H11.5646ZM8.55188 3.3822H10.9481L10.2149 6.07445H9.28501L8.55188 3.3822ZM13.9653 2.6571H12.0879L12.8044 1.47649L13.9653 2.6571ZM12.0927 0.975102C12.1392 0.975102 12.185 0.98187 12.2293 0.993858L11.4114 2.34144L10.4556 0.975102H12.0927ZM10.7282 2.6571H8.77182L9.74995 1.25871L10.7282 2.6571ZM7.40733 0.975102H9.04441L8.08863 2.34144L7.27074 0.99381C7.31504 0.98187 7.36084 0.975102 7.40733 0.975102ZM6.6956 1.47649L7.41212 2.6571H5.53474L6.6956 1.47649ZM5.47273 3.3822H7.77799L8.51112 6.07445H7.93538C7.90814 6.07445 7.86768 6.07697 7.84833 6.07919L5.47273 3.3822ZM7.60219 8.06428C7.69917 8.10885 7.82014 8.13698 7.93538 8.13698H11.5646C11.677 8.13698 11.7984 8.10991 11.8978 8.06428C15.6471 9.00793 18.2517 12.2647 18.2517 16.0368C18.2517 20.5793 14.4379 24.2749 9.75 24.2749C5.06217 24.2749 1.24835 20.5793 1.24835 16.0368C1.24835 12.2646 3.85297 9.00788 7.60219 8.06428Z" fill="#A6A6A6" stroke="#A6A6A6" stroke-width="0.5"/>
<path d="M4.03947 1.26013L3.33941 0.581776C3.19325 0.440189 2.95639 0.440189 2.81027 0.581776C2.66415 0.723364 2.66415 0.95293 2.81027 1.09447L3.51032 1.77282C3.65649 1.91441 3.89335 1.91441 4.03947 1.77282C4.18558 1.63128 4.18558 1.40172 4.03947 1.26013Z" fill="#A6A6A6" stroke="#A6A6A6" stroke-width="0.5"/>
<path d="M15.4187 4.85472L16.1187 5.53308C16.2649 5.67466 16.5017 5.67466 16.6479 5.53308C16.794 5.39149 16.794 5.16192 16.6479 5.02038L15.9479 4.34203C15.8017 4.20044 15.5648 4.20044 15.4187 4.34203C15.2725 4.48362 15.2725 4.71318 15.4187 4.85472Z" fill="#A6A6A6" stroke="#A6A6A6" stroke-width="0.5"/>
<path d="M1.75146 3.05835C1.75146 3.25857 1.91893 3.4209 2.12561 3.4209H3.11565C3.32233 3.4209 3.4898 3.25857 3.4898 3.05835C3.4898 2.85813 3.32233 2.6958 3.11565 2.6958H2.12561C1.91893 2.6958 1.75146 2.85813 1.75146 3.05835Z" fill="#A6A6A6" stroke="#A6A6A6" stroke-width="0.5"/>
<path d="M15.9668 3.05835C15.9668 3.25857 16.1343 3.4209 16.3409 3.4209H17.331C17.5377 3.4209 17.7052 3.25857 17.7052 3.05835C17.7052 2.85813 17.5377 2.6958 17.331 2.6958H16.3409C16.1343 2.6958 15.9668 2.85813 15.9668 3.05835Z" fill="#A6A6A6" stroke="#A6A6A6" stroke-width="0.5"/>
<path d="M3.51032 4.34203L2.81027 5.02038C2.66415 5.16197 2.66415 5.39154 2.81027 5.53308C2.95644 5.67466 3.1933 5.67466 3.33941 5.53308L4.03947 4.85472C4.18558 4.71314 4.18558 4.48357 4.03947 4.34203C3.89335 4.20044 3.65649 4.20044 3.51032 4.34203Z" fill="#A6A6A6" stroke="#A6A6A6" stroke-width="0.5"/>
<path d="M16.1187 0.581776L15.4187 1.26013C15.2726 1.40172 15.2726 1.63128 15.4187 1.77282C15.5648 1.91441 15.8017 1.91441 15.9478 1.77282L16.6479 1.09447C16.794 0.952881 16.794 0.723315 16.6479 0.581776C16.5017 0.440189 16.2649 0.440189 16.1187 0.581776Z" fill="#A6A6A6" stroke="#A6A6A6" stroke-width="0.5"/>
<path d="M9.74986 23.1675C13.5868 23.1675 16.749 20.3184 17.0792 16.6672C17.0972 16.4677 16.945 16.2919 16.7392 16.2744C16.5332 16.2568 16.3518 16.4044 16.3338 16.6039C16.0378 19.8779 13.1458 22.4424 9.74986 22.4424C6.1051 22.4424 3.1399 19.5691 3.1399 16.0373C3.1399 12.5056 6.1051 9.63228 9.74986 9.63228C13.008 9.63228 15.7516 11.8905 16.2734 15.0019C16.3066 15.1995 16.4989 15.3338 16.7027 15.3016C16.9067 15.2694 17.0452 15.0832 17.012 14.8855C16.4415 11.4834 13.3939 8.90723 9.74986 8.90723C5.69249 8.90723 2.3916 12.1058 2.3916 16.0374C2.3916 19.9689 5.69249 23.1675 9.74986 23.1675Z" fill="#A6A6A6" stroke="#A6A6A6" stroke-width="0.5"/>
</svg>
