<svg width="80" height="80" viewBox="0 0 80 80" fill="none" xmlns="http://www.w3.org/2000/svg">
<path d="M40 80C34.7471 80 29.5457 78.9654 24.6927 76.9552C19.8396 74.945 15.4301 71.9986 11.7157 68.2843C8.00138 64.5699 5.055 60.1604 3.04481 55.3073C1.03462 50.4543 -3.03769e-06 45.2529 -3.49691e-06 40C-4.42435e-06 29.3913 4.21426 19.2172 11.7157 11.7157C19.2172 4.21427 29.3913 4.42435e-06 40 3.49691e-06C45.2529 3.03769e-06 50.4543 1.03462 55.3073 3.04481C60.1604 5.055 64.5699 8.00138 68.2843 11.7157C75.7857 19.2172 80 29.3913 80 40C80 50.6087 75.7857 60.7828 68.2843 68.2843C60.7828 75.7857 50.6087 80 40 80ZM56 57.16L56 43.8L27.44 40L56 36.2L56 22.84L16 40L56 57.16Z" fill="#12004C"/>
</svg>
