<svg width="56" height="56" viewBox="0 0 56 56" fill="none" xmlns="http://www.w3.org/2000/svg">
<g filter="url(#filter0_b_2585_4945)">
<path d="M19 56L37 56C45.4595 56 49.6892 56 52.4945 53.6041C52.8928 53.2638 53.2638 52.8928 53.6041 52.4945C56 49.6892 56 45.4595 56 37L56 19C56 10.5405 56 6.31081 53.6041 3.50552C53.2638 3.10717 52.8928 2.73617 52.4945 2.39594C49.6892 3.8147e-06 45.4595 0 37 0L19 0C10.5405 0 6.31081 0 3.50552 2.39594C3.10717 2.73617 2.73617 3.10717 2.39594 3.50552C0 6.31081 0 10.5405 0 19L0 37C0 45.4595 3.8147e-06 49.6892 2.39594 52.4945C2.73617 52.8928 3.10717 53.2638 3.50552 53.6041C6.31081 56 10.5405 56 19 56Z" fill="#8E8E8E"/>
</g>
<path fill-rule="evenodd" clip-rule="evenodd" d="M23.6422 16.5871C23.6422 14.0495 25.7545 12 28.3326 12C30.9273 12 33.023 14.0495 33.023 16.5871C33.023 19.1246 30.9273 21.1742 28.3326 21.1742C25.7379 21.1742 23.6422 19.1246 23.6422 16.5871ZM40.9564 28.38C41.023 28.9818 41.5386 29.4373 42.154 29.4373H42.287C42.9523 29.3722 43.4347 28.7866 43.3682 28.136C42.8858 23.8905 40.5573 20.0517 36.948 17.5955C36.3991 17.2213 35.6507 17.3515 35.2681 17.8883C34.8856 18.425 35.0186 19.157 35.5675 19.5311C38.5946 21.5807 40.5573 24.8014 40.9564 28.38ZM14.3947 29.5188H14.5111C15.1265 29.5188 15.6587 29.0633 15.7253 28.4452C16.0912 24.8829 18.0372 21.6622 21.031 19.5801C21.5633 19.206 21.6963 18.474 21.3138 17.9372C20.9312 17.4167 20.1661 17.2866 19.6339 17.6607C16.0579 20.1332 13.7626 23.972 13.3135 28.2175C13.247 28.8681 13.7294 29.4537 14.3947 29.5188ZM34.8869 43.0523C32.8411 44.012 30.6456 44.5 28.3503 44.5C25.9552 44.5 23.6766 43.9795 21.5476 42.9222C20.9488 42.6456 20.716 41.9299 21.0154 41.3443C21.2981 40.7587 22.03 40.531 22.6287 40.8075C23.6766 41.3281 24.791 41.6859 25.922 41.8974C27.4522 42.1902 29.0156 42.2064 30.5458 41.9462C31.6768 41.751 32.7912 41.4094 33.8224 40.9214C34.4378 40.6449 35.1697 40.8726 35.4358 41.4745C35.7352 42.06 35.5023 42.7758 34.8869 43.0523ZM16.6904 31.2921C14.1123 31.2921 12 33.3417 12 35.8792C12 38.4168 14.0957 40.4663 16.6904 40.4663C19.285 40.4663 21.3807 38.4168 21.3807 35.8792C21.3807 33.3417 19.2684 31.2921 16.6904 31.2921ZM35.1196 35.8792C35.1196 33.3417 37.2319 31.2921 39.8099 31.2921C42.4046 31.2921 44.5003 33.3417 44.5003 35.8792C44.5003 38.4168 42.4046 40.4663 39.8099 40.4663C37.2153 40.4663 35.1196 38.4168 35.1196 35.8792Z" fill="white"/>
<defs>
<filter id="filter0_b_2585_4945" x="-4" y="-4" width="64" height="64" filterUnits="userSpaceOnUse" color-interpolation-filters="sRGB">
<feFlood flood-opacity="0" result="BackgroundImageFix"/>
<feGaussianBlur in="BackgroundImage" stdDeviation="2"/>
<feComposite in2="SourceAlpha" operator="in" result="effect1_backgroundBlur_2585_4945"/>
<feBlend mode="normal" in="SourceGraphic" in2="effect1_backgroundBlur_2585_4945" result="shape"/>
</filter>
</defs>
</svg>
