<svg width="252" height="275" viewBox="0 0 252 275" fill="none" xmlns="http://www.w3.org/2000/svg">
<path d="M238.786 11.4358L7.22593 83.8279C5.11775 84.5039 3.28026 85.8349 1.98085 87.6274C0.681433 89.4199 -0.0120794 91.5803 0.00113913 93.7942V251.215C-0.0602474 257.461 2.36161 263.476 6.73412 267.936C11.1066 272.396 17.0717 274.937 23.3174 275H228.684C234.93 274.937 240.895 272.396 245.267 267.936C249.639 263.475 252.061 257.461 251.999 251.215V21.4039C252.022 19.7918 251.665 18.1969 250.956 16.7487C250.248 15.3004 249.208 14.0397 247.921 13.0687C246.634 12.0976 245.136 11.4437 243.549 11.16C241.962 10.8763 240.33 10.9708 238.786 11.4358Z" fill="#969696"/>
<path d="M240 0L12 66.0053V81L240 11.3981V0Z" fill="#EDEEF0"/>
</svg>
