<svg width="40" height="40" viewBox="0 0 40 40" fill="none" xmlns="http://www.w3.org/2000/svg">
<rect width="40" height="40" rx="20" fill="#FAFAFA"/>
<path d="M20.1923 11H20.1914C20.1742 11 20.1579 11 20.1425 11.0002C20.0193 11.0014 19.8169 11.0034 19.7987 11.0036C19.3547 11.0036 18.4664 11.0662 17.5122 11.4861C16.9666 11.7261 16.4759 12.0505 16.0536 12.4505C15.5503 12.927 15.1402 13.5146 14.835 14.1971C14.3881 15.1963 14.4942 16.8795 14.5794 18.2322L14.5797 18.2343C14.5888 18.3791 14.5984 18.5304 14.6071 18.6778C14.5416 18.7078 14.4353 18.7395 14.2786 18.7395C14.0265 18.7395 13.7267 18.6591 13.3878 18.5008C13.288 18.4545 13.1742 18.4311 13.0486 18.4311C12.8469 18.4311 12.6341 18.4903 12.4496 18.5985C12.2175 18.7344 12.0675 18.9265 12.0267 19.1395C11.9999 19.2803 12.0012 19.5588 12.3114 19.8412C12.482 19.9966 12.7327 20.14 13.0562 20.2675C13.1411 20.3008 13.2419 20.3326 13.3486 20.3664C13.7189 20.4838 14.2794 20.6611 14.4256 21.0041C14.4997 21.178 14.4678 21.4068 14.3311 21.6834C14.3275 21.691 14.3239 21.6984 14.3207 21.7061C14.2865 21.7856 13.9679 22.5053 13.3142 23.2644C12.9428 23.696 12.5337 24.0567 12.0989 24.3368C11.5683 24.6788 10.9941 24.9024 10.3925 25.0012C10.1563 25.0399 9.98756 25.2497 10.0007 25.4882C10.0048 25.557 10.0209 25.6255 10.049 25.6918C10.0492 25.6922 10.0494 25.6926 10.0496 25.693C10.1452 25.9158 10.3666 26.105 10.7267 26.272C11.1667 26.4757 11.8248 26.6472 12.6824 26.7813C12.7257 26.8634 12.7707 27.07 12.8019 27.2114C12.8345 27.3616 12.8685 27.5162 12.9169 27.6803C12.9692 27.8581 13.1049 28.0706 13.4533 28.0706C13.5854 28.0706 13.7373 28.041 13.9131 28.007C14.1707 27.9566 14.5229 27.8879 14.9624 27.8879C15.2062 27.8879 15.4587 27.9092 15.713 27.9514C16.203 28.0327 16.6255 28.3303 17.1143 28.6749C17.8298 29.1792 18.6397 29.75 19.877 29.75C19.9108 29.75 19.9446 29.7489 19.978 29.7466C20.0189 29.7485 20.0696 29.75 20.1231 29.75C21.3608 29.75 22.1705 29.179 22.8852 28.6751L22.8863 28.6741C23.3752 28.3299 23.7972 28.0327 24.2872 27.9514C24.5413 27.9093 24.7938 27.8879 25.0376 27.8879C25.4576 27.8879 25.79 27.9412 26.0869 27.999C26.2807 28.037 26.4312 28.0553 26.5468 28.0553L26.5581 28.0555H26.5698C26.8246 28.0555 27.0119 27.916 27.0834 27.6719C27.1309 27.5113 27.1648 27.3604 27.1982 27.2075C27.2273 27.075 27.2739 26.8626 27.3172 26.7796C28.1754 26.6452 28.8332 26.4741 29.2732 26.2704C29.6325 26.1043 29.8537 25.9152 29.9498 25.6933C29.9786 25.6268 29.9955 25.5579 29.9992 25.4877C30.0128 25.2496 29.8438 25.0393 29.6074 25.0007C26.9337 24.5613 25.7292 21.822 25.6794 21.7056C25.6762 21.698 25.6725 21.6904 25.6688 21.683C25.5321 21.4063 25.5005 21.1777 25.5746 21.0035C25.7205 20.6608 26.2806 20.4835 26.6512 20.3662C26.7585 20.3325 26.8596 20.3005 26.9439 20.2673C27.3087 20.1236 27.5695 19.9677 27.7415 19.7907C27.9469 19.5797 27.987 19.3775 27.9845 19.2452C27.9782 18.9251 27.7328 18.6407 27.3424 18.5014C27.2105 18.447 27.0602 18.4184 26.9071 18.4184C26.8028 18.4184 26.6485 18.4326 26.5024 18.5006C26.1896 18.6466 25.9094 18.7264 25.6688 18.7377C25.5409 18.7313 25.4512 18.7036 25.3931 18.6772C25.4004 18.5524 25.4085 18.4241 25.4168 18.2903L25.4203 18.2331C25.506 16.8796 25.6124 15.1951 25.1653 14.1951C24.8588 13.5102 24.4473 12.9211 23.9419 12.4435C23.518 12.0433 23.0256 11.7189 22.478 11.4791C21.5252 11.0623 20.6369 11 20.1923 11" fill="#11014D"/>
</svg>
