<svg width="40" height="40" viewBox="0 0 40 40" fill="none" xmlns="http://www.w3.org/2000/svg">
<rect width="40" height="40" rx="20" fill="#FAFAFA"/>
<path d="M20.072 10H20.071C20.0526 10 20.0353 10 20.0189 10.0002C19.8875 10.0015 19.6715 10.0036 19.6521 10.0039C19.1786 10.0039 18.231 10.0706 17.2132 10.5185C16.6312 10.7745 16.1078 11.1205 15.6574 11.5472C15.1205 12.0555 14.6831 12.6822 14.3575 13.4102C13.8808 14.4761 13.994 16.2715 14.0849 17.7143L14.0852 17.7166C14.0949 17.8711 14.1051 18.0324 14.1145 18.1896C14.0445 18.2217 13.9312 18.2555 13.764 18.2555C13.4951 18.2555 13.1753 18.1697 12.8138 18.0008C12.7074 17.9514 12.586 17.9265 12.4521 17.9265C12.2369 17.9265 12.01 17.9896 11.8131 18.105C11.5655 18.25 11.4055 18.4549 11.3621 18.6821C11.3334 18.8324 11.3348 19.1294 11.6657 19.4306C11.8477 19.5964 12.1151 19.7493 12.4602 19.8853C12.5507 19.9209 12.6582 19.9548 12.772 19.9908C13.167 20.116 13.7649 20.3051 13.9208 20.671C13.9998 20.8565 13.9658 21.1006 13.82 21.3956C13.8162 21.4037 13.8124 21.4116 13.8089 21.4198C13.7725 21.5047 13.4326 22.2724 12.7354 23.082C12.3392 23.5424 11.9028 23.9272 11.4391 24.226C10.873 24.5907 10.2606 24.8292 9.61887 24.9346C9.36688 24.9758 9.18692 25.1997 9.20096 25.4541C9.20528 25.5274 9.22253 25.6005 9.25244 25.6713C9.25266 25.6717 9.25293 25.6721 9.25315 25.6725C9.35505 25.9102 9.59129 26.112 9.97536 26.2901C10.4447 26.5075 11.1466 26.6903 12.0614 26.8334C12.1076 26.921 12.1556 27.1413 12.1889 27.2921C12.2236 27.4524 12.2599 27.6172 12.3116 27.7923C12.3674 27.982 12.5121 28.2087 12.8838 28.2087C13.0246 28.2087 13.1866 28.177 13.3742 28.1408C13.6489 28.087 14.0246 28.0137 14.4935 28.0137C14.7534 28.0137 15.0228 28.0365 15.294 28.0815C15.8168 28.1682 16.2674 28.4856 16.7888 28.8532C17.552 29.3911 18.4158 30 19.7357 30C19.7717 30 19.8078 29.9988 19.8434 29.9964C19.887 29.9984 19.9411 30 19.9982 30C21.3184 30 22.182 29.3909 22.9444 28.8534L22.9456 28.8523C23.4671 28.4852 23.9173 28.1682 24.4398 28.0815C24.7109 28.0366 24.9803 28.0137 25.2403 28.0137C25.6883 28.0137 26.0429 28.0707 26.3596 28.1322C26.5663 28.1728 26.7269 28.1923 26.8501 28.1923L26.8621 28.1925H26.8746C27.1465 28.1925 27.3462 28.0438 27.4225 27.7834C27.4731 27.612 27.5093 27.451 27.5449 27.288C27.576 27.1467 27.6257 26.9201 27.6719 26.8315C28.5873 26.6882 29.2889 26.5057 29.7583 26.2884C30.1415 26.1112 30.3775 25.9096 30.48 25.6729C30.5107 25.602 30.5287 25.5284 30.5327 25.4536C30.5472 25.1996 30.3669 24.9753 30.1148 24.9341C27.2628 24.4654 25.978 21.5435 25.9249 21.4193C25.9214 21.4112 25.9176 21.4031 25.9135 21.3952C25.7678 21.1001 25.7341 20.8562 25.8131 20.6704C25.9687 20.3049 26.5662 20.1157 26.9615 19.9906C27.0759 19.9547 27.1838 19.9205 27.2736 19.8851C27.6628 19.7318 27.941 19.5656 28.1244 19.3768C28.3436 19.1517 28.3863 18.936 28.3836 18.7949C28.3769 18.4535 28.1152 18.1501 27.6987 18.0015C27.5581 17.9435 27.3977 17.9129 27.2344 17.9129C27.1232 17.9129 26.9586 17.9281 26.8027 18.0007C26.4691 18.1563 26.1702 18.2415 25.9136 18.2536C25.7772 18.2467 25.6815 18.2172 25.6195 18.189C25.6273 18.0559 25.6359 17.919 25.6448 17.7764L25.6485 17.7153C25.7399 16.2715 25.8534 14.4748 25.3765 13.4081C25.0496 12.6775 24.6106 12.0492 24.0715 11.5398C23.6194 11.1129 23.0942 10.7669 22.5101 10.5111C21.4937 10.0664 20.5462 10 20.072 10Z" fill="#FFE400"/>
</svg>
