<svg width="327" height="56" viewBox="0 0 327 56" fill="none" xmlns="http://www.w3.org/2000/svg">
<rect width="327" height="56" rx="10" fill="url(#paint0_linear_4748_12334)"/>
<path d="M132.11 39.312C132.004 38.7147 131.908 38.144 131.822 37.6C131.748 37.056 131.71 36.5867 131.71 36.192C131.71 35.4667 131.838 34.8373 132.094 34.304C132.361 33.7813 132.74 33.3813 133.23 33.104C133.721 32.816 134.302 32.672 134.974 32.672C135.156 32.672 135.406 32.672 135.726 32.672C136.046 32.672 136.414 32.672 136.83 32.672C137.257 32.672 137.7 32.672 138.158 32.672C138.628 32.672 139.086 32.672 139.534 32.672L138.59 33.52V30.064C138.59 29.3707 138.51 28.8267 138.35 28.432C138.201 28.0373 137.929 27.7547 137.534 27.584C137.15 27.4133 136.622 27.328 135.95 27.328C135.513 27.328 135.076 27.36 134.638 27.424C134.201 27.4773 133.86 27.5573 133.614 27.664L134.526 26.768C134.462 27.024 134.398 27.3493 134.334 27.744C134.281 28.128 134.233 28.5387 134.19 28.976C134.158 29.4133 134.142 29.8453 134.142 30.272C134.142 30.7093 134.158 31.1413 134.19 31.568C134.233 31.9947 134.276 32.368 134.318 32.688C134.372 33.008 134.414 33.2267 134.446 33.344L133.038 33.744C132.996 33.6053 132.942 33.3653 132.878 33.024C132.814 32.6827 132.756 32.2773 132.702 31.808C132.66 31.328 132.638 30.816 132.638 30.272C132.638 29.7493 132.665 29.2427 132.718 28.752C132.772 28.2507 132.83 27.7973 132.894 27.392C132.969 26.9867 133.038 26.6613 133.102 26.416C133.348 26.32 133.726 26.224 134.238 26.128C134.761 26.032 135.337 25.984 135.966 25.984C136.542 25.984 137.054 26.0373 137.502 26.144C137.95 26.2507 138.334 26.4107 138.654 26.624C138.985 26.8373 139.257 27.104 139.47 27.424C139.684 27.744 139.838 28.128 139.934 28.576C140.03 29.0133 140.078 29.5147 140.078 30.08V34C139.63 34 139.145 34 138.622 34C138.11 34 137.609 34 137.118 34C136.628 34 136.19 34 135.806 34C135.433 34 135.156 34 134.974 34C134.804 34 134.617 34.0213 134.414 34.064C134.212 34.1173 134.014 34.2133 133.822 34.352C133.641 34.5013 133.492 34.72 133.374 35.008C133.257 35.3067 133.198 35.7013 133.198 36.192C133.198 36.5973 133.236 37.056 133.31 37.568C133.385 38.0907 133.47 38.672 133.566 39.312H132.11ZM142.762 34V22.576H144.25V34H142.762ZM148.782 34V32.672H150.83V34H148.782ZM146.03 37.664C145.891 37.664 145.747 37.6533 145.598 37.632C145.438 37.6213 145.278 37.6107 145.118 37.6L145.246 36.272C145.406 36.2827 145.555 36.2933 145.694 36.304C145.822 36.3147 145.928 36.32 146.014 36.32C146.494 36.32 146.878 36.1387 147.166 35.776C147.464 35.4133 147.614 34.9067 147.614 34.256V25.984H149.118V34.256C149.118 34.928 148.984 35.52 148.718 36.032C148.451 36.544 148.088 36.944 147.63 37.232C147.171 37.52 146.638 37.664 146.03 37.664ZM150.83 34V32.672C150.968 32.672 151.054 32.7307 151.086 32.848C151.128 32.9653 151.15 33.1253 151.15 33.328C151.15 33.5307 151.128 33.696 151.086 33.824C151.054 33.9413 150.968 34 150.83 34ZM158.852 34V32.672H160.58V34H158.852ZM150.836 34V32.672H157.844L157.364 33.072V29.376C157.364 28.704 157.151 28.1973 156.724 27.856C156.308 27.5147 155.657 27.344 154.772 27.344C154.505 27.344 154.121 27.3653 153.62 27.408C153.129 27.4507 152.607 27.5147 152.052 27.6L151.892 26.384C152.329 26.2773 152.804 26.1867 153.316 26.112C153.828 26.0267 154.324 25.984 154.804 25.984C155.636 25.984 156.351 26.1173 156.948 26.384C157.556 26.6507 158.025 27.04 158.356 27.552C158.687 28.0533 158.852 28.6613 158.852 29.376V34H150.836ZM150.836 34C150.697 34 150.612 33.9413 150.58 33.824C150.537 33.696 150.516 33.5307 150.516 33.328C150.516 33.1253 150.537 32.9653 150.58 32.848C150.612 32.7307 150.697 32.672 150.836 32.672V34ZM160.58 34V32.672C160.708 32.672 160.793 32.7307 160.836 32.848C160.879 32.9653 160.9 33.1253 160.9 33.328C160.9 33.5307 160.879 33.696 160.836 33.824C160.793 33.9413 160.708 34 160.58 34ZM154.148 37.024V35.472H155.652V37.024H154.148ZM164.026 34V32.672H165.834V34H164.026ZM165.834 34V32.672C165.973 32.672 166.058 32.7307 166.09 32.848C166.133 32.9653 166.154 33.1253 166.154 33.328C166.154 33.5307 166.133 33.696 166.09 33.824C166.058 33.9413 165.973 34 165.834 34ZM160.586 34V32.672H163.306L162.538 33.28V25.984H164.026V34H160.586ZM160.586 34C160.447 34 160.362 33.9413 160.33 33.824C160.287 33.696 160.266 33.5307 160.266 33.328C160.266 33.1253 160.287 32.9653 160.33 32.848C160.362 32.7307 160.447 32.672 160.586 32.672V34ZM161.226 24.688V23.136H162.73V24.688H161.226ZM163.418 24.688V23.136H164.922V24.688H163.418ZM178.252 34V32.672H179.964V34H178.252ZM174.524 34C174.14 34 173.761 33.9307 173.388 33.792C173.025 33.6427 172.679 33.4133 172.348 33.104L173.292 32.112C173.527 32.304 173.74 32.448 173.932 32.544C174.124 32.6293 174.321 32.672 174.524 32.672H177.42L176.764 33.312V29.568C176.764 29.376 176.743 29.1093 176.7 28.768C176.668 28.416 176.615 28.0213 176.54 27.584C176.476 27.136 176.396 26.6827 176.3 26.224L177.756 25.984C177.831 26.368 177.905 26.7893 177.98 27.248C178.055 27.7067 178.119 28.144 178.172 28.56C178.225 28.976 178.252 29.312 178.252 29.568V34H174.524ZM165.836 34V32.672H168.172L167.804 33.04V27.6H169.292V34H165.836ZM169.292 34V32.672H170.956C171.319 32.672 171.591 32.6187 171.772 32.512C171.953 32.4053 172.081 32.192 172.156 31.872C172.231 31.552 172.268 31.0827 172.268 30.464V26.8H173.772V30.464C173.772 31.328 173.671 32.0213 173.468 32.544C173.276 33.0667 172.977 33.44 172.572 33.664C172.167 33.888 171.628 34 170.956 34H169.292ZM165.836 34C165.697 34 165.612 33.9413 165.58 33.824C165.537 33.696 165.516 33.5307 165.516 33.328C165.516 33.1253 165.537 32.9653 165.58 32.848C165.612 32.7307 165.697 32.672 165.836 32.672V34ZM179.964 34V32.672C180.103 32.672 180.188 32.7307 180.22 32.848C180.263 32.9653 180.284 33.1253 180.284 33.328C180.284 33.5307 180.263 33.696 180.22 33.824C180.188 33.9413 180.103 34 179.964 34ZM179.961 34V32.672H182.441L181.673 33.28V25.984H183.177V34H179.961ZM179.961 34C179.822 34 179.737 33.9413 179.705 33.824C179.662 33.696 179.641 33.5307 179.641 33.328C179.641 33.1253 179.662 32.9653 179.705 32.848C179.737 32.7307 179.822 32.672 179.961 32.672V34ZM181.673 24.544V22.992H183.177V24.544H181.673ZM185.934 34V22.576H187.422V34H185.934Z" fill="white"/>
<rect x="271" y="8" width="40" height="40" rx="20" fill="#FAFAFA"/>
<path d="M287.005 28C287.005 25.7909 288.797 23.9997 291.007 23.9997C293.218 23.9997 295.01 25.7909 295.01 28C295.01 30.2091 293.218 32.0003 291.007 32.0003C288.797 32.0003 287.005 30.2091 287.005 28ZM284.842 28C284.842 31.4032 287.602 34.1619 291.007 34.1619C294.412 34.1619 297.173 31.4032 297.173 28C297.173 24.5968 294.412 21.8381 291.007 21.8381C287.602 21.8381 284.842 24.5968 284.842 28ZM295.976 21.5938C295.976 21.8786 296.06 22.1571 296.218 22.3939C296.377 22.6308 296.602 22.8155 296.865 22.9246C297.128 23.0337 297.418 23.0623 297.697 23.0068C297.977 22.9514 298.234 22.8143 298.435 22.613C298.637 22.4117 298.774 22.1552 298.83 21.8759C298.886 21.5966 298.857 21.307 298.748 21.0439C298.639 20.7807 298.455 20.5557 298.218 20.3974C297.981 20.2391 297.702 20.1545 297.417 20.1544H297.417C297.035 20.1546 296.669 20.3063 296.398 20.5762C296.128 20.846 295.976 21.2121 295.976 21.5938V21.5938ZM286.156 37.7677C284.986 37.7144 284.349 37.5196 283.927 37.3549C283.366 37.1368 282.966 36.877 282.545 36.4573C282.125 36.0376 281.865 35.6382 281.647 35.078C281.482 34.6556 281.287 34.0195 281.234 32.8495C281.176 31.5846 281.164 31.2047 281.164 28.0001C281.164 24.7955 281.177 24.4166 281.234 23.1507C281.288 21.9807 281.484 21.3459 281.647 20.9222C281.865 20.362 282.125 19.9622 282.545 19.5419C282.965 19.1216 283.365 18.8615 283.927 18.6443C284.349 18.4796 284.986 18.2847 286.156 18.2315C287.422 18.1733 287.802 18.1617 291.007 18.1617C294.212 18.1617 294.593 18.1743 295.86 18.2315C297.03 18.2848 297.665 18.4811 298.089 18.6443C298.65 18.8615 299.05 19.1222 299.47 19.5419C299.891 19.9616 300.15 20.362 300.369 20.9222C300.533 21.3446 300.728 21.9807 300.782 23.1507C300.84 24.4166 300.851 24.7955 300.851 28.0001C300.851 31.2047 300.84 31.5836 300.782 32.8495C300.728 34.0195 300.532 34.6554 300.369 35.078C300.15 35.6382 299.89 36.038 299.47 36.4573C299.05 36.8766 298.65 37.1368 298.089 37.3549C297.667 37.5196 297.03 37.7145 295.86 37.7677C294.594 37.8259 294.214 37.8375 291.007 37.8375C287.801 37.8375 287.422 37.8259 286.156 37.7677V37.7677ZM286.057 16.0727C284.779 16.1308 283.905 16.3334 283.142 16.63C282.352 16.9364 281.684 17.3474 281.015 18.0142C280.347 18.681 279.937 19.3504 279.63 20.1399C279.334 20.9027 279.131 21.7752 279.073 23.0526C279.014 24.3321 279 24.7412 279 28C279 31.2588 279.014 31.6679 279.073 32.9474C279.131 34.2249 279.334 35.0973 279.63 35.8601C279.937 36.6491 280.347 37.3193 281.015 37.9858C281.684 38.6524 282.352 39.0628 283.142 39.37C283.907 39.6666 284.779 39.8692 286.057 39.9273C287.338 39.9855 287.746 40 291.007 40C294.268 40 294.677 39.9865 295.958 39.9273C297.236 39.8692 298.109 39.6666 298.872 39.37C299.662 39.0628 300.331 38.6526 300.999 37.9858C301.667 37.319 302.077 36.6491 302.384 35.8601C302.681 35.0973 302.884 34.2248 302.942 32.9474C303 31.6669 303.013 31.2588 303.013 28C303.013 24.7412 303 24.3321 302.942 23.0526C302.883 21.7751 302.681 20.9022 302.384 20.1399C302.077 19.3509 301.666 18.682 300.999 18.0142C300.332 17.3463 299.662 16.9364 298.873 16.63C298.109 16.3334 297.236 16.1299 295.958 16.0727C294.678 16.0145 294.269 16 291.008 16C287.747 16 287.338 16.0135 286.057 16.0727Z" fill="url(#paint1_linear_4748_12334)"/>
<defs>
<linearGradient id="paint0_linear_4748_12334" x1="320.715" y1="56" x2="302.081" y2="-52.8089" gradientUnits="userSpaceOnUse">
<stop stop-color="#FBE18A"/>
<stop offset="0.21" stop-color="#FCBB45"/>
<stop offset="0.38" stop-color="#F75274"/>
<stop offset="0.52" stop-color="#D53692"/>
<stop offset="0.74" stop-color="#8F39CE"/>
<stop offset="1" stop-color="#5B4FE9"/>
</linearGradient>
<linearGradient id="paint1_linear_4748_12334" x1="302.552" y1="40" x2="278.552" y2="15.9866" gradientUnits="userSpaceOnUse">
<stop stop-color="#FBE18A"/>
<stop offset="0.21" stop-color="#FCBB45"/>
<stop offset="0.38" stop-color="#F75274"/>
<stop offset="0.52" stop-color="#D53692"/>
<stop offset="0.74" stop-color="#8F39CE"/>
<stop offset="1" stop-color="#5B4FE9"/>
</linearGradient>
</defs>
</svg>
