<svg width="327" height="56" viewBox="0 0 327 56" fill="none" xmlns="http://www.w3.org/2000/svg">
<rect width="327" height="56" rx="10" fill="#337FFF"/>
<path d="M137.864 34C136.243 34 135.021 33.7067 134.2 33.12C133.379 32.5333 132.968 31.6373 132.968 30.432C132.968 30.176 132.984 29.904 133.016 29.616C133.059 29.3173 133.101 29.0293 133.144 28.752C133.197 28.4747 133.245 28.2347 133.288 28.032C133.331 27.8293 133.363 27.6853 133.384 27.6L134.84 27.872C134.808 28.0427 134.76 28.272 134.696 28.56C134.643 28.848 134.589 29.1573 134.536 29.488C134.483 29.8187 134.456 30.1333 134.456 30.432C134.456 30.9653 134.568 31.3973 134.792 31.728C135.027 32.0587 135.395 32.2987 135.896 32.448C136.397 32.5973 137.064 32.672 137.896 32.672H143.24L142.472 33.28V22.576H143.976V34H137.864ZM137.672 28.32C137.491 28.096 137.352 27.8827 137.256 27.68C137.16 27.4667 137.112 27.2427 137.112 27.008C137.112 26.688 137.192 26.4 137.352 26.144C137.523 25.888 137.741 25.6853 138.008 25.536C138.285 25.3867 138.579 25.312 138.888 25.312C139.069 25.312 139.251 25.3387 139.432 25.392C139.613 25.4453 139.773 25.5147 139.912 25.6L139.464 26.384C139.379 26.3307 139.293 26.2987 139.208 26.288C139.123 26.2667 139.037 26.256 138.952 26.256C138.696 26.256 138.499 26.3253 138.36 26.464C138.221 26.6027 138.152 26.784 138.152 27.008C138.152 27.1467 138.179 27.28 138.232 27.408C138.285 27.5253 138.371 27.6587 138.488 27.808L137.672 28.32ZM136.792 28.352V27.424H140.136V28.352H136.792ZM152.853 34V32.672H154.565V34H152.853ZM148.917 37.664C148.533 37.664 148.127 37.632 147.701 37.568C147.285 37.5147 146.826 37.4347 146.325 37.328L146.549 36.128C147.114 36.192 147.583 36.24 147.957 36.272C148.33 36.304 148.65 36.32 148.917 36.32C149.77 36.32 150.389 36.16 150.773 35.84C151.167 35.52 151.365 35.056 151.365 34.448V26.928L151.973 27.328H149.461C148.895 27.328 148.453 27.3973 148.133 27.536C147.813 27.664 147.589 27.9253 147.461 28.32C147.333 28.704 147.269 29.2693 147.269 30.016C147.269 30.752 147.333 31.312 147.461 31.696C147.589 32.0693 147.807 32.3253 148.117 32.464C148.437 32.6027 148.885 32.672 149.461 32.672H151.365V34H149.461C148.533 34 147.802 33.8613 147.269 33.584C146.735 33.296 146.351 32.8587 146.117 32.272C145.893 31.6747 145.781 30.9227 145.781 30.016C145.781 29.0987 145.893 28.3413 146.117 27.744C146.351 27.1467 146.735 26.704 147.269 26.416C147.802 26.128 148.533 25.984 149.461 25.984H152.853V34.432C152.853 35.1147 152.693 35.696 152.373 36.176C152.053 36.6667 151.599 37.0347 151.013 37.28C150.426 37.536 149.727 37.664 148.917 37.664ZM154.565 34V32.672C154.703 32.672 154.789 32.7307 154.821 32.848C154.863 32.9653 154.885 33.1253 154.885 33.328C154.885 33.5307 154.863 33.696 154.821 33.824C154.789 33.9413 154.703 34 154.565 34ZM157.779 34V32.672H159.491V34H157.779ZM154.562 34V32.672H157.043L156.275 33.28V25.984H157.779V34H154.562ZM154.562 34C154.424 34 154.338 33.9413 154.306 33.824C154.264 33.696 154.242 33.5307 154.242 33.328C154.242 33.1253 154.264 32.9653 154.306 32.848C154.338 32.7307 154.424 32.672 154.562 32.672V34ZM159.491 34V32.672C159.629 32.672 159.715 32.7307 159.747 32.848C159.789 32.9653 159.811 33.1253 159.811 33.328C159.811 33.5307 159.789 33.696 159.747 33.824C159.715 33.9413 159.629 34 159.491 34ZM156.275 37.024V35.472H157.779V37.024H156.275ZM171.9 34V32.672H173.612V34H171.9ZM168.172 34C167.788 34 167.41 33.9307 167.036 33.792C166.674 33.6427 166.327 33.4133 165.996 33.104L166.94 32.112C167.175 32.304 167.388 32.448 167.58 32.544C167.772 32.6293 167.97 32.672 168.172 32.672H171.068L170.412 33.312V29.568C170.412 29.376 170.391 29.1093 170.348 28.768C170.316 28.416 170.263 28.0213 170.188 27.584C170.124 27.136 170.044 26.6827 169.948 26.224L171.404 25.984C171.479 26.368 171.554 26.7893 171.628 27.248C171.703 27.7067 171.767 28.144 171.82 28.56C171.874 28.976 171.9 29.312 171.9 29.568V34H168.172ZM159.484 34V32.672H161.82L161.452 33.04V27.6H162.94V34H159.484ZM162.94 34V32.672H164.604C164.967 32.672 165.239 32.6187 165.42 32.512C165.602 32.4053 165.73 32.192 165.804 31.872C165.879 31.552 165.916 31.0827 165.916 30.464V26.8H167.42V30.464C167.42 31.328 167.319 32.0213 167.116 32.544C166.924 33.0667 166.626 33.44 166.22 33.664C165.815 33.888 165.276 34 164.604 34H162.94ZM159.484 34C159.346 34 159.26 33.9413 159.228 33.824C159.186 33.696 159.164 33.5307 159.164 33.328C159.164 33.1253 159.186 32.9653 159.228 32.848C159.26 32.7307 159.346 32.672 159.484 32.672V34ZM173.612 34V32.672C173.751 32.672 173.836 32.7307 173.868 32.848C173.911 32.9653 173.932 33.1253 173.932 33.328C173.932 33.5307 173.911 33.696 173.868 33.824C173.836 33.9413 173.751 34 173.612 34ZM177.049 34V32.672H178.857V34H177.049ZM178.857 34V32.672C178.996 32.672 179.081 32.7307 179.113 32.848C179.156 32.9653 179.177 33.1253 179.177 33.328C179.177 33.5307 179.156 33.696 179.113 33.824C179.081 33.9413 178.996 34 178.857 34ZM173.609 34V32.672H176.329L175.561 33.28V25.984H177.049V34H173.609ZM173.609 34C173.471 34 173.385 33.9413 173.353 33.824C173.311 33.696 173.289 33.5307 173.289 33.328C173.289 33.1253 173.311 32.9653 173.353 32.848C173.385 32.7307 173.471 32.672 173.609 32.672V34ZM174.249 37.008V35.456H175.753V37.008H174.249ZM176.441 37.008V35.456H177.945V37.008H176.441ZM178.859 34V32.672H186.763L185.995 33.344V26.8L186.619 27.328H184.091C183.515 27.328 183.067 27.3973 182.747 27.536C182.427 27.6747 182.203 27.936 182.075 28.32C181.958 28.704 181.899 29.264 181.899 30C181.899 30.736 181.958 31.296 182.075 31.68C182.203 32.064 182.427 32.3253 182.747 32.464C183.067 32.6027 183.515 32.672 184.091 32.672V33.712C183.163 33.712 182.433 33.5947 181.899 33.36C181.366 33.1253 180.982 32.736 180.747 32.192C180.523 31.648 180.411 30.9173 180.411 30C180.411 29.0933 180.523 28.3467 180.747 27.76C180.982 27.1627 181.366 26.72 181.899 26.432C182.433 26.1333 183.163 25.984 184.091 25.984H187.483V34H178.859ZM178.859 34C178.721 34 178.635 33.9413 178.603 33.824C178.561 33.696 178.539 33.5307 178.539 33.328C178.539 33.1253 178.561 32.9653 178.603 32.848C178.635 32.7307 178.721 32.672 178.859 32.672V34ZM183.579 24.544V22.992H185.083V24.544H183.579Z" fill="white"/>
<rect x="271" y="8" width="40" height="40" rx="20" fill="#FAFAFA"/>
<path d="M297.112 29.4992L297.796 25.1577H293.583V22.3358C293.583 21.1487 294.171 19.9887 296.052 19.9887H297.994V16.2917C296.863 16.1115 295.72 16.014 294.575 16C291.107 16 288.844 18.0825 288.844 21.8474V25.1577H285V29.4992H288.844V40H293.583V29.4992H297.112Z" fill="#337FFF"/>
</svg>
