<svg width="327" height="56" viewBox="0 0 327 56" fill="none" xmlns="http://www.w3.org/2000/svg">
<rect width="327" height="56" rx="10" fill="#FFE400"/>
<path d="M132.981 34C131.36 34 130.139 33.7067 129.317 33.12C128.496 32.5333 128.085 31.6373 128.085 30.432C128.085 30.176 128.101 29.904 128.133 29.616C128.176 29.3173 128.219 29.0293 128.261 28.752C128.315 28.4747 128.363 28.2347 128.405 28.032C128.448 27.8293 128.48 27.6853 128.501 27.6L129.957 27.872C129.925 28.0427 129.877 28.272 129.813 28.56C129.76 28.848 129.707 29.1573 129.653 29.488C129.6 29.8187 129.573 30.1333 129.573 30.432C129.573 30.9653 129.685 31.3973 129.909 31.728C130.144 32.0587 130.512 32.2987 131.013 32.448C131.515 32.5973 132.181 32.672 133.013 32.672H137.589V25.984H139.093V34H132.981ZM131.733 26.24V24.688H133.237V26.24H131.733ZM133.925 26.24V24.688H135.429V26.24H133.925ZM143.281 34V32.672H145.201V34H143.281ZM141.793 34V22.576H143.281V34H141.793ZM145.201 34V32.672C145.329 32.672 145.414 32.7307 145.457 32.848C145.5 32.9653 145.521 33.1253 145.521 33.328C145.521 33.5307 145.5 33.696 145.457 33.824C145.414 33.9413 145.329 34 145.201 34ZM153.883 34C153.499 34 153.121 33.9307 152.747 33.792C152.385 33.6427 152.038 33.4133 151.707 33.104L152.651 32.112C152.886 32.304 153.099 32.448 153.291 32.544C153.483 32.6293 153.681 32.672 153.883 32.672H156.779L156.123 33.312V29.568C156.123 29.376 156.102 29.1093 156.059 28.768C156.027 28.416 155.974 28.0213 155.899 27.584C155.835 27.136 155.755 26.6827 155.659 26.224L157.115 25.984C157.19 26.368 157.265 26.7893 157.339 27.248C157.414 27.7067 157.478 28.144 157.531 28.56C157.585 28.976 157.611 29.312 157.611 29.568V34H153.883ZM145.195 34V32.672H147.531L147.163 33.04V27.6H148.651V34H145.195ZM148.651 34V32.672H150.315C150.678 32.672 150.95 32.6187 151.131 32.512C151.313 32.4053 151.441 32.192 151.515 31.872C151.59 31.552 151.627 31.0827 151.627 30.464V26.8H153.131V30.464C153.131 31.328 153.03 32.0213 152.827 32.544C152.635 33.0667 152.337 33.44 151.931 33.664C151.526 33.888 150.987 34 150.315 34H148.651ZM145.195 34C145.057 34 144.971 33.9413 144.939 33.824C144.897 33.696 144.875 33.5307 144.875 33.328C144.875 33.1253 144.897 32.9653 144.939 32.848C144.971 32.7307 145.057 32.672 145.195 32.672V34ZM151.707 22.336V20.912H153.051V22.336H151.707ZM150.443 24.544V22.992H151.915V24.544H150.443ZM152.827 24.544V22.992H154.299V24.544H152.827ZM167.825 34C166.204 34 164.982 33.7067 164.161 33.12C163.34 32.5333 162.929 31.6373 162.929 30.432C162.929 30.176 162.945 29.904 162.977 29.616C163.02 29.3173 163.062 29.0293 163.105 28.752C163.158 28.4747 163.206 28.2347 163.249 28.032C163.292 27.8293 163.324 27.6853 163.345 27.6L164.801 27.872C164.769 28.0427 164.721 28.272 164.657 28.56C164.604 28.848 164.55 29.1573 164.497 29.488C164.444 29.8187 164.417 30.1333 164.417 30.432C164.417 30.9653 164.529 31.3973 164.753 31.728C164.988 32.0587 165.356 32.2987 165.857 32.448C166.358 32.5973 167.025 32.672 167.857 32.672H172.433V25.984H173.937V34H167.825ZM167.729 37.024V35.472H169.233V37.024H167.729ZM178.125 34V32.672H180.045V34H178.125ZM176.637 34V22.576H178.125V34H176.637ZM180.045 34V32.672C180.173 32.672 180.258 32.7307 180.301 32.848C180.343 32.9653 180.365 33.1253 180.365 33.328C180.365 33.5307 180.343 33.696 180.301 33.824C180.258 33.9413 180.173 34 180.045 34ZM183.255 34V32.672H184.967V34H183.255ZM180.039 34V32.672H182.519L181.751 33.28V25.984H183.255V34H180.039ZM180.039 34C179.9 34 179.815 33.9413 179.783 33.824C179.74 33.696 179.719 33.5307 179.719 33.328C179.719 33.1253 179.74 32.9653 179.783 32.848C179.815 32.7307 179.9 32.672 180.039 32.672V34ZM184.967 34V32.672C185.106 32.672 185.191 32.7307 185.223 32.848C185.266 32.9653 185.287 33.1253 185.287 33.328C185.287 33.5307 185.266 33.696 185.223 33.824C185.191 33.9413 185.106 34 184.967 34ZM181.751 24.544V22.992H183.255V24.544H181.751ZM193.649 34C193.265 34 192.886 33.9307 192.513 33.792C192.15 33.6427 191.804 33.4133 191.473 33.104L192.417 32.112C192.652 32.304 192.865 32.448 193.057 32.544C193.249 32.6293 193.446 32.672 193.649 32.672H196.545L195.889 33.312V29.568C195.889 29.376 195.868 29.1093 195.825 28.768C195.793 28.416 195.74 28.0213 195.665 27.584C195.601 27.136 195.521 26.6827 195.425 26.224L196.881 25.984C196.956 26.368 197.03 26.7893 197.105 27.248C197.18 27.7067 197.244 28.144 197.297 28.56C197.35 28.976 197.377 29.312 197.377 29.568V34H193.649ZM184.961 34V32.672H187.297L186.929 33.04V27.6H188.417V34H184.961ZM188.417 34V32.672H190.081C190.444 32.672 190.716 32.6187 190.897 32.512C191.078 32.4053 191.206 32.192 191.281 31.872C191.356 31.552 191.393 31.0827 191.393 30.464V26.8H192.897V30.464C192.897 31.328 192.796 32.0213 192.593 32.544C192.401 33.0667 192.102 33.44 191.697 33.664C191.292 33.888 190.753 34 190.081 34H188.417ZM184.961 34C184.822 34 184.737 33.9413 184.705 33.824C184.662 33.696 184.641 33.5307 184.641 33.328C184.641 33.1253 184.662 32.9653 184.705 32.848C184.737 32.7307 184.822 32.672 184.961 32.672V34Z" fill="white"/>
<rect x="271" y="8" width="40" height="40" rx="20" fill="#FAFAFA"/>
<path d="M291.072 18H291.071C291.053 18 291.035 18 291.019 18.0002C290.887 18.0015 290.672 18.0036 290.652 18.0039C290.179 18.0039 289.231 18.0706 288.213 18.5185C287.631 18.7745 287.108 19.1205 286.657 19.5472C286.12 20.0555 285.683 20.6822 285.358 21.4102C284.881 22.4761 284.994 24.2715 285.085 25.7143L285.085 25.7166C285.095 25.8711 285.105 26.0324 285.114 26.1896C285.045 26.2217 284.931 26.2555 284.764 26.2555C284.495 26.2555 284.175 26.1697 283.814 26.0008C283.707 25.9514 283.586 25.9265 283.452 25.9265C283.237 25.9265 283.01 25.9896 282.813 26.105C282.566 26.25 282.406 26.4549 282.362 26.6821C282.333 26.8324 282.335 27.1294 282.666 27.4306C282.848 27.5964 283.115 27.7493 283.46 27.8853C283.551 27.9209 283.658 27.9548 283.772 27.9908C284.167 28.116 284.765 28.3051 284.921 28.671C285 28.8565 284.966 29.1006 284.82 29.3956C284.816 29.4037 284.812 29.4116 284.809 29.4198C284.772 29.5047 284.433 30.2724 283.735 31.082C283.339 31.5424 282.903 31.9272 282.439 32.226C281.873 32.5907 281.261 32.8292 280.619 32.9346C280.367 32.9758 280.187 33.1997 280.201 33.4541C280.205 33.5274 280.223 33.6005 280.252 33.6713C280.253 33.6717 280.253 33.6721 280.253 33.6725C280.355 33.9102 280.591 34.112 280.975 34.2901C281.445 34.5075 282.147 34.6903 283.061 34.8334C283.108 34.921 283.156 35.1413 283.189 35.2921C283.224 35.4524 283.26 35.6172 283.312 35.7923C283.367 35.982 283.512 36.2087 283.884 36.2087C284.025 36.2087 284.187 36.177 284.374 36.1408C284.649 36.087 285.025 36.0137 285.493 36.0137C285.753 36.0137 286.023 36.0365 286.294 36.0815C286.817 36.1682 287.267 36.4856 287.789 36.8532C288.552 37.3911 289.416 38 290.736 38C290.772 38 290.808 37.9988 290.843 37.9964C290.887 37.9984 290.941 38 290.998 38C292.318 38 293.182 37.3909 293.944 36.8534L293.946 36.8523C294.467 36.4852 294.917 36.1682 295.44 36.0815C295.711 36.0366 295.98 36.0137 296.24 36.0137C296.688 36.0137 297.043 36.0707 297.36 36.1322C297.566 36.1728 297.727 36.1923 297.85 36.1923L297.862 36.1925H297.875C298.146 36.1925 298.346 36.0438 298.422 35.7834C298.473 35.612 298.509 35.451 298.545 35.288C298.576 35.1467 298.626 34.9201 298.672 34.8315C299.587 34.6882 300.289 34.5057 300.758 34.2884C301.142 34.1112 301.377 33.9096 301.48 33.6729C301.511 33.602 301.529 33.5284 301.533 33.4536C301.547 33.1996 301.367 32.9753 301.115 32.9341C298.263 32.4654 296.978 29.5435 296.925 29.4193C296.921 29.4112 296.918 29.4031 296.914 29.3952C296.768 29.1001 296.734 28.8562 296.813 28.6704C296.969 28.3049 297.566 28.1157 297.961 27.9906C298.076 27.9547 298.184 27.9205 298.274 27.8851C298.663 27.7318 298.941 27.5656 299.124 27.3768C299.344 27.1517 299.386 26.936 299.384 26.7949C299.377 26.4535 299.115 26.1501 298.699 26.0015C298.558 25.9435 298.398 25.9129 298.234 25.9129C298.123 25.9129 297.959 25.9281 297.803 26.0007C297.469 26.1563 297.17 26.2415 296.914 26.2536C296.777 26.2467 296.681 26.2172 296.619 26.189C296.627 26.0559 296.636 25.919 296.645 25.7764L296.648 25.7153C296.74 24.2715 296.853 22.4748 296.376 21.4081C296.05 20.6775 295.611 20.0492 295.072 19.5398C294.619 19.1129 294.094 18.7669 293.51 18.5111C292.494 18.0664 291.546 18 291.072 18" fill="#FFE400"/>
</svg>
