<svg width="327" height="56" viewBox="0 0 327 56" fill="none" xmlns="http://www.w3.org/2000/svg">
<rect width="327" height="56" rx="10" fill="#03000F"/>
<path d="M141.661 34C140.04 34 138.818 33.7067 137.997 33.12C137.176 32.5333 136.765 31.6373 136.765 30.432C136.765 30.176 136.781 29.904 136.813 29.616C136.856 29.3173 136.898 29.0293 136.941 28.752C136.994 28.4747 137.042 28.2347 137.085 28.032C137.128 27.8293 137.16 27.6853 137.181 27.6L138.637 27.872C138.605 28.0427 138.557 28.272 138.493 28.56C138.44 28.848 138.386 29.1573 138.333 29.488C138.28 29.8187 138.253 30.1333 138.253 30.432C138.253 30.9653 138.365 31.3973 138.589 31.728C138.824 32.0587 139.192 32.2987 139.693 32.448C140.194 32.5973 140.861 32.672 141.693 32.672H147.037L146.269 33.28V22.576H147.773V34H141.661ZM141.469 28.32C141.288 28.096 141.149 27.8827 141.053 27.68C140.957 27.4667 140.909 27.2427 140.909 27.008C140.909 26.688 140.989 26.4 141.149 26.144C141.32 25.888 141.538 25.6853 141.805 25.536C142.082 25.3867 142.376 25.312 142.685 25.312C142.866 25.312 143.048 25.3387 143.229 25.392C143.41 25.4453 143.57 25.5147 143.709 25.6L143.261 26.384C143.176 26.3307 143.09 26.2987 143.005 26.288C142.92 26.2667 142.834 26.256 142.749 26.256C142.493 26.256 142.296 26.3253 142.157 26.464C142.018 26.6027 141.949 26.784 141.949 27.008C141.949 27.1467 141.976 27.28 142.029 27.408C142.082 27.5253 142.168 27.6587 142.285 27.808L141.469 28.32ZM140.589 28.352V27.424H143.933V28.352H140.589ZM156.65 34V32.672H158.362V34H156.65ZM152.714 37.664C152.33 37.664 151.924 37.632 151.498 37.568C151.082 37.5147 150.623 37.4347 150.122 37.328L150.346 36.128C150.911 36.192 151.38 36.24 151.754 36.272C152.127 36.304 152.447 36.32 152.714 36.32C153.567 36.32 154.186 36.16 154.57 35.84C154.964 35.52 155.162 35.056 155.162 34.448V26.928L155.77 27.328H153.258C152.692 27.328 152.25 27.3973 151.93 27.536C151.61 27.664 151.386 27.9253 151.258 28.32C151.13 28.704 151.066 29.2693 151.066 30.016C151.066 30.752 151.13 31.312 151.258 31.696C151.386 32.0693 151.604 32.3253 151.914 32.464C152.234 32.6027 152.682 32.672 153.258 32.672H155.162V34H153.258C152.33 34 151.599 33.8613 151.066 33.584C150.532 33.296 150.148 32.8587 149.914 32.272C149.69 31.6747 149.578 30.9227 149.578 30.016C149.578 29.0987 149.69 28.3413 149.914 27.744C150.148 27.1467 150.532 26.704 151.066 26.416C151.599 26.128 152.33 25.984 153.258 25.984H156.65V34.432C156.65 35.1147 156.49 35.696 156.17 36.176C155.85 36.6667 155.396 37.0347 154.81 37.28C154.223 37.536 153.524 37.664 152.714 37.664ZM158.362 34V32.672C158.5 32.672 158.586 32.7307 158.618 32.848C158.66 32.9653 158.682 33.1253 158.682 33.328C158.682 33.5307 158.66 33.696 158.618 33.824C158.586 33.9413 158.5 34 158.362 34ZM158.359 34V32.672H161.079L160.311 33.28V25.984H161.799V34H158.359ZM158.359 34C158.221 34 158.135 33.9413 158.103 33.824C158.061 33.696 158.039 33.5307 158.039 33.328C158.039 33.1253 158.061 32.9653 158.103 32.848C158.135 32.7307 158.221 32.672 158.359 32.672V34ZM158.999 24.688V23.136H160.503V24.688H158.999ZM161.191 24.688V23.136H162.695V24.688H161.191ZM178.211 34V32.672H179.923V34H178.211ZM172.099 34C170.477 34 169.256 33.7067 168.435 33.12C167.613 32.5333 167.203 31.6373 167.203 30.432C167.203 30.176 167.219 29.904 167.251 29.616C167.293 29.3173 167.336 29.0293 167.379 28.752C167.432 28.4747 167.48 28.2347 167.523 28.032C167.565 27.8293 167.597 27.6853 167.618 27.6L169.075 27.872C169.043 28.0427 168.995 28.272 168.931 28.56C168.877 28.848 168.824 29.1573 168.771 29.488C168.717 29.8187 168.691 30.1333 168.691 30.432C168.691 30.9653 168.803 31.3973 169.027 31.728C169.261 32.0587 169.629 32.2987 170.131 32.448C170.632 32.5973 171.299 32.672 172.131 32.672H177.475L176.707 33.28V22.576H178.211V34H172.099ZM179.923 34V32.672C180.061 32.672 180.147 32.7307 180.179 32.848C180.221 32.9653 180.243 33.1253 180.243 33.328C180.243 33.5307 180.221 33.696 180.179 33.824C180.147 33.9413 180.061 34 179.923 34ZM171.907 28.32C171.725 28.096 171.587 27.8827 171.491 27.68C171.395 27.4667 171.347 27.2427 171.347 27.008C171.347 26.688 171.427 26.4 171.587 26.144C171.757 25.888 171.976 25.6853 172.243 25.536C172.52 25.3867 172.813 25.312 173.123 25.312C173.304 25.312 173.485 25.3387 173.667 25.392C173.848 25.4453 174.008 25.5147 174.147 25.6L173.699 26.384C173.613 26.3307 173.528 26.2987 173.443 26.288C173.357 26.2667 173.272 26.256 173.187 26.256C172.931 26.256 172.733 26.3253 172.595 26.464C172.456 26.6027 172.387 26.784 172.387 27.008C172.387 27.1467 172.413 27.28 172.467 27.408C172.52 27.5253 172.605 27.6587 172.723 27.808L171.907 28.32ZM171.027 28.352V27.424H174.371V28.352H171.027ZM183.362 34V32.672H185.17V34H183.362ZM185.17 34V32.672C185.309 32.672 185.394 32.7307 185.426 32.848C185.469 32.9653 185.49 33.1253 185.49 33.328C185.49 33.5307 185.469 33.696 185.426 33.824C185.394 33.9413 185.309 34 185.17 34ZM179.922 34V32.672H182.642L181.874 33.28V25.984H183.362V34H179.922ZM179.922 34C179.783 34 179.698 33.9413 179.666 33.824C179.623 33.696 179.602 33.5307 179.602 33.328C179.602 33.1253 179.623 32.9653 179.666 32.848C179.698 32.7307 179.783 32.672 179.922 32.672V34ZM180.562 37.008V35.456H182.066V37.008H180.562ZM182.754 37.008V35.456H184.258V37.008H182.754ZM185.172 34V32.672H187.892L187.124 33.28V25.984H188.612V34H185.172ZM185.172 34C185.033 34 184.948 33.9413 184.916 33.824C184.873 33.696 184.852 33.5307 184.852 33.328C184.852 33.1253 184.873 32.9653 184.916 32.848C184.948 32.7307 185.033 32.672 185.172 32.672V34ZM185.812 24.688V23.136H187.316V24.688H185.812ZM188.004 24.688V23.136H189.508V24.688H188.004Z" fill="white"/>
<rect x="274" y="8" width="40" height="40" rx="20" fill="#FAFAFA"/>
<path fill-rule="evenodd" clip-rule="evenodd" d="M298.015 25.4216C299.242 26.2936 300.711 26.7595 302.216 26.7539V23.7712C301.92 23.772 301.625 23.7403 301.336 23.6767V26.0529C299.827 26.0556 298.356 25.5844 297.13 24.7057V30.8402C297.126 31.8468 296.85 32.8336 296.331 33.696C295.812 34.5585 295.069 35.2643 294.181 35.7388C293.294 36.2132 292.294 36.4386 291.289 36.391C290.283 36.3434 289.309 36.0245 288.47 35.4683C289.246 36.2535 290.238 36.7907 291.319 37.012C292.401 37.2332 293.524 37.1286 294.546 36.7112C295.568 36.2939 296.443 35.5827 297.061 34.6676C297.678 33.7526 298.01 32.6748 298.015 31.5709V25.4216ZM299.104 22.3792C298.48 21.7031 298.097 20.8397 298.015 19.9235V19.5357H297.18C297.283 20.1182 297.508 20.6723 297.839 21.1622C298.171 21.6521 298.601 22.0668 299.104 22.3792ZM290.404 33.107C290.115 32.7285 289.937 32.2763 289.892 31.8019C289.847 31.3276 289.936 30.85 290.149 30.4237C290.362 29.9974 290.69 29.6394 291.096 29.3905C291.503 29.1416 291.971 29.0117 292.447 29.0157C292.71 29.0157 292.972 29.0559 293.223 29.135V26.0529C292.929 26.0141 292.634 25.9975 292.338 26.0032V28.3993C291.727 28.2062 291.066 28.2501 290.486 28.5223C289.906 28.7945 289.449 29.2751 289.208 29.8683C288.966 30.4616 288.956 31.1242 289.181 31.7243C289.405 32.3244 289.847 32.818 290.419 33.107H290.404Z" fill="#EE1D52"/>
<path fill-rule="evenodd" clip-rule="evenodd" d="M297.13 24.6859C298.356 25.5645 299.827 26.0357 301.335 26.033V23.6568C300.476 23.4751 299.695 23.0283 299.103 22.3792C298.601 22.0668 298.17 21.6521 297.839 21.1622C297.507 20.6723 297.283 20.1182 297.179 19.5357H294.982V31.5709C294.98 32.1036 294.811 32.6223 294.499 33.0542C294.187 33.4861 293.748 33.8094 293.243 33.9789C292.738 34.1483 292.193 34.1554 291.683 33.999C291.174 33.8426 290.727 33.5307 290.404 33.107C289.892 32.8488 289.482 32.4257 289.24 31.906C288.998 31.3862 288.939 30.8002 289.071 30.2424C289.203 29.6846 289.519 29.1876 289.968 28.8316C290.418 28.4755 290.974 28.2812 291.547 28.28C291.81 28.2808 292.071 28.3211 292.323 28.3993V26.0032C291.238 26.0293 290.184 26.3715 289.291 26.988C288.398 27.6044 287.704 28.4682 287.295 29.4734C286.886 30.4785 286.779 31.5812 286.988 32.6462C287.196 33.7112 287.712 34.692 288.47 35.4683C289.309 36.0285 290.284 36.3507 291.292 36.4004C292.3 36.4501 293.302 36.2255 294.192 35.7506C295.083 35.2756 295.827 34.5681 296.347 33.7034C296.867 32.8387 297.143 31.8491 297.145 30.8402L297.13 24.6859Z" fill="black"/>
<path fill-rule="evenodd" clip-rule="evenodd" d="M301.335 23.6568L301.336 23.0153C300.546 23.0187 299.772 22.7983 299.104 22.3792C299.694 23.0301 300.475 23.4774 301.335 23.6568ZM297.18 19.5357C297.18 19.4214 297.145 19.3019 297.13 19.1876V18.7998H294.098V30.8399C294.095 31.5141 293.825 32.1597 293.347 32.635C292.869 33.1104 292.221 33.3766 291.547 33.3752C291.15 33.3772 290.759 33.2855 290.404 33.107C290.727 33.5307 291.174 33.8426 291.683 33.999C292.193 34.1554 292.738 34.1483 293.243 33.9789C293.748 33.8094 294.187 33.4861 294.499 33.0542C294.811 32.6223 294.98 32.1036 294.982 31.5709V19.5357H297.18ZM292.323 25.998V25.317C291.075 25.1475 289.807 25.4056 288.724 26.0493C287.642 26.693 286.809 27.6842 286.363 28.8616C285.916 30.0389 285.881 31.3329 286.264 32.5326C286.646 33.7323 287.424 34.7672 288.47 35.4683C287.718 34.6902 287.208 33.7095 287.003 32.6465C286.799 31.5835 286.908 30.4839 287.319 29.4822C287.729 28.4804 288.422 27.6198 289.313 27.0055C290.205 26.3911 291.256 26.0497 292.338 26.0229L292.323 25.998Z" fill="#69C9D0"/>
</svg>
