<svg width="44" height="40" viewBox="0 0 44 40" fill="none" xmlns="http://www.w3.org/2000/svg">
<path d="M35.8941 15.785L25.8091 2.85351L12.1075 11.2444L11.7493 10.6579L25.9741 1.94732L36.4365 15.3621L35.8941 15.785Z" fill="#2C3E50"/>
<path d="M25.7121 6.30433C27.3369 6.30433 28.6541 4.98713 28.6541 3.3623C28.6541 1.73746 27.3369 0.420265 25.7121 0.420265C24.0873 0.420265 22.7701 1.73746 22.7701 3.3623C22.7701 4.98713 24.0873 6.30433 25.7121 6.30433Z" fill="#415E72"/>
<path d="M25.7121 4.89553C26.5589 4.89553 27.2453 4.20908 27.2453 3.36229C27.2453 2.51551 26.5589 1.82906 25.7121 1.82906C24.8653 1.82906 24.1788 2.51551 24.1788 3.36229C24.1788 4.20908 24.8653 4.89553 25.7121 4.89553Z" fill="#517A91"/>
<path d="M5.74273e-05 32.0528L39.476 39.5798L44 15.8538L4.52402 8.32669L5.74273e-05 32.0528Z" fill="#E04F5F"/>
<path d="M7.71475 23.4615C8.25723 23.9187 8.90697 24.2315 9.60277 24.3704C10.5653 24.5567 11.1917 24.2095 11.3216 23.5378C11.442 22.9149 11.0975 22.4687 10.1205 21.8877C8.86021 21.1382 8.13278 20.2506 8.36105 19.0687C8.62026 17.7259 9.94242 16.9174 11.7232 17.2611C12.4093 17.3739 13.0598 17.6475 13.6208 18.0587L13.0213 19.1959C12.5668 18.8363 12.0305 18.5936 11.4605 18.4898C10.509 18.3055 9.99398 18.738 9.90185 19.2152C9.77947 19.8491 10.1996 20.2341 11.2158 20.8735C12.54 21.6862 13.0969 22.5402 12.8659 23.7241C12.6115 25.0428 11.389 25.9979 9.26518 25.5867C8.49443 25.4437 7.76907 25.1205 7.14752 24.6434L7.71475 23.4615Z" fill="white"/>
<path d="M21.881 23.5378C21.3489 26.2962 19.3722 27.549 17.1019 27.1131C14.7821 26.6662 13.6593 24.6124 14.1254 22.1957C14.6136 19.6683 16.5449 18.1928 18.8641 18.6411C21.2677 19.101 22.3327 21.1932 21.881 23.5378ZM15.7171 22.4742C15.394 24.1463 15.9798 25.6369 17.4202 25.9174C18.873 26.1979 19.9504 25.014 20.2825 23.2923C20.5816 21.7426 20.0955 20.1296 18.5938 19.8388C17.1046 19.5514 16.0451 20.7773 15.7171 22.4748V22.4742Z" fill="white"/>
<path d="M23.9533 19.759L25.4549 20.0492L24.1087 27.0189L27.4901 27.6714L27.2481 28.9275L22.3665 27.9849L23.9533 19.759Z" fill="white"/>
<path d="M29.9495 21.031C30.7642 21.0633 31.5755 21.1602 32.3752 21.3211C33.5901 21.4566 34.7163 22.0252 35.5475 22.9217C36.2825 23.8424 36.541 25.0552 36.2454 26.1959C36.0728 27.4328 35.3763 28.5349 34.3326 29.2211C33.1129 29.8323 31.7117 29.9767 30.393 29.6267C29.715 29.5009 29.0454 29.3332 28.3881 29.1248L29.9495 21.031ZM30.1063 28.2908C30.3758 28.3768 30.6515 28.4428 30.9313 28.4868C32.8826 28.8773 34.2494 28.0261 34.6523 25.9394C35.0154 24.1222 34.1662 22.8819 32.2865 22.5188C31.9441 22.4446 31.5948 22.4068 31.2441 22.4075L30.1063 28.2908Z" fill="white"/>
</svg>
