<svg width="17" height="15" viewBox="0 0 17 15" fill="none" xmlns="http://www.w3.org/2000/svg">
<path d="M15.1161 6.84278H14.5917L9.98011 2.5282C10.0625 2.35776 10.1053 2.17082 10.105 1.9815C10.1046 1.27974 9.5352 0.711228 8.83344 0.711647C8.13168 0.712067 7.56317 1.28142 7.56359 1.98318C7.56331 2.17193 7.6061 2.35818 7.68845 2.52792L3.07689 6.84278H2.55242C1.60499 6.84278 0.816406 7.62256 0.816406 8.56985V12.9009C0.816406 13.8484 1.60499 14.6101 2.55242 14.6101H15.1161C15.5689 14.6109 16.0032 14.4309 16.3225 14.1098C16.6417 13.7889 16.8196 13.3537 16.8164 12.9009V8.56985C16.8164 7.62256 16.0636 6.84278 15.1161 6.84278ZM8.83428 1.28575C9.21977 1.28575 9.53227 1.59825 9.53227 1.98374C9.53227 2.36922 9.21977 2.68172 8.83428 2.68172C8.4488 2.68172 8.1363 2.36922 8.1363 1.98374C8.13672 1.59839 8.44894 1.28617 8.83428 1.28575ZM8.04793 2.97632C8.50752 3.34461 9.16146 3.34419 9.62063 2.9752L13.7539 6.84278H3.91469L8.04793 2.97632ZM16.2437 12.892C16.2437 13.5245 15.7308 14.0374 15.0982 14.0374H2.53452C1.90197 14.0374 1.38911 13.5245 1.38911 12.892V8.5609C1.38911 7.92835 1.90197 7.41549 2.53452 7.41549H15.0982C15.7308 7.41549 16.2437 7.92835 16.2437 8.5609V12.892Z" fill="black"/>
<path d="M5.10128 10.0615C5.10128 9.9506 5.20516 9.84672 5.45922 9.84672C5.7527 9.84672 5.82079 9.98276 5.94957 9.98276C6.10715 9.98276 6.1716 9.7859 6.1716 9.68928C6.1716 9.41006 5.64895 9.37426 5.45922 9.37426C5.01179 9.37426 4.54297 9.57826 4.54297 10.1152C4.54297 10.9528 5.67762 10.8776 5.67762 11.3108C5.67762 11.4825 5.49501 11.5469 5.33044 11.5469C4.99753 11.5469 4.89015 11.2821 4.72194 11.2821C4.5859 11.2821 4.47852 11.4611 4.47852 11.5827C4.47852 11.819 4.87225 12.0481 5.34107 12.0481C5.86008 12.0481 6.23592 11.7688 6.23592 11.2535C6.23592 10.3515 5.10128 10.4194 5.10128 10.0615Z" fill="black"/>
<path d="M7.70522 9.39565C7.21123 9.39565 6.83008 9.62468 6.83008 10.2404V11.189C6.83008 11.8046 7.21123 12.0336 7.70522 12.0336C8.1992 12.0336 8.58399 11.8046 8.58399 11.189V10.2404C8.58399 9.62482 8.1992 9.39565 7.70522 9.39565ZM8.04708 11.189C8.04708 11.4359 7.92362 11.5469 7.72311 11.5469C7.52261 11.5469 7.40278 11.4359 7.40278 11.189V10.2404C7.40278 9.99339 7.52275 9.88251 7.72311 9.88251C7.92362 9.88251 8.04708 9.99339 8.04708 10.2404V11.189Z" fill="black"/>
<path d="M10.6896 11.5318H9.87349V9.564C9.87349 9.44585 9.72668 9.39565 9.58713 9.39565C9.44759 9.39565 9.30078 9.44585 9.30078 9.564V11.8404C9.30078 11.9549 9.43683 11.997 9.55847 11.997H10.6896C10.797 11.997 10.8507 11.8861 10.8507 11.7644C10.8507 11.6427 10.797 11.5318 10.6896 11.5318Z" fill="black"/>
<path d="M12.31 9.38419H11.6763C11.5296 9.38419 11.4473 9.47451 11.4473 9.564V11.8441C11.4473 11.9335 11.5296 11.997 11.6763 11.997H12.31C12.8038 11.997 13.2012 11.7831 13.2012 11.1675V10.2403C13.2012 9.62482 12.8038 9.38419 12.31 9.38419ZM12.6285 11.1676C12.6285 11.411 12.5103 11.5318 12.31 11.5318H11.9842V9.88531H12.31C12.5103 9.88531 12.6285 9.99702 12.6285 10.2405V11.1676Z" fill="black"/>
</svg>
