<svg width="44" height="40" viewBox="0 0 44 40" fill="none" xmlns="http://www.w3.org/2000/svg">
<path d="M35.8938 15.785L25.8088 2.85351L12.1072 11.2444L11.749 10.6579L25.9738 1.94732L36.4362 15.3621L35.8938 15.785Z" fill="#2C3E50"/>
<path d="M25.7116 6.30433C27.3364 6.30433 28.6536 4.98713 28.6536 3.3623C28.6536 1.73746 27.3364 0.420265 25.7116 0.420265C24.0867 0.420265 22.7695 1.73746 22.7695 3.3623C22.7695 4.98713 24.0867 6.30433 25.7116 6.30433Z" fill="#415E72"/>
<path d="M25.712 4.89553C26.5587 4.89553 27.2452 4.20908 27.2452 3.36229C27.2452 2.51551 26.5587 1.82906 25.712 1.82906C24.8652 1.82906 24.1787 2.51551 24.1787 3.36229C24.1787 4.20908 24.8652 4.89553 25.712 4.89553Z" fill="#517A91"/>
<path d="M-0.000369819 32.0528L39.4756 39.5798L43.9996 15.8538L4.5236 8.32669L-0.000369819 32.0528Z" fill="#E04F5F"/>
<path d="M7.71469 23.4615C8.25717 23.9187 8.9069 24.2315 9.60271 24.3704C10.5653 24.5567 11.1916 24.2095 11.3216 23.5378C11.4419 22.9149 11.0974 22.4687 10.1204 21.8877C8.86015 21.1382 8.13272 20.2506 8.36099 19.0687C8.6202 17.7259 9.94236 16.9174 11.7231 17.2611C12.4093 17.3739 13.0597 17.6475 13.6208 18.0587L13.0212 19.1959C12.5667 18.8363 12.0304 18.5936 11.4605 18.4898C10.5089 18.3055 9.99392 18.738 9.90179 19.2152C9.77941 19.8491 10.1995 20.2341 11.2157 20.8735C12.5399 21.6862 13.0968 22.5402 12.8658 23.7241C12.6114 25.0428 11.389 25.9979 9.26512 25.5867C8.49437 25.4437 7.76901 25.1205 7.14746 24.6434L7.71469 23.4615Z" fill="white"/>
<path d="M21.8809 23.5378C21.3487 26.2962 19.372 27.549 17.1017 27.1131C14.7819 26.6661 13.6592 24.6124 14.1253 22.1957C14.6135 19.6683 16.5448 18.1928 18.8639 18.6411C21.2676 19.101 22.3326 21.1932 21.8809 23.5378ZM15.717 22.4742C15.3939 24.1463 15.9797 25.6369 17.4201 25.9174C18.8729 26.1979 19.9503 25.014 20.2823 23.2923C20.5814 21.7426 20.0953 20.1296 18.5937 19.8388C17.1045 19.5514 16.045 20.7773 15.717 22.4748V22.4742Z" fill="white"/>
<path d="M23.9531 19.759L25.4547 20.0492L24.1085 27.0189L27.4898 27.6713L27.2478 28.9275L22.3662 27.9849L23.9531 19.759Z" fill="white"/>
<path d="M29.9491 21.031C30.7639 21.0633 31.5752 21.1602 32.3748 21.3211C33.5897 21.4566 34.7159 22.0252 35.5472 22.9217C36.2822 23.8424 36.5407 25.0552 36.245 26.1959C36.0725 27.4328 35.376 28.5349 34.3323 29.2211C33.1125 29.8323 31.7113 29.9767 30.3926 29.6267C29.7147 29.5009 29.045 29.3332 28.3877 29.1248L29.9491 21.031ZM30.1059 28.2908C30.3754 28.3768 30.6511 28.4428 30.9309 28.4868C32.8822 28.8773 34.2491 28.0261 34.652 25.9394C35.015 24.1222 34.1659 22.8819 32.2861 22.5188C31.9437 22.4446 31.5944 22.4068 31.2438 22.4075L30.1059 28.2908Z" fill="white"/>
</svg>
