<svg width="154" height="124" viewBox="0 0 154 124" fill="none" xmlns="http://www.w3.org/2000/svg">
<path d="M69.2235 15.8974L54.9409 44.8606L22.9861 49.52C21.6942 49.7096 20.481 50.2567 19.4836 51.0995C18.4861 51.9423 17.7442 53.0472 17.3414 54.2895C16.9387 55.5318 16.8912 56.8619 17.2044 58.1298C17.5177 59.3976 18.179 60.5526 19.1139 61.4644L42.2341 83.9976L36.7653 115.825C36.5454 117.111 36.6896 118.433 37.1815 119.642C37.6735 120.851 38.4937 121.897 39.5493 122.664C40.605 123.431 41.8541 123.888 43.1554 123.982C44.4568 124.076 45.7585 123.804 46.9135 123.197L75.5005 108.168L104.087 123.197C105.243 123.802 106.544 124.072 107.844 123.977C109.145 123.882 110.393 123.426 111.448 122.659C112.503 121.893 113.323 120.847 113.816 119.639C114.308 118.432 114.454 117.111 114.236 115.825L108.768 83.9976L131.886 61.4654C132.821 60.5536 133.482 59.3986 133.796 58.1308C134.109 56.8629 134.061 55.5328 133.659 54.2905C133.256 53.0482 132.514 51.9433 131.516 51.1005C130.519 50.2577 129.306 49.7106 128.014 49.521L96.061 44.8606L81.7785 15.8974C81.1992 14.7272 80.3045 13.7422 79.1953 13.0536C78.0861 12.3649 76.8065 12 75.501 12C74.1955 12 72.9159 12.3649 71.8067 13.0536C70.6975 13.7422 69.8028 14.7272 69.2235 15.8974Z" fill="#FFA219"/>
<path d="M86.3516 65.6367C88.8368 65.6367 90.8516 63.622 90.8516 61.1367C90.8516 58.6514 88.8368 56.6367 86.3516 56.6367C83.8663 56.6367 81.8516 58.6514 81.8516 61.1367C81.8516 63.622 83.8663 65.6367 86.3516 65.6367Z" fill="#11014D"/>
<path d="M68.3516 65.6367C70.8368 65.6367 72.8516 63.622 72.8516 61.1367C72.8516 58.6514 70.8368 56.6367 68.3516 56.6367C65.8663 56.6367 63.8516 58.6514 63.8516 61.1367C63.8516 63.622 65.8663 65.6367 68.3516 65.6367Z" fill="#11014D"/>
<path d="M61.8557 74.6367C61.8503 74.8021 61.8477 74.9687 61.8477 75.1367C61.8477 79.2476 63.4807 83.1901 66.3875 86.0969C69.2943 89.0037 73.2368 90.6367 77.3477 90.6367C81.4585 90.6367 85.401 89.0037 88.3078 86.0969C91.2146 83.1901 92.8477 79.2476 92.8477 75.1367C92.8477 74.9701 92.845 74.8034 92.8397 74.6367H61.8557Z" fill="#11014D"/>
<path d="M116.501 37.5585C116.268 37.5585 116.038 37.5045 115.83 37.4003C115.622 37.2962 115.441 37.1447 115.301 36.9584C115.183 36.8004 115.098 36.6207 115.05 36.4296C115.001 36.2385 114.991 36.0397 115.02 35.8447C115.048 35.6496 115.115 35.4621 115.216 35.2929C115.317 35.1237 115.451 34.9764 115.609 34.8588L151.309 8.3056C151.467 8.18788 151.647 8.10231 151.838 8.05413C152.029 8.00595 152.228 7.99614 152.423 8.02484C152.618 8.05353 152.806 8.12041 152.975 8.22161C153.144 8.32282 153.292 8.4564 153.409 8.61468C153.527 8.77275 153.612 8.95237 153.661 9.14349C153.709 9.33461 153.719 9.53342 153.69 9.72845C153.662 9.92348 153.595 10.111 153.494 10.2802C153.393 10.4494 153.259 10.5972 153.101 10.7148L117.401 37.2675C117.141 37.4596 116.825 37.5617 116.501 37.5585Z" fill="#FA9C44"/>
<path d="M116.501 37.5585C116.268 37.5585 116.038 37.5045 115.83 37.4003C115.622 37.2962 115.441 37.1447 115.301 36.9584C115.183 36.8004 115.098 36.6207 115.05 36.4296C115.001 36.2385 114.991 36.0397 115.02 35.8447C115.048 35.6496 115.115 35.4621 115.216 35.2929C115.317 35.1237 115.451 34.9764 115.609 34.8588L151.309 8.3056C151.467 8.18788 151.647 8.10231 151.838 8.05413C152.029 8.00595 152.228 7.99614 152.423 8.02484C152.618 8.05353 152.806 8.12041 152.975 8.22161C153.144 8.32282 153.292 8.4564 153.409 8.61468C153.527 8.77275 153.612 8.95237 153.661 9.14349C153.709 9.33461 153.719 9.53342 153.69 9.72845C153.662 9.92348 153.595 10.111 153.494 10.2802C153.393 10.4494 153.259 10.5972 153.101 10.7148L117.401 37.2675C117.141 37.4596 116.825 37.5617 116.501 37.5585Z" fill="#FA9C44"/>
<path d="M108.501 29.5585C108.268 29.5585 108.038 29.5045 107.83 29.4003C107.622 29.2962 107.441 29.1447 107.301 28.9584C107.183 28.8004 107.098 28.6207 107.05 28.4296C107.001 28.2385 106.991 28.0397 107.02 27.8447C107.048 27.6496 107.115 27.4621 107.216 27.2929C107.317 27.1237 107.451 26.9764 107.609 26.8588L143.309 0.305597C143.467 0.187882 143.647 0.102314 143.838 0.0541325C144.029 0.00595072 144.228 -0.00386265 144.423 0.0248356C144.618 0.0535338 144.806 0.12041 144.975 0.221613C145.144 0.322815 145.292 0.456403 145.409 0.614679C145.527 0.772751 145.612 0.952368 145.661 1.14349C145.709 1.33461 145.719 1.53342 145.69 1.72845C145.662 1.92348 145.595 2.11099 145.494 2.28021C145.393 2.44942 145.259 2.59718 145.101 2.71478L109.401 29.2675C109.141 29.4596 108.825 29.5617 108.501 29.5585Z" fill="#FA9C44"/>
<path d="M37.1991 37.5585C36.8765 37.5578 36.5628 37.4527 36.3051 37.2587L0.605145 10.7055C0.446946 10.5879 0.313432 10.4406 0.212323 10.2714C0.111214 10.1022 0.0445163 9.91469 0.0159115 9.71966C-0.0126933 9.52463 -0.00268546 9.32582 0.0455746 9.1347C0.0938346 8.94358 0.179394 8.76396 0.297161 8.60589C0.414684 8.44761 0.562189 8.31403 0.731366 8.21282C0.900543 8.11162 1.08796 8.04474 1.283 8.01605C1.47804 7.98735 1.67693 7.99716 1.86808 8.04534C2.05924 8.09353 2.239 8.17909 2.39714 8.29681L38.0971 34.8495C38.2553 34.9671 38.3888 35.1149 38.4899 35.2841C38.591 35.4533 38.6577 35.6408 38.6863 35.8359C38.7149 36.0309 38.7048 36.2297 38.6565 36.4208C38.6083 36.612 38.5228 36.7916 38.4051 36.9496C38.2657 37.1384 38.084 37.2916 37.8746 37.3974C37.6651 37.5032 37.4338 37.5584 37.1991 37.5585Z" fill="#FA9C44"/>
<path d="M45.1991 29.5585C44.8765 29.5578 44.5628 29.4527 44.3051 29.2587L8.60514 2.7055C8.44695 2.5879 8.31343 2.44063 8.21232 2.27142C8.11121 2.1022 8.04452 1.91469 8.01591 1.71966C7.98731 1.52463 7.99731 1.32582 8.04557 1.1347C8.09383 0.943579 8.17939 0.763962 8.29716 0.60589C8.41468 0.447614 8.56219 0.314026 8.73137 0.212824C8.90054 0.111621 9.08796 0.0447447 9.283 0.0160465C9.47804 -0.0126517 9.67693 -0.00283835 9.86808 0.0453434C10.0592 0.0935251 10.239 0.179093 10.3971 0.296808L46.0971 26.8495C46.2553 26.9671 46.3888 27.1149 46.4899 27.2841C46.591 27.4533 46.6577 27.6408 46.6863 27.8359C46.7149 28.0309 46.7048 28.2297 46.6565 28.4208C46.6083 28.612 46.5228 28.7916 46.4051 28.9496C46.2657 29.1384 46.084 29.2916 45.8746 29.3974C45.6651 29.5032 45.4338 29.5584 45.1991 29.5585Z" fill="#FA9C44"/>
</svg>
