<svg width="79" height="73" viewBox="0 0 79 73" fill="none" xmlns="http://www.w3.org/2000/svg">
<path d="M77.9025 27.4286C77.3942 25.895 75.9996 24.8057 74.3497 24.6606L51.9384 22.6756L43.0764 2.44266C42.423 0.959843 40.9348 0 39.2813 0C37.6279 0 36.1397 0.959843 35.4863 2.44613L26.6243 22.6756L4.20942 24.6606C2.56249 24.8091 1.17148 25.895 0.660222 27.4286C0.148962 28.9623 0.621122 30.6445 1.86698 31.7049L18.8073 46.1967L13.812 67.6605C13.4464 69.2387 14.0744 70.87 15.4168 71.8166C16.1384 72.3251 16.9826 72.584 17.8339 72.584C18.5679 72.584 19.296 72.391 19.9495 72.0096L39.2813 60.7394L58.6061 72.0096C60.0202 72.8394 61.8028 72.7637 63.1423 71.8166C64.4853 70.8671 65.1127 69.2352 64.7472 67.6605L59.7519 46.1967L76.6922 31.7078C77.938 30.6445 78.4137 28.9652 77.9025 27.4286Z" fill="#FFC107"/>
</svg>
