<svg width="68" height="64" viewBox="0 0 68 64" fill="none" xmlns="http://www.w3.org/2000/svg">
<path d="M35.6971 1.60184C35.3217 0.841121 34.5469 0.359512 33.6986 0.359512C32.8503 0.359512 32.0755 0.841121 31.7001 1.60184L22.6122 20.0159L2.29105 22.9688C1.45155 23.0908 0.7541 23.6788 0.491955 24.4856C0.22981 25.2924 0.448434 26.178 1.0559 26.7702L15.7604 41.1035L12.2892 61.3426C12.1458 62.1787 12.4895 63.0237 13.1758 63.5223C13.8621 64.021 14.772 64.0867 15.5228 63.692L33.6986 54.1364L51.8744 63.692C52.6253 64.0867 53.5352 64.021 54.2215 63.5223C54.9078 63.0237 55.2515 62.1787 55.1081 61.3426L51.6368 41.1035L66.3413 26.7702C66.9488 26.178 67.1674 25.2924 66.9053 24.4856C66.6431 23.6788 65.9457 23.0908 65.1062 22.9688L44.785 20.0159L35.6971 1.60184Z" fill="#C9BCAD"/>
</svg>
