<svg width="58" height="40" viewBox="0 0 58 40" fill="none" xmlns="http://www.w3.org/2000/svg">
<path d="M58 30C58 35.5227 54.9432 40 48.9375 40H9.0625C3.05678 40 0 35.5227 0 30V10C0 4.47727 3.05678 0 9.0625 0H48.9375C54.9432 0 58 4.47727 58 10V30Z" fill="#137A08"/>
<path fill-rule="evenodd" clip-rule="evenodd" d="M27.7243 19.382C27.6599 18.4793 27.804 18.2529 28.8344 17.6538C28.5417 17.3865 28.1883 17.3247 27.8258 17.2965C27.3917 17.2638 26.9585 17.2493 26.5289 17.2083C26.3078 17.1893 26.2661 17.102 26.3078 16.8829C26.4238 16.2829 26.7337 15.8665 27.3427 15.6765C27.9354 15.4902 28.5145 15.2593 29.1163 15.0402C29.0972 14.9883 29.0728 14.9374 29.0501 14.8847C28.9825 14.7561 28.9452 14.6136 28.9413 14.4683C28.9374 14.3229 28.9669 14.1786 29.0275 14.0465C29.0755 13.9429 29.129 13.8393 29.1888 13.7438C29.5603 13.1483 29.921 13.0383 30.5527 13.3365C30.7521 13.4311 30.946 13.5447 31.1191 13.6802C31.6212 14.072 31.6665 14.6247 31.2179 15.082C31.0303 15.2683 30.7765 15.3965 30.5509 15.5502C30.4213 15.6356 30.2128 15.612 30.1675 15.8229C30.1648 15.8393 30.0887 15.8411 30.047 15.8483C29.9337 15.8547 29.8096 15.8311 29.7081 15.8711C29.2232 16.0511 28.7456 16.2456 28.268 16.442C28.1937 16.4693 28.1294 16.5193 28.0578 16.5583L28.0705 16.6183C28.4982 16.6183 28.9314 16.6247 29.3582 16.6156C30.3162 16.5911 31.2759 16.5602 32.2338 16.5302C32.5455 16.5229 32.5827 16.5811 32.4893 16.8802C32.4674 16.9443 32.4469 17.0088 32.4277 17.0738C32.3353 17.4111 32.1069 17.562 31.7689 17.6138C30.743 17.7611 29.7624 18.0883 28.7991 18.472C28.578 18.5629 28.3496 18.6856 28.3387 18.9556C28.3306 19.2202 28.5245 19.3865 28.7366 19.5029C28.9513 19.6183 29.1797 19.702 29.4036 19.7902C29.6591 19.8865 29.7053 19.962 29.6392 20.2202C29.4942 20.7602 29.4797 20.792 28.9015 20.7302C27.7451 20.6047 26.7365 20.1838 26.055 19.1738C25.9172 18.9683 25.813 18.7374 25.6762 18.4893C25.6209 18.5602 25.5665 18.6247 25.5121 18.6929C25.0771 19.292 24.6059 19.8593 24.0059 20.3083C23.5736 20.6347 23.116 20.8902 22.5451 20.8774C21.8717 20.8611 21.4512 20.5174 21.3216 19.8483C21.3053 19.7656 21.2872 19.6847 21.27 19.6065C20.641 19.8402 20.023 20.072 19.4058 20.292C19.1031 20.3965 18.7986 20.492 18.4905 20.5747C18.3826 20.6047 18.2648 20.5938 18.1516 20.6002C18.1389 20.5729 18.1253 20.5456 18.1162 20.5165C18.2014 20.4565 18.283 20.3883 18.3727 20.3365C19.288 19.8029 20.1942 19.2683 21.1096 18.7383C21.2518 18.6556 21.3171 18.5393 21.3651 18.3865C21.5065 17.9765 21.6642 17.5738 21.821 17.1683C21.85 17.092 21.9034 17.0302 21.9759 16.912C22.1517 17.2993 21.9841 17.6611 22.0711 18.022C22.1246 17.9938 22.1771 17.9674 22.217 17.9329C22.5532 17.6547 22.894 17.3856 23.2139 17.092C23.6597 16.6802 23.7259 16.3356 23.4866 15.7793C23.3507 15.472 23.1985 15.1729 23.0453 14.8747C23.0157 14.8141 22.9674 14.7647 22.9076 14.7338C22.7254 14.6274 22.6701 14.4747 22.7381 14.2874C22.8169 14.0811 22.9085 13.882 23.0109 13.6883C23.0897 13.542 23.2266 13.5211 23.3317 13.6438C23.5655 13.912 23.7866 14.1938 23.9914 14.482C24.1129 14.6529 24.0458 14.7856 23.8627 14.842C23.9552 15.2111 24.0594 15.5711 24.1328 15.9356C24.2733 16.6629 24.0503 17.2874 23.5655 17.832C23.1133 18.342 22.6139 18.7956 22.024 19.1465C21.9515 19.1883 21.8935 19.3111 21.8971 19.3993C21.8989 19.5983 21.9823 19.8011 22.1889 19.8383C22.43 19.882 22.6946 19.9038 22.9257 19.8483C23.4785 19.722 23.9207 19.3747 24.286 18.9611C24.6512 18.5393 24.9584 18.0629 25.2892 17.612C25.388 17.4756 25.3916 17.3402 25.3427 17.1783C25.0372 16.2311 24.7445 15.2756 24.4427 14.3293C24.2968 13.872 24.4473 13.2629 24.7935 12.9974C24.8524 13.0956 24.9095 13.1865 24.9593 13.2856C25.581 14.5647 25.9526 15.9156 26.1365 17.3247C26.2018 17.8483 26.3006 18.3702 26.673 18.7856C26.9521 19.0993 27.3147 19.2765 27.7234 19.382H27.7243ZM30.569 14.6465C30.5708 14.6247 30.5708 14.6011 30.5708 14.5811C30.308 14.4629 30.0996 14.2238 29.728 14.2238C29.7552 14.4374 29.7787 14.6238 29.8023 14.8456L30.569 14.6465Z" fill="white"/>
<path fill-rule="evenodd" clip-rule="evenodd" d="M38.4351 31.4165C37.9566 31.4165 37.5324 31.4092 37.1056 31.421C36.2302 31.4401 35.3583 31.4819 34.4784 31.4883C29.5502 31.5256 24.6175 31.5583 19.6866 31.5765C18.7848 31.5783 17.8786 31.5165 17.0004 31.2655C16.5881 31.1474 16.202 30.9683 15.8966 30.6474C15.8241 30.571 15.7625 30.4746 15.6592 30.3401H16.0534C21.4728 30.3746 26.8921 30.4192 32.3097 30.4437C34.2509 30.4556 36.1885 30.4319 38.1297 30.4192C38.2076 30.4192 38.3462 30.3937 38.3499 30.3674C38.3644 30.2683 38.368 30.131 38.3091 30.0692C38.0417 29.7719 38.1931 29.5292 38.4015 29.2801C38.4858 29.1801 38.5746 29.1646 38.668 29.2746C38.9235 29.5828 38.9996 29.7428 38.7713 30.0365C38.7069 30.1201 38.7115 30.2583 38.677 30.3937C38.7776 30.4019 38.8374 30.4137 38.8936 30.4119C39.818 30.3956 40.7342 30.3755 41.6568 30.3565C41.8308 30.3565 42.0075 30.3683 42.1815 30.3892C42.5984 30.4374 42.8195 30.641 42.9101 31.0574C42.9881 31.4055 42.9881 31.7574 42.8539 32.0946C42.6745 32.551 42.2603 32.6437 41.8915 32.3192C41.8274 32.2714 41.7509 32.2433 41.6713 32.2383C41.4356 32.231 41.1991 32.2383 40.9635 32.2401C40.7886 32.2428 40.6146 32.2155 40.4868 32.4137C40.4034 32.5419 40.2512 32.4883 40.1198 32.4046C40.0251 32.3409 39.9167 32.3004 39.8035 32.2865C39.6141 32.2701 39.422 32.2956 39.2335 32.2828C39.0114 32.2719 38.832 32.3092 38.7323 32.541C38.6761 32.6655 38.5746 32.661 38.474 32.5655C38.2012 32.3192 38.1786 32.1192 38.3607 31.7928C38.4142 31.6956 38.407 31.5674 38.4351 31.4165ZM41.674 31.9165L41.7293 31.3301C41.684 31.3256 41.6468 31.311 41.6124 31.311C40.7242 31.3337 39.837 31.3528 38.9471 31.3792C38.7396 31.3855 38.6607 31.5301 38.7631 31.7183C38.8528 31.8783 38.9598 32.0092 39.1927 31.9674C39.4002 31.9337 39.6168 31.9601 39.8271 31.9401C39.9242 31.9286 40.0152 31.8866 40.0872 31.8201C40.2303 31.6837 40.3654 31.6874 40.5122 31.7974C40.572 31.8456 40.6345 31.9083 40.6961 31.911C41.0197 31.9256 41.3468 31.9165 41.674 31.9165Z" fill="white"/>
<path fill-rule="evenodd" clip-rule="evenodd" d="M17.3467 15.9809C17.102 16.0537 16.8582 16.1264 16.6144 16.2073C16.3634 16.2855 16.1296 16.2264 15.9112 16.1137C15.8405 16.0818 15.7616 16 15.7517 15.9355C15.6683 15.3227 15.6338 14.7182 16.0788 14.1982C16.3888 13.8318 16.7005 13.7691 17.053 14.0937C17.3231 14.3373 17.5442 14.6337 17.807 14.9291C17.8904 14.8809 18.0218 14.82 18.1369 14.7373C18.1625 14.7141 18.1832 14.686 18.1977 14.6546C18.2122 14.6232 18.2202 14.5891 18.2212 14.5546C18.1559 13.7818 18.0825 13.0037 18.0082 12.2291C17.9248 11.3573 17.8378 10.4873 17.7508 9.61366C17.746 9.55361 17.735 9.49421 17.7182 9.43638C17.6049 9.0882 17.8016 8.63911 18.1505 8.4982C18.194 8.47911 18.31 8.53093 18.3345 8.57911C18.4178 8.75093 18.4749 8.93365 18.5402 9.11275C18.6607 9.44093 18.7803 9.77275 18.8982 10.1009C18.9322 10.1851 18.953 10.274 18.9598 10.3646C18.9852 10.68 18.861 10.7791 18.5601 10.6973C18.6399 11.8864 18.7251 13.0727 18.813 14.3046C18.9489 14.1937 19.0441 14.0991 19.1519 14.0246C19.2235 13.9755 19.3114 13.9527 19.3921 13.9173C19.4274 14.0064 19.4827 14.0891 19.4908 14.1773C19.5126 14.3309 19.4727 14.4946 19.5189 14.6337C19.5697 14.7791 19.6612 14.9709 19.7818 15.0173C19.8996 15.0618 20.1379 14.9927 20.2177 14.89C20.4143 14.6473 20.5548 14.3582 20.7098 14.0818C20.7487 14.0118 20.7732 13.9355 20.804 13.8627H20.8747C20.9046 14.0146 20.9236 14.1755 20.9708 14.3227C21.0269 14.4937 21.0822 14.68 21.1855 14.8155C21.3632 15.0473 21.6106 14.9918 21.6722 14.7164C21.7093 14.5437 21.693 14.3527 21.6658 14.18C21.6305 13.9855 21.7075 13.7973 21.8969 13.7618C21.9495 13.7537 22.0555 13.8182 22.0709 13.8691C22.1987 14.3473 22.1888 14.8282 21.9903 15.2818C21.8308 15.6382 21.1991 15.6609 20.8756 15.3437C20.8167 15.2864 20.7632 15.2155 20.6871 15.1327C20.4406 15.3873 20.1859 15.6173 19.8126 15.6518C19.441 15.6855 19.1401 15.5873 18.9353 15.2146C18.9099 15.2927 18.8846 15.3318 18.8846 15.3718C18.9 15.77 18.9208 16.1664 18.9353 16.5627C18.9634 17.2755 18.9235 17.9791 18.6353 18.6491C18.4017 19.1952 17.9818 19.64 17.4509 19.9037C16.5818 20.3473 15.6647 20.6355 14.6787 20.64C14.5065 20.64 14.3279 20.61 14.1603 20.5755C13.5042 20.4391 13.1752 19.9882 13.013 19.3755C12.7583 18.4182 12.8181 17.4764 13.138 16.5427C13.1652 16.4637 13.2169 16.39 13.2558 16.3155C13.278 16.3234 13.3012 16.3283 13.3247 16.33C13.3247 16.5818 13.3528 16.8373 13.322 17.0809C13.2413 17.6773 13.2658 18.2537 13.4752 18.8164C13.6664 19.3382 14.0561 19.6309 14.6098 19.6637C15.6873 19.7255 16.6081 19.3137 17.4645 18.6982C18.0572 18.2718 18.2928 17.6864 18.2928 16.9818C18.2901 16.5237 18.2928 16.0637 18.2928 15.5746C18.1215 15.6482 17.923 15.6537 17.9511 15.8982C18.0961 17.2418 17.3385 18.0182 16.2646 18.5855C15.9746 18.7409 15.6547 18.8709 15.3321 18.9355C14.5065 19.1018 13.7652 18.5418 13.6383 17.7046C13.5486 17.1055 13.6483 16.5218 13.7951 15.9427C13.8204 15.85 13.892 15.77 13.941 15.6809C13.9599 15.6903 13.98 15.697 14.0008 15.7009C14.0008 15.8173 14.0117 15.9327 14.0008 16.0464C13.9573 16.5073 13.9546 16.9646 14.1476 17.3964C14.4041 17.9791 14.82 18.1646 15.4218 17.9655C16.1694 17.7182 16.7458 17.2264 17.2307 16.6264C17.3557 16.4691 17.3648 16.2273 17.4273 16.0227C17.4047 16.0073 17.3738 15.9937 17.3467 15.9809ZM17.0748 15.23C16.966 15.0973 16.9053 14.98 16.812 14.9173C16.7078 14.8464 16.5691 14.8227 16.4495 14.7791C16.4196 14.9046 16.3552 15.0355 16.3752 15.1546C16.3833 15.2282 16.5156 15.3309 16.5963 15.3373C16.7404 15.3418 16.8845 15.2773 17.0748 15.23Z" fill="white"/>
<path fill-rule="evenodd" clip-rule="evenodd" d="M43.0674 13.2728C43.0919 13.79 43.1218 14.3046 43.1453 14.8228C43.187 15.6855 43.2514 16.5455 43.2487 17.4064C43.243 17.7564 43.1571 18.1005 42.9976 18.4118C42.607 19.1728 41.9201 19.2718 41.1851 18.8137C40.9586 18.6746 40.7855 18.4437 40.6115 18.2318C40.5109 18.1155 40.4366 18.0846 40.3468 18.2073C40.2149 18.383 40.0938 18.5667 39.9843 18.7573C39.7034 19.2646 39.437 19.78 39.1587 20.2882C39.1029 20.3965 39.0251 20.4918 38.9304 20.5682C38.847 20.63 38.7183 20.6818 38.6222 20.6691C38.1392 20.5909 37.4459 19.8037 37.4532 19.3082C37.4559 18.8855 37.5103 18.4591 37.5737 18.0382C37.6127 17.7646 37.7006 17.5009 37.7677 17.2318C37.8012 17.2355 37.8338 17.2355 37.8646 17.2382C37.8827 17.3709 37.919 17.5037 37.919 17.6373C37.9127 18.2173 37.9561 18.7782 38.1918 19.3164C38.2217 19.3782 38.248 19.4437 38.2851 19.5009C38.4618 19.7809 38.6884 19.7909 38.876 19.5155C38.9757 19.3646 39.05 19.1964 39.1406 19.0364C39.4732 18.4464 39.794 17.8455 40.1438 17.2682C40.3686 16.8928 40.5888 16.8928 40.8842 17.2264C41.0764 17.4482 41.2467 17.7 41.4597 17.8991C41.7805 18.1973 42.2327 18.0873 42.3832 17.6755C42.4657 17.4346 42.5255 17.1682 42.5155 16.9155C42.4729 15.6918 42.4086 14.4618 42.346 13.2382C42.3297 12.9709 42.2898 12.7018 42.2926 12.4364C42.2998 12.2002 42.2171 11.9701 42.0615 11.7928C41.612 11.2355 41.1797 10.6628 40.7302 10.1055C40.5009 9.82548 40.3586 9.54094 40.4112 9.16821C40.4393 8.99548 40.4066 8.81366 40.4202 8.64003C40.4275 8.56457 40.4592 8.45367 40.5127 8.4273C40.5671 8.40276 40.6822 8.44185 40.732 8.49094C41.0827 8.82003 41.4253 9.15457 41.7615 9.49639C41.9065 9.64185 41.8793 9.73094 41.6654 9.86912C41.7977 10.0664 41.9328 10.2609 42.0624 10.4537C42.0854 10.4484 42.1087 10.4441 42.1322 10.4409C42.0905 10.1237 42.0995 9.78821 41.9962 9.49912C41.834 9.05457 42.0026 8.72548 42.2454 8.40185C42.3723 8.23185 42.4729 8.34366 42.5264 8.48003C42.6623 8.82821 42.7901 9.17457 42.9142 9.52912C42.9913 9.74457 43.0529 9.96821 43.1317 10.2255C43.004 10.2173 42.9369 10.2091 42.8753 10.2037C42.8735 10.22 42.8635 10.2309 42.8635 10.2455C42.8916 10.7028 42.917 11.1637 42.9496 11.6182C42.9541 11.67 42.9587 11.7273 42.9886 11.7691C43.3003 12.2137 43.6229 12.6582 43.9782 13.0855C43.9283 12.7546 43.8667 12.4191 43.8332 12.0855C43.7371 11.1828 43.6791 10.2755 43.5532 9.37821C43.5006 8.99457 43.5812 8.69094 43.8024 8.40185C43.9755 8.1773 44.1196 8.18185 44.2038 8.44912C44.3769 8.99912 44.5283 9.56003 44.6706 10.1228C44.7231 10.3264 44.6334 10.4046 44.4023 10.4137C44.4531 11.1382 44.5056 11.8609 44.5618 12.58C44.599 13.04 44.6334 13.4982 44.686 13.9509C44.7032 14.0782 44.7449 14.2182 44.8165 14.3282C45.246 14.9846 45.6937 15.6328 46.1197 16.2891C46.3997 16.7218 46.5474 17.1973 46.5102 17.7191C46.5057 17.7909 46.4912 17.86 46.4776 18.0018C45.9148 17.1737 45.3928 16.4091 44.8727 15.6409C44.811 16.4618 45.0122 17.2828 44.6162 18.0391C44.5917 18.0391 44.5627 18.0391 44.5382 18.0409C44.5237 17.9282 44.4911 17.8173 44.4966 17.7009C44.5328 16.8009 44.4639 15.9028 44.3008 15.0182C44.2881 14.9582 44.28 14.8909 44.2437 14.8455C43.8749 14.3146 43.4988 13.79 43.1245 13.2618C43.1055 13.2646 43.0864 13.2691 43.0683 13.2728" fill="white"/>
<path fill-rule="evenodd" clip-rule="evenodd" d="M15.1498 9.0883C15.5521 9.39648 15.7361 9.76102 15.6908 10.2065C15.631 10.7619 15.7606 11.2828 15.9047 11.8047C16.0107 12.181 16.2373 12.3365 16.6025 12.3474C16.9025 12.3519 17.0221 12.2319 16.9586 11.941C16.8472 11.4528 16.7112 10.9692 16.5853 10.4856C16.5611 10.3881 16.5242 10.2943 16.4756 10.2065C16.2753 9.84012 16.3795 9.54466 16.6632 9.27466C16.7837 9.1583 16.8889 9.14375 16.9895 9.26648C17.1444 9.45466 17.3075 9.64103 17.4263 9.85284C17.5758 10.1074 17.5296 10.2183 17.264 10.3692C17.3501 10.7428 17.4698 11.1165 17.5105 11.4983C17.5522 11.8456 17.5595 12.2165 17.4906 12.5583C17.3873 13.0583 16.6976 13.4319 16.2146 13.3156C15.931 13.2438 15.7606 13.0538 15.6518 12.7947C15.6056 12.6847 15.5685 12.5683 15.5132 12.4174C15.4488 12.5056 15.3981 12.5583 15.3582 12.6192C15.2775 12.7374 15.2268 12.8901 15.1208 12.9774C14.848 13.1983 14.8897 13.4747 14.9132 13.7647C14.9703 14.5574 15.0283 15.3483 15.061 16.141C15.0745 16.4619 14.9939 16.7701 14.7148 17.0147C14.6622 16.451 14.6115 15.891 14.5525 15.3283C14.4936 14.7601 14.4266 14.191 14.3595 13.6101C14.326 13.6028 14.2952 13.5883 14.258 13.5856C13.6535 13.5247 13.2938 13.2138 13.1334 12.621C13.0047 12.1474 13.0237 11.6683 13.0717 11.1919C13.0908 10.9919 13.098 10.7938 13.1134 10.5919C13.0763 10.5865 13.0455 10.5774 13.0101 10.5728C12.9213 10.8947 12.828 11.2165 12.75 11.5419C12.634 12.001 12.5425 12.4619 12.4265 12.9183C12.3904 13.0261 12.3324 13.1251 12.2561 13.2092C12.025 13.5083 11.7395 13.5028 11.5683 13.1692C11.4161 12.8714 11.297 12.5577 11.213 12.2338C11.0127 11.5415 10.9999 10.8081 11.1759 10.1092C11.1958 10.0219 11.2456 9.9383 11.2792 9.85284C11.3 9.85466 11.3236 9.86012 11.348 9.86012C11.3571 9.9583 11.3689 10.0619 11.3789 10.161C11.4378 10.7183 11.4822 11.281 11.5692 11.8392C11.5973 12.0338 11.7033 12.2265 11.813 12.3947C11.9262 12.5756 12.0857 12.5619 12.1501 12.3647C12.2461 12.0519 12.3223 11.731 12.3621 11.4101C12.4274 10.8156 12.5851 10.2583 12.9104 9.75557C13.0029 9.61921 13.1161 9.48466 13.2494 9.39557C13.4786 9.24466 13.7179 9.36739 13.7088 9.6383C13.6976 9.91872 13.6572 10.1972 13.5883 10.4692C13.437 11.0374 13.4515 11.5865 13.7179 12.1156C13.852 12.3656 13.9907 12.4547 14.277 12.4774C14.2598 12.2328 14.2562 11.991 14.2254 11.7519C14.1447 11.0519 14.0559 10.3483 13.9626 9.6483C13.9332 9.44868 13.8905 9.25126 13.8348 9.05739C13.7913 8.87103 13.9318 8.47012 14.1012 8.39103C14.1511 8.36648 14.278 8.40375 14.3033 8.45012C14.4764 8.78557 14.6486 9.12557 14.7882 9.47739C14.8203 9.55631 14.8253 9.6437 14.8025 9.72581C14.7797 9.80792 14.7303 9.88011 14.6622 9.93103C14.6223 9.96012 14.5988 10.0319 14.6015 10.0865C14.6685 10.8292 14.7429 11.5747 14.8135 12.3147C14.8154 12.3292 14.8299 12.3383 14.8407 12.3492C15.1434 12.1547 15.3183 11.751 15.2549 11.4156C15.1634 10.9592 15.0673 10.5065 14.9885 10.0465C14.9314 9.73012 15.0138 9.43193 15.1498 9.0883Z" fill="white"/>
<path fill-rule="evenodd" clip-rule="evenodd" d="M23.1571 9.26375C23.1499 9.3383 23.1463 9.4092 23.1327 9.4783C23.0321 10.0238 23.0112 10.5737 23.1263 11.1183C23.1753 11.3465 23.2904 11.5737 23.4127 11.7783C23.4689 11.871 23.6157 11.9656 23.7163 11.9601C23.7979 11.9556 23.9066 11.8192 23.9483 11.7174C24.1812 11.1992 24.3833 10.6638 24.6307 10.1474C24.7839 9.82557 24.9778 9.51829 25.1817 9.22739C25.256 9.12466 25.4454 8.9892 25.5288 9.02193C25.711 9.08648 25.7907 9.28102 25.7644 9.49557C25.7327 9.73648 25.6756 9.97739 25.6656 10.2183C25.6466 10.7137 25.6212 11.211 25.6466 11.7056C25.6711 12.2374 26.0716 12.4619 26.5674 12.2483C27.3186 11.9265 27.509 11.4556 27.4582 10.6974C27.421 10.1192 27.2779 9.54102 27.1718 8.96648C27.1084 8.59193 27.3467 8.34829 27.5135 8.02466C27.7863 8.34375 27.8624 8.68739 27.9086 9.02829C27.9902 9.59375 28.0219 10.1656 28.108 10.7328C28.1696 11.1492 28.311 11.5465 28.5901 11.8783C28.7125 12.0247 28.8547 12.1428 29.0614 12.0756C29.2743 12.011 29.3405 11.8301 29.3586 11.6292C29.4048 11.1128 29.297 10.6128 29.1447 10.1247C29.0493 9.81958 28.946 9.51705 28.8348 9.21739C28.7732 9.05466 28.7886 8.92829 28.9064 8.80102C28.9943 8.70648 29.0469 8.58284 29.1139 8.47284C29.2317 8.26557 29.306 8.24739 29.4882 8.38829C29.8444 8.6692 30.0573 9.04375 30.1733 9.47193C30.1924 9.54284 30.1461 9.6383 30.1289 9.7183C30.051 9.70284 29.9703 9.69648 29.9005 9.66557C29.8317 9.63739 29.7737 9.58466 29.6704 9.51466C29.7574 9.85284 29.8362 10.1383 29.9005 10.4328C29.9984 10.9028 30.0673 11.3801 29.9286 11.8565C29.9078 11.9374 29.8897 12.0192 29.8616 12.1001C29.5525 12.931 28.8846 13.1001 28.2185 12.5165C28.0763 12.391 27.9295 12.2728 27.8071 12.171C27.5733 12.391 27.305 12.6556 27.0214 12.8983C26.9181 12.9919 26.7758 13.0465 26.6408 13.1001C26.0318 13.3438 25.4935 13.1056 25.2587 12.4947C25.0648 12.0028 25.0992 11.4892 25.1319 10.9774C25.1382 10.861 25.1319 10.741 25.1319 10.6228C25.1067 10.6157 25.0813 10.6094 25.0557 10.6037C25.0023 10.711 24.9397 10.8165 24.899 10.9319C24.7277 11.3883 24.5754 11.8519 24.3996 12.3074C24.1486 12.9637 23.7652 13.011 23.3239 12.4656C22.5554 11.5037 22.5898 10.461 23.0094 9.38102C23.0285 9.33557 23.0656 9.29284 23.0928 9.25102C23.1128 9.26102 23.1348 9.2666 23.1571 9.26739" fill="white"/>
<path fill-rule="evenodd" clip-rule="evenodd" d="M32.5125 10.9365C32.4699 10.5055 32.4962 10.0474 32.3584 9.65282C32.3031 9.50483 32.2785 9.34709 32.286 9.18923C32.2934 9.03137 32.3329 8.8767 32.4019 8.73463C32.4472 8.64463 32.5478 8.52645 32.6285 8.521C32.7091 8.51554 32.836 8.61918 32.8732 8.70554C33.1024 9.25464 33.3236 9.80282 33.5184 10.3655C33.6154 10.6501 33.5248 10.7492 33.2375 10.7255C33.2601 11.2374 33.2792 11.7465 33.3145 12.2537C33.3163 12.3228 33.3779 12.3901 33.4151 12.4583C34.0712 13.5737 34.7446 14.681 35.3771 15.8101C35.6916 16.3655 35.9354 16.9637 36.026 17.6092C36.045 17.7383 36.0414 17.8746 36.0459 18.0083C36.022 18.0218 35.9976 18.0342 35.9725 18.0455C35.9164 17.971 35.8475 17.9028 35.8103 17.8192C35.2077 16.3883 34.3803 15.0828 33.5565 13.7701C33.5148 13.7083 33.4722 13.6501 33.3915 13.5365C33.4332 14.0437 33.4722 14.4901 33.5075 14.9319C33.5882 15.911 33.7794 16.8855 33.6625 17.871C33.6045 18.3374 33.4613 18.791 33.3408 19.2446C33.3163 19.3537 33.2311 19.4483 33.1704 19.5465C33.1378 19.5383 33.1015 19.5337 33.0716 19.5265C33.0716 19.4092 33.049 19.2865 33.0762 19.1728C33.3018 18.2937 33.2212 17.4019 33.1197 16.5155C32.9883 15.341 32.8269 14.171 32.6964 12.9974C32.6448 12.5428 32.5433 12.1292 32.2451 11.761C31.8074 11.2101 31.4241 10.6246 31.0018 10.0619C30.8767 9.89736 30.7 9.77191 30.565 9.61464C30.487 9.52918 30.4082 9.41554 30.3946 9.31009C30.3671 9.02887 30.3577 8.74616 30.3665 8.46373C30.3665 8.38463 30.4118 8.27009 30.4689 8.23736C30.5287 8.21009 30.6529 8.23918 30.7109 8.291C31.1567 8.69554 31.5972 9.10554 32.0258 9.52736C32.1001 9.59827 32.1101 9.73736 32.15 9.84918C32.0313 9.87373 31.9162 9.90282 31.7802 9.93373C32.0014 10.2583 32.2324 10.6065 32.4708 10.9537C32.4844 10.9465 32.4962 10.9392 32.5125 10.9337" fill="white"/>
<path fill-rule="evenodd" clip-rule="evenodd" d="M47.0214 10.1183C47.0676 10.6901 47.1147 11.2819 47.1645 11.8701C47.2633 13.0356 47.3685 14.1956 47.469 15.3592C47.5505 16.1721 47.5182 16.9925 47.373 17.7965C47.1627 18.9083 46.6851 19.841 45.5732 20.2928C45.2478 20.4255 44.8926 20.4946 44.5464 20.5837C44.4512 20.6046 44.3452 20.5856 44.2437 20.5856C44.2346 20.5583 44.221 20.5356 44.2129 20.5092C44.3135 20.4146 44.405 20.3119 44.512 20.2292C44.8754 19.9492 45.2524 19.6946 45.6076 19.4074C46.4586 18.711 46.861 17.7983 46.803 16.7128C46.7418 15.5932 46.6557 14.475 46.5447 13.3592C46.4359 12.2228 46.2982 11.0883 46.1659 9.95373C46.1314 9.65828 46.0825 9.36555 46.039 9.07192C46.0036 8.85919 46.2701 8.31919 46.464 8.25828C46.5102 8.24555 46.6235 8.30464 46.648 8.3601C46.8836 8.85555 47.1065 9.35373 47.3268 9.85646C47.354 9.93373 47.3358 10.0274 47.3404 10.1183H47.0214Z" fill="white"/>
<path fill-rule="evenodd" clip-rule="evenodd" d="M33.4414 20.771C33.5637 20.7101 33.6807 20.6265 33.8066 20.5919C34.6503 20.361 35.243 19.7919 35.8149 19.1774C36.3369 18.6174 36.4819 17.9546 36.4239 17.2119C36.3559 16.2937 36.3278 15.3692 36.2517 14.451C36.1574 13.3092 36.0306 12.1756 35.91 11.0383C35.8677 10.6372 35.8148 10.2374 35.7514 9.83919C35.735 9.7186 35.7071 9.59987 35.6681 9.48464C35.601 9.26101 35.6309 9.06828 35.8004 8.89737C35.9617 8.74737 36.1103 8.58737 36.2897 8.40192C36.3514 8.50283 36.423 8.57737 36.4502 8.66101C36.5924 9.1401 36.7338 9.62464 36.8616 10.1101C36.9296 10.3619 36.8679 10.4119 36.5707 10.3546C36.5707 10.601 36.5535 10.8428 36.5725 11.081C36.7084 13.0337 37.0066 14.9765 36.983 16.9419C36.9731 17.6765 36.964 18.4128 36.6269 19.0883C36.3224 19.6965 35.8638 20.1874 35.321 20.5946C35.1747 20.7021 35.0057 20.7743 34.8271 20.8055C34.4591 20.8628 34.0876 20.8846 33.7169 20.911C33.6317 20.9155 33.5438 20.8765 33.4577 20.8601C33.4537 20.8302 33.4482 20.8004 33.4414 20.771Z" fill="white"/>
<path fill-rule="evenodd" clip-rule="evenodd" d="M38.2719 10.5465C38.3144 11.0038 38.3462 11.4202 38.3951 11.8393C38.522 12.9738 38.6534 14.1102 38.792 15.2429C38.8582 15.7929 38.957 16.342 39.0331 16.892C39.1274 17.5902 38.986 18.2438 38.6634 18.8574C38.6063 18.9665 38.4993 19.0456 38.415 19.1374C38.3888 19.1329 38.3634 19.1238 38.3389 19.1202C38.3163 19.022 38.2646 18.9174 38.2854 18.8347C38.4812 18.0265 38.3507 17.2274 38.2438 16.4256C38.0906 15.3256 37.9646 14.2193 37.8097 13.1202C37.6465 11.9811 37.4816 10.842 37.2922 9.70744C37.2115 9.21289 37.2976 8.78926 37.6058 8.40107C37.777 8.18562 37.9239 8.19744 38.029 8.44562C38.1305 8.68653 38.1948 8.93289 38.2945 9.1738C38.4332 9.51289 38.5972 9.83835 38.7349 10.1774C38.7866 10.3029 38.7911 10.4465 38.8156 10.5774C38.6869 10.5838 38.5555 10.592 38.425 10.592C38.3888 10.5911 38.3552 10.5729 38.2719 10.5465Z" fill="white"/>
<path fill-rule="evenodd" clip-rule="evenodd" d="M19.5605 11.6701C19.6566 11.5892 19.7563 11.5001 19.8551 11.4201C20.2774 11.0728 20.706 10.7328 21.122 10.3746C21.2833 10.2328 21.4075 10.0456 21.5498 9.88646C21.2099 9.37828 21.2444 8.83464 21.6259 8.50828C21.7899 8.36828 21.9712 8.28919 22.1905 8.38919C22.3998 8.49192 22.4605 8.67828 22.437 8.88828C22.417 9.08282 22.3563 9.27555 22.3219 9.46373C22.2974 9.6001 22.3047 9.74282 22.2684 9.87373C22.2343 9.96388 22.1797 10.0448 22.1089 10.1101C22.0274 10.191 21.9032 10.2383 21.8343 10.3256C21.3051 10.9992 20.6045 11.4228 19.817 11.721C19.7527 11.7446 19.6765 11.7419 19.604 11.751C19.5905 11.7256 19.5769 11.6974 19.5605 11.6701ZM21.9666 8.95192C21.9277 8.94555 21.8887 8.93282 21.8515 8.92737C21.8271 9.05464 21.7981 9.18373 21.7754 9.3101L21.8697 9.32737C21.905 9.2001 21.9322 9.07737 21.9666 8.95192Z" fill="white"/>
<path fill-rule="evenodd" clip-rule="evenodd" d="M11.9451 17.2491C12.024 17.571 12.0222 17.841 11.9551 18.131C11.8745 18.4855 11.8373 18.8491 11.7884 19.2082C11.7811 19.2646 11.7884 19.3355 11.8183 19.3837C11.8781 19.481 11.9388 19.6082 12.0285 19.6473C12.082 19.6691 12.2016 19.5419 12.2795 19.4746C12.3258 19.4337 12.3484 19.3591 12.4001 19.3373C12.4409 19.3219 12.5378 19.341 12.5505 19.3746C12.6729 19.6437 12.4463 20.2228 12.1753 20.3519C11.8862 20.4901 11.5763 20.371 11.5065 20.0264C11.4322 19.681 11.3778 19.3037 11.4322 18.961C11.5192 18.4255 11.6986 17.9055 11.8436 17.3782C11.8554 17.3391 11.8971 17.311 11.9451 17.2491Z" fill="white"/>
<path fill-rule="evenodd" clip-rule="evenodd" d="M40.5441 13.4691L39.9605 12.44C39.6342 12.6018 39.5581 12.5564 39.5744 12.2254C39.5799 12.1418 39.5518 12.0518 39.5717 11.9764C39.5971 11.8918 39.646 11.7764 39.714 11.7491C39.7792 11.7282 39.9161 11.7836 39.9578 11.8454C40.0883 12.0491 40.1889 12.2709 40.3012 12.4873C40.3484 12.5773 40.3919 12.6764 40.4843 12.7627C40.4843 12.5954 40.4816 12.4345 40.4843 12.2664C40.4906 12.0582 40.4698 11.8382 40.5251 11.6409C40.5622 11.5118 40.7027 11.4027 40.8133 11.3109C40.8495 11.2782 40.9836 11.2945 41.0063 11.33C41.0906 11.4564 41.1676 11.5945 41.2011 11.7382C41.231 11.8564 41.1694 11.9627 41.0208 11.8845C40.8051 11.7754 40.7353 11.8891 40.729 12.0691C40.7154 12.4073 40.7217 12.74 40.7081 13.0764C40.7063 13.1991 40.6646 13.3227 40.6393 13.4509C40.6075 13.46 40.574 13.4636 40.5441 13.4691Z" fill="white"/>
<path fill-rule="evenodd" clip-rule="evenodd" d="M11.3604 15.9755C11.6812 15.4619 12.108 15.0664 12.6209 14.7701C12.9463 14.5819 13.2997 14.441 13.6504 14.291C13.7538 14.2446 13.8951 14.1428 13.9649 14.3483C14.0365 14.5537 13.9758 14.7074 13.7954 14.7801C13.5698 14.8683 13.3287 14.9255 13.1149 15.0364C12.5693 15.3155 12.0355 15.6155 11.4954 15.9092C11.451 15.9337 11.4066 15.9546 11.3604 15.9755Z" fill="white"/>
<path fill-rule="evenodd" clip-rule="evenodd" d="M32.4558 19.8065C32.0824 20.1283 31.738 20.4992 31.2051 20.5683C30.8571 20.6156 30.6741 20.3974 30.7529 20.0529C30.781 19.932 30.8046 19.8092 30.8381 19.6611C30.6623 19.6883 30.5263 19.7129 30.375 19.7402C30.4511 19.5511 30.9795 19.1847 31.1417 19.2092C31.1952 19.2165 31.2658 19.3302 31.2631 19.3874C31.2586 19.5238 31.1997 19.6565 31.1852 19.7911C31.1734 19.8902 31.197 19.992 31.2015 20.0929C31.303 20.0847 31.4163 20.0929 31.5069 20.062C31.7117 19.9856 31.9075 19.8802 32.1114 19.7974C32.2074 19.7574 32.3162 19.7402 32.4177 19.712C32.4277 19.7438 32.4449 19.7774 32.4558 19.8065Z" fill="white"/>
<path fill-rule="evenodd" clip-rule="evenodd" d="M42.6045 19.2819C42.6824 19.291 42.7613 19.2837 42.831 19.3082C42.967 19.3455 43.0331 19.4392 42.9733 19.5846C42.948 19.6482 42.9135 19.7083 42.88 19.7664C42.8039 19.9173 42.7721 20.031 43.0123 20.0246C43.0667 20.0246 43.1627 20.0682 43.1691 20.1101C43.1836 20.1719 43.1655 20.2746 43.1156 20.3137C42.8755 20.5064 42.6072 20.6501 42.29 20.6401C42.2257 20.6383 42.1242 20.5864 42.1151 20.5364C42.0961 20.471 42.1269 20.371 42.1713 20.3137C42.2474 20.221 42.358 20.1519 42.4386 20.0646C42.5284 19.9683 42.5401 19.8564 42.4196 19.7728C42.2991 19.6892 42.1251 19.6155 42.2302 19.4464C42.2945 19.3455 42.4568 19.3037 42.5773 19.2337C42.5845 19.2492 42.5972 19.2646 42.6045 19.2819Z" fill="white"/>
<path fill-rule="evenodd" clip-rule="evenodd" d="M27.6259 14.451C27.6513 14.4229 27.6404 14.432 27.6304 14.4438C27.5598 14.5756 27.4854 14.7674 27.3142 14.7047C27.2419 14.6706 27.177 14.6225 27.1235 14.563C27.07 14.5035 27.0288 14.4339 27.0024 14.3583C26.9453 14.1492 26.968 13.9156 26.958 13.6938C26.9843 13.691 27.0097 13.6856 27.0369 13.681C27.1275 13.8892 27.2199 14.101 27.3069 14.3101C27.3395 14.3083 27.374 14.3038 27.4039 14.302C27.4573 14.0801 27.5072 13.8547 27.5607 13.6329L27.6223 13.6265C27.7338 13.8174 27.8443 14.012 27.9549 14.2092C27.9875 14.2074 28.0138 14.2001 28.0428 14.1983L28.1488 13.381C28.3364 13.6192 28.3672 13.8365 28.3699 14.0665C28.3699 14.2538 28.3237 14.4456 28.1361 14.4992C28.0029 14.5383 27.8362 14.4738 27.6259 14.451Z" fill="white"/>
<path fill-rule="evenodd" clip-rule="evenodd" d="M39.7891 15.3783C39.8452 15.2856 39.8824 15.1701 39.9622 15.0974C40.2023 14.8883 40.4597 14.6974 40.7053 14.4965C40.9753 14.271 41.2354 14.0401 41.51 13.8174C41.5617 13.7756 41.6559 13.7247 41.7003 13.7447C41.7538 13.7692 41.781 13.8674 41.7946 13.9338C41.8308 14.1256 41.7756 14.271 41.6007 14.3783C41.085 14.7001 40.5775 15.0356 40.0628 15.3592C40.0011 15.3965 39.9323 15.4174 39.8607 15.4474C39.8381 15.423 39.8142 15.3999 39.7891 15.3783Z" fill="white"/>
<path fill-rule="evenodd" clip-rule="evenodd" d="M45.4583 11.3182C45.4356 11.1564 45.4329 10.9918 45.3894 10.8337C45.2924 10.4637 45.2018 10.0846 45.0532 9.73457C44.9644 9.51457 44.9599 9.34548 45.0922 9.16457C45.2181 8.99366 45.3106 8.9873 45.384 9.1773C45.5036 9.49003 45.625 9.80639 45.6658 10.1309C45.7102 10.4509 45.6568 10.7791 45.6359 11.1028C45.6314 11.1791 45.5743 11.25 45.5435 11.3228C45.5152 11.3199 45.4867 11.3184 45.4583 11.3182Z" fill="white"/>
<path fill-rule="evenodd" clip-rule="evenodd" d="M34.5292 10.4201C34.5292 10.2692 34.5093 10.1565 34.5347 10.0547C34.6307 9.66103 34.4975 9.35376 34.2256 9.08467C34.0172 8.87467 34.0109 8.64376 34.2293 8.45376C34.2827 8.40922 34.4277 8.39558 34.4776 8.43649C34.9262 8.79285 35.0204 9.92376 34.6516 10.3619C34.638 10.3783 34.6144 10.3801 34.5292 10.4201Z" fill="white"/>
<path fill-rule="evenodd" clip-rule="evenodd" d="M22.0383 12.0273C22.1108 12.3801 21.7501 12.8491 21.355 12.871C21.1239 12.8828 20.8946 12.651 20.8928 12.371C20.8838 11.9237 21.1375 11.601 21.4456 11.3173C21.4628 11.301 21.5018 11.311 21.5915 11.301C21.5063 11.4764 21.432 11.6137 21.3777 11.7501C21.3215 11.8828 21.2617 12.0182 21.2453 12.1573C21.2336 12.2364 21.2843 12.3791 21.3441 12.4046C21.4221 12.4364 21.5535 12.4137 21.6323 12.3655C21.7719 12.281 21.8879 12.1582 22.0383 12.0273Z" fill="white"/>
<path fill-rule="evenodd" clip-rule="evenodd" d="M35.0477 11.5146C35.1202 11.3246 35.1981 11.1346 35.2788 10.9328C35.4338 11.1192 35.4628 11.6364 35.3413 11.7901C35.2444 11.9119 35.1166 11.9237 34.996 11.8292C34.8601 11.7219 34.7541 11.7201 34.6136 11.831C34.4469 11.9673 34.3318 11.9328 34.2783 11.7301C34.2348 11.5664 34.2411 11.3946 34.2275 11.2301C34.2547 11.2201 34.2855 11.2128 34.3109 11.2046C34.3807 11.3201 34.4469 11.4364 34.542 11.6001C34.6209 11.3964 34.6752 11.2419 34.7568 11.0283C34.842 11.231 34.9054 11.3664 34.9661 11.5083C34.9924 11.5083 35.0196 11.5128 35.0477 11.5146Z" fill="white"/>
<path fill-rule="evenodd" clip-rule="evenodd" d="M20.4842 17.8974C20.5214 17.5774 20.5558 17.2928 20.5867 17.0083C20.1653 16.951 20.071 16.811 20.2214 16.5028C20.2649 16.4156 20.3873 16.2856 20.4543 16.2992C20.5794 16.3201 20.7398 16.3983 20.7978 16.5056C20.98 16.8338 20.8449 17.5674 20.5858 17.8438C20.574 17.8601 20.5459 17.8647 20.4842 17.8974Z" fill="white"/>
<path fill-rule="evenodd" clip-rule="evenodd" d="M15.5706 8.23639C15.5969 8.40912 15.6014 8.52548 15.6359 8.63185C15.6585 8.71094 15.7229 8.77548 15.7645 8.84912C15.8325 8.80548 15.9159 8.77548 15.963 8.71912C16.0346 8.61548 16.0826 8.4973 16.1914 8.38366C16.2032 8.4773 16.2032 8.57366 16.2331 8.65457C16.2702 8.74003 16.3409 8.81003 16.3944 8.88639C16.4469 8.82094 16.5059 8.76185 16.5539 8.69185C16.5811 8.65275 16.5929 8.60457 16.62 8.55094C16.7659 8.74821 16.7505 8.99003 16.5892 9.12912C16.388 9.30094 16.263 9.14003 16.1415 9.0073C15.8089 9.22003 15.6766 9.22821 15.518 9.04821C15.335 8.83457 15.3323 8.52548 15.5706 8.23639Z" fill="white"/>
<path fill-rule="evenodd" clip-rule="evenodd" d="M41.5027 16.6001C41.49 16.4846 41.4656 16.4155 41.4783 16.3573C41.5825 16.0091 41.4429 15.771 41.1683 15.5746C40.968 15.4346 40.968 15.2646 41.1719 15.1237C41.2363 15.0801 41.3704 15.0637 41.4348 15.101C41.8489 15.3419 41.9667 16.1246 41.655 16.481C41.6287 16.5128 41.5897 16.5355 41.5027 16.6001Z" fill="white"/>
<path fill-rule="evenodd" clip-rule="evenodd" d="M26.5267 10.4873C26.5267 10.3846 26.5221 10.2828 26.5267 10.1809C26.5548 9.73003 26.4696 9.30912 26.2149 8.92458C26.1714 8.86185 26.1343 8.75094 26.1596 8.69185C26.2054 8.6015 26.281 8.52985 26.3735 8.48912C26.4152 8.4764 26.5303 8.57822 26.5629 8.64822C26.7596 9.06731 26.7985 9.51185 26.7469 9.96276C26.7279 10.1455 26.6744 10.3237 26.6354 10.5046C26.5992 10.5009 26.562 10.4919 26.5267 10.4873Z" fill="white"/>
<path fill-rule="evenodd" clip-rule="evenodd" d="M12.3261 9.67464C12.3451 9.29009 12.5427 8.97464 12.3905 8.631C12.3334 8.65373 12.3007 8.67555 12.2636 8.68555C12.1775 8.69827 12.086 8.70555 11.998 8.71464C12.018 8.621 12.0098 8.50373 12.0651 8.43646C12.1775 8.30282 12.2953 8.11009 12.511 8.19827C12.7067 8.281 12.7158 8.48555 12.7031 8.67191C12.685 9.02464 12.5427 9.32646 12.3261 9.67464Z" fill="white"/>
</svg>
