<svg width="115" height="72" viewBox="0 0 115 72" fill="none" xmlns="http://www.w3.org/2000/svg">
<path d="M115 54C115 63.9409 108.939 72 97.0312 72H17.9688C6.06086 72 0 63.9409 0 54V18C0 8.05909 6.06086 0 17.9688 0H97.0312C108.939 0 115 8.05909 115 18V54Z" fill="#137A08"/>
<path fill-rule="evenodd" clip-rule="evenodd" d="M54.9294 34.8876C54.8018 33.2627 55.0875 32.8552 57.1305 31.7768C56.5502 31.2957 55.8494 31.1845 55.1306 31.1337C54.2699 31.0748 53.411 31.0487 52.5593 30.975C52.1209 30.9407 52.0382 30.7836 52.1209 30.3892C52.3509 29.3092 52.9654 28.5597 54.1729 28.2177C55.348 27.8823 56.4962 27.4667 57.6894 27.0723C57.6516 26.979 57.6031 26.8874 57.5582 26.7925C57.4241 26.561 57.3502 26.3045 57.3425 26.0429C57.3347 25.7813 57.3931 25.5215 57.5133 25.2837C57.6085 25.0972 57.7145 24.9107 57.8331 24.7388C58.5698 23.667 59.285 23.469 60.5374 24.0057C60.9327 24.1759 61.3173 24.3805 61.6605 24.6243C62.6559 25.3296 62.7458 26.3245 61.8563 27.1476C61.4844 27.483 60.9812 27.7137 60.5338 27.9903C60.2769 28.1441 59.8636 28.1016 59.7737 28.4812C59.7684 28.5107 59.6174 28.5139 59.5348 28.527C59.3102 28.5385 59.064 28.4959 58.8627 28.5679C57.9014 28.8919 56.9545 29.2421 56.0075 29.5956C55.8602 29.6447 55.7326 29.7347 55.5906 29.805L55.6158 29.913C56.4639 29.913 57.3228 29.9245 58.1691 29.9081C60.0684 29.8639 61.9713 29.8083 63.8706 29.7543C64.4888 29.7412 64.5624 29.8459 64.3773 30.3843C64.3338 30.4997 64.2931 30.6159 64.2552 30.7328C64.0719 31.3399 63.6191 31.6116 62.9488 31.7048C60.9148 31.9699 58.9705 32.559 57.0605 33.2496C56.622 33.4132 56.1692 33.6341 56.1477 34.1201C56.1315 34.5963 56.516 34.8957 56.9365 35.1052C57.3623 35.313 57.8152 35.4636 58.259 35.6223C58.7657 35.7957 58.8573 35.9316 58.7262 36.3963C58.4387 37.3683 58.4099 37.4256 57.2635 37.3143C54.9707 37.0885 52.9708 36.3308 51.6195 34.5128C51.3464 34.143 51.1398 33.7274 50.8684 33.2807C50.7588 33.4083 50.651 33.5245 50.5432 33.6472C49.6807 34.7256 48.7463 35.7467 47.5568 36.555C46.6997 37.1425 45.7923 37.6023 44.6602 37.5794C43.3252 37.5499 42.4914 36.9314 42.2345 35.727C42.2021 35.5781 42.1662 35.4325 42.132 35.2917C40.885 35.7123 39.6595 36.1296 38.4359 36.5256C37.8357 36.7137 37.232 36.8856 36.621 37.0345C36.4072 37.0885 36.1736 37.0688 35.949 37.0803C35.9238 37.0312 35.8969 36.9821 35.8789 36.9298C36.0478 36.8217 36.2095 36.699 36.3874 36.6057C38.2023 35.6452 39.9991 34.683 41.814 33.729C42.0961 33.5801 42.2255 33.3707 42.3207 33.0957C42.601 32.3577 42.9137 31.6328 43.2245 30.903C43.282 30.7656 43.388 30.6543 43.5318 30.4416C43.8804 31.1387 43.548 31.7899 43.7205 32.4396C43.8265 32.3888 43.9307 32.3414 44.0098 32.2792C44.6764 31.7785 45.352 31.2941 45.9863 30.7656C46.8704 30.0243 47.0016 29.4041 46.5272 28.4027C46.2577 27.8496 45.9558 27.3112 45.6521 26.7745C45.5934 26.6654 45.4976 26.5764 45.379 26.5208C45.0178 26.3294 44.9082 26.0545 45.043 25.7174C45.1993 25.3459 45.3808 24.9876 45.5838 24.639C45.7402 24.3756 46.0115 24.3379 46.2199 24.5588C46.6835 25.0416 47.122 25.5488 47.528 26.0676C47.7688 26.3752 47.6359 26.6141 47.2729 26.7156C47.4562 27.3799 47.6628 28.0279 47.8084 28.6841C48.0869 29.9932 47.6448 31.1174 46.6835 32.0976C45.7869 33.0156 44.7968 33.8321 43.627 34.4637C43.4833 34.539 43.3683 34.7599 43.3755 34.9187C43.3791 35.277 43.5444 35.6419 43.9541 35.709C44.432 35.7876 44.9567 35.8268 45.4149 35.727C46.511 35.4996 47.3879 34.8745 48.112 34.1299C48.8362 33.3707 49.4453 32.5132 50.1012 31.7016C50.297 31.4561 50.3042 31.2123 50.2072 30.921C49.6016 29.2159 49.0213 27.4961 48.4229 25.7927C48.1336 24.9696 48.4319 23.8732 49.1183 23.3954C49.2351 23.5721 49.3483 23.7357 49.4471 23.9141C50.6798 26.2165 51.4165 28.6481 51.7813 31.1845C51.9106 32.127 52.1065 33.0663 52.845 33.8141C53.3984 34.3787 54.1172 34.6977 54.9276 34.8876H54.9294ZM60.5698 26.3637C60.5734 26.3245 60.5734 26.2819 60.5734 26.2459C60.0523 26.0332 59.639 25.6028 58.9023 25.6028C58.9562 25.9874 59.0029 26.3228 59.0496 26.7221L60.5698 26.3637Z" fill="white"/>
<path fill-rule="evenodd" clip-rule="evenodd" d="M76.2177 56.5496C75.269 56.5496 74.428 56.5366 73.5817 56.5578C71.8459 56.5922 70.1173 56.6675 68.3725 56.6789C58.6011 56.746 48.8207 56.8049 39.0439 56.8377C37.256 56.8409 35.4591 56.7296 33.718 56.278C32.9004 56.0653 32.1349 55.7429 31.5294 55.1653C31.3856 55.0278 31.2634 54.8544 31.0586 54.6122H31.8402C42.5856 54.6744 53.3309 54.7546 64.0726 54.7987C67.9215 54.82 71.7633 54.7775 75.6122 54.7546C75.7667 54.7546 76.0416 54.7087 76.0488 54.6613C76.0776 54.4829 76.0847 54.2358 75.9679 54.1246C75.4379 53.5895 75.7379 53.1526 76.1512 52.7042C76.3183 52.5242 76.4944 52.4964 76.6795 52.6944C77.1862 53.2491 77.3372 53.5371 76.8843 54.0657C76.7568 54.2162 76.7658 54.4649 76.6975 54.7087C76.8969 54.7235 77.0155 54.7447 77.1269 54.7415C78.9597 54.712 80.7764 54.676 82.6056 54.6417C82.9506 54.6417 83.301 54.6629 83.646 54.7006C84.4726 54.7873 84.911 55.1538 85.0907 55.9033C85.2452 56.53 85.2452 57.1633 84.9793 57.7704C84.6235 58.5918 83.8023 58.7587 83.071 58.1746C82.944 58.0885 82.7923 58.038 82.6344 58.0289C82.1672 58.0158 81.6982 58.0289 81.231 58.0322C80.8842 58.0371 80.5392 57.988 80.2858 58.3447C80.1205 58.5755 79.8187 58.4789 79.5581 58.3284C79.3703 58.2136 79.1555 58.1408 78.931 58.1157C78.5554 58.0862 78.1745 58.132 77.8008 58.1091C77.3605 58.0895 77.0047 58.1566 76.8071 58.5738C76.6957 58.798 76.4944 58.7898 76.295 58.618C75.7541 58.1746 75.7092 57.8146 76.0704 57.2271C76.1764 57.052 76.162 56.8213 76.2177 56.5496ZM82.6398 57.4497L82.7494 56.3942C82.6595 56.386 82.5858 56.3598 82.5176 56.3598C80.7566 56.4007 78.9975 56.4351 77.2329 56.4826C76.8215 56.494 76.6651 56.7542 76.8682 57.0929C77.0461 57.3809 77.2581 57.6166 77.7199 57.5413C78.1314 57.4807 78.5608 57.5282 78.9777 57.4922C79.1703 57.4715 79.3508 57.3959 79.4934 57.2762C79.7773 57.0307 80.0451 57.0373 80.3362 57.2353C80.4548 57.322 80.5787 57.4349 80.7009 57.4398C81.3424 57.466 81.9911 57.4497 82.6398 57.4497Z" fill="white"/>
<path fill-rule="evenodd" clip-rule="evenodd" d="M34.3893 28.7656C33.9041 28.8966 33.4208 29.0275 32.9374 29.1731C32.4397 29.3138 31.9761 29.2075 31.543 29.0046C31.4029 28.9473 31.2466 28.8 31.2268 28.6838C31.0615 27.5809 30.9932 26.4927 31.8755 25.5567C32.49 24.8973 33.1081 24.7844 33.8071 25.3686C34.3426 25.8071 34.781 26.3406 35.3021 26.8724C35.4674 26.7856 35.728 26.676 35.9562 26.5271C36.007 26.4854 36.0479 26.4347 36.0767 26.3782C36.1054 26.3217 36.1212 26.2604 36.1233 26.1982C35.9939 24.8073 35.8484 23.4066 35.701 22.0124C35.5357 20.4431 35.3632 18.8771 35.1907 17.3046C35.181 17.1965 35.1594 17.0896 35.126 16.9855C34.9014 16.3587 35.2913 15.5504 35.9831 15.2967C36.0694 15.2624 36.2994 15.3556 36.3479 15.4424C36.5132 15.7516 36.6264 16.0806 36.7558 16.4029C36.9948 16.9936 37.232 17.5909 37.4655 18.1816C37.533 18.3331 37.5742 18.4932 37.5877 18.6562C37.638 19.224 37.3919 19.4024 36.7953 19.2551C36.9534 21.3955 37.1223 23.5309 37.2966 25.7482C37.5662 25.5486 37.7548 25.3784 37.9687 25.2442C38.1106 25.1558 38.2849 25.1149 38.4448 25.0511C38.5149 25.2115 38.6245 25.3604 38.6407 25.5191C38.6838 25.7956 38.6048 26.0902 38.6964 26.3406C38.797 26.6024 38.9785 26.9476 39.2175 27.0311C39.4511 27.1113 39.9237 26.9869 40.0818 26.802C40.4717 26.3651 40.7502 25.8447 41.0575 25.3473C41.1348 25.2213 41.1833 25.0838 41.2444 24.9529H41.3845C41.4438 25.2262 41.4816 25.5158 41.575 25.7809C41.6864 26.0885 41.796 26.424 42.0009 26.6678C42.353 27.0851 42.8436 26.9853 42.9658 26.4895C43.0394 26.1786 43.0071 25.8349 42.9532 25.524C42.8831 25.1738 43.0359 24.8351 43.4114 24.7713C43.5156 24.7566 43.7259 24.8727 43.7564 24.9644C44.0098 25.8251 43.99 26.6907 43.5965 27.5073C43.2802 28.1487 42.0278 28.1896 41.3863 27.6186C41.2695 27.5155 41.1635 27.3878 41.0126 27.2389C40.5238 27.6971 40.0189 28.1111 39.2786 28.1733C38.5419 28.2338 37.9453 28.0571 37.5392 27.3862C37.4889 27.5269 37.4386 27.5973 37.4386 27.6693C37.4691 28.386 37.5105 29.0995 37.5392 29.8129C37.5949 31.0958 37.5159 32.3624 36.9445 33.5684C36.4812 34.5514 35.6486 35.3519 34.5959 35.8265C32.8727 36.6251 31.0543 37.1438 29.0993 37.152C28.7579 37.152 28.4039 37.098 28.0715 37.0358C26.7706 36.7904 26.1183 35.9787 25.7966 34.8758C25.2917 33.1527 25.4103 31.4575 26.0446 29.7769C26.0985 29.6346 26.2009 29.502 26.2782 29.3678C26.3222 29.3822 26.3682 29.391 26.4148 29.394C26.4148 29.8473 26.4705 30.3071 26.4094 30.7456C26.2495 31.8191 26.298 32.8565 26.7131 33.8695C27.0922 34.8087 27.8649 35.3356 28.9627 35.3945C31.0992 35.5058 32.9248 34.7645 34.6229 33.6567C35.798 32.8893 36.2652 31.8355 36.2652 30.5673C36.2598 29.7425 36.2652 28.9145 36.2652 28.0342C35.9256 28.1667 35.5321 28.1766 35.5878 28.6167C35.8753 31.0353 34.3731 32.4327 32.2438 33.4538C31.6688 33.7336 31.0345 33.9676 30.3948 34.0838C28.7579 34.3833 27.2881 33.3753 27.0365 31.8682C26.8586 30.7898 27.0563 29.7393 27.3473 28.6969C27.3977 28.53 27.5396 28.386 27.6366 28.2256C27.6742 28.2425 27.7141 28.2546 27.7552 28.2616C27.7552 28.4711 27.7768 28.6789 27.7552 28.8835C27.669 29.7131 27.6636 30.5362 28.0463 31.3135C28.5548 32.3624 29.3796 32.6962 30.5727 32.3378C32.0552 31.8927 33.198 31.0075 34.1593 29.9275C34.4073 29.6444 34.4252 29.2091 34.5492 28.8409C34.5043 28.8131 34.4432 28.7886 34.3893 28.7656ZM33.8502 27.414C33.6346 27.1751 33.5142 26.964 33.3291 26.8511C33.1225 26.7235 32.8476 26.6809 32.6104 26.6024C32.5511 26.8282 32.4235 27.0638 32.4631 27.2782C32.4792 27.4107 32.7416 27.5956 32.9015 27.6071C33.1872 27.6153 33.4729 27.4991 33.8502 27.414Z" fill="white"/>
<path fill-rule="evenodd" clip-rule="evenodd" d="M85.372 23.8909C85.4205 24.822 85.4798 25.7482 85.5265 26.6809C85.6092 28.2338 85.7368 29.7818 85.7314 31.3315C85.7201 31.9615 85.5498 32.5808 85.2336 33.1413C84.4592 34.5109 83.0972 34.6893 81.6399 33.8646C81.1907 33.6142 80.8475 33.1986 80.5025 32.8173C80.303 32.6078 80.1557 32.5522 79.9778 32.7731C79.7162 33.0894 79.4761 33.42 79.259 33.7631C78.702 34.6762 78.1737 35.604 77.6221 36.5188C77.5113 36.7136 77.3571 36.8853 77.1693 37.0228C77.0039 37.134 76.7488 37.2273 76.5583 37.2044C75.6006 37.0637 74.226 35.6466 74.2403 34.7548C74.2457 33.9938 74.3535 33.2264 74.4793 32.4688C74.5566 31.9762 74.7309 31.5017 74.8639 31.0173C74.9303 31.0238 74.995 31.0238 75.0561 31.0288C75.0921 31.2677 75.1639 31.5066 75.1639 31.7471C75.1514 32.7911 75.2376 33.8008 75.7048 34.7695C75.7641 34.8808 75.8162 34.9986 75.8899 35.1017C76.2403 35.6057 76.6895 35.6237 77.0614 35.1278C77.2591 34.8562 77.4064 34.5535 77.5861 34.2655C78.2456 33.2035 78.8817 32.1218 79.5753 31.0828C80.0209 30.4069 80.4575 30.4069 81.0433 31.0075C81.4243 31.4068 81.7621 31.86 82.1843 32.2184C82.8204 32.7551 83.7171 32.5571 84.0154 31.8158C84.1789 31.3822 84.2975 30.9028 84.2777 30.4478C84.1932 28.2453 84.0657 26.0313 83.9417 23.8288C83.9093 23.3477 83.8303 22.8633 83.8357 22.3855C83.8499 21.9603 83.6861 21.5462 83.3775 21.2269C82.4862 20.2238 81.6291 19.1929 80.7379 18.1898C80.2832 17.6858 80.0011 17.1737 80.1054 16.5028C80.1611 16.1918 80.0964 15.8646 80.1233 15.552C80.1377 15.4162 80.2006 15.2166 80.3066 15.1691C80.4144 15.1249 80.6426 15.1953 80.7414 15.2837C81.4368 15.876 82.1161 16.4782 82.7827 17.0935C83.0702 17.3553 83.0163 17.5157 82.5922 17.7644C82.8546 18.1195 83.1223 18.4697 83.3793 18.8166C83.425 18.8071 83.4711 18.7994 83.5176 18.7937C83.435 18.2226 83.4529 17.6188 83.2481 17.0984C82.9264 16.2982 83.2607 15.7058 83.7422 15.1233C83.9938 14.8173 84.1932 15.0186 84.2993 15.264C84.5688 15.8908 84.8222 16.5142 85.0683 17.1524C85.2211 17.5402 85.3432 17.9428 85.4996 18.4058C85.2462 18.3911 85.1132 18.3764 84.9911 18.3666C84.9875 18.396 84.9677 18.4157 84.9677 18.4418C85.0234 19.2649 85.0737 20.0946 85.1384 20.9128C85.1474 21.006 85.1564 21.1091 85.2157 21.1844C85.8338 21.9846 86.4735 22.7848 87.1779 23.5538C87.079 22.9582 86.9568 22.3544 86.8904 21.7538C86.6999 20.1289 86.5849 18.4958 86.3351 16.8808C86.2309 16.1902 86.3908 15.6437 86.8293 15.1233C87.1725 14.7191 87.4582 14.7273 87.6253 15.2084C87.9685 16.1984 88.2686 17.208 88.5507 18.2209C88.6549 18.5875 88.477 18.7282 88.0188 18.7446C88.1194 20.0488 88.2236 21.3497 88.335 22.644C88.4087 23.472 88.477 24.2968 88.5812 25.1117C88.6154 25.3408 88.698 25.5928 88.84 25.7908C89.6917 26.9722 90.5793 28.1389 91.4239 29.3204C91.9791 30.0993 92.272 30.9551 92.1983 31.8944C92.1893 32.0237 92.1606 32.148 92.1336 32.4033C91.0178 30.9126 89.9828 29.5364 88.9514 28.1537C88.8292 29.6313 89.2281 31.1089 88.4429 32.4704C88.3943 32.4704 88.3368 32.4704 88.2883 32.4737C88.2596 32.2708 88.1949 32.0711 88.2057 31.8617C88.2775 30.2417 88.141 28.6249 87.8175 27.0328C87.7924 26.9248 87.7762 26.8037 87.7043 26.7218C86.973 25.7662 86.2273 24.822 85.4852 23.8713C85.4475 23.8762 85.4097 23.8844 85.3738 23.8909" fill="white"/>
<path fill-rule="evenodd" clip-rule="evenodd" d="M30.0238 16.3589C30.8216 16.9137 31.1864 17.5699 31.0965 18.3717C30.978 19.3715 31.2349 20.3091 31.5206 21.2484C31.7308 21.9259 32.1801 22.2057 32.9042 22.2253C33.499 22.2335 33.7362 22.0175 33.6104 21.4939C33.3894 20.6151 33.1198 19.7446 32.8701 18.874C32.8221 18.6986 32.749 18.5297 32.6526 18.3717C32.2555 17.7122 32.4622 17.1804 33.0246 16.6944C33.2636 16.4849 33.472 16.4588 33.6715 16.6797C33.9787 17.0184 34.3022 17.3539 34.5376 17.7351C34.8341 18.1933 34.7424 18.3929 34.2159 18.6646C34.3866 19.3371 34.6238 20.0097 34.7047 20.697C34.7873 21.322 34.8017 21.9897 34.6651 22.6049C34.4603 23.5049 33.0929 24.1775 32.1351 23.968C31.5727 23.8388 31.2349 23.4968 31.0193 23.0304C30.9276 22.8324 30.854 22.623 30.7444 22.3513C30.6168 22.51 30.5162 22.605 30.4371 22.7146C30.2772 22.9273 30.1765 23.2022 29.9663 23.3593C29.4255 23.7569 29.5081 24.2544 29.5548 24.7764C29.668 26.2033 29.783 27.6269 29.8477 29.0539C29.8747 29.6315 29.7147 30.1862 29.1613 30.6264C29.0571 29.6119 28.9565 28.6039 28.8397 27.591C28.7229 26.5682 28.5899 25.5439 28.4569 24.4982C28.3905 24.4851 28.3294 24.459 28.2557 24.454C27.0572 24.3444 26.3438 23.7848 26.0258 22.7179C25.7706 21.8653 25.8083 21.003 25.9036 20.1455C25.9413 19.7855 25.9557 19.4288 25.9862 19.0655C25.9126 19.0557 25.8515 19.0393 25.7814 19.0311C25.6053 19.6104 25.4202 20.1897 25.2657 20.7755C25.0357 21.6019 24.8542 22.4315 24.6242 23.2529C24.5526 23.4469 24.4376 23.6252 24.2864 23.7766C23.8282 24.315 23.2622 24.3051 22.9226 23.7046C22.6208 23.1685 22.3846 22.6038 22.2182 22.0208C21.8211 20.7746 21.7957 19.4546 22.1445 18.1966C22.184 18.0395 22.2829 17.8889 22.3494 17.7351C22.3907 17.7384 22.4374 17.7482 22.4859 17.7482C22.5039 17.925 22.5272 18.1115 22.547 18.2899C22.6638 19.2929 22.7519 20.3059 22.9244 21.3106C22.9801 21.6608 23.1903 22.0077 23.4077 22.3104C23.6323 22.636 23.9486 22.6115 24.0762 22.2564C24.2666 21.6935 24.4176 21.1159 24.4966 20.5382C24.626 19.468 24.9387 18.465 25.5837 17.56C25.767 17.3146 25.9916 17.0724 26.2558 16.912C26.7104 16.6404 27.1847 16.8613 27.1668 17.3489C27.1444 17.8537 27.0643 18.355 26.9278 18.8446C26.6277 19.8673 26.6565 20.8557 27.1847 21.808C27.4507 22.258 27.7256 22.4184 28.2934 22.4593C28.2593 22.0191 28.2521 21.5839 28.191 21.1535C28.0311 19.8935 27.855 18.627 27.6699 17.367C27.6117 17.0076 27.5271 16.6523 27.4165 16.3033C27.3303 15.9679 27.6088 15.2462 27.9448 15.1039C28.0437 15.0597 28.2952 15.1268 28.3455 15.2102C28.6887 15.814 29.0301 16.426 29.3069 17.0593C29.3705 17.2014 29.3805 17.3587 29.3353 17.5065C29.2901 17.6543 29.1922 17.7842 29.0571 17.8759C28.978 17.9282 28.9313 18.0575 28.9367 18.1557C29.0697 19.4926 29.217 20.8344 29.3572 22.1664C29.3608 22.1926 29.3895 22.2089 29.4111 22.2286C30.0112 21.8784 30.358 21.1519 30.2323 20.548C30.0508 19.7266 29.8603 18.9117 29.704 18.0837C29.5908 17.5142 29.7543 16.9775 30.0238 16.3589Z" fill="white"/>
<path fill-rule="evenodd" clip-rule="evenodd" d="M45.9063 16.6748C45.8919 16.8089 45.8847 16.9366 45.8577 17.0609C45.6583 18.0428 45.617 19.0328 45.8452 20.0129C45.9422 20.4237 46.1704 20.8328 46.413 21.2009C46.5244 21.3679 46.8155 21.538 47.0149 21.5282C47.1767 21.52 47.3923 21.2746 47.4749 21.0913C47.9367 20.1586 48.3374 19.1948 48.828 18.2653C49.1317 17.686 49.5162 17.1329 49.9205 16.6093C50.0678 16.4244 50.4434 16.1806 50.6087 16.2395C50.9699 16.3557 51.128 16.7059 51.0759 17.092C51.013 17.5257 50.8998 17.9593 50.88 18.3929C50.8423 19.2848 50.792 20.1799 50.8423 21.07C50.8908 22.0273 51.685 22.4315 52.6679 22.0469C54.1575 21.4677 54.5349 20.62 54.4342 19.2553C54.3606 18.2146 54.0767 17.1739 53.8664 16.1397C53.7406 15.4655 54.2132 15.0269 54.5438 14.4444C55.0847 15.0188 55.2356 15.6373 55.3273 16.2509C55.489 17.2688 55.5519 18.298 55.7226 19.3191C55.8448 20.0686 56.1251 20.7837 56.6785 21.3809C56.9211 21.6444 57.2032 21.8571 57.6129 21.736C58.0352 21.6199 58.1664 21.2942 58.2023 20.9326C58.2939 20.0031 58.0801 19.1031 57.7782 18.2244C57.589 17.6753 57.3841 17.1307 57.1637 16.5913C57.0415 16.2984 57.0721 16.0709 57.3057 15.8419C57.4799 15.6717 57.5842 15.4491 57.7171 15.2511C57.9507 14.878 58.0981 14.8453 58.4592 15.0989C59.1654 15.6046 59.5877 16.2788 59.8177 17.0495C59.8554 17.1771 59.7638 17.3489 59.7296 17.4929C59.5751 17.4651 59.4152 17.4537 59.2768 17.398C59.1403 17.3473 59.0253 17.2524 58.8204 17.1264C58.9929 17.7351 59.1492 18.2489 59.2768 18.7791C59.4709 19.6251 59.6074 20.4842 59.3325 21.3417C59.2912 21.4873 59.2553 21.6346 59.1996 21.7802C58.5868 23.2759 57.2625 23.5802 55.9418 22.5297C55.6597 22.3039 55.3686 22.0911 55.126 21.9079C54.6624 22.3039 54.1306 22.78 53.5681 23.2169C53.3633 23.3855 53.0812 23.4837 52.8135 23.5802C51.606 24.0188 50.5386 23.59 50.0732 22.4904C49.6887 21.6051 49.757 20.6806 49.8217 19.7593C49.8342 19.5499 49.8217 19.3339 49.8217 19.1211C49.7717 19.1083 49.7214 19.0969 49.6707 19.0868C49.5647 19.2799 49.4407 19.4697 49.3599 19.6775C49.0202 20.4989 48.7184 21.3335 48.3698 22.1533C47.872 23.3348 47.112 23.4199 46.2369 22.438C44.7131 20.7068 44.7814 18.8299 45.6134 16.8859C45.6511 16.804 45.7248 16.7271 45.7787 16.6519C45.8184 16.6699 45.8619 16.6799 45.9063 16.6813" fill="white"/>
<path fill-rule="evenodd" clip-rule="evenodd" d="M64.4137 19.6856C64.3292 18.91 64.3813 18.0853 64.1082 17.3751C63.9986 17.1087 63.9497 16.8248 63.9645 16.5406C63.9794 16.2565 64.0576 15.9781 64.1945 15.7223C64.2843 15.5603 64.4838 15.3476 64.6437 15.3378C64.8036 15.328 65.0552 15.5145 65.1288 15.67C65.5834 16.6583 66.0219 17.6451 66.4082 18.658C66.6005 19.1702 66.4208 19.3485 65.8512 19.306C65.8961 20.2273 65.9338 21.1436 66.0039 22.0567C66.0075 22.1811 66.1297 22.3022 66.2034 22.4249C67.5043 24.4327 68.8394 26.4258 70.0936 28.4582C70.7171 29.458 71.2005 30.5347 71.3802 31.6965C71.4179 31.9289 71.4107 32.1743 71.4197 32.4149C71.3723 32.4392 71.3237 32.4616 71.2741 32.482C71.1627 32.3478 71.0262 32.2251 70.9525 32.0745C69.7576 29.4989 68.117 27.1491 66.4837 24.7862C66.401 24.6749 66.3166 24.5702 66.1567 24.3656C66.2393 25.2787 66.3166 26.0822 66.3867 26.8774C66.5466 28.6398 66.9257 30.394 66.6939 32.1678C66.5789 33.0073 66.295 33.8238 66.056 34.6403C66.0075 34.8367 65.8386 35.0069 65.7182 35.1836C65.6535 35.1689 65.5817 35.1607 65.5224 35.1476C65.5224 34.9365 65.4774 34.7156 65.5313 34.5111C65.9788 32.9287 65.8188 31.3234 65.6176 29.728C65.357 27.6138 65.0372 25.5078 64.7784 23.3953C64.676 22.5771 64.4748 21.8325 63.8836 21.1698C63.0157 20.1782 62.2556 19.1243 61.4183 18.1114C61.1703 17.8153 60.8199 17.5894 60.5522 17.3063C60.3977 17.1525 60.2413 16.948 60.2144 16.7582C60.1598 16.252 60.1412 15.7431 60.1587 15.2347C60.1587 15.0923 60.2485 14.8862 60.3617 14.8273C60.4803 14.7782 60.7265 14.8305 60.8415 14.9238C61.7256 15.652 62.5988 16.39 63.4488 17.1493C63.5961 17.2769 63.6159 17.5273 63.6949 17.7285C63.4595 17.7727 63.2313 17.8251 62.9618 17.8807C63.4003 18.4649 63.8584 19.0916 64.331 19.7167C64.358 19.7036 64.3813 19.6905 64.4137 19.6807" fill="white"/>
<path fill-rule="evenodd" clip-rule="evenodd" d="M93.2365 18.2129C93.3281 19.2422 93.4216 20.3074 93.5204 21.3662C93.7163 23.464 93.9247 25.552 94.1241 27.6465C94.2857 29.1098 94.2216 30.5865 93.9337 32.0336C93.5168 34.0349 92.5698 35.7138 90.3651 36.5271C89.72 36.766 89.0156 36.8904 88.3292 37.0507C88.1405 37.0884 87.9303 37.054 87.7291 37.054C87.7111 37.0049 87.6841 36.964 87.668 36.9165C87.8674 36.7464 88.0489 36.5614 88.2609 36.4125C88.9815 35.9085 89.729 35.4504 90.4334 34.9333C92.1206 33.6798 92.9184 32.0369 92.8034 30.0831C92.6822 28.0677 92.5115 26.055 92.2913 24.0465C92.0757 22.0011 91.8026 19.9589 91.5402 17.9167C91.472 17.3849 91.3749 16.858 91.2887 16.3294C91.2186 15.9465 91.7469 14.9745 92.1314 14.8649C92.2231 14.842 92.4477 14.9484 92.4962 15.0482C92.9634 15.94 93.4054 16.8367 93.842 17.7416C93.8959 17.8807 93.86 18.0493 93.869 18.2129H93.2365Z" fill="white"/>
<path fill-rule="evenodd" clip-rule="evenodd" d="M66.3203 37.3878C66.5629 37.2782 66.7947 37.1276 67.0445 37.0655C68.7173 36.6498 69.8925 35.6255 71.0263 34.5193C72.0613 33.5113 72.3488 32.3184 72.2338 30.9815C72.0991 29.3287 72.0434 27.6646 71.8924 26.0118C71.7055 23.9566 71.454 21.916 71.215 19.8689C71.1311 19.1471 71.0262 18.4274 70.9005 17.7106C70.868 17.4935 70.8127 17.2798 70.7352 17.0724C70.6023 16.6698 70.6616 16.3229 70.9976 16.0153C71.3174 15.7453 71.6121 15.4573 71.9679 15.1235C72.0901 15.3051 72.232 15.4393 72.2859 15.5898C72.568 16.4522 72.8484 17.3244 73.1017 18.1982C73.2365 18.6515 73.1143 18.7415 72.5249 18.6384C72.5249 19.0818 72.4908 19.5171 72.5285 19.9458C72.798 23.4607 73.3892 26.9577 73.3425 30.4955C73.3227 31.8176 73.3048 33.1431 72.6363 34.3589C72.0326 35.4536 71.1234 36.3373 70.047 37.0704C69.757 37.2639 69.4219 37.3938 69.0677 37.45C68.3382 37.5531 67.6015 37.5924 66.8666 37.6398C66.6977 37.648 66.5234 37.5776 66.3527 37.5482C66.3446 37.4943 66.3339 37.4408 66.3203 37.3878Z" fill="white"/>
<path fill-rule="evenodd" clip-rule="evenodd" d="M75.8427 18.9837C75.9272 19.8068 75.9901 20.5563 76.0871 21.3106C76.3387 23.3528 76.5992 25.3983 76.8741 27.4372C77.0053 28.4272 77.2012 29.4156 77.3521 30.4056C77.539 31.6623 77.2587 32.8388 76.619 33.9434C76.5058 34.1397 76.2937 34.2821 76.1266 34.4474C76.0745 34.4392 76.0242 34.4228 75.9757 34.4163C75.9308 34.2396 75.8284 34.0514 75.8697 33.9025C76.2578 32.4477 75.9991 31.0094 75.787 29.5661C75.4834 27.5861 75.2336 25.5946 74.9263 23.6163C74.6029 21.5659 74.2758 19.5156 73.9003 17.4734C73.7404 16.5832 73.9111 15.8206 74.522 15.1219C74.8616 14.7341 75.1527 14.7554 75.3612 15.2021C75.5624 15.6357 75.69 16.0792 75.8877 16.5128C76.1626 17.1232 76.4878 17.709 76.7609 18.3194C76.8634 18.5452 76.8723 18.8037 76.9209 19.0394C76.6657 19.0508 76.4051 19.0656 76.1464 19.0656C76.0745 19.0639 76.008 19.0312 75.8427 18.9837Z" fill="white"/>
<path fill-rule="evenodd" clip-rule="evenodd" d="M38.7578 21.0061C38.9483 20.8605 39.1459 20.7001 39.3418 20.5561C40.1791 19.9311 41.0291 19.3191 41.8538 18.6743C42.1737 18.4191 42.4198 18.082 42.702 17.7956C42.0281 16.8809 42.0964 15.9023 42.8529 15.3149C43.1781 15.0629 43.5375 14.9205 43.9723 15.1005C44.3874 15.2854 44.5078 15.6209 44.4611 15.9989C44.4216 16.3491 44.3012 16.696 44.2329 17.0347C44.1844 17.2801 44.1987 17.5371 44.1269 17.7727C44.0592 17.935 43.9509 18.0806 43.8106 18.1982C43.6489 18.3438 43.4027 18.4289 43.2662 18.586C42.2168 19.7985 40.8278 20.5611 39.2663 21.0978C39.1387 21.1403 38.9878 21.1354 38.8441 21.1518C38.8171 21.106 38.7902 21.0552 38.7578 21.0061ZM43.5285 16.1134C43.4512 16.102 43.374 16.0791 43.3003 16.0692C43.2518 16.2983 43.1943 16.5307 43.1494 16.7581L43.3362 16.7892C43.4063 16.5602 43.4602 16.3392 43.5285 16.1134Z" fill="white"/>
<path fill-rule="evenodd" clip-rule="evenodd" d="M23.6545 31.0485C23.8108 31.6277 23.8072 32.1137 23.6743 32.6357C23.5143 33.2739 23.4407 33.9285 23.3436 34.5748C23.3293 34.6763 23.3436 34.8039 23.4029 34.8906C23.5215 35.0657 23.6419 35.2948 23.8198 35.3652C23.9258 35.4045 24.163 35.1754 24.3175 35.0543C24.4092 34.9806 24.4541 34.8465 24.5565 34.8072C24.6374 34.7794 24.8297 34.8137 24.8548 34.8743C25.0974 35.3586 24.6482 36.401 24.1109 36.6334C23.5377 36.8821 22.9232 36.6677 22.7848 36.0475C22.6375 35.4257 22.5297 34.7466 22.6375 34.1297C22.81 33.1659 23.1657 32.2299 23.4532 31.2808C23.4766 31.2105 23.5593 31.1597 23.6545 31.0485Z" fill="white"/>
<path fill-rule="evenodd" clip-rule="evenodd" d="M80.3975 24.2443L79.2403 22.392C78.5934 22.6832 78.4425 22.6014 78.4748 22.0058C78.4856 21.8552 78.4299 21.6932 78.4695 21.5574C78.5198 21.4052 78.6168 21.1974 78.7516 21.1483C78.8809 21.1107 79.1523 21.2105 79.2349 21.3218C79.4937 21.6883 79.6931 22.0876 79.9159 22.4771C80.0094 22.6391 80.0956 22.8174 80.2789 22.9729C80.2789 22.6718 80.2735 22.3821 80.2789 22.0794C80.2915 21.7047 80.2502 21.3087 80.3598 20.9536C80.4334 20.7212 80.712 20.5249 80.9312 20.3596C81.0031 20.3007 81.269 20.3301 81.3139 20.394C81.481 20.6214 81.6338 20.8701 81.7002 21.1287C81.7595 21.3414 81.6373 21.5329 81.3427 21.3921C80.915 21.1958 80.7766 21.4003 80.7641 21.7243C80.7371 22.3331 80.7497 22.932 80.7227 23.5374C80.7191 23.7583 80.6365 23.9809 80.5862 24.2116C80.5233 24.228 80.4568 24.2345 80.3975 24.2443Z" fill="white"/>
<path fill-rule="evenodd" clip-rule="evenodd" d="M22.5312 28.756C23.1673 27.8314 24.0137 27.1196 25.0307 26.5861C25.6758 26.2474 26.3766 25.9938 27.072 25.7238C27.2768 25.6403 27.5571 25.457 27.6955 25.8269C27.8374 26.1967 27.717 26.4732 27.3595 26.6041C26.912 26.7629 26.4341 26.866 26.01 27.0656C24.9283 27.568 23.8699 28.108 22.799 28.6365C22.7109 28.6807 22.6229 28.7183 22.5312 28.756Z" fill="white"/>
<path fill-rule="evenodd" clip-rule="evenodd" d="M64.3698 35.6517C63.6295 36.231 62.9466 36.8986 61.8901 37.023C61.2001 37.1081 60.8371 36.7154 60.9934 36.0952C61.0491 35.8775 61.0959 35.6566 61.1623 35.3899C60.8138 35.439 60.5442 35.4832 60.2441 35.5323C60.3951 35.1919 61.4427 34.5325 61.7643 34.5766C61.8703 34.5897 62.0105 34.7943 62.0051 34.8974C61.9961 35.1428 61.8793 35.3817 61.8505 35.6239C61.8272 35.8023 61.8739 35.9855 61.8829 36.1672C62.0841 36.1525 62.3088 36.1672 62.4884 36.1115C62.8945 35.9741 63.2827 35.7843 63.687 35.6354C63.8774 35.5634 64.093 35.5323 64.2943 35.4815C64.3141 35.5388 64.3482 35.5994 64.3698 35.6517Z" fill="white"/>
<path fill-rule="evenodd" clip-rule="evenodd" d="M84.4446 34.7074C84.5991 34.7238 84.7554 34.7107 84.8938 34.7548C85.1633 34.8219 85.2945 34.9905 85.1759 35.2523C85.1256 35.3668 85.0573 35.4749 84.9908 35.5796C84.8399 35.8512 84.777 36.0558 85.2532 36.0443C85.361 36.0443 85.5514 36.1228 85.564 36.1981C85.5928 36.3094 85.5568 36.4943 85.458 36.5647C84.9818 36.9116 84.45 37.1701 83.821 37.1521C83.6935 37.1489 83.4922 37.0556 83.4743 36.9656C83.4365 36.8478 83.4976 36.6678 83.5857 36.5647C83.7366 36.3978 83.9558 36.2734 84.1157 36.1163C84.2936 35.9429 84.317 35.7416 84.078 35.591C83.839 35.4405 83.494 35.3079 83.7025 35.0036C83.83 34.8219 84.1517 34.7467 84.3907 34.6207C84.405 34.6485 84.4302 34.6763 84.4446 34.7074Z" fill="white"/>
<path fill-rule="evenodd" clip-rule="evenodd" d="M54.7305 26.0119C54.7809 25.9611 54.7593 25.9775 54.7395 25.9988C54.5994 26.2361 54.452 26.5813 54.1124 26.4684C53.9691 26.4071 53.8405 26.3204 53.7344 26.2134C53.6283 26.1063 53.5466 25.9811 53.4943 25.845C53.3811 25.4686 53.426 25.0481 53.4062 24.6488C53.4584 24.6439 53.5087 24.6341 53.5626 24.6259C53.7423 25.0006 53.9255 25.3819 54.098 25.7582C54.1627 25.755 54.231 25.7468 54.2903 25.7435C54.3963 25.3442 54.4952 24.9384 54.6012 24.5392L54.7234 24.5277C54.9444 24.8713 55.1636 25.2215 55.3828 25.5766C55.4475 25.5733 55.4996 25.5602 55.5571 25.557L55.7673 24.0859C56.1393 24.5146 56.2004 24.9057 56.2058 25.3197C56.2058 25.6568 56.1141 26.0021 55.7422 26.0986C55.478 26.169 55.1474 26.0528 54.7305 26.0119Z" fill="white"/>
<path fill-rule="evenodd" clip-rule="evenodd" d="M78.9023 27.6809C79.0137 27.514 79.0874 27.3062 79.2456 27.1753C79.7217 26.7989 80.232 26.4553 80.719 26.0936C81.2545 25.6878 81.7702 25.2722 82.3146 24.8713C82.417 24.796 82.6039 24.7044 82.692 24.7404C82.798 24.7846 82.8519 24.9613 82.8788 25.0807C82.9507 25.426 82.8411 25.6878 82.4943 25.8809C81.4719 26.4602 80.4656 27.064 79.445 27.6466C79.3228 27.7137 79.1863 27.7513 79.0443 27.8053C78.9996 27.7614 78.9522 27.7199 78.9023 27.6809Z" fill="white"/>
<path fill-rule="evenodd" clip-rule="evenodd" d="M90.1507 20.3728C90.1058 20.0815 90.1004 19.7853 90.0141 19.5006C89.8219 18.8346 89.6422 18.1522 89.3475 17.5222C89.1714 17.1262 89.1624 16.8219 89.4248 16.4962C89.6745 16.1886 89.8578 16.1771 90.0033 16.5191C90.2405 17.082 90.4813 17.6515 90.5622 18.2357C90.6502 18.8117 90.5442 19.4024 90.5029 19.9849C90.4939 20.1224 90.3807 20.25 90.3196 20.3809C90.2635 20.3759 90.2071 20.3731 90.1507 20.3728Z" fill="white"/>
<path fill-rule="evenodd" clip-rule="evenodd" d="M68.4314 18.7562C68.4314 18.4846 68.3918 18.2817 68.4421 18.0984C68.6326 17.3898 68.3685 16.8367 67.8294 16.3524C67.4161 15.9744 67.4035 15.5587 67.8366 15.2167C67.9426 15.1366 68.2301 15.112 68.3289 15.1857C69.2184 15.8271 69.4053 17.8627 68.6739 18.6515C68.647 18.6809 68.6003 18.6842 68.4314 18.7562Z" fill="white"/>
<path fill-rule="evenodd" clip-rule="evenodd" d="M43.6955 21.6492C43.8393 22.2841 43.1241 23.1285 42.3407 23.1677C41.8825 23.189 41.4279 22.7717 41.4243 22.2677C41.4063 21.4626 41.9094 20.8817 42.5204 20.3712C42.5545 20.3417 42.6318 20.3597 42.8097 20.3417C42.6408 20.6576 42.4934 20.9046 42.3856 21.1501C42.2742 21.389 42.1556 21.6328 42.1233 21.8832C42.0999 22.0256 42.2005 22.2825 42.3191 22.3283C42.4737 22.3856 42.7342 22.3446 42.8905 22.2579C43.1673 22.1057 43.3973 21.8848 43.6955 21.6492Z" fill="white"/>
<path fill-rule="evenodd" clip-rule="evenodd" d="M69.509 20.7263C69.6527 20.3843 69.8073 20.0423 69.9672 19.679C70.2745 20.0145 70.332 20.9456 70.0912 21.2221C69.8989 21.4414 69.6456 21.4627 69.4066 21.2925C69.137 21.0994 68.9268 21.0961 68.6483 21.2957C68.3177 21.5412 68.0895 21.479 67.9834 21.1141C67.8972 20.8196 67.9098 20.5103 67.8828 20.2141C67.9367 20.1961 67.9978 20.183 68.0481 20.1683C68.1865 20.3761 68.3177 20.5856 68.5063 20.8801C68.6627 20.5136 68.7705 20.2354 68.9322 19.8508C69.1011 20.2157 69.2269 20.4596 69.3473 20.7148C69.3994 20.7148 69.4533 20.723 69.509 20.7263Z" fill="white"/>
<path fill-rule="evenodd" clip-rule="evenodd" d="M40.5741 32.2153C40.6478 31.6393 40.7161 31.1271 40.7772 30.6149C39.9416 30.5118 39.7548 30.2598 40.053 29.7051C40.1393 29.548 40.3819 29.314 40.5148 29.3386C40.7628 29.3762 41.0809 29.5169 41.1959 29.71C41.557 30.3008 41.2893 31.6213 40.7754 32.1188C40.752 32.1482 40.6963 32.1564 40.5741 32.2153Z" fill="white"/>
<path fill-rule="evenodd" clip-rule="evenodd" d="M30.8431 14.8255C30.8952 15.1364 30.9042 15.3459 30.9725 15.5373C31.0174 15.6797 31.145 15.7959 31.2276 15.9284C31.3624 15.8499 31.5277 15.7959 31.6211 15.6944C31.7631 15.5079 31.8583 15.2951 32.074 15.0906C32.0973 15.2591 32.0973 15.4326 32.1566 15.5782C32.2303 15.732 32.3704 15.858 32.4765 15.9955C32.5807 15.8777 32.6975 15.7713 32.7927 15.6453C32.8466 15.575 32.87 15.4882 32.9239 15.3917C33.2132 15.7468 33.1826 16.182 32.8628 16.4324C32.4639 16.7417 32.2159 16.4521 31.9751 16.2131C31.3157 16.5961 31.0533 16.6108 30.7389 16.2868C30.3759 15.9022 30.3705 15.3459 30.8431 14.8255Z" fill="white"/>
<path fill-rule="evenodd" clip-rule="evenodd" d="M82.3115 29.8801C82.2864 29.6723 82.2379 29.5479 82.263 29.4432C82.4697 28.8165 82.193 28.3877 81.6485 28.0343C81.2514 27.7823 81.2514 27.4763 81.6557 27.2226C81.7833 27.1441 82.0492 27.1146 82.1768 27.1817C82.998 27.6154 83.2316 29.0243 82.6134 29.6657C82.5613 29.723 82.484 29.7639 82.3115 29.8801Z" fill="white"/>
<path fill-rule="evenodd" clip-rule="evenodd" d="M52.5625 18.8771C52.5625 18.6922 52.5535 18.5089 52.5625 18.3257C52.6182 17.514 52.4493 16.7564 51.9444 16.0642C51.8581 15.9513 51.7844 15.7517 51.8348 15.6453C51.9255 15.4827 52.0754 15.3537 52.2588 15.2804C52.3415 15.2575 52.5697 15.4408 52.6344 15.5668C53.0243 16.3211 53.1016 17.1213 52.9991 17.9329C52.9614 18.2619 52.8554 18.5826 52.7781 18.9082C52.7062 18.9017 52.6326 18.8853 52.5625 18.8771Z" fill="white"/>
<path fill-rule="evenodd" clip-rule="evenodd" d="M24.3985 17.4143C24.4362 16.7222 24.828 16.1543 24.5261 15.5358C24.4129 15.5767 24.3482 15.616 24.2745 15.634C24.1038 15.6569 23.9223 15.67 23.748 15.6863C23.7876 15.5178 23.7714 15.3067 23.881 15.1856C24.1038 14.9451 24.3374 14.5982 24.7651 14.7569C25.1532 14.9058 25.1712 15.274 25.146 15.6094C25.1101 16.2443 24.828 16.7876 24.3985 17.4143Z" fill="white"/>
</svg>
