<svg width="24" height="22" viewBox="0 0 24 22" fill="none" xmlns="http://www.w3.org/2000/svg">
<path d="M22.5899 1.41197H17.8814V1.41005C17.8814 0.632531 17.2488 0 16.4713 0H7.52869C6.75117 0 6.11864 0.632531 6.11864 1.41005V1.41197H1.41009C0.632578 1.41197 0 2.0445 0 2.82202V18.8246C0 19.6021 0.632578 20.2347 1.41009 20.2347H6.19908C6.39277 20.7824 6.91552 21.176 7.52873 21.176H16.4713C17.0845 21.176 17.6073 20.7824 17.801 20.2347H22.59C23.3675 20.2347 24 19.6021 24 18.8246V2.82202C24 2.0445 23.3674 1.41197 22.5899 1.41197ZM22.5899 2.34947C22.8505 2.34947 23.0625 2.56144 23.0625 2.82202V4.70662H17.8814V2.34947H22.5899ZM17.8814 15.9987H20.7073C20.9679 15.9987 21.1799 16.2107 21.1799 16.4713C21.1799 16.7322 20.9682 16.9439 20.7073 16.9439H17.8814V15.9987ZM7.05614 1.41005C7.05614 1.14947 7.26811 0.9375 7.52869 0.9375H16.4713C16.7318 0.9375 16.9438 1.14947 16.9438 1.41005V3.29461H7.05614V1.41005ZM6.11864 16.9439H3.29273C3.03211 16.9439 2.82014 16.7319 2.82014 16.4713C2.82014 16.2104 3.03173 15.9987 3.29273 15.9987H6.11864V16.9439ZM1.41009 2.34947H6.11864V4.70662H0.9375V2.82202C0.9375 2.56148 1.14947 2.34947 1.41009 2.34947ZM0.9375 18.8246V5.64412H6.11864V7.05989H2.35139C2.0925 7.05989 1.88264 7.26975 1.88264 7.52864C1.88264 7.78748 2.0925 7.99739 2.35139 7.99739H6.11864V8.94258H2.35139C2.0925 8.94258 1.88264 9.15248 1.88264 9.41133C1.88264 9.67017 2.0925 9.88008 2.35139 9.88008H6.11864V10.8252H2.35139C2.0925 10.8252 1.88264 11.0351 1.88264 11.294C1.88264 11.5529 2.0925 11.7627 2.35139 11.7627H6.11864V12.7079H2.35139C2.0925 12.7079 1.88264 12.9177 1.88264 13.1766C1.88264 13.4355 2.0925 13.6454 2.35139 13.6454H6.11864V15.0612H3.29273C2.51372 15.0612 1.88264 15.692 1.88264 16.4712C1.88264 17.2487 2.51522 17.8813 3.29273 17.8813H6.11864V19.2971H1.41009C1.14947 19.2972 0.9375 19.0852 0.9375 18.8246ZM16.4713 20.2385H7.52869C7.26811 20.2385 7.05614 20.0265 7.05614 19.7659V4.23211H16.9439V19.7659C16.9439 20.0265 16.7318 20.2385 16.4713 20.2385ZM22.5899 19.2972H17.8814V17.8814H20.7073C21.4863 17.8814 22.1174 17.2505 22.1174 16.4713C22.1174 15.6938 21.4848 15.0612 20.7073 15.0612H17.8814V13.6454H21.6486C21.9075 13.6454 22.1174 13.4355 22.1174 13.1767C22.1174 12.9178 21.9075 12.7079 21.6486 12.7079H17.8814V11.7628H21.6486C21.9075 11.7628 22.1174 11.5529 22.1174 11.294C22.1174 11.0352 21.9075 10.8253 21.6486 10.8253H17.8814V9.88013H21.6486C21.9075 9.88013 22.1174 9.67022 22.1174 9.41138C22.1174 9.15253 21.9075 8.94263 21.6486 8.94263H17.8814V7.99744H21.6486C21.9075 7.99744 22.1174 7.78753 22.1174 7.52869C22.1174 7.2698 21.9075 7.05994 21.6486 7.05994H17.8814V5.64417H23.0625V18.8247C23.0625 19.0852 22.8505 19.2972 22.5899 19.2972Z" fill="#12004C"/>
<path d="M14.5894 16.0024H9.41205C8.63453 16.0024 8.00195 16.635 8.00195 17.4125C8.00195 18.1901 8.63453 18.8226 9.41205 18.8226H14.5893C15.3669 18.8226 15.9994 18.1901 15.9994 17.4125C15.9995 16.635 15.3669 16.0024 14.5894 16.0024ZM14.5894 17.8851H9.41205C9.15142 17.8851 8.93945 17.6732 8.93945 17.4125C8.93945 17.1519 9.15142 16.9399 9.41205 16.9399H14.5893C14.85 16.9399 15.0619 17.1519 15.0619 17.4125C15.0619 17.6732 14.85 17.8851 14.5894 17.8851Z" fill="#12004C"/>
<path d="M15.5307 11.7666H8.4707C8.21181 11.7666 8.00195 11.9765 8.00195 12.2354C8.00195 12.4942 8.21181 12.7041 8.4707 12.7041H15.5307C15.7895 12.7041 15.9994 12.4942 15.9994 12.2354C15.9995 11.9765 15.7896 11.7666 15.5307 11.7666Z" fill="#12004C"/>
<path d="M15.5307 13.6494H8.4707C8.21181 13.6494 8.00195 13.8593 8.00195 14.1182C8.00195 14.377 8.21181 14.5869 8.4707 14.5869H15.5307C15.7895 14.5869 15.9994 14.377 15.9994 14.1182C15.9995 13.8593 15.7896 13.6494 15.5307 13.6494Z" fill="#12004C"/>
</svg>
