<svg width="48" height="48" viewBox="0 0 48 48" fill="none" xmlns="http://www.w3.org/2000/svg">
<circle cx="24" cy="24" r="24" fill="#12004C"/>
<path fill-rule="evenodd" clip-rule="evenodd" d="M35.2856 23.3518H38.0896V35.7785C36.4354 37.0292 34.4988 37.9975 32.3201 38.6632C32.0781 38.7439 31.8562 38.8044 31.6141 38.865V32.3087V30.4528V27.0233C31.5939 25.006 33.2481 23.3518 35.2856 23.3518ZM26.4699 39.6719C28.4469 39.5912 30.0204 37.9773 30.0204 36.0004V33.0147C28.81 33.4384 27.4988 33.6401 26.0866 33.6401C24.15 33.6401 22.4353 33.2165 20.9425 32.3894C19.4295 31.5623 18.2595 30.3922 17.4122 28.8994C16.5649 27.4066 16.1413 25.7121 16.1413 23.8158C16.1413 21.8792 16.5649 20.1846 17.4122 18.6918C18.2595 17.199 19.4497 16.0491 20.9627 15.2422C22.4756 14.4353 24.2105 14.0117 26.1673 14.0117C28.3057 14.0117 30.2423 14.5765 31.957 15.686C33.3893 16.614 35.2049 16.4526 36.4556 15.3027L38.6545 13.2854C37.1617 11.5707 35.3259 10.2595 33.1472 9.35166C30.9484 8.44387 28.5276 8.00006 25.8446 8.00006C22.637 8.00006 19.7523 8.68595 17.1701 10.0375C14.6081 11.3891 12.5908 13.2854 11.1585 15.686C9.70606 18.0866 9 20.81 9 23.8561C9 26.8821 9.72623 29.6055 11.1585 32.0263C12.611 34.4269 14.588 36.3231 17.1298 37.6747C19.6716 39.0263 22.5362 39.7122 25.7033 39.7122C25.9454 39.6719 26.2077 39.6719 26.4699 39.6719Z" fill="url(#paint0_linear_2578_6104)"/>
<defs>
<linearGradient id="paint0_linear_2578_6104" x1="8.96448" y1="23.8297" x2="38.6497" y2="23.8297" gradientUnits="userSpaceOnUse">
<stop stop-color="#BF8E4E"/>
<stop offset="0.4677" stop-color="#EDCD78"/>
<stop offset="1" stop-color="#BF8E4E"/>
</linearGradient>
</defs>
</svg>
