<svg xmlns="http://www.w3.org/2000/svg" width="57" height="57" viewBox="0 0 57 57">
  <g id="Group_4871" data-name="Group 4871" transform="translate(354 -8074)">
    <circle id="Ellipse_347" data-name="Ellipse 347" cx="28.5" cy="28.5" r="28.5" transform="translate(-354 8074)" fill="#11014d"/>
    <g id="Group_4869" data-name="Group 4869" transform="translate(-341.841 8086.159)">
      <path id="Path_24392" data-name="Path 24392" d="M0,0H32.682V32.682H0Z" fill="none"/>
      <path id="Path_24393" data-name="Path 24393" d="M28.235,10.532a2.724,2.724,0,0,1,2.724,2.724V18.7a2.724,2.724,0,0,1-2.724,2.724H26.789a10.9,10.9,0,0,1-10.81,9.532V28.235a8.171,8.171,0,0,0,8.171-8.171V11.894a8.171,8.171,0,0,0-16.341,0v9.532H3.724A2.724,2.724,0,0,1,1,18.7V13.255a2.724,2.724,0,0,1,2.724-2.724H5.17a10.9,10.9,0,0,1,21.619,0Zm-18.03,10.6,1.443-2.31a8.178,8.178,0,0,0,8.661,0l1.443,2.31a10.9,10.9,0,0,1-11.548,0Z" transform="translate(0.362 0.362)" fill="#fff"/>
    </g>
  </g>
</svg>
