<svg width="40" height="40" viewBox="0 0 40 40" fill="none" xmlns="http://www.w3.org/2000/svg">
<circle cx="20" cy="20" r="20" fill="white"/>
<path fill-rule="evenodd" clip-rule="evenodd" d="M25.4988 22.382C25.1993 22.233 23.7313 21.515 23.458 21.415C23.1847 21.316 22.9857 21.267 22.7858 21.565C22.5868 21.861 22.0151 22.531 21.8413 22.729C21.6664 22.928 21.4926 22.952 21.1942 22.804C20.8957 22.654 19.9331 22.341 18.7927 21.329C17.9054 20.541 17.3056 19.568 17.1317 19.27C16.9579 18.973 17.1126 18.812 17.2623 18.664C17.397 18.531 17.5608 18.317 17.7105 18.144C17.8602 17.97 17.9094 17.846 18.0089 17.647C18.1094 17.449 18.0592 17.276 17.9838 17.127C17.9094 16.978 17.3126 15.515 17.0634 14.92C16.8212 14.341 16.5751 14.42 16.3922 14.41C16.2173 14.402 16.0184 14.4 15.8194 14.4C15.6205 14.4 15.2969 14.474 15.0236 14.772C14.7493 15.069 13.9786 15.788 13.9786 17.251C13.9786 18.713 15.0477 20.126 15.1975 20.325C15.3472 20.523 17.3025 23.525 20.2979 24.812C21.0113 25.118 21.567 25.301 22 25.437C22.7155 25.664 23.3666 25.632 23.881 25.555C24.4538 25.47 25.6475 24.836 25.8967 24.142C26.1449 23.448 26.1449 22.853 26.0705 22.729C25.9962 22.605 25.7972 22.531 25.4978 22.382H25.4988ZM20.0507 29.785H20.0467C18.2676 29.7853 16.5212 29.3094 14.9905 28.407L14.6287 28.193L10.8687 29.175L11.8725 25.527L11.6364 25.153C10.6418 23.5774 10.1154 21.7538 10.1181 19.893C10.1202 14.443 14.5755 10.009 20.0547 10.009C22.7074 10.009 25.2014 11.039 27.0763 12.907C28.0011 13.8236 28.7341 14.9136 29.2329 16.1139C29.7317 17.3143 29.9864 18.6011 29.9822 19.9C29.9802 25.35 25.5249 29.785 20.0507 29.785ZM28.5032 11.488C27.3961 10.379 26.0788 9.49958 24.6277 8.90084C23.1766 8.3021 21.6205 7.99592 20.0497 8.00004C13.4642 8.00004 8.10249 13.335 8.10048 19.892C8.09948 21.988 8.64911 24.034 9.69512 25.837L8 32L14.3343 30.346C16.0866 31.2961 18.0502 31.794 20.0457 31.794H20.0507C26.6362 31.794 31.9979 26.459 31.9999 19.901C32.0048 18.3383 31.6982 16.7901 31.098 15.3461C30.4978 13.902 29.6159 12.5907 28.5032 11.488Z" fill="#06C755"/>
</svg>
