<svg width="24" height="24" viewBox="0 0 24 24" fill="none" xmlns="http://www.w3.org/2000/svg">
<path d="M20.6109 7.29018H14.3282V2.80855C14.3282 2.07768 14.0439 1.39368 13.5298 0.884801C13.0149 0.369926 12.3317 0.0864258 11.6057 0.0864258H2.96566C1.46454 0.0864258 0.243164 1.3078 0.243164 2.80893V8.56893C0.243164 10.0701 1.46454 11.2914 2.96566 11.2914H3.12316V12.8889C3.12316 13.4147 3.43704 13.8816 3.92229 14.0781C4.07866 14.1411 4.24104 14.1718 4.40191 14.1718C4.73791 14.1718 5.06529 14.0387 5.30491 13.7901L7.13416 11.9709V17.3233C7.13416 19.0577 8.54529 20.4688 10.2797 20.4688H14.8513L17.8824 23.4834C18.155 23.7647 18.5207 23.9143 18.8945 23.9143C19.073 23.9143 19.253 23.8802 19.4255 23.8104C19.9644 23.5926 20.312 23.0736 20.312 22.4893V20.4688H20.6105C22.3449 20.4688 23.756 19.0577 23.756 17.3233V10.4357C23.7564 8.7013 22.3453 7.29018 20.6109 7.29018V7.29018ZM7.13679 10.3821L4.50391 12.9999C4.45816 13.0476 4.40454 13.0599 4.34416 13.0348C4.30029 13.0172 4.24816 12.9774 4.24816 12.8886V10.7286C4.24816 10.4177 3.99654 10.1661 3.68566 10.1661H2.96566C2.08479 10.1661 1.36816 9.44943 1.36816 8.56855V2.80855C1.36816 1.92768 2.08479 1.21105 2.96566 1.21105H11.6057C12.0309 1.21105 12.4318 1.37755 12.7363 1.68205C13.0374 1.98018 13.2032 2.3803 13.2032 2.80855V7.29018H10.2797C9.44116 7.29018 8.65179 7.61793 8.05666 8.21268C7.47466 8.79468 7.15066 9.56343 7.13679 10.3821V10.3821ZM22.6314 17.3229C22.6314 18.4371 21.725 19.3434 20.6109 19.3434H19.7499C19.4394 19.3434 19.1874 19.5954 19.1874 19.9059V22.4889C19.1874 22.6731 19.0588 22.7454 19.0037 22.7676C18.95 22.7889 18.812 22.8257 18.6834 22.6929L15.4805 19.5073C15.3752 19.4027 15.2327 19.3434 15.0838 19.3434H10.2797C9.16554 19.3434 8.25916 18.4371 8.25916 17.3229V10.4357C8.25916 9.89718 8.46991 9.39055 8.85204 9.00843C9.23454 8.62593 9.74154 8.41518 10.2797 8.41518H20.6109C21.725 8.41518 22.6314 9.32155 22.6314 10.4357V17.3229Z" fill="#12004C"/>
<path d="M11.9627 13.0586C11.5052 13.0586 11.1328 13.4313 11.1328 13.8885C11.1328 14.3456 11.5056 14.7183 11.9627 14.7183C12.4206 14.7183 12.7933 14.3456 12.7933 13.8885C12.7933 13.4313 12.4206 13.0586 11.9627 13.0586V13.0586Z" fill="#12004C"/>
<path d="M15.4451 13.0586C14.9876 13.0586 14.6152 13.4313 14.6152 13.8885C14.6152 14.3456 14.988 14.7183 15.4451 14.7183C15.903 14.7183 16.2757 14.3456 16.2757 13.8885C16.2757 13.4313 15.9034 13.0586 15.4451 13.0586Z" fill="#12004C"/>
<path d="M18.9275 13.0586C18.47 13.0586 18.0977 13.4313 18.0977 13.8885C18.0977 14.3456 18.4704 14.7183 18.9275 14.7183C19.3854 14.7183 19.7582 14.3456 19.7582 13.8885C19.7582 13.4313 19.3854 13.0586 18.9275 13.0586Z" fill="#12004C"/>
</svg>
