<svg width="40" height="40" viewBox="0 0 40 40" fill="none" xmlns="http://www.w3.org/2000/svg">
<circle cx="20" cy="20" r="20" fill="white"/>
<path d="M30.6036 14.5604C30.6199 14.7954 30.6199 15.0305 30.6199 15.2677C30.6199 22.4964 25.1164 30.8332 15.0532 30.8332V30.8288C12.0805 30.8332 9.16953 29.9817 6.66699 28.3763C7.09925 28.4283 7.53367 28.4543 7.96918 28.4554C10.4327 28.4576 12.8258 27.631 14.764 26.1091C12.4228 26.0646 10.3699 24.5383 9.65271 22.31C10.4728 22.4682 11.3178 22.4357 12.1227 22.2158C9.57037 21.7002 7.73409 19.4578 7.73409 16.8536C7.73409 16.8298 7.73409 16.8071 7.73409 16.7843C8.4946 17.2079 9.34612 17.4429 10.2171 17.4689C7.81318 15.8624 7.07217 12.6647 8.52385 10.1645C11.3016 13.5822 15.3999 15.6599 19.7994 15.8798C19.3584 13.9797 19.9608 11.9887 21.3821 10.653C23.5857 8.58183 27.0513 8.68799 29.1227 10.8903C30.3479 10.6487 31.5223 10.1991 32.597 9.56218C32.1886 10.8285 31.3338 11.9042 30.1919 12.5877C31.2764 12.4599 32.3359 12.1696 33.3337 11.7265C32.5991 12.8271 31.674 13.7858 30.6036 14.5604Z" fill="#1D9BF0"/>
</svg>
