<svg width="20" height="21" viewBox="0 0 20 21" fill="none" xmlns="http://www.w3.org/2000/svg">
<path d="M7.75 9.375H3.625C3.52554 9.375 3.43016 9.33549 3.35984 9.26517C3.28951 9.19484 3.25 9.09946 3.25 9C3.25 8.90054 3.28951 8.80516 3.35984 8.73483C3.43016 8.66451 3.52554 8.625 3.625 8.625H7.75C7.84946 8.625 7.94484 8.66451 8.01517 8.73483C8.08549 8.80516 8.125 8.90054 8.125 9C8.125 9.09946 8.08549 9.19484 8.01517 9.26517C7.94484 9.33549 7.84946 9.375 7.75 9.375Z" fill="#12004C"/>
<path d="M3.625 6.75H13.375C13.4745 6.75 13.5698 6.78951 13.6402 6.85983C13.7105 6.93016 13.75 7.02554 13.75 7.125C13.75 7.22446 13.7105 7.31984 13.6402 7.39017C13.5698 7.46049 13.4745 7.5 13.375 7.5H3.625C3.52554 7.5 3.43016 7.46049 3.35984 7.39017C3.28951 7.31984 3.25 7.22446 3.25 7.125C3.25 7.02554 3.28951 6.93016 3.35984 6.85983C3.43016 6.78951 3.52554 6.75 3.625 6.75V6.75Z" fill="#12004C"/>
<path d="M3.625 4.875H13.375C13.4745 4.875 13.5698 4.91451 13.6402 4.98483C13.7105 5.05516 13.75 5.15054 13.75 5.25C13.75 5.34946 13.7105 5.44484 13.6402 5.51517C13.5698 5.58549 13.4745 5.625 13.375 5.625H3.625C3.52554 5.625 3.43016 5.58549 3.35984 5.51517C3.28951 5.44484 3.25 5.34946 3.25 5.25C3.25 5.15054 3.28951 5.05516 3.35984 4.98483C3.43016 4.91451 3.52554 4.875 3.625 4.875V4.875Z" fill="#12004C"/>
<path d="M3.625 3H13.375C13.4745 3 13.5698 3.03951 13.6402 3.10984C13.7105 3.18016 13.75 3.27554 13.75 3.375C13.75 3.47446 13.7105 3.56984 13.6402 3.64016C13.5698 3.71049 13.4745 3.75 13.375 3.75H3.625C3.52554 3.75 3.43016 3.71049 3.35984 3.64016C3.28951 3.56984 3.25 3.47446 3.25 3.375C3.25 3.27554 3.28951 3.18016 3.35984 3.10984C3.43016 3.03951 3.52554 3 3.625 3V3Z" fill="#12004C"/>
<path d="M18.94 9.00375L18.685 9.2625L18.415 8.9925L18.6512 8.75625C18.9644 8.44413 19.148 8.02513 19.1652 7.5833C19.1824 7.14148 19.0318 6.7095 18.7438 6.37402C18.4558 6.03854 18.0515 5.82438 17.6122 5.77448C17.1729 5.72459 16.7309 5.84266 16.375 6.105V1.125C16.3741 0.826905 16.2553 0.541274 16.0445 0.330488C15.8337 0.119703 15.5481 0.000890284 15.25 0H1.75C1.45191 0.000890284 1.16627 0.119703 0.955488 0.330488C0.744703 0.541274 0.62589 0.826905 0.625 1.125V19.125C0.62589 19.4231 0.744703 19.7087 0.955488 19.9195C1.16627 20.1303 1.45191 20.2491 1.75 20.25H15.25C15.5481 20.2491 15.8337 20.1303 16.0445 19.9195C16.2553 19.7087 16.3741 19.4231 16.375 19.125V12.6337L19.4725 9.53625C19.5431 9.46564 19.5828 9.36986 19.5828 9.27C19.5828 9.17014 19.5431 9.07436 19.4725 9.00375C19.4019 8.93314 19.3061 8.89347 19.2062 8.89347C19.1064 8.89347 19.0106 8.93314 18.94 9.00375V9.00375ZM15.625 12.3225L15.1863 12.7612C15.1225 12.8242 15.0836 12.9081 15.0767 12.9975C15.0698 13.0869 15.0953 13.1757 15.1487 13.2478C15.202 13.3198 15.2796 13.3702 15.3671 13.3896C15.4546 13.4091 15.5461 13.3964 15.625 13.3538V19.125C15.625 19.2245 15.5855 19.3198 15.5152 19.3902C15.4448 19.4605 15.3495 19.5 15.25 19.5H1.75C1.65054 19.5 1.55516 19.4605 1.48484 19.3902C1.41451 19.3198 1.375 19.2245 1.375 19.125V1.125C1.375 1.02554 1.41451 0.930161 1.48484 0.859835C1.55516 0.789509 1.65054 0.75 1.75 0.75H15.25C15.3495 0.75 15.4448 0.789509 15.5152 0.859835C15.5855 0.930161 15.625 1.02554 15.625 1.125V6.825C14.05 8.4 8.605 13.845 8.60125 13.8525C8.49513 13.9586 8.41825 14.013 8.39125 14.1562C8.38225 14.1938 7.88125 16.476 7.88125 16.515L7.5025 16.8937C7.43189 16.9644 7.39222 17.0601 7.39222 17.16C7.39222 17.2599 7.43189 17.3556 7.5025 17.4263C7.57311 17.4969 7.66889 17.5365 7.76875 17.5365C7.86861 17.5365 7.96439 17.4969 8.035 17.4263L8.4175 17.0438C8.47563 17.0438 10.7174 16.5506 10.7725 16.5375C10.9431 16.4974 10.9566 16.4546 11.08 16.3312L15.625 11.7825V12.3225ZM8.93125 14.7975L10.1312 15.9975C8.8915 16.2724 9.60175 16.1164 8.5975 16.3312C8.80488 15.3611 8.725 15.7279 8.93125 14.7975V14.7975ZM10.8362 15.5175L9.415 14.0963C9.53125 13.974 14.8225 8.68463 14.9425 8.565L16.3638 9.98625C16.1553 10.1936 11.0125 15.3319 10.8362 15.5175ZM16.375 11.5725V11.0325C17.635 9.7725 17.3054 10.1014 17.8862 9.525L18.1562 9.79125L16.375 11.5725ZM18.1188 8.2275C17.4903 8.856 17.7647 8.58075 16.8962 9.45375H16.8925L15.4788 8.03625C15.6966 7.81313 15.4847 8.02612 16.7012 6.81C16.8899 6.62515 17.1438 6.52221 17.4079 6.52355C17.672 6.52488 17.9249 6.63038 18.1116 6.81712C18.2984 7.00386 18.4039 7.25676 18.4052 7.52085C18.4065 7.78494 18.3036 8.03888 18.1188 8.2275V8.2275Z" fill="#12004C"/>
</svg>
