<svg xmlns="http://www.w3.org/2000/svg" width="16.141" height="21.521" viewBox="0 0 16.141 21.521">
  <path id="Icon_awesome-clipboard-list" data-name="Icon awesome-clipboard-list" d="M14.123,2.69H10.761a2.69,2.69,0,1,0-5.38,0H2.018A2.018,2.018,0,0,0,0,4.708V19.5a2.018,2.018,0,0,0,2.018,2.018H14.123A2.018,2.018,0,0,0,16.141,19.5V4.708A2.018,2.018,0,0,0,14.123,2.69ZM4.035,17.822a1.009,1.009,0,1,1,1.009-1.009A1.006,1.006,0,0,1,4.035,17.822Zm0-4.035a1.009,1.009,0,1,1,1.009-1.009A1.006,1.006,0,0,1,4.035,13.787Zm0-4.035A1.009,1.009,0,1,1,5.044,8.743,1.006,1.006,0,0,1,4.035,9.752ZM8.07,1.681A1.009,1.009,0,1,1,7.062,2.69,1.006,1.006,0,0,1,8.07,1.681Zm5.38,15.468a.337.337,0,0,1-.336.336H7.062a.337.337,0,0,1-.336-.336v-.673a.337.337,0,0,1,.336-.336h6.053a.337.337,0,0,1,.336.336Zm0-4.035a.337.337,0,0,1-.336.336H7.062a.337.337,0,0,1-.336-.336v-.673a.337.337,0,0,1,.336-.336h6.053a.337.337,0,0,1,.336.336Zm0-4.035a.337.337,0,0,1-.336.336H7.062a.337.337,0,0,1-.336-.336V8.407a.337.337,0,0,1,.336-.336h6.053a.337.337,0,0,1,.336.336Z" fill="#11014d"/>
</svg>
