<svg width="40" height="40" viewBox="0 0 40 40" fill="none" xmlns="http://www.w3.org/2000/svg">
<rect width="40" height="40" rx="20" fill="#FAFAFA"/>
<path fill-rule="evenodd" clip-rule="evenodd" d="M24.0149 17.4218C25.2416 18.2938 26.7106 18.7597 28.2156 18.754V15.7714C27.9197 15.7722 27.6246 15.7405 27.3357 15.6769V18.0531C25.8273 18.0558 24.3562 17.5845 23.1301 16.7059V22.8403C23.1264 23.8469 22.8503 24.8338 22.3312 25.6962C21.8121 26.5586 21.0693 27.2645 20.1815 27.739C19.2937 28.2134 18.2941 28.4388 17.2886 28.3912C16.2831 28.3436 15.3093 28.0247 14.4703 27.4685C15.2463 28.2537 16.2379 28.7909 17.3194 29.0121C18.401 29.2334 19.5238 29.1287 20.5459 28.7114C21.5679 28.2941 22.4431 27.5829 23.0606 26.6678C23.6782 25.7528 24.0103 24.675 24.0149 23.5711V17.4218ZM25.1036 14.3794C24.4798 13.7033 24.0971 12.8399 24.0149 11.9237V11.5359H23.1798C23.283 12.1183 23.5077 12.6725 23.8391 13.1624C24.1706 13.6523 24.6014 14.067 25.1036 14.3794ZM16.4041 25.1072C16.1146 24.7287 15.9372 24.2765 15.8921 23.8021C15.847 23.3277 15.9359 22.8502 16.1488 22.4239C16.3617 21.9976 16.69 21.6396 17.0964 21.3907C17.5027 21.1418 17.9707 21.0119 18.4472 21.0159C18.7103 21.0158 18.9719 21.0561 19.2227 21.1352V18.0531C18.9295 18.0143 18.6337 17.9977 18.3379 18.0034V20.3995C17.727 20.2064 17.0658 20.2503 16.4858 20.5225C15.9058 20.7947 15.4495 21.2752 15.2077 21.8685C14.9658 22.4618 14.9562 23.1244 15.1806 23.7245C15.4051 24.3246 15.8472 24.8182 16.419 25.1072H16.4041Z" fill="#11014D"/>
<path fill-rule="evenodd" clip-rule="evenodd" d="M23.1296 16.686C24.3557 17.5647 25.8268 18.0359 27.3352 18.0332V15.657C26.4758 15.4753 25.6956 15.0284 25.1036 14.3794C24.6014 14.067 24.1706 13.6523 23.8391 13.1624C23.5077 12.6725 23.283 12.1183 23.1798 11.5359H20.9821V23.5711C20.9801 24.1038 20.8112 24.6225 20.4993 25.0544C20.1874 25.4863 19.7481 25.8096 19.2431 25.9791C18.738 26.1485 18.1926 26.1555 17.6833 25.9992C17.1741 25.8428 16.727 25.5309 16.4041 25.1072C15.8923 24.849 15.4821 24.4259 15.2403 23.9061C14.9985 23.3864 14.9388 22.8004 15.0709 22.2426C15.203 21.6848 15.5192 21.1878 15.9685 20.8318C16.4177 20.4757 16.9738 20.2814 17.547 20.2802C17.81 20.281 18.0714 20.3212 18.3225 20.3995V18.0034C17.2376 18.0294 16.1839 18.3717 15.2908 18.9881C14.3976 19.6046 13.7039 20.4684 13.2948 21.4736C12.8857 22.4787 12.7789 23.5814 12.9877 24.6464C13.1964 25.7113 13.712 26.6922 14.4703 27.4685C15.3094 28.0287 16.2844 28.3509 17.2921 28.4006C18.2999 28.4503 19.3022 28.2257 20.1924 27.7508C21.0826 27.2758 21.8273 26.5683 22.3472 25.7036C22.8671 24.8389 23.1426 23.8493 23.1446 22.8403L23.1296 16.686Z" fill="#11014D"/>
<path fill-rule="evenodd" clip-rule="evenodd" d="M27.3352 15.657L27.3355 15.0155C26.5463 15.0189 25.7724 14.7984 25.1036 14.3794C25.6941 15.0303 26.475 15.4775 27.3352 15.657ZM23.1798 11.5359C23.1798 11.4216 23.1448 11.3021 23.1299 11.1877V10.8H20.0975V22.8401C20.0949 23.5143 19.8249 24.1599 19.3468 24.6352C18.8687 25.1105 18.2215 25.3767 17.5473 25.3754C17.1503 25.3774 16.7587 25.2856 16.4041 25.1072C16.727 25.5309 17.1741 25.8428 17.6833 25.9992C18.1926 26.1555 18.738 26.1485 19.2431 25.9791C19.7481 25.8096 20.1874 25.4863 20.4993 25.0544C20.8112 24.6225 20.9801 24.1038 20.9821 23.5711V11.5359H23.1798ZM18.3228 17.9982V17.3172C17.075 17.1477 15.8066 17.4058 14.7242 18.0495C13.6419 18.6931 12.8095 19.6844 12.3626 20.8618C11.9158 22.0391 11.8809 23.3331 12.2636 24.5328C12.6463 25.7325 13.4242 26.7674 14.4703 27.4685C13.7177 26.6904 13.2079 25.7097 13.0034 24.6467C12.7989 23.5837 12.9085 22.4841 13.3187 21.4824C13.7289 20.4806 14.422 19.62 15.3133 19.0056C16.2046 18.3913 17.2555 18.0499 18.3377 18.0231L18.3228 17.9982Z" fill="#11014D"/>
</svg>
