<svg width="40" height="40" viewBox="0 0 40 40" fill="none" xmlns="http://www.w3.org/2000/svg">
<rect width="40" height="40" rx="20" fill="#FAFAFA"/>
<path fill-rule="evenodd" clip-rule="evenodd" d="M24.0149 17.4216C25.2416 18.2936 26.7106 18.7595 28.2156 18.7539V15.7712C27.9197 15.772 27.6246 15.7403 27.3357 15.6767V18.0529C25.8273 18.0556 24.3562 17.5844 23.1301 16.7057V22.8402C23.1264 23.8468 22.8503 24.8336 22.3312 25.696C21.8121 26.5585 21.0693 27.2643 20.1815 27.7388C19.2937 28.2132 18.2941 28.4386 17.2886 28.391C16.2831 28.3434 15.3093 28.0245 14.4703 27.4683C15.2463 28.2535 16.2379 28.7907 17.3194 29.012C18.401 29.2332 19.5238 29.1286 20.5459 28.7112C21.5679 28.2939 22.4431 27.5827 23.0606 26.6676C23.6782 25.7526 24.0103 24.6749 24.0149 23.5709V17.4216ZM25.1036 14.3792C24.4798 13.7031 24.0971 12.8397 24.0149 11.9235V11.5357H23.1798C23.283 12.1182 23.5077 12.6723 23.8391 13.1622C24.1706 13.6521 24.6014 14.0668 25.1036 14.3792ZM16.4041 25.107C16.1146 24.7285 15.9372 24.2763 15.8921 23.8019C15.847 23.3276 15.9359 22.85 16.1488 22.4237C16.3617 21.9974 16.69 21.6394 17.0964 21.3905C17.5027 21.1416 17.9707 21.0117 18.4472 21.0157C18.7103 21.0157 18.9719 21.0559 19.2227 21.135V18.0529C18.9295 18.0141 18.6337 17.9975 18.3379 18.0032V20.3993C17.727 20.2062 17.0658 20.2501 16.4858 20.5223C15.9058 20.7945 15.4495 21.2751 15.2077 21.8683C14.9658 22.4616 14.9562 23.1242 15.1806 23.7243C15.4051 24.3244 15.8472 24.818 16.419 25.107H16.4041Z" fill="#EE1D52"/>
<path fill-rule="evenodd" clip-rule="evenodd" d="M23.1296 16.6859C24.3557 17.5645 25.8268 18.0357 27.3352 18.033V15.6568C26.4758 15.4751 25.6951 15.0283 25.1032 14.3792C24.601 14.0668 24.1701 13.6521 23.8387 13.1622C23.5072 12.6723 23.2826 12.1182 23.1794 11.5357H20.9821V23.5709C20.9801 24.1036 20.8112 24.6223 20.4993 25.0542C20.1874 25.4861 19.7481 25.8094 19.2431 25.9789C18.738 26.1483 18.1926 26.1554 17.6833 25.999C17.1741 25.8426 16.7266 25.5307 16.4037 25.107C15.8919 24.8488 15.4821 24.4257 15.2403 23.906C14.9985 23.3862 14.9388 22.8002 15.0709 22.2424C15.203 21.6846 15.5192 21.1876 15.9685 20.8316C16.4177 20.4755 16.9738 20.2812 17.547 20.28C17.81 20.2808 18.0714 20.3211 18.3225 20.3993V18.0032C17.2376 18.0293 16.1839 18.3715 15.2908 18.988C14.3976 19.6044 13.7039 20.4682 13.2948 21.4734C12.8857 22.4785 12.7789 23.5812 12.9877 24.6462C13.1964 25.7112 13.7116 26.692 14.4699 27.4683C15.309 28.0285 16.2844 28.3507 17.2921 28.4004C18.2999 28.4501 19.3022 28.2255 20.1924 27.7506C21.0826 27.2756 21.8273 26.5681 22.3472 25.7034C22.8671 24.8387 23.1426 23.8491 23.1446 22.8402L23.1296 16.6859Z" fill="black"/>
<path fill-rule="evenodd" clip-rule="evenodd" d="M27.3352 15.6568L27.3355 15.0153C26.5463 15.0187 25.7724 14.7983 25.1036 14.3792C25.6941 15.0301 26.475 15.4774 27.3352 15.6568ZM23.1798 11.5357C23.1798 11.4214 23.1448 11.3019 23.1299 11.1876V10.7998H20.0975V22.8399C20.0949 23.5141 19.8249 24.1597 19.3468 24.635C18.8687 25.1104 18.2215 25.3766 17.5473 25.3752C17.1503 25.3772 16.7587 25.2855 16.4041 25.107C16.727 25.5307 17.1741 25.8426 17.6833 25.999C18.1926 26.1554 18.738 26.1483 19.2431 25.9789C19.7481 25.8094 20.1874 25.4861 20.4993 25.0542C20.8112 24.6223 20.9801 24.1036 20.9821 23.5709V11.5357H23.1798ZM18.3228 17.998V17.317C17.075 17.1475 15.8066 17.4056 14.7242 18.0493C13.6419 18.693 12.8095 19.6842 12.3626 20.8616C11.9158 22.0389 11.8809 23.3329 12.2636 24.5326C12.6463 25.7323 13.4242 26.7672 14.4703 27.4683C13.7177 26.6902 13.2079 25.7095 13.0034 24.6465C12.7989 23.5835 12.9085 22.4839 13.3187 21.4822C13.7289 20.4804 14.422 19.6198 15.3133 19.0055C16.2046 18.3911 17.2555 18.0497 18.3377 18.0229L18.3228 17.998Z" fill="#69C9D0"/>
</svg>
