<svg width="19" height="18" viewBox="0 0 19 18" fill="none" xmlns="http://www.w3.org/2000/svg">
<path d="M16.779 7.313H12.4752C12.4012 7.313 12.3407 7.37339 12.3407 7.44721V8.25251C12.3407 8.32633 12.4012 8.38673 12.4752 8.38673H16.779C16.8529 8.38673 16.9134 8.32633 16.9134 8.25251V7.44721C16.9134 7.37339 16.8529 7.313 16.779 7.313ZM14.5262 9.59468H12.4752C12.4012 9.59468 12.3407 9.65508 12.3407 9.7289V10.5342C12.3407 10.608 12.4012 10.6684 12.4752 10.6684H14.5262C14.6002 10.6684 14.6607 10.608 14.6607 10.5342V9.7289C14.6607 9.65508 14.6002 9.59468 14.5262 9.59468ZM8.91623 5.81145H8.18829C8.08406 5.81145 8 5.89533 8 5.99935V10.1601C8 10.2205 8.02858 10.2758 8.07733 10.3111L10.5806 12.1331C10.6646 12.1935 10.7823 12.1767 10.8428 12.0928L11.2749 11.5039V11.5022C11.3354 11.4184 11.3169 11.3009 11.2328 11.2405L9.10283 9.70373V5.99935C9.10451 5.89533 9.01878 5.81145 8.91623 5.81145Z" fill="#039AEE"/>
<path d="M14.421 11.7069H13.4493C13.3552 11.7069 13.2661 11.7555 13.2156 11.8361C13.0021 12.1733 12.7533 12.4854 12.4675 12.7706C11.9749 13.2621 11.4017 13.648 10.7645 13.9164C10.1038 14.1949 9.40279 14.3359 8.6799 14.3359C7.95532 14.3359 7.25428 14.1949 6.59528 13.9164C5.95812 13.648 5.38485 13.2621 4.89228 12.7706C4.3997 12.279 4.01304 11.7069 3.74405 11.071C3.46498 10.4134 3.32377 9.71378 3.32377 8.99069C3.32377 8.2676 3.46498 7.56967 3.74405 6.91033C4.01304 6.27448 4.3997 5.70238 4.89228 5.21082C5.38485 4.71925 5.95812 4.33338 6.59528 4.06494C7.25428 3.78644 7.957 3.64552 8.6799 3.64552C9.40447 3.64552 10.1055 3.78644 10.7645 4.06494C11.4017 4.33338 11.9749 4.71925 12.4675 5.21082C12.7533 5.49603 13.0021 5.80808 13.2156 6.1453C13.2661 6.22583 13.3552 6.27448 13.4493 6.27448H14.421C14.537 6.27448 14.611 6.15369 14.5589 6.05135C13.4628 3.87536 11.2403 2.46105 8.75891 2.43253C5.12595 2.38724 2.1083 5.3551 2.10157 8.97727C2.09485 12.6061 5.0419 15.5505 8.67822 15.5505C11.1915 15.5505 13.451 14.1312 14.5589 11.93C14.611 11.8277 14.5353 11.7069 14.421 11.7069Z" fill="#039AEE"/>
</svg>
