<svg width="16" height="23" viewBox="0 0 16 23" fill="none" xmlns="http://www.w3.org/2000/svg">
<path d="M8.06257 9.76836C9.41875 9.76836 10.776 9.73147 12.1331 9.7773C12.9973 9.81647 13.8253 10.1368 14.4921 10.6898C15.1589 11.2429 15.6283 11.9986 15.8294 12.843C15.8975 13.3746 15.8869 13.9135 15.7976 14.442C15.6527 15.6724 15.4908 16.9019 15.2873 18.1284C15.123 19.4036 14.5234 20.5824 13.5906 21.464C12.9583 22.0543 12.125 22.3797 11.2614 22.3736C9.11692 22.3736 6.97343 22.3865 4.82895 22.3736C4.0563 22.365 3.30427 22.1226 2.67104 21.6782C2.03782 21.2339 1.55292 20.6081 1.27968 19.8828C0.911051 19.0374 0.68491 18.1365 0.610516 17.2167C0.47814 16.1726 0.339163 15.1291 0.19355 14.0863C0.080413 13.3467 0.201637 12.59 0.540102 11.9232C0.878568 11.2564 1.41714 10.7132 2.07986 10.3701C2.784 9.93707 3.59955 9.72157 4.42489 9.75042C5.6391 9.76637 6.85332 9.75042 8.06754 9.75042L8.06257 9.76836Z" fill="#6F6F6F"/>
<path d="M8.00379 0.0185055C9.10538 0.00627053 10.1668 0.433059 10.9553 1.20521C11.7437 1.97735 12.1947 3.0318 12.2094 4.13723C12.2181 4.69293 12.1164 5.24478 11.9102 5.76061C11.7041 6.27643 11.3976 6.7459 11.0087 7.14157C10.6197 7.53723 10.1562 7.85116 9.64504 8.06508C9.1339 8.279 8.58541 8.38859 8.0316 8.38746C7.48044 8.3893 6.93437 8.28179 6.42476 8.0711C5.91515 7.86041 5.4521 7.55072 5.06218 7.15981C4.67227 6.76889 4.36318 6.30446 4.15275 5.79326C3.94231 5.28206 3.83464 4.73418 3.83595 4.18108C3.84172 3.07543 4.2833 2.01702 5.06424 1.23707C5.84518 0.457118 6.902 0.0190168 8.00379 0.0185055Z" fill="#6F6F6F"/>
</svg>
