<svg width="16" height="20" viewBox="0 0 16 20" fill="none" xmlns="http://www.w3.org/2000/svg">
<path d="M0 19.9847C0.0250654 17.9813 0.878955 16.0681 2.37652 14.6599C3.87409 13.2517 5.89462 12.4619 8 12.4619C10.1054 12.4619 12.1259 13.2517 13.6235 14.6599C15.121 16.0681 15.9749 17.9813 16 19.9847C16 19.9847 0.082784 20.0192 0 19.9847ZM8.00057 11.4195C6.81385 11.4195 5.65378 11.0846 4.66707 10.4572C3.68035 9.82983 2.9113 8.93809 2.45716 7.89477C2.00302 6.85145 1.8842 5.70341 2.11572 4.59583C2.34723 3.48825 2.91869 2.47087 3.75783 1.67235C4.59696 0.873826 5.66608 0.330026 6.83 0.109714C7.99391 -0.110598 9.20034 0.00247389 10.2967 0.434631C11.3931 0.866788 12.3302 1.59862 12.9895 2.53758C13.6488 3.47655 14.0007 4.58047 14.0007 5.70975C14.0009 6.4596 13.8458 7.20214 13.5443 7.89494C13.2428 8.58774 12.8008 9.21724 12.2436 9.74746C11.6864 10.2777 11.0249 10.6983 10.2969 10.9852C9.56886 11.272 8.78856 11.4196 8.00057 11.4195Z" fill="#11014D"/>
</svg>
