<svg width="21" height="18" viewBox="0 0 21 18" fill="none" xmlns="http://www.w3.org/2000/svg">
<path d="M18.8712 0.694592H2.43014C2.1605 0.693793 1.89338 0.746666 1.64424 0.850149C1.39509 0.953633 1.16887 1.10567 0.978671 1.29747C0.788468 1.48927 0.638058 1.71702 0.536145 1.96753C0.434231 2.21805 0.382838 2.48636 0.38494 2.75694L0.375012 15.1311C0.374094 15.4021 0.426624 15.6707 0.529579 15.9214C0.632534 16.172 0.783878 16.3997 0.974897 16.5914C1.16592 16.7831 1.39284 16.935 1.64259 17.0383C1.89235 17.1416 2.16 17.1943 2.43014 17.1934H18.8712C19.1413 17.1943 19.409 17.1416 19.6587 17.0383C19.9085 16.935 20.1354 16.7831 20.3264 16.5914C20.5174 16.3997 20.6688 16.172 20.7717 15.9214C20.8747 15.6707 20.9272 15.4021 20.9263 15.1311V2.75694C20.9272 2.48585 20.8747 2.21726 20.7717 1.96663C20.6688 1.716 20.5174 1.48828 20.3264 1.29659C20.1354 1.1049 19.9085 0.953019 19.6587 0.849703C19.409 0.746386 19.1413 0.693671 18.8712 0.694592ZM18.8712 15.1311H2.43014V8.944H18.8712V15.1311ZM18.8712 4.8193H2.43014V2.75694H18.8712V4.8193Z" fill="#707070"/>
</svg>
