<svg width="117" height="35" viewBox="0 0 117 35" fill="none" xmlns="http://www.w3.org/2000/svg">
<path d="M109.159 0.499603H101.829C99.6125 0.499603 97.9078 1.16627 96.885 3.33294L82.9062 34.4996H92.7936C92.7936 34.4996 94.4983 30.3329 94.8393 29.3329C95.8621 29.3329 105.579 29.3329 106.943 29.3329C107.284 30.4996 108.136 34.3329 108.136 34.3329H117.001L109.159 0.499603ZM97.5668 22.3329C98.4192 20.3329 101.317 12.8329 101.317 12.8329C101.317 12.9996 102.17 10.8329 102.511 9.66627L103.192 12.6663C103.192 12.6663 105.068 20.8329 105.409 22.4996H97.5668V22.3329Z" fill="#3362AB"/>
<path d="M83.5894 23.3333C83.5894 30.3333 77.1115 35 67.0536 35C62.7918 35 58.7005 34.1667 56.4844 33.1667L57.8482 25.5L59.0415 26C62.11 27.3333 64.1556 27.8333 67.906 27.8333C70.6335 27.8333 73.5316 26.8333 73.5316 24.5C73.5316 23 72.3383 22 68.5879 20.3333C65.008 18.6667 60.2348 16 60.2348 11.1667C60.2348 4.5 66.8832 0 76.2591 0C79.839 0 82.9075 0.666667 84.7827 1.5L83.419 8.83333L82.7371 8.16667C81.0323 7.5 78.8162 6.83333 75.5772 6.83333C71.9973 7 70.2926 8.5 70.2926 9.83333C70.2926 11.3333 72.3383 12.5 75.5772 14C81.0323 16.5 83.5894 19.3333 83.5894 23.3333Z" fill="#3362AB"/>
<path d="M0.398438 0.833567L0.56891 0.166901H15.2295C17.2752 0.166901 18.8094 0.833567 19.3208 3.00023L22.5598 18.0002C19.3208 10.0002 11.8201 3.50023 0.398438 0.833567Z" fill="#F9B50B"/>
<path d="M43.186 0.500712L28.3549 34.3341H18.297L9.77344 6.00071C15.9104 9.83405 21.0246 15.834 22.8998 20.0007L23.9226 23.5007L33.1281 0.334045H43.186V0.500712Z" fill="#3362AB"/>
<path d="M47.1071 0.334045H56.4831L50.5166 34.3341H41.1406L47.1071 0.334045Z" fill="#3362AB"/>
</svg>
