<svg width="15" height="20" viewBox="0 0 15 20" fill="none" xmlns="http://www.w3.org/2000/svg">
<path d="M7.68127 12.0943C8.07617 12.0943 8.46717 12.0164 8.83187 11.8649C9.19657 11.7135 9.52777 11.4915 9.80649 11.2118C10.0852 10.932 10.306 10.6 10.4561 10.2348C10.6062 9.86951 10.6827 9.47822 10.6813 9.08333L10.6913 3.06033C10.6913 2.26163 10.374 1.49564 9.80923 0.930876C9.24446 0.36611 8.47847 0.0488281 7.67977 0.0488281C6.88107 0.0488281 6.11509 0.36611 5.55032 0.930876C4.98556 1.49564 4.66827 2.26163 4.66827 3.06033V9.08333C4.66775 9.47906 4.74534 9.87099 4.89659 10.2367C5.04785 10.6024 5.26979 10.9346 5.54971 11.2143C5.82962 11.494 6.162 11.7158 6.52778 11.8668C6.89356 12.0178 7.28555 12.0951 7.68127 12.0943ZM13.0013 9.08333C12.9897 9.76926 12.8427 10.4461 12.5688 11.0751C12.2949 11.7041 11.8994 12.2727 11.405 12.7484C10.9107 13.224 10.3273 13.5973 9.68822 13.8469C9.04918 14.0964 8.36714 14.2172 7.68127 14.2023C6.99541 14.2172 6.31337 14.0964 5.67433 13.8469C5.03529 13.5973 4.45184 13.224 3.9575 12.7484C3.46316 12.2727 3.06766 11.7041 2.79373 11.0751C2.5198 10.4461 2.37284 9.76926 2.36127 9.08333H0.655273C0.699461 10.7383 1.32879 12.324 2.43148 13.5589C3.53417 14.7938 5.03885 15.5978 6.67827 15.8283V19.1203H8.68527V15.8283C10.3252 15.599 11.8306 14.7953 12.9335 13.5601C14.0364 12.325 14.6653 10.7386 14.7083 9.08333H13.0013Z" fill="white"/>
</svg>
