<svg width="19" height="26" viewBox="0 0 19 26" fill="none" xmlns="http://www.w3.org/2000/svg">
<path d="M13.8298 9.10448C13.6571 9.2186 13.6127 9.44655 13.7306 9.61369C14.412 10.5799 14.7721 11.7096 14.7721 12.8807C14.7721 16.0842 12.0801 18.6904 8.77112 18.6904C5.46215 18.6904 2.77009 16.0842 2.77009 12.8807C2.77009 9.67734 5.46215 7.07115 8.77112 7.07115C10.2248 7.07115 11.6285 7.58329 12.7235 8.51329C12.8807 8.64671 13.1198 8.63161 13.2576 8.47953C13.3954 8.32739 13.3798 8.09587 13.2227 7.96245C11.9896 6.91511 10.4086 6.33838 8.77117 6.33838C5.04481 6.33838 2.01318 9.27327 2.01318 12.8808C2.01318 16.4883 5.04481 19.4232 8.77117 19.4232C12.4975 19.4232 15.5292 16.4883 15.5292 12.8807C15.5292 11.5616 15.1234 10.289 14.3558 9.20052C14.238 9.03339 14.0025 8.9904 13.8298 9.10448Z" fill="#A6A6A6" stroke="#A6A6A6" stroke-width="0.5"/>
<path d="M13.0306 10.7907C12.9361 10.6101 12.7083 10.538 12.5219 10.6295L9.78616 11.972C9.53324 11.7075 9.17187 11.5415 8.77103 11.5415C8.46895 11.5415 8.18938 11.636 7.96164 11.7956L6.48703 10.6687C6.32292 10.5433 6.08498 10.5704 5.95544 10.7292C5.82595 10.8881 5.85391 11.1185 6.01802 11.2439L7.49212 12.3704C7.4248 12.5278 7.38746 12.7002 7.38746 12.8809C7.38746 13.6195 8.00812 14.2204 8.77103 14.2204C9.53395 14.2204 10.1546 13.6195 10.1546 12.8809C10.1546 12.7935 10.1456 12.7081 10.129 12.6253L12.8641 11.2831C13.0506 11.1916 13.1251 10.9711 13.0306 10.7907ZM8.77108 13.4876C8.42555 13.4876 8.14447 13.2155 8.14447 12.881C8.14447 12.5465 8.42555 12.2743 8.77108 12.2743C9.11661 12.2743 9.39769 12.5465 9.39769 12.881C9.39774 13.2155 9.11661 13.4876 8.77108 13.4876Z" fill="#A6A6A6" stroke="#A6A6A6" stroke-width="0.5"/>
<path d="M17.5293 11.4685H16.9149C16.6246 9.89501 15.8578 8.47931 14.7649 7.36655V5.37484C14.7649 4.76025 14.2484 4.26027 13.6136 4.26027H13.0722V3.6004C13.0722 3.39799 12.9028 3.23399 12.6938 3.23399C12.4847 3.23399 12.3153 3.39799 12.3153 3.6004V5.6456C11.2406 5.15031 10.0392 4.87262 8.77186 4.87262C7.50455 4.87262 6.30306 5.15031 5.22843 5.6456V1.58715C5.22843 1.25391 5.50845 0.982818 5.85272 0.982818H11.691C12.0353 0.982818 12.3153 1.25391 12.3153 1.58715V2.03886C12.3153 2.24126 12.4848 2.40527 12.6938 2.40527C12.9028 2.40527 13.0723 2.24126 13.0723 2.03886V1.58715C13.0722 0.849836 12.4526 0.25 11.691 0.25H5.85266C5.09106 0.25 4.47142 0.849836 4.47142 1.58715V4.26023H3.93019C3.29535 4.26023 2.7789 4.7602 2.7789 5.37479V7.3665C1.36748 8.8035 0.5 10.7458 0.5 12.8806C0.5 15.0154 1.36743 16.9577 2.7789 18.3948V20.3866C2.7789 21.0011 3.29535 21.5011 3.93019 21.5011H4.47152V21.9971C4.47152 22.1995 4.64097 22.3635 4.85 22.3635C5.05902 22.3635 5.22848 22.1995 5.22848 21.9971V20.1157C6.30316 20.611 7.5046 20.8887 8.77191 20.8887C10.0392 20.8887 11.2407 20.611 12.3153 20.1157V23.7436C12.3153 24.1701 11.9569 24.5172 11.5163 24.5172H6.02742C5.58687 24.5172 5.22843 24.1701 5.22843 23.7436V23.5586C5.22843 23.3562 5.05897 23.1921 4.84995 23.1921C4.64092 23.1921 4.47147 23.3562 4.47147 23.5586V23.7436C4.47147 24.5742 5.16948 25.25 6.02742 25.25H11.5163C12.3742 25.25 13.0722 24.5742 13.0722 23.7436V21.5011H13.6135C14.2484 21.5011 14.7648 21.0011 14.7648 20.3866V18.3948C15.9179 17.2208 16.7074 15.7094 16.9579 14.0315H17.5293C18.0645 14.0315 18.5 13.61 18.5 13.0918V12.4082C18.5001 11.8901 18.0646 11.4685 17.5293 11.4685ZM13.0722 4.99304H13.6135C13.831 4.99304 14.0078 5.16433 14.0078 5.37479V6.6859C13.7123 6.4513 13.3998 6.23605 13.0722 6.04229V4.99304H13.0722ZM3.93019 4.99304H4.47147V6.04234C4.14395 6.2361 3.83143 6.45135 3.53581 6.68595V5.37484C3.53581 5.16433 3.71274 4.99304 3.93019 4.99304ZM4.47147 20.7683H3.93014C3.71269 20.7683 3.53581 20.5971 3.53581 20.3866V19.0755C3.83138 19.3101 4.1439 19.5253 4.47147 19.7191V20.7683ZM13.6135 20.7683H13.0722V19.719C13.3998 19.5253 13.7123 19.31 14.0079 19.0754V20.3866C14.0079 20.5971 13.831 20.7683 13.6135 20.7683ZM8.77186 20.1559C4.62811 20.1559 1.25691 16.8923 1.25691 12.8807C1.25691 8.86912 4.62811 5.60544 8.77186 5.60544C12.9156 5.60544 16.2868 8.86912 16.2868 12.8807C16.2868 16.8923 12.9156 20.1559 8.77186 20.1559ZM17.7431 13.0918C17.7431 13.2059 17.6472 13.2987 17.5293 13.2987H17.0326C17.0399 13.1603 17.0438 13.0209 17.0438 12.8806C17.0438 12.6518 17.0332 12.4253 17.0137 12.2013H17.5293C17.6472 12.2013 17.7431 12.2941 17.7431 12.4082V13.0918Z" fill="#A6A6A6" stroke="#A6A6A6" stroke-width="0.5"/>
</svg>
