<svg width="25" height="25" viewBox="0 0 25 25" fill="none" xmlns="http://www.w3.org/2000/svg">
<path d="M17.5488 14.8821C17.2488 14.7321 15.7818 14.0151 15.5088 13.9161C15.2358 13.8171 15.0358 13.7661 14.8358 14.0661C14.6358 14.3661 14.0648 15.0301 13.8918 15.2281C13.7188 15.4261 13.5428 15.4381 13.2458 15.3031C12.3652 14.9521 11.553 14.4495 10.8458 13.8181C10.194 13.2132 9.63473 12.5157 9.18583 11.7481C9.01183 11.4481 9.16683 11.2831 9.31583 11.1331C9.46483 10.9831 9.61583 10.7881 9.76683 10.6101C9.88573 10.4555 9.98639 10.2878 10.0668 10.1101C10.1066 10.0276 10.1252 9.93644 10.1208 9.84493C10.1165 9.75342 10.0893 9.66445 10.0418 9.5861C9.96683 9.4361 9.36983 7.9661 9.11983 7.3801C8.86983 6.7941 8.63283 6.8701 8.44783 6.8701C8.26283 6.8701 8.07683 6.8551 7.87683 6.8551C7.72626 6.85845 7.57789 6.89195 7.44048 6.95361C7.30308 7.01527 7.17942 7.10385 7.07683 7.2141C6.73933 7.5318 6.47168 7.91629 6.29091 8.34309C6.11013 8.76989 6.0202 9.22965 6.02683 9.6931C6.12981 10.8143 6.55411 11.882 7.24883 12.7681C8.53322 14.6782 10.2902 16.2234 12.3488 17.2531C13.0628 17.5531 13.6188 17.7331 14.0488 17.8821C14.6578 18.0665 15.3012 18.1079 15.9288 18.0031C16.3458 17.918 16.7407 17.7474 17.0884 17.5019C17.4361 17.2565 17.7291 16.9416 17.9488 16.5771C18.1484 16.1303 18.211 15.6345 18.1288 15.1521C18.0548 15.0171 17.8588 14.9421 17.5588 14.8071M12.1098 22.2501H12.0938C10.3161 22.2476 8.57121 21.7712 7.03883 20.8701L6.67883 20.6561L2.92883 21.6311L3.92883 17.9861L3.68983 17.6111C2.40237 15.5423 1.92154 13.072 2.33907 10.6713C2.75659 8.2707 4.04324 6.10776 5.95358 4.59514C7.86392 3.08252 10.2642 2.32608 12.6967 2.47012C15.1291 2.61416 17.4234 3.6486 19.1418 5.3761C20.0662 6.28985 20.7994 7.37855 21.2985 8.57868C21.7976 9.77881 22.0527 11.0663 22.0488 12.3661C22.0369 14.9928 20.9848 17.5077 19.1228 19.3604C17.2607 21.213 14.7405 22.2525 12.1138 22.2511M20.5668 3.9511C18.3005 1.74002 15.2601 0.501688 12.0938 0.500104C10.0022 0.491352 7.94526 1.03452 6.13064 2.0748C4.31602 3.11507 2.80794 4.61563 1.7586 6.42502C0.709255 8.23441 0.155796 10.2886 0.154081 12.3803C0.152366 14.4719 0.702456 16.527 1.74883 18.3381L0.0488281 24.5001L6.38383 22.8481C8.13833 23.7949 10.1002 24.2921 12.0938 24.2951H12.0998C15.2603 24.2975 18.2928 23.0468 20.5326 20.8171C22.7725 18.5873 24.0369 15.5605 24.0488 12.4001C24.0523 10.8361 23.7446 9.28701 23.1437 7.84302C22.5429 6.39903 21.6608 5.08898 20.5488 3.9891" fill="white"/>
</svg>
