<svg xmlns="http://www.w3.org/2000/svg" width="20" height="20" viewBox="0 0 20 20">
  <path id="Subtraction_17" data-name="Subtraction 17" d="M944,27a10,10,0,1,1,10-10A10.011,10.011,0,0,1,944,27Zm.4-6.591a1.137,1.137,0,0,0-.884.264,1.437,1.437,0,0,0-.221.909,1.4,1.4,0,0,0,.221.9,1.661,1.661,0,0,0,1.768,0,1.4,1.4,0,0,0,.221-.9,1.4,1.4,0,0,0-.229-.909A1.143,1.143,0,0,0,944.4,20.409Zm-.646-8.738c-.271,0-.408.1-.408.306l.509,7.327h1.071l.51-7.327c0-.2-.143-.306-.425-.306Z" transform="translate(-934 -7)" fill="#11014d"/>
</svg>
