<svg width="24" height="24" viewBox="0 0 24 24" fill="none" xmlns="http://www.w3.org/2000/svg">
<path d="M13.6044 16.9089C13.359 16.9318 13.1127 16.8765 12.9007 16.7507C12.7458 16.5917 12.6716 16.371 12.6989 16.1507C12.7046 15.9674 12.7265 15.7848 12.7644 15.6053C12.801 15.3993 12.8483 15.1954 12.9062 14.9944L13.5498 12.7798C13.6162 12.5612 13.66 12.3364 13.6807 12.1089C13.6807 11.8635 13.7134 11.6943 13.7134 11.5962C13.7271 11.1587 13.5403 10.7389 13.2062 10.4562C12.7951 10.1406 12.2832 9.98551 11.7662 10.0198C11.3956 10.0254 11.0279 10.0861 10.6752 10.1998C10.2898 10.3198 9.88431 10.4634 9.45888 10.6307L9.27344 11.3507C9.39888 11.3071 9.55164 11.258 9.72616 11.2035C9.89266 11.1541 10.0653 11.1284 10.2389 11.1271C10.4824 11.1007 10.7276 11.1605 10.9316 11.2962C11.0702 11.4615 11.1352 11.6763 11.1116 11.8907C11.111 12.0742 11.0909 12.257 11.0516 12.4362C11.0134 12.6271 10.9643 12.8289 10.9043 13.0416L10.2552 15.2671C10.2029 15.4739 10.1611 15.6833 10.1298 15.8943C10.1043 16.075 10.0915 16.2573 10.0916 16.4398C10.0889 16.8803 10.2903 17.2972 10.637 17.5689C11.0544 17.8893 11.5736 18.0482 12.0988 18.0161C12.4687 18.0237 12.8373 17.9703 13.1898 17.8579C13.4988 17.7525 13.9116 17.6016 14.428 17.4052L14.6025 16.7179C14.4626 16.776 14.3186 16.8234 14.1716 16.8597C13.9857 16.9022 13.7948 16.9187 13.6044 16.9089Z" fill="#12004C"/>
<path d="M14.2855 6.40909C13.9887 6.13647 13.5976 5.98979 13.1946 6.00001C12.7919 5.99092 12.4012 6.13745 12.1037 6.40909C11.5585 6.87925 11.4976 7.70242 11.9678 8.24772C12.0097 8.29632 12.0551 8.34175 12.1037 8.38365C12.7249 8.93926 13.6644 8.93926 14.2855 8.38365C14.8307 7.90886 14.8879 7.08198 14.4131 6.53673C14.3736 6.49131 14.331 6.44865 14.2855 6.40909Z" fill="#12004C"/>
<path d="M12 0C5.37258 0 0 5.37258 0 12C0 18.6274 5.37258 24 12 24C18.6274 24 24 18.6274 24 12C24 5.37258 18.6274 0 12 0ZM12 22.9091C5.97506 22.9091 1.09092 18.0249 1.09092 12C1.09092 5.97506 5.97506 1.09092 12 1.09092C18.0249 1.09092 22.9091 5.97506 22.9091 12C22.9091 18.0249 18.0249 22.9091 12 22.9091Z" fill="#12004C"/>
</svg>
